<?xml version="1.0" encoding="UTF-8"?>
<svg width="20px" height="20px" viewBox="0 0 20 20" version="1.1" xmlns="http://www.w3.org/2000/svg" xmlns:xlink="http://www.w3.org/1999/xlink">
    <!-- Generator: Sketch 52.2 (67145) - http://www.bohemiancoding.com/sketch -->
    <title>icon-apply</title>
    <desc>Created with Sketch.</desc>
    <g id="Page-1" stroke="none" stroke-width="1" fill="none" fill-rule="evenodd">
        <g id="375-Apply-in-nav" transform="translate(-22.000000, -140.000000)" stroke="#BBBBBB" stroke-width="1.5">
            <g id="Navigation/Header/Mobile---375px/Open">
                <g id="Stacked-Group" transform="translate(0.000000, 60.000000)">
                    <g id="Overview-Copy" transform="translate(0.000000, 60.000000)">
                        <g id="icon-apply" transform="translate(20.000000, 18.000000)">
                            <g id="Group" transform="translate(3.000000, 3.000000)">
                                <polyline id="Shape" points="8.7533 0.007275 8.7533 4.007275 12.7533 4.007275"></polyline>
                                <path d="M12.7932421,16.5052197 C12.7932421,16.8326697 12.4878,17.25735 12.159675,17.25735 L0.593775,17.25735 C0.266325,17.25735 0.003375,16.984875 0.003375,16.657425 L0.003375,0.611475 C0.003375,0.284175 0.266325,0.007275 0.593775,0.007275 L9.7533,0.007275 C9.909,0.007275 9.981375,0.074325 10.092075,0.18345 L12.576375,2.634975 C12.6891,2.7462 12.7533,2.848725 12.7533,3.007275 L12.7533,4.75761414" id="Shape"></path>
                                <path d="M3,8 L7.508325,8" id="Shape"></path>
                                <path d="M3,11 L7.508325,11" id="Shape"></path>
                                <path d="M17.0988,12.705 C15.8826,12.206475 14.532525,11.5875 14.41905,11.201775 L14.41905,10.79715 C14.67135,10.5234 14.870325,10.141575 14.988075,9.694575 C15.2706,9.4842 15.341625,9.049725 15.107175,8.743875 L15.107175,7.838025 C15.107175,6.902925 14.616225,6.2628 13.493925,6.2628 C12.400575,6.2628 11.880075,6.902925 11.880075,7.838025 L11.880075,8.744175 C11.646,9.0498 11.71725,9.4839 11.999175,9.694425 C12.116925,10.141575 12.31605,10.5234 12.5685,10.79715 L12.5685,11.201775 C12.455325,11.58705 11.10495,12.206175 9.88875,12.705 C9.7851,12.747675 9.716475,12.854625 9.716475,12.974175 L9.716475,13.98615 C9.716475,14.145075 9.836325,14.274225 9.984075,14.274225 L17.0034,14.274225 C17.15115,14.274225 17.271,14.145075 17.271,13.98615 L17.271,12.974175 C17.271075,12.854625 17.20245,12.747375 17.0988,12.705 L17.0988,12.705 Z" id="Shape"></path>
                            </g>
                        </g>
                    </g>
                </g>
            </g>
        </g>
    </g>
</svg>