<svg xmlns="http://www.w3.org/2000/svg" xmlns:xlink="http://www.w3.org/1999/xlink" width="16" height="11" viewBox="0 0 16 11">
    <defs>
        <path id="a" d="M0 0h16v11H0z"/>
        <path id="c" d="M2.667 2.2L0 0h.381l2.667 1.833h.762L6.857 0v.034a.72.72 0 0 1-.275.522L4.19 2.2v.733l2.411 1.99c.142.116.101.21-.078.21h.287c-.184 0-.462-.088-.61-.189L3.81 3.3h-.762L0 5.133v-.366l2.667-1.834V2.2z"/>
        <linearGradient id="d" x1="50%" x2="50%" y1="0%" y2="100%">
            <stop offset="0%" stop-color="#FFF"/>
            <stop offset="100%" stop-color="#F0F0F0"/>
        </linearGradient>
        <linearGradient id="e" x1="50%" x2="50%" y1="0%" y2="100%">
            <stop offset="0%" stop-color="#FF2E3B"/>
            <stop offset="100%" stop-color="#FC0D1B"/>
        </linearGradient>
    </defs>
    <g fill="none" fill-rule="evenodd">
        <mask id="b" fill="#fff">
            <use xlink:href="#a"/>
        </mask>
        <use fill="#FFF" xlink:href="#a"/>
        <path fill="#0A17A7" d="M0 0h16v11H0z" mask="url(#b)"/>
        <g mask="url(#b)">
            <use fill="#FF2E3B" xlink:href="#c"/>
            <path stroke="#FFF" stroke-width=".667" d="M2.333 2.357l-3.26-2.69H.38l.189.058L3.15 1.5h.566L7.19-.59v.624c0 .292-.18.633-.42.797L4.525 2.375v.401l2.29 1.89c.296.244.253.586-.004.73v.07c-.05 0-.103-.004-.158-.012a.665.665 0 0 1-.13.013V5.43a1.575 1.575 0 0 1-.51-.211L3.706 3.633H3.14l-3.473 2.09V4.59l2.666-1.833v-.4z"/>
        </g>
        <path fill="url(#d)" d="M0 1.833V3.3h2.667v1.528c0 .371.293.672.672.672h.179a.676.676 0 0 0 .672-.672V3.3h2.372a.67.67 0 0 0 .676-.665v-.137a.67.67 0 0 0-.676-.665H4.19V0H2.667v1.833H0z" mask="url(#b)"/>
        <path fill="url(#e)" d="M0 2.2h3.048V0h.762v2.2h3.047v.733H3.81v2.2h-.762v-2.2H0z" mask="url(#b)"/>
        <path fill="#FFF" d="M3.429 8.983l-.672.34.128-.72-.543-.51.75-.105.337-.655.335.655.751.105-.543.51.128.72zM11.429 9.533l-.54.152.159-.518-.158-.519.539.152.538-.152-.157.519.157.518zM11.429 2.567l-.54.152.159-.519-.158-.519.539.152.538-.152-.157.519.157.519zM13.714 4.767l-.538.152.157-.519-.157-.519.538.152.539-.152-.158.519.158.519zM9.143 5.5l-.539.152.158-.519-.158-.518.539.152.539-.152-.158.518.158.519zM12.571 6.417l-.269.076.079-.26-.079-.259.27.076.269-.076-.08.26.08.259z" mask="url(#b)"/>
    </g>
</svg>
