<?xml version="1.0" encoding="UTF-8"?>
<svg viewBox="0 0 24 24" version="1.1" xmlns="http://www.w3.org/2000/svg" xmlns:xlink="http://www.w3.org/1999/xlink">
    <!-- Generator: Sketch 51.1 (57501) - http://www.bohemiancoding.com/sketch -->
    <title>Group 5</title>
    <desc>Created with Sketch.</desc>
    <defs></defs>
    <g id="1440-Web" stroke="none" stroke-width="1" fill="none" fill-rule="evenodd">
        <g id="(Sprint--1)-Landing-with-notification-on-click" transform="translate(-1049.000000, -28.000000)">
            <g id="Group-5" transform="translate(1049.000000, 28.000000)">
                <circle id="Oval-6" fill="#FFFFFF" cx="12" cy="12" r="12"></circle>
                <g id="Group" transform="translate(7.000000, 6.000000)" stroke="#bbbbbb">
                    <path d="M1.71604526,2.94507286 C1.81780617,5.34483519 0.573774164,6.86995742 0,7.44183749 C2.72314961,9.5180594 7.27331564,9.52071519 10,7.44183749 C9.42622584,6.86995742 8.18219383,5.34483519 8.28390495,2.94511945 C8.34409523,1.52608903 7.52308788,0.773848222 6.68709518,0.376318424 C5.63179879,-0.125439475 4.36820121,-0.125439475 3.31290482,0.376318424 C2.47686234,0.773801629 1.65585499,1.52604244 1.71604526,2.94507286 Z" id="Shape"></path>
                    <path d="M6,11 C6,11.551394 5.55134442,12 4.99986733,12 C4.44861136,12 4,11.551394 4,11" id="Shape"></path>
                </g>
            </g>
        </g>
    </g>
</svg>