<?xml version="1.0" encoding="UTF-8"?>
<svg viewBox="0 0 253 234" version="1.1" xmlns="http://www.w3.org/2000/svg" xmlns:xlink="http://www.w3.org/1999/xlink">
    <!-- Generator: Sketch 47.1 (45422) - http://www.bohemiancoding.com/sketch -->
    <title>Group 3</title>
    <desc>Created with Sketch.</desc>
    <defs></defs>
    <g id="Account--Debit-orders" stroke="none" stroke-width="1" fill="none" fill-rule="evenodd">
        <g id="1440-Decline-AC-3" transform="translate(-605.000000, -323.000000)">
            <g id="Group-3" transform="translate(605.000000, 323.000000)">
                <rect id="Rectangle-4-Copy" fill="#FFFFFF" x="72" y="1" width="7" height="25"></rect>
                <rect id="Rectangle-4-Copy" fill="#FFFFFF" x="46.5" y="85" width="22" height="20"></rect>
                <rect id="Rectangle-4-Copy" fill="#FFFFFF" x="46.5" y="175" width="22" height="20"></rect>
                <rect id="Rectangle-4-Copy" fill="#FFFFFF" x="10" y="175" width="22" height="20"></rect>
                <rect id="Rectangle-4-Copy" fill="#FFFFFF" x="83" y="175" width="22" height="20"></rect>
                <rect id="Rectangle-4-Copy" fill="#FFFFFF" x="119.5" y="175" width="22" height="20"></rect>
                <rect id="Rectangle-4-Copy" fill="#FFFFFF" x="156" y="175" width="22" height="20"></rect>
                <rect id="Rectangle-4-Copy" fill="#FFFFFF" x="90" y="87" width="22" height="20"></rect>
                <rect id="Rectangle-4-Copy" fill="#FFFFFF" x="53" y="87" width="22" height="20"></rect>
                <rect id="Rectangle-3" fill="#D8D8D8" x="0" y="15" width="188" height="193" rx="21"></rect>
                <rect id="Rectangle-4-Copy" fill="#FFFFFF" x="106" y="1" width="7" height="25"></rect>
                <rect id="Rectangle-4-Copy" fill="#FFFFFF" x="74" y="0" width="7" height="25"></rect>
                <rect id="Rectangle-4-Copy" fill="#FFFFFF" x="46.5" y="175" width="22" height="20"></rect>
                <rect id="Rectangle-4-Copy" fill="#FFFFFF" x="10" y="175" width="22" height="20"></rect>
                <rect id="Rectangle-4-Copy" fill="#FFFFFF" x="83" y="175" width="22" height="20"></rect>
                <rect id="Rectangle-4-Copy" fill="#FFFFFF" x="119.5" y="175" width="22" height="20"></rect>
                <rect id="Rectangle-4-Copy" fill="#FFFFFF" x="156" y="175" width="22" height="20"></rect>
                <rect id="Rectangle-4-Copy" fill="#FFFFFF" x="46.5" y="145" width="22" height="20"></rect>
                <rect id="Rectangle-4-Copy" fill="#FFFFFF" x="10" y="145" width="22" height="20"></rect>
                <rect id="Rectangle-4-Copy" fill="#FFFFFF" x="83" y="145" width="22" height="20"></rect>
                <rect id="Rectangle-4-Copy" fill="#FFFFFF" x="119.5" y="145" width="22" height="20"></rect>
                <rect id="Rectangle-4-Copy" fill="#FFFFFF" x="156" y="145" width="22" height="20"></rect>
                <rect id="Rectangle-4-Copy" fill="#FFFFFF" x="46.5" y="85" width="22" height="20"></rect>
                <rect id="Rectangle-4" fill="#FFFFFF" x="0" y="67" width="188" height="8"></rect>
                <rect id="Rectangle-4-Copy" fill="#FFFFFF" x="10" y="85" width="22" height="20"></rect>
                <rect id="Rectangle-4-Copy" fill="#FFFFFF" x="46.5" y="115" width="22" height="20"></rect>
                <rect id="Rectangle-4-Copy" fill="#FFFFFF" x="10" y="115" width="22" height="20"></rect>
                <rect id="Rectangle-4-Copy" fill="#FFFFFF" x="83" y="115" width="22" height="20"></rect>
                <rect id="Rectangle-4-Copy" fill="#FFFFFF" x="119.5" y="115" width="22" height="20"></rect>
                <rect id="Rectangle-4-Copy" fill="#FFFFFF" x="156" y="115" width="22" height="20"></rect>
                <rect id="Rectangle-4-Copy" fill="#FFFFFF" x="83" y="85" width="22" height="20"></rect>
                <rect id="Rectangle-4-Copy" fill="#FFFFFF" x="119.5" y="85" width="22" height="20"></rect>
                <rect id="Rectangle-4-Copy" fill="#FFFFFF" x="156" y="85" width="22" height="20"></rect>
                <g id="Group-2" transform="translate(142.000000, 129.000000)">
                    <rect id="Rectangle-path" x="0" y="1" width="113" height="108"></rect>
                    <circle id="Oval-2" fill="#D8D8D8" cx="57.5" cy="51.5" r="51.5"></circle>
                    <g id="Group" transform="translate(5.000000, 0.000000)" stroke="#FFFFFF" stroke-width="2">
                        <polyline id="Shape" points="78 54 50 54 50 13"></polyline>
                        <ellipse id="Oval" cx="52.5" cy="52" rx="52.5" ry="52"></ellipse>
                    </g>
                </g>
            </g>
        </g>
    </g>
</svg>