<?xml version="1.0" encoding="UTF-8"?>
<svg width="48px" height="48px" viewBox="0 0 48 48" version="1.1" xmlns="http://www.w3.org/2000/svg" xmlns:xlink="http://www.w3.org/1999/xlink">
    <!-- Generator: Sketch 46.2 (44496) - http://www.bohemiancoding.com/sketch -->
    <title>icons/CardPIN</title>
    <desc>Created with Sketch.</desc>
    <defs></defs>
    <g id="Page-1" stroke="none" stroke-width="1" fill="none" fill-rule="evenodd">
        <g id="001-Desktop-HD-NB-ID-Copy-23" transform="translate(-738.000000, -580.000000)" stroke="#4A4A4A">
            <g id="Register-options" transform="translate(729.000000, 514.000000)">
                <g id="icons/Bankcard&amp;pin_unselected" transform="translate(9.000000, 66.000000)">
                    <g id="Circle">
                        <circle cx="24" cy="24" r="23.5"></circle>
                    </g>
                    <g id="Bank-account" transform="translate(11.505882, 13.800000)" stroke-linecap="square">
                        <path d="M0.549019608,4.94117647 L24.7058824,4.94117647" id="Shape"></path>
                        <path d="M0.549019608,9.33333333 L24.7058824,9.33333333" id="Shape"></path>
                        <path d="M22.5098039,20.3137255 L2.74509804,20.3137255 C1.53176471,20.3137255 0.549019608,19.3309804 0.549019608,18.1176471 L0.549019608,2.74509804 C0.549019608,1.53176471 1.53176471,0.549019608 2.74509804,0.549019608 L17.0196078,0.549019608 L22.5098039,0.549019608 C23.7231373,0.549019608 24.7058824,1.53176471 24.7058824,2.74509804 L24.7058824,18.1176471 C24.7058824,19.3309804 23.7231373,20.3137255 22.5098039,20.3137255 Z" id="Shape"></path>
                        <path d="M4.94117647,14.8235294 L10.4313725,14.8235294" id="Shape"></path>
                        <path d="M19.2156863,14.8235294 L20.3137255,14.8235294" id="Shape"></path>
                    </g>
                </g>
            </g>
        </g>
    </g>
</svg>