<?xml version="1.0" encoding="UTF-8"?>
<svg viewBox="0 0 20 20" version="1.1" xmlns="http://www.w3.org/2000/svg" xmlns:xlink="http://www.w3.org/1999/xlink">
    <!-- Generator: Sketch 49.3 (51167) - http://www.bohemiancoding.com/sketch -->
    <title>thin-0306_chat_message_discussion_bubble_conversation</title>
    <desc>Created with Sketch.</desc>
    <defs></defs>
    <g id="Android-Chat" stroke="none" stroke-width="1" fill="none" fill-rule="evenodd">
        <g id="Pre-Login-Android" transform="translate(-313.000000, -32.000000)" stroke="#FFFFFF" stroke-width="2">
            <g id="thin-0306_chat_message_discussion_bubble_conversation" transform="translate(314.000000, 33.000000)">
                <g id="Group" transform="translate(0.000000, 0.450000)">
                    <path d="M14.9633,0.45 L3.1288,0.45 C1.4537,0.45 0,1.93631948 0,3.7698326 L0,9.24039208 C0,11.0739052 1.4537,12.5742226 3.1288,12.5742226 L4,12.5742226 L4,15.8239552 C4,16.5389537 4.6528,16.9176703 5.1317,16.4313788 L8.8112,12.5742226 L14.9633,12.5742226 C16.6384,12.5742226 18,11.073795 18,9.24039208 L18,3.7698326 C18,1.93631948 16.6384,0.45 14.9633,0.45 L14.9633,0.45 Z" id="Shape"></path>
                    <path d="M3,4.5 L15,4.5" id="Shape"></path>
                    <path d="M3,8.5 L13,8.5" id="Shape"></path>
                </g>
            </g>
        </g>
    </g>
</svg>