<?xml version="1.0" encoding="UTF-8"?>
<svg width="60px" height="60px" viewBox="0 0 60 60" version="1.1" xmlns="http://www.w3.org/2000/svg" xmlns:xlink="http://www.w3.org/1999/xlink">
    <!-- Generator: Sketch 49.3 (51167) - http://www.bohemiancoding.com/sketch -->
    <title>Group 3</title>
    <desc>Created with Sketch.</desc>
    <defs></defs>
    <g id="Concierge-flows-" stroke="none" stroke-width="1" fill="none" fill-rule="evenodd">
        <g id="1.1" transform="translate(-1380.000000, -482.000000)">
            <g id="Group-3" transform="translate(1380.000000, 482.000000)">
                <rect id="Rectangle-13" fill="#009639" x="0" y="0" width="60" height="60"></rect>
                <g id="thin-0306_chat_message_discussion_bubble_conversation" transform="translate(12.000000, 12.000000)">
                    <g id="Group" transform="translate(0.000000, 3.000000)" stroke="#FFFFFF" stroke-width="2">
                        <path d="M23.19495,8.25 L5.4432,8.25 C2.93055,8.25 0.75,10.27275 0.75,12.768 L0.75,20.21295 C0.75,22.7082 2.93055,24.75 5.4432,24.75 L6.75,24.75 L6.75,29.1726 C6.75,30.14565 7.7292,30.66105 8.44755,29.99925 L13.9668,24.75 L23.19495,24.75 C25.7076,24.75 27.75,22.70805 27.75,20.21295 L27.75,12.768 C27.75,10.27275 25.7076,8.25 23.19495,8.25 L23.19495,8.25 Z" id="Shape"></path>
                        <path d="M31.04955,15.75435 C33.3504,15.4944 35.25,13.5444 35.25,11.1738 L35.25,5.3622 C35.25,2.81505 32.9631,0.75 30.4158,0.75 L15.6369,0.75 C13.23855,0.75 11.5026,2.5833 11.28075,4.9233" id="Shape"></path>
                        <path d="M6.77535,18.75 L21.64695,18.75" id="Shape"></path>
                        <path d="M6.77535,14.25 L21.64695,14.25" id="Shape"></path>
                    </g>
                    <rect id="Rectangle-path" x="0" y="0" width="36" height="36"></rect>
                </g>
            </g>
        </g>
    </g>
</svg>