<svg xmlns="http://www.w3.org/2000/svg" width="33" height="31" viewBox="0 0 33 31">
    <g fill="none" fill-rule="evenodd" transform="translate(1 2)">
        <g stroke="#4A4A4A" stroke-width="2">
            <path d="M20.782 5.24H4.346C2.019 5.24 0 7.29 0 9.818v7.542c0 2.527 2.019 4.596 4.346 4.596h1.21v4.48c0 .985.906 1.507 1.571.837l5.11-5.317h8.545c2.327 0 4.218-2.069 4.218-4.596V9.817c0-2.527-1.891-4.576-4.218-4.576zM4.167 10.824h16.666M4.167 16.338h13.889"/>
        </g>
        <circle cx="26" cy="4" r="5" fill="#FFF" stroke="#FFF" stroke-width="2"/>
        <g fill="#F00">
            <path d="M22.687 6.38L28.143.529l1.17 1.091-5.456 5.851z"/>
            <path d="M28.203 7.433l-5.557-5.755 1.15-1.111 5.558 5.755z"/>
        </g>
    </g>
</svg>
