<?xml version="1.0" encoding="UTF-8"?>
<svg width="25px" height="24px" viewBox="0 0 25 24" version="1.1" xmlns="http://www.w3.org/2000/svg" xmlns:xlink="http://www.w3.org/1999/xlink">
    <!-- Generator: Sketch 50 (54983) - http://www.bohemiancoding.com/sketch -->
    <title>Group 7@3x</title>
    <desc>Created with Sketch.</desc>
    <defs></defs>
    <g id="IOS" stroke="none" stroke-width="1" fill="none" fill-rule="evenodd">
        <g id="06_Client-is-in-queue_IOS" transform="translate(-328.000000, -30.000000)">
            <g id="Group-7" transform="translate(328.000000, 30.000000)">
                <g id="chat-icon" transform="translate(0.000000, 4.000000)">
                    <polygon id="Shape" points="14 11 4 11 4 9 14 9"></polygon>
                    <path d="M18,10.7 C18,12 17.1,13 16,13 L9.4,13 L6,16.6 L6,13 L4.1,13 C3,13 2,12 2,10.7 L2,5.2 C2,4 3,2.9 4.1,2.9 L13.6,2.9 C13.3,2.3 13.1,1.6 13,0.9 L4.1,0.9 C1.9,0.9 0,2.9 0,5.2 L0,10.7 C0,13 1.8,14.9 4,15 L4,17.3 C4,18 4.4,18.7 5.1,19 C5.3,19.1 5.5,19.1 5.7,19.1 C6.1,19.1 6.6,18.9 6.9,18.6 L10.3,15.1 L16,15.1 C18.2,15.1 20,13.2 20,10.8 L20,7 C19.3,7 18.6,6.9 18,6.7 L18,10.7 Z" id="Shape" fill="#4A4A4A" fill-rule="nonzero"></path>
                    <path d="M4,6.9 L16,6.9 L16,5.7 C15.7,5.5 15.3,5.2 15.1,4.9 L4,4.9 L4,6.9 Z" id="Shape" fill="#4A4A4A" fill-rule="nonzero"></path>
                    <rect id="Rectangle-path" fill="#4A4A4A" fill-rule="nonzero" x="4" y="9" width="10" height="2"></rect>
                </g>
                <g id="Group-5" transform="translate(16.000000, 0.000000)" fill="#FF0000">
                    <rect id="Rectangle-14" transform="translate(4.500000, 4.000000) rotate(-47.000000) translate(-4.500000, -4.000000) " x="0" y="3" width="9" height="2"></rect>
                    <rect id="Rectangle-14-Copy" transform="translate(4.500000, 4.000000) rotate(-134.000000) translate(-4.500000, -4.000000) " x="0" y="3" width="29" height="2"></rect>
                </g>
            </g>
        </g>
    </g>
</svg>