<?xml version="1.0" encoding="UTF-8"?>
<svg viewBox="0 0 49 46" version="1.1" xmlns="http://www.w3.org/2000/svg" xmlns:xlink="http://www.w3.org/1999/xlink">
    <!-- Generator: Sketch 48.2 (47327) - http://www.bohemiancoding.com/sketch -->
    <title>Club Acc Icn</title>
    <desc>Created with Sketch.</desc>
    <defs></defs>
    <g id="1440---Club_Accounts---Overview" stroke="none" stroke-width="1" fill="none" fill-rule="evenodd" transform="translate(-100.000000, -184.000000)">
        <g id="Club-Acc-Icn" transform="translate(100.000000, 184.000000)">
            <rect id="Rectangle" x="0" y="0" width="49" height="46"></rect>
            <g id="Group-12" transform="translate(10.000000, 10.000000)" stroke="#00B2A9">
                <g id="Group" transform="translate(0.000000, 18.000000)">
                    <path d="M4.95125217,1.85353043 C8.29213913,1.31057391 11.6794087,1.52142609 12.7465739,1.83453913 L19.4792348,3.81024348 C21.3994261,4.37353043 20.5490783,7.28833043 18.6294957,6.72455652 L11.556087,4.64878261" id="Shape"></path>
                    <path d="M20.4407304,4.65925217 L25.6864696,2.26793043 C27.5898609,1.40029565 28.7875304,4.18970435 26.9854261,5.01107826 L19.8621043,8.25822609 C18.6445913,8.81323478 13.8082609,9.2161913 8.44017391,6.81646957 C7.51775652,6.40426087 5.95097391,6.93966957 4.95125217,7.19617391" id="Shape"></path>
                    <rect id="Rectangle-path" x="0.0590434783" y="0.438434783" width="4.86956522" height="8.52173913"></rect>
                </g>
                <g id="Group-Copy" transform="translate(16.000000, 4.500000) rotate(180.000000) translate(-16.000000, -4.500000) translate(2.000000, 0.000000)">
                    <path d="M4.95125217,1.85353043 C8.29213913,1.31057391 11.6794087,1.52142609 12.7465739,1.83453913 L19.4792348,3.81024348 C21.3994261,4.37353043 20.5490783,7.28833043 18.6294957,6.72455652 L11.556087,4.64878261" id="Shape"></path>
                    <path d="M20.4407304,4.65925217 L25.6864696,2.26793043 C27.5898609,1.40029565 28.7875304,4.18970435 26.9854261,5.01107826 L19.8621043,8.25822609 C18.6445913,8.81323478 13.8082609,9.2161913 8.44017391,6.81646957 C7.51775652,6.40426087 5.95097391,6.93966957 4.95125217,7.19617391" id="Shape"></path>
                    <rect id="Rectangle-path" x="0.0590434783" y="0.438434783" width="4.86956522" height="8.52173913"></rect>
                </g>
                <g id="thin-0427_money_payment_dollar_coins_chips" transform="translate(10.000000, 7.000000)">
                    <g id="Group">
                        <path d="M0.0303230769,4.89053333 C0.0303230769,5.9248 1.89941538,6.76333333 4.20466154,6.76333333 C6.5106,6.76333333 8.37955385,5.9248 8.37955385,4.89053333" id="Shape"></path>
                        <path d="M0.0303230769,7.24186667 C0.0303230769,8.27613333 1.89941538,9.11466667 4.20466154,9.11466667 C6.5106,9.11466667 8.37955385,8.27613333 8.37955385,7.24186667" id="Shape"></path>
                        <path d="M8.37955385,2.5392 L8.37955385,9.59306667 C8.37955385,10.6273333 6.5106,11.4658667 4.20466154,11.4658667 C1.89941538,11.4658667 0.0303230769,10.6273333 0.0303230769,9.59306667 L0.0303230769,2.5392" id="Shape"></path>
                        <ellipse id="Oval" cx="4.20493846" cy="2.5392" rx="4.17461538" ry="1.87293333"></ellipse>
                    </g>
                </g>
            </g>
        </g>
    </g>
</svg>