<?xml version="1.0" encoding="UTF-8"?>
<svg width="65px" height="65px" viewBox="0 0 65 65" version="1.1" xmlns="http://www.w3.org/2000/svg" xmlns:xlink="http://www.w3.org/1999/xlink">
    <!-- Generator: Sketch 47.1 (45422) - http://www.bohemiancoding.com/sketch -->
    <title>Complaint</title>
    <desc>Created with Sketch.</desc>
    <defs></defs>
    <g id="Feedback" stroke="none" stroke-width="1" fill="none" fill-rule="evenodd">
        <g id="Artboard" transform="translate(-72.000000, -448.000000)">
            <g id="Complaint" transform="translate(72.000000, 448.000000)">
                <path d="M65,32.1039305 C65,49.8343958 50.450517,64.2073171 32.4997159,64.2073171 C14.549483,64.2073171 0,49.8343958 0,32.1039305 C0,14.3723773 14.549483,0 32.4997159,0 C50.450517,0 65,14.3723773 65,32.1039305" id="Fill-1" fill="#F69526"></path>
                <path d="M23.0379747,33.084813 C23.0379747,35.7097056 21.5649742,37.8414634 19.7468354,37.8414634 C17.9303776,37.8414634 16.4556962,35.7097056 16.4556962,33.084813 C16.4556962,30.4582619 17.9303776,28.3292683 19.7468354,28.3292683 C21.5649742,28.3292683 23.0379747,30.4582619 23.0379747,33.084813" id="Fill-7" fill="#000000"></path>
                <path d="M47.721519,33.084813 C47.721519,35.7097056 46.2493294,37.8414634 44.4309399,37.8414634 C42.6136709,37.8414634 41.1392405,35.7097056 41.1392405,33.084813 C41.1392405,30.4582619 42.6136709,28.3292683 44.4309399,28.3292683 C46.2493294,28.3292683 47.721519,30.4582619 47.721519,33.084813" id="Fill-13" fill="#000000"></path>
                <path d="M37.8966647,50.5347281 C36.5709834,49.2409799 34.7591082,48.4857319 32.7960588,48.4071188 C30.619815,48.3071677 28.5515528,49.0899303 27.1167824,50.5223746 C26.5408808,51.0968123 25.6299594,51.0737898 25.0811916,50.4723991 C24.5329775,49.8710083 24.5540201,48.9169813 25.129368,48.3431052 C27.12232,46.3530689 29.9608506,45.2811222 32.9079166,45.3990419 C35.5592793,45.5034851 38.0284576,46.5456712 39.8586066,48.3307517 C40.4405996,48.897328 40.4716096,49.851355 39.9294868,50.4589225 C39.6476273,50.7773059 39.2622162,50.9390244 38.8773588,50.9390244 C38.5257265,50.9390244 38.1735405,50.8048205 37.8966647,50.5347281 Z" id="Fill-35" fill="#000000"></path>
            </g>
        </g>
    </g>
</svg>