<?xml version="1.0" encoding="UTF-8"?>
<svg width="65px" height="64px" viewBox="0 0 65 64" version="1.1" xmlns="http://www.w3.org/2000/svg" xmlns:xlink="http://www.w3.org/1999/xlink">
    <!-- Generator: Sketch 47.1 (45422) - http://www.bohemiancoding.com/sketch -->
    <title>Complimentgrey</title>
    <desc>Created with Sketch.</desc>
    <defs></defs>
    <g id="Feedback" stroke="none" stroke-width="1" fill="none" fill-rule="evenodd">
        <g id="Complimentgrey">
            <path d="M64.6677529,32.2442654 C64.6677529,49.6512196 50.1921782,63.7607346 32.3336149,63.7607346 C14.4750517,63.7607346 0.000224137931,49.6512196 0.000224137931,32.2442654 C0.000224137931,14.8380394 14.4750517,0.728524328 32.3336149,0.728524328 C50.1921782,0.728524328 64.6677529,14.8380394 64.6677529,32.2442654" id="Fill-1" fill="#EBEBEB"></path>
            <path d="M53.7089023,28.1813804 C54.0413736,28.383101 54.4836724,28.1537076 54.4836724,27.7699288 L54.4836724,27.7604617 C54.4836724,25.4614301 52.572523,23.5971535 50.2130977,23.5971535 C47.8544195,23.5971535 45.942523,25.4614301 45.942523,27.7604617 L45.942523,27.7699288 C45.942523,28.1537076 46.3848218,28.383101 46.7202816,28.1813804 C47.7356264,27.5696647 48.9310287,27.2164717 50.2130977,27.2164717 C51.4951667,27.2164717 52.6913161,27.5696647 53.7089023,28.1813804" id="Fill-4" fill="#000000"></path>
            <path d="M17.947546,28.1813804 C18.2815115,28.383101 18.7230632,28.1537076 18.7253046,27.7699288 L18.7253046,27.7604617 C18.7253046,25.4614301 16.8119138,23.5971535 14.4517414,23.5971535 C12.0930632,23.5971535 10.1811667,25.4614301 10.1811667,27.7604617 L10.1811667,27.7699288 C10.1819138,28.1537076 10.6234655,28.383101 10.9589253,28.1813804 C11.9742701,27.5696647 13.1696724,27.2164717 14.4517414,27.2164717 C15.7353046,27.2164717 16.931454,27.5696647 17.947546,28.1813804" id="Fill-6" fill="#000000"></path>
            <path d="M15.8002299,37.0189981 C14.7677011,37.3598111 14.1789655,38.4565301 14.5801724,39.4461988 C16.9896552,45.3856674 24.0470115,50.3893566 32.3341379,50.3893566 C40.6182759,50.3893566 47.6778736,45.3856674 50.0873563,39.4461988 C50.4863218,38.4565301 49.8990805,37.3598111 48.8672989,37.0189981 C38.8797126,33.7259283 25.787069,33.7259283 15.8002299,37.0189981" id="Fill-8" fill="#000000"></path>
            <path d="M23.4407931,48.3567854 C26.0871149,49.6282802 29.1159655,50.390012 32.3338391,50.390012 C35.5509655,50.390012 38.5775747,49.6282802 41.2268851,48.3567854 C38.7755632,46.5573215 35.6936667,45.4751673 32.3338391,45.4751673 C28.9740115,45.4751673 25.8898736,46.5573215 23.4407931,48.3567854" id="Fill-10" fill="#EBEBEB"></path>
        </g>
    </g>
</svg>