<?xml version="1.0" encoding="UTF-8"?>
<svg viewBox="0 0 63 73" version="1.1" xmlns="http://www.w3.org/2000/svg" xmlns:xlink="http://www.w3.org/1999/xlink">
    <!-- Generator: Sketch 49.3 (51167) - http://www.bohemiancoding.com/sketch -->
    <title>Group</title>
    <desc>Created with Sketch.</desc>
    <defs></defs>
    <g id="Request-building-loan-payment" stroke="none" stroke-width="1" fill="none" fill-rule="evenodd">
        <g id="1440---Building_Loan---Stepper_Done_Progress" transform="translate(-539.000000, -385.000000)" stroke="#009639" stroke-width="2">
            <g id="Group" transform="translate(540.000000, 386.000000)">
                <path d="M16.5396875,38.588125 C17.6175,42.4471875 19.620625,44.769375 21.93125,47.131875 L21.93125,50.6240625 C20.895625,53.9490625 12.7096875,59.2921875 1.576875,63.5971875 C0.628125,63.965625 0,64.8884375 0,65.9203125 L0,67.694375 C0,69.0659375 1.096875,70.180625 2.449375,70.180625 L58.3525,70.180625 C59.705,70.180625 60.801875,69.0659375 60.801875,67.694375 L60.801875,65.9203125 C60.801875,64.88875 60.17375,63.963125 59.225,63.5971875 C48.0921875,59.295 39.9090625,53.9528125 38.870625,50.6240625 L38.870625,47.131875 C41.18,44.769375 43.2446875,42.4459375 44.3225,38.588125 L44.3225,21.258125 C44.3225,13.188125 40.6759375,8 30.4021875,8 C20.39375,8 16.539375,13.1878125 16.539375,21.258125 L16.539375,38.588125 L16.5396875,38.588125 Z" id="Shape"></path>
                <path d="M49.369375,40 C49.369375,48.4728125 43.47375,49.855 34,50.0309375" id="Shape"></path>
                <path d="M17.2296875,39.33 L14.4378125,39.33 C12.5390625,39.33 11,37.7909375 11,35.8921875 L11,25.4378125 C11,23.5390625 12.5390625,22 14.4378125,22 L17.23,22" id="Shape"></path>
                <path d="M45,22 L47.7921875,22 C49.6909375,22 51.23,23.5390625 51.23,25.4378125 L51.23,35.8925 C51.23,37.79125 49.6909375,39.3303125 47.7921875,39.3303125 L45,39.3303125" id="Shape"></path>
                <path d="M14,21.43625 L14,16.563125 C14,7.415625 21.415625,0 30.563125,0 C39.710625,0 47.12625,7.415625 47.12625,16.563125 L47.12625,21.43625" id="Shape"></path>
                <circle id="Oval" cx="32.5140625" cy="48.5140625" r="2.5140625"></circle>
            </g>
        </g>
    </g>
</svg>