<svg xmlns="http://www.w3.org/2000/svg" viewBox="0 0 67 53">
    <g fill="none" fill-rule="evenodd">
        <path stroke="#BBB" stroke-width="2" d="M33.35 41h15"/>
        <path fill="#BBB" fill-rule="nonzero" d="M57.38 25.39v22.57a2.28 2.28 0 0 1-2.28 2.28H4.28A2.28 2.28 0 0 1 2 47.96V14.84a2.28 2.28 0 0 1 2.28-2.28h36.6v-.24a14.58 14.58 0 0 1 .12-1.76H4.28A4.28 4.28 0 0 0 0 14.84v33.12a4.27 4.27 0 0 0 4.28 4.28H55.1a4.52 4.52 0 0 0 4.28-3.28v-24.2a13.3 13.3 0 0 1-2 .63z"/>
        <path fill="#BBB" fill-rule="nonzero" d="M57.38 25.39v2.52H2v-7.84h41.33a13.7 13.7 0 0 1-1.16-2H0v11.84h59.38v-5.15a13.3 13.3 0 0 1-2 .63z"/>
        <g stroke="#009639" stroke-width="2" transform="translate(42 1)">
            <circle cx="12.32" cy="11.34" r="11.34"/>
            <path d="M7.4 11.68l3.31 4.14 7.12-8.91"/>
        </g>
    </g>
</svg>
