<svg xmlns="http://www.w3.org/2000/svg" viewBox="0 0 28 35">
    <g fill="none" fill-rule="evenodd" stroke="#BBB">
        <path d="M22.123 1v5.052h5.161"/>
        <path d="M27.284 29.035a1.02 1.02 0 0 1-1.021 1.01h-19.9a1.016 1.016 0 0 1-1.016-1.01V2.017C5.347 1.467 5.8 1 6.363 1h15.76c.267 0 .392.113.582.297l4.275 4.127a1 1 0 0 1 .304.716v22.895zM22.162 24.15H10.486M22.162 19.809H10.486M22.162 15.468H10.486M17.784 11.128h-7.298"/>
        <path d="M4.248 3.17c-.585 0-1.059.47-1.059 1.05v26.9c0 .58.474 1.05 1.06 1.05h21.3c.584 0 1.059-.47 1.059-1.05"/>
        <path d="M2.06 5.34C1.473 5.34 1 5.81 1 6.39V33.29c0 .58.474 1.05 1.06 1.05h21.3c.584 0 1.058-.47 1.058-1.05"/>
    </g>
</svg>
