<svg xmlns="http://www.w3.org/2000/svg" viewBox="0 0 30 26">
    <g fill="none" fill-rule="evenodd">
        <g stroke="#BBB">
            <path d="M26.121 2.825l-9.908 8.91a2.037 2.037 0 0 1-2.688 0l-9.909-8.91M9.63 12.032l-6.638 5.521"/>
            <path d="M27.504 19.733c1.124-.345 1.87-1.28 1.87-2.381v-13.7c0-1.395-1.29-2.527-2.936-2.527H3.553C1.906 1.125.625 2.257.625 3.652v13.7c0 1.394 1.281 2.523 2.928 2.523h8.29"/>
            <path d="M21.929 20.01v-1.497s.153-2.93-3.638-1.589"/>
            <path d="M21.929 18.953s-4.33-1.21-4.059 1.264c.268 2.45 3.925 1.193 4.059-.208 0 0-.138 1.598 1.335 1.598 1.472 0 2.33-1.47 2.172-3.116-.31-2.71-2.627-4.813-5.44-4.813-3.023 0-5.474 2.431-5.474 5.43 0 3 2.45 5.432 5.474 5.432 1.21 0 2.328-.39 3.235-1.049"/>
        </g>
        <path d="M0-2h30v30H0z"/>
    </g>
</svg>
