<?xml version="1.0" encoding="UTF-8"?>
<svg viewBox="0 0 754 129" version="1.1" xmlns="http://www.w3.org/2000/svg" xmlns:xlink="http://www.w3.org/1999/xlink">
    <!-- Generator: Sketch 47.1 (45422) - http://www.bohemiancoding.com/sketch -->
    <title>emptystategraph</title>
    <desc>Created with Sketch.</desc>
    <defs></defs>
    <g id="Account-Graph-and-transactions-Empty-States" stroke="none" stroke-width="1" fill="none" fill-rule="evenodd">
        <g id="1440-No-graph-and-transactions-exists" transform="translate(-555.000000, -307.000000)">
            <g id="emptystategraph" transform="translate(554.000000, 307.000000)">
                <polyline id="Path-6" stroke="#AAAAAA" opacity="0.299999982" points="2.21568969 94.4417384 42.3159732 65.1492516 82.652412 64.9167862 124.582899 51.5149707 163.659228 65.1861508 204.5879 42.5779671 231.278988 48.8231688 258.515678 63.8237599 290.97094 76.2005834 329.350373 71.4656813 396.793807 63.8237599 450.129524 50.1260112 472.412379 36.5708297 489.739937 24.8165027 505.121675 15.4876274 605.968953 45.0889625 628.326221 52.5020262 652.48233 59.6014461 677.374578 65.5256241 723.485753 42.7421688 753.193357 33.2996452"></polyline>
                <path d="M1.27272727,95.5 L754.731572,95.5" id="Line-2-Copy-3" stroke="#BBBBBB" opacity="0.399999976" stroke-linecap="square" stroke-dasharray="3,4"></path>
                <path d="M1.27272727,64.5 L754.731572,64.5" id="Line-2-Copy-3" stroke="#BBBBBB" opacity="0.399999976" stroke-linecap="square" stroke-dasharray="3,4"></path>
                <path d="M1.27272727,32.5 L754.731572,32.5" id="Line-2-Copy-3" stroke="#BBBBBB" opacity="0.399999976" stroke-linecap="square" stroke-dasharray="3,4"></path>
                <path d="M1.27272727,0.5 L754.731572,0.5" id="Line-2-Copy-13" stroke="#BBBBBB" opacity="0.399999976" stroke-linecap="square" stroke-dasharray="3,4"></path>
                <path d="M2.7004742,127.5 L755.826193,128" id="Line-2-Copy-3" stroke="#BBBBBB" opacity="0.399999976" stroke-linecap="square" stroke-dasharray="3,4"></path>
            </g>
        </g>
    </g>
</svg>