<svg xmlns="http://www.w3.org/2000/svg" xmlns:xlink="http://www.w3.org/1999/xlink" width="22" height="19" viewBox="0 0 22 19">
    <defs>
        <path id="a" d="M11.25 6.75a.75.75 0 1 1 1.5 0v7.5a.75.75 0 1 1-1.5 0v-7.5zM12 18.075a.825.825 0 1 1 0-1.65.825.825 0 0 1 0 1.65zm1.262-12.966a1.5 1.5 0 0 0-2.525 0L2.987 17.19A1.5 1.5 0 0 0 4.25 19.5h15.5a1.5 1.5 0 0 0 1.262-2.31L13.262 5.11zm1.263-.81l7.75 12.081A3 3 0 0 1 19.75 21H4.25a3 3 0 0 1-2.525-4.62L9.475 4.3a3 3 0 0 1 5.05 0z"/>
    </defs>
    <g fill="none" fill-rule="evenodd" transform="translate(-1 -2)">
        <mask id="b" fill="#fff">
            <use xlink:href="#a"/>
        </mask>
        <use fill="#000" fill-rule="nonzero" xlink:href="#a"/>
        <g fill="#333" fill-opacity="0" mask="url(#b)">
            <path d="M0 0h24v24H0z"/>
        </g>
        <g fill="#F2A900" mask="url(#b)">
            <path d="M0 0h24v24H0z"/>
        </g>
    </g>
</svg>
