<svg xmlns="http://www.w3.org/2000/svg" xmlns:xlink="http://www.w3.org/1999/xlink" width="16" height="11" viewBox="0 0 16 11">
    <defs>
        <path id="a" d="M0 0h16v11H0z"/>
    </defs>
    <g fill="none" fill-rule="evenodd">
        <mask id="b" fill="#fff">
            <use xlink:href="#a"/>
        </mask>
        <use fill="#FFF" xlink:href="#a"/>
        <path fill="#043CAE" d="M0 0h16v11H0z" mask="url(#b)"/>
        <path fill="#FFD429" d="M8 2.2l-.539.152.158-.519-.158-.518.539.152.539-.152-.158.518.158.519L8 2.2zm0 7.333l-.539.152.158-.518-.158-.519L8 8.8l.539-.152-.158.519.158.518L8 9.533zm3.81-3.666l-.54.152.159-.519-.158-.519.539.152.538-.152-.158.519.158.519-.538-.152zm-7.62 0l-.538.152.158-.519-.158-.519.538.152.54-.152-.159.519.158.519-.539-.152zm7.11-1.834l-.54.152.158-.518-.158-.519.54.152.538-.152-.158.519.158.518-.539-.152zM4.7 7.7l-.538.152.158-.519-.158-.518.539.152.539-.152-.158.518.158.519L4.7 7.7zm5.205-5.009l-.539.152.158-.518-.158-.519.539.152.539-.152-.158.519.158.518-.54-.152zm-3.81 6.351l-.539.152.158-.519-.158-.518.54.152.538-.152-.158.518.158.519-.539-.152zM11.3 7.7l-.539.152.158-.519-.158-.518.54.152.538-.152-.158.518.158.519-.539-.152zM4.701 4.033l-.539.152.158-.518-.158-.519.539.152.539-.152-.158.519.158.518-.54-.152zm5.204 5.01l-.539.151.158-.519-.158-.518.539.152.539-.152-.158.518.158.519-.54-.152zM6.095 2.69l-.539.152.158-.518-.158-.519.54.152.538-.152-.158.519.158.518-.539-.152z" mask="url(#b)"/>
    </g>
</svg>
