<?xml version="1.0" encoding="UTF-8"?>
<svg width="36px" height="36px" viewBox="0 0 36 36" version="1.1" xmlns="http://www.w3.org/2000/svg" xmlns:xlink="http://www.w3.org/1999/xlink">
    <!-- Generator: Sketch 46.2 (44496) - http://www.bohemiancoding.com/sketch -->
    <title>Dashboard/account/section title/everyday</title>
    <desc>Created with Sketch.</desc>
    <defs></defs>
    <g id="Symbols" stroke="none" stroke-width="1" fill="none" fill-rule="evenodd">
        <g id="Dashboard/account/section-title/everyday" stroke="#009639">
            <g id="Group-8" transform="translate(3.000000, 6.000000)">
                <path d="M29.5,23.5 L29.5,3 C29.5,1.61928813 28.3807119,0.5 27,0.5 L3,0.5 C1.61928813,0.5 0.5,1.61928813 0.5,3 L0.5,21 C0.5,22.3807119 1.61928813,23.5 3,23.5 L29.5,23.5 Z" id="Rectangle-6"></path>
                <path d="M30.5,17.5 L30.5,10.5 L25,10.5 C23.0670034,10.5 21.5,12.0670034 21.5,14 C21.5,15.9329966 23.0670034,17.5 25,17.5 L30.5,17.5 Z" id="Rectangle-8"></path>
                <circle id="Oval-2" cx="25" cy="14" r="1"></circle>
                <path d="M29.5,5.5 L29.5,3 C29.5,1.61928813 28.3807119,0.5 27,0.5 L3,0.5 C1.61928813,0.5 0.5,1.61928813 0.5,3 C0.5,4.38071187 1.61928813,5.5 3,5.5 L29.5,5.5 Z" id="Rectangle-7"></path>
                <path d="M3.5,2.5 L21.5,2.5" id="Line" stroke-linecap="square"></path>
                <path d="M24.5,2.5 L25.5,2.5" id="Line" stroke-linecap="square"></path>
            </g>
        </g>
    </g>
</svg>