<?xml version="1.0" encoding="UTF-8"?>
<svg viewBox="0 0 55 55" version="1.1" xmlns="http://www.w3.org/2000/svg" xmlns:xlink="http://www.w3.org/1999/xlink">
    <!-- Generator: Sketch 50.2 (55047) - http://www.bohemiancoding.com/sketch -->
    <title>Fill 1</title>
    <desc>Created with Sketch.</desc>
    <defs></defs>
    <g id="FICA-and-Cancel" stroke="none" stroke-width="1" fill="none" fill-rule="evenodd">
        <g id="NoW_FICA" transform="translate(-693.000000, -329.000000)" fill="#BFBFBF">
            <path d="M720.5,377.888889 C715.977778,377.888889 711.455556,376.483333 707.666667,373.611111 L737.611111,343.666667 C743.905556,352.038889 743.233333,363.955556 735.594444,371.594444 C731.438889,375.811111 726,377.888889 720.5,377.888889 Z M703.388889,369.333333 C697.094444,360.961111 697.766667,349.044444 705.405556,341.405556 C709.561111,337.188889 715,335.111111 720.5,335.111111 C725.022222,335.111111 729.544444,336.516667 733.333333,339.388889 L703.388889,369.333333 Z M720.5,329 C713.472222,329 706.444444,331.688889 701.066667,337.066667 C690.311111,347.822222 690.311111,365.238889 701.066667,375.933333 C706.444444,381.311111 713.472222,384 720.5,384 C727.527778,384 734.555556,381.311111 739.933333,375.933333 C750.688889,365.177778 750.688889,347.761111 739.933333,337.066667 C734.555556,331.688889 727.527778,329 720.5,329 Z M720.5,379.111111 C726.55,379.111111 732.233333,376.788889 736.511111,372.511111 C744.394444,364.627778 745.311111,351.916667 738.65,342.994444 L737.733333,341.833333 L736.755556,342.811111 L706.811111,372.755556 L705.833333,373.733333 L706.933333,374.588889 C710.905556,377.522222 715.55,379.111111 720.5,379.111111 Z M703.266667,371.166667 L704.244444,370.188889 L734.188889,340.244444 L735.166667,339.266667 L734.066667,338.411111 C730.094444,335.477778 725.45,333.888889 720.5,333.888889 C714.45,333.888889 708.766667,336.211111 704.488889,340.488889 C696.605556,348.433333 695.688889,361.083333 702.411111,370.066667 L703.266667,371.166667 Z M720.5,330.222222 C727.527778,330.222222 734.127778,332.972222 739.077778,337.922222 C744.027778,342.872222 746.777778,349.472222 746.777778,356.5 C746.777778,363.527778 744.027778,370.127778 739.077778,375.077778 C734.127778,380.027778 727.527778,382.777778 720.5,382.777778 C713.472222,382.777778 706.872222,380.027778 701.922222,375.077778 C696.972222,370.127778 694.222222,363.527778 694.222222,356.5 C694.222222,349.472222 696.972222,342.872222 701.922222,337.922222 C706.872222,332.972222 713.472222,330.222222 720.5,330.222222 Z" id="Fill-1"></path>
        </g>
    </g>
</svg>