<?xml version="1.0" encoding="UTF-8"?>
<svg viewBox="0 0 102 98" version="1.1" xmlns="http://www.w3.org/2000/svg" xmlns:xlink="http://www.w3.org/1999/xlink">
    <!-- Generator: Sketch 49.3 (51167) - http://www.bohemiancoding.com/sketch -->
    <title>Final icon</title>
    <desc>Created with Sketch.</desc>
    <defs></defs>
    <g id="Page-1" stroke="none" stroke-width="1" fill="none" fill-rule="evenodd">
        <g id="1440---Building_Loan---Stepper_1.1" transform="translate(-659.000000, -534.000000)" stroke="#000000">
            <g id="Group-7" transform="translate(520.000000, 501.000000)">
                <g id="Final-icon" transform="translate(140.000000, 35.000000)">
                    <polyline id="Shape" stroke-width="2" points="92.9292929 37 92.9292929 94.3314579 7 94.3314579 7 37"></polyline>
                    <path d="M48.5,41.3939394 L48.5,2" id="Shape" stroke-width="1.5"></path>
                    <path d="M19.6835017,42.1818182 L19.6835017,26.4989264" id="Shape-Copy-11" stroke-width="1.5"></path>
                    <path d="M62.6835017,42.1818182 L62.6835017,11.4994513" id="Shape-Copy-5" stroke-width="1.5"></path>
                    <path d="M34.6835017,42.1818182 L34.6835017,13.499413" id="Shape-Copy-16" stroke-width="1.5"></path>
                    <path d="M76.6835017,42.1818182 L76.6835017,22.4991446" id="Shape-Copy-9" stroke-width="1.5"></path>
                    <rect id="Rectangle-path" stroke-width="2" x="26" y="56" width="13.1313131" height="13.1313131"></rect>
                    <polyline id="Rectangle-path" stroke-width="2" points="53 95.3939394 53 56 53 56 75.2222222 56 75.2222222 95.3939394"></polyline>
                    <polyline id="Shape" stroke-width="2" points="-1.9095836e-14 42.4242424 50.0002173 -8.8817842e-16 100 42.4242424"></polyline>
                    <path d="M7.89895062,41.5252525 L91.0166958,41.5252525" id="Line" stroke-width="2" stroke-linecap="square"></path>
                </g>
            </g>
        </g>
    </g>
</svg>