<svg xmlns="http://www.w3.org/2000/svg" width="30" height="30" viewBox="0 0 30 30">
    <g fill="none" fill-rule="evenodd">
        <g transform="translate(0 1)">
            <path stroke="#00B2A9" stroke-width="1.3" d="M25.528 11.66c3.377-6.21-3.405-13.045-9.558-9.64M28.944 10.178l-3.392 1.507-1.494-3.421M4.401 16.082c-3.376 6.21 3.405 13.045 9.558 9.641"/>
            <path stroke="#00B2A9" stroke-width="1.3" d="M.986 17.565l3.391-1.507 1.494 3.42"/>
            <ellipse cx="7.922" cy="6.931" stroke="#00B2A9" stroke-width="1.3" rx="6.669" ry="6.727"/>
            <ellipse cx="22.384" cy="21.04" stroke="#00B2A9" stroke-width="1.3" rx="6.669" ry="6.727"/>
            <path stroke="#00B2A9" stroke-width="1.3" d="M19.143 20.203h3.966M19.143 21.997h3.966M24.866 18.96c-.493-.837-1.262-1.376-2.125-1.376-1.49 0-2.698 1.6-2.698 3.575 0 1.974 1.208 3.574 2.698 3.574.903 0 1.702-.589 2.192-1.492"/>
            <path fill="#00B2A9" d="M5.5 3.2h2.955C10.107 3.2 11 3.939 11 5.278c0 1.221-.934 2.032-2.396 2.083l2.365 3.022H9.533L7.244 7.36H6.66v3.022H5.5V3.2zm2.924 1.088H6.66v2.021h1.764c.934 0 1.37-.338 1.37-1.031 0-.682-.461-.99-1.37-.99z"/>
        </g>
        <path d="M0 0h30v30H0z"/>
    </g>
</svg>
