<?xml version="1.0" encoding="UTF-8"?>
<svg width="100px" height="32px" viewBox="0 0 100 32" version="1.1" xmlns="http://www.w3.org/2000/svg" xmlns:xlink="http://www.w3.org/1999/xlink">
    <!-- Generator: Sketch 47.1 (45422) - http://www.bohemiancoding.com/sketch -->
    <title>LottoGrey</title>
    <desc>Created with Sketch.</desc>
    <defs>
        <polygon id="path-1" points="0 31.9998 0 0.7268 99.9994 0.7268 99.9994 31.9998"></polygon>
    </defs>
    <g id="Powerball" stroke="none" stroke-width="1" fill="none" fill-rule="evenodd">
        <g id="1440-Powerball-1" transform="translate(-491.000000, -237.000000)">
            <g id="LottoGrey" transform="translate(491.000000, 236.000000)">
                <g id="Group-3" transform="translate(0.000000, 0.273700)">
                    <mask id="mask-2" fill="white">
                        <use xlink:href="#path-1"></use>
                    </mask>
                    <g id="Clip-2"></g>
                    <path d="M84.3894,0.7298 C84.3894,0.7298 15.6814,0.7268 15.6364,0.7268 C7.0144,0.7268 -0.0006,7.7408 -0.0006,16.3628 C-0.0006,24.9858 7.0144,31.9998 15.6364,31.9998 C16.0394,31.9998 84.3894,31.9498 84.3894,31.9498 C92.9964,31.9498 99.9994,24.9478 99.9994,16.3398 C99.9994,7.7328 92.9964,0.7298 84.3894,0.7298" id="Fill-1" fill="#FFFFFF" mask="url(#mask-2)"></path>
                </g>
                <path d="M15.6653,1.8497 C23.8323,1.8497 30.4533,8.4707 30.4533,16.6377 C30.4533,24.8047 23.8323,31.4257 15.6653,31.4257 C7.4983,31.4257 0.8773,24.8047 0.8773,16.6377 C0.8773,8.4707 7.4983,1.8497 15.6653,1.8497" id="Fill-4" fill="#FFFFFF"></path>
                <path d="M30.4529,16.6373 C30.4529,8.4713 23.8319,1.8493 15.6649,1.8493 C7.4989,1.8493 0.8779,8.4713 0.8779,16.6373 C0.8779,24.8043 7.4989,31.4253 15.6649,31.4253 C23.8319,31.4253 30.4529,24.8043 30.4529,16.6373" id="Fill-6" fill="#CFCFCF"></path>
                <path d="M16.6946,20.9034 C16.4196,20.6284 16.0536,20.4774 15.6656,20.4774 C15.2766,20.4774 14.9106,20.6284 14.6356,20.9034 L12.1276,23.4114 C12.0836,23.4554 12.0346,23.4984 11.9856,23.5404 C13.0826,24.1264 14.3346,24.4614 15.6656,24.4614 C16.9956,24.4614 18.2486,24.1264 19.3456,23.5404 C19.2946,23.4984 19.2466,23.4554 19.2036,23.4114 L16.6946,20.9034 Z" id="Fill-8" fill="#6E6E6E"></path>
                <path d="M19.9304,15.608 C19.3624,16.176 19.3624,17.099 19.9304,17.668 L22.4394,20.176 C22.4824,20.219 22.5254,20.267 22.5674,20.317 C23.1544,19.22 23.4894,17.968 23.4894,16.637 C23.4894,15.307 23.1544,14.055 22.5674,12.957 C22.5254,13.008 22.4824,13.056 22.4394,13.1 L19.9304,15.608 Z" id="Fill-10" fill="#6E6E6E"></path>
                <path d="M11.4002,17.6671 C11.9672,17.0991 11.9672,16.1761 11.4002,15.6081 L8.8912,13.1001 C8.8482,13.0561 8.8052,13.0081 8.7622,12.9581 C8.1762,14.0551 7.8402,15.3061 7.8402,16.6381 C7.8402,17.9681 8.1762,19.2201 8.7622,20.3181 C8.8052,20.2671 8.8482,20.2191 8.8912,20.1761 L11.4002,17.6671 Z" id="Fill-12" fill="#6E6E6E"></path>
                <path d="M20.8215,23.0333 C20.5045,23.0333 20.1865,22.9123 19.9455,22.6703 L15.6655,18.3893 L11.3855,22.6703 C10.9015,23.1543 10.1165,23.1543 9.6325,22.6703 C9.1485,22.1863 9.1485,21.4013 9.6325,20.9173 L13.9125,16.6373 L9.6325,12.3583 C9.1485,11.8743 9.1485,11.0893 9.6325,10.6053 C10.1165,10.1203 10.9015,10.1203 11.3855,10.6053 L15.6655,14.8843 L19.9455,10.6053 C20.4285,10.1203 21.2145,10.1203 21.6965,10.6053 C22.1815,11.0893 22.1815,11.8743 21.6965,12.3583 L17.4175,16.6373 L21.6965,20.9173 C22.1815,21.4013 22.1815,22.1863 21.6965,22.6703 C21.4555,22.9123 21.1375,23.0333 20.8215,23.0333" id="Fill-14" fill="#231F20"></path>
                <path d="M17.4583,10.7042 C17.4583,9.7302 16.6693,8.9412 15.6943,8.9412 C14.7213,8.9412 13.9313,9.7302 13.9313,10.7042 C13.9313,11.6782 14.7213,12.4682 15.6943,12.4682 C16.6693,12.4682 17.4583,11.6782 17.4583,10.7042" id="Fill-16" fill="#231F20"></path>
                <path d="M6.4788,25.0045 L6.5018,24.9835 L8.0768,23.5215 C8.1348,23.4675 8.1648,23.3985 8.1648,23.3165 C8.1648,23.2325 8.1358,23.1585 8.0768,23.0965 C8.0228,23.0385 7.9538,23.0065 7.8698,23.0005 C7.7858,22.9925 7.7118,23.0175 7.6538,23.0655 L5.8498,24.7385 C5.7938,24.7915 5.7628,24.8505 5.7558,24.9165 C5.7498,24.9815 5.7728,25.0425 5.8238,25.0975 L6.6768,26.0165 C6.7158,26.0555 6.7578,26.0745 6.8248,26.0865 C6.9278,26.0985 7.0058,26.0575 7.0478,26.0185 C7.1008,25.9675 7.1308,25.9055 7.1378,25.8335 C7.1438,25.7605 7.1218,25.6985 7.0738,25.6465 L6.4788,25.0045 Z" id="Fill-18" fill="#231F20"></path>
                <path d="M10.1243,26.733 C9.9853,26.946 9.7923,27.082 9.5513,27.139 C9.4823,27.154 9.4133,27.163 9.3453,27.163 C9.1793,27.163 9.0173,27.112 8.8673,27.013 C8.6543,26.875 8.5243,26.68 8.4813,26.437 C8.4383,26.194 8.4863,25.963 8.6263,25.751 C8.7673,25.536 8.9613,25.398 9.2023,25.338 C9.2723,25.322 9.3433,25.313 9.4123,25.313 L9.4273,25.313 C9.5853,25.316 9.7393,25.366 9.8853,25.462 C10.0983,25.601 10.2273,25.796 10.2693,26.043 C10.3133,26.289 10.2633,26.521 10.1243,26.733 M10.2163,24.956 C9.9633,24.79 9.6903,24.705 9.4053,24.705 C9.2963,24.705 9.1843,24.717 9.0713,24.742 C8.6643,24.831 8.3393,25.055 8.1073,25.41 C7.8763,25.76 7.8003,26.146 7.8813,26.555 C7.9633,26.964 8.1833,27.288 8.5353,27.519 C8.7823,27.681 9.0483,27.766 9.3253,27.771 L9.3513,27.771 C9.4583,27.771 9.5693,27.759 9.6813,27.735 C10.0883,27.649 10.4133,27.426 10.6443,27.075 C10.8763,26.72 10.9533,26.333 10.8733,25.923 C10.7913,25.514 10.5713,25.189 10.2163,24.956" id="Fill-20" fill="#231F20"></path>
                <path d="M13.5535,26.4361 L11.8455,25.9051 C11.8205,25.8981 11.7955,25.8941 11.7725,25.8941 C11.7305,25.8941 11.6885,25.9061 11.6485,25.9291 C11.5865,25.9651 11.5435,26.0201 11.5215,26.0921 C11.5005,26.1581 11.5065,26.2271 11.5405,26.2941 C11.5745,26.3621 11.6225,26.4051 11.6835,26.4251 L12.2415,26.5981 L12.2325,26.6271 L11.5955,28.6771 C11.5735,28.7491 11.5825,28.8231 11.6255,28.8971 C11.6675,28.9701 11.7285,29.0201 11.8065,29.0441 C11.8375,29.0541 11.8685,29.0601 11.9005,29.0601 L11.9055,29.0901 L11.9055,29.0601 C11.9515,29.0601 11.9975,29.0491 12.0405,29.0281 C12.1165,28.9931 12.1655,28.9361 12.1905,28.8611 L12.8345,26.7821 L13.3925,26.9551 C13.4525,26.9741 13.5185,26.9641 13.5845,26.9291 C13.6515,26.8931 13.6945,26.8401 13.7155,26.7731 C13.7375,26.7011 13.7325,26.6311 13.7015,26.5661 C13.6695,26.4991 13.6215,26.4571 13.5535,26.4361" id="Fill-22" fill="#231F20"></path>
                <path d="M16.1995,26.6446 L14.4055,26.5806 C14.3355,26.5806 14.2785,26.6046 14.2295,26.6536 C14.1785,26.7056 14.1515,26.7696 14.1475,26.8456 C14.1455,26.9156 14.1695,26.9786 14.2205,27.0356 C14.2705,27.0916 14.3275,27.1216 14.3915,27.1236 L14.9765,27.1446 L14.9745,27.1766 L14.8985,29.3206 C14.8945,29.3946 14.9245,29.4646 14.9835,29.5246 C15.0445,29.5846 15.1165,29.6166 15.1985,29.6196 L15.2125,29.6496 L15.2135,29.6496 L15.2135,29.6196 C15.2915,29.6196 15.3615,29.5936 15.4205,29.5416 C15.4835,29.4876 15.5165,29.4206 15.5195,29.3406 L15.5965,27.1666 L15.6295,27.1676 L16.1855,27.1876 L16.1865,27.1876 C16.2495,27.1876 16.3065,27.1616 16.3585,27.1116 C16.4125,27.0586 16.4415,26.9966 16.4435,26.9266 C16.4455,26.8516 16.4235,26.7846 16.3765,26.7296 C16.3285,26.6756 16.2695,26.6466 16.1995,26.6446" id="Fill-24" fill="#231F20"></path>
                <path d="M19.3826,28.6207 C19.3226,28.5787 19.2576,28.5667 19.1906,28.5817 L18.1646,28.8137 L18.0196,28.1697 L18.8736,27.9757 C18.9386,27.9607 18.9916,27.9207 19.0286,27.8577 C19.0666,27.7937 19.0776,27.7277 19.0626,27.6577 C19.0466,27.5877 19.0076,27.5307 18.9466,27.4917 C18.8876,27.4517 18.8216,27.4397 18.7556,27.4547 L17.9006,27.6477 L17.7456,26.9597 L18.7316,26.7367 C18.7966,26.7217 18.8496,26.6817 18.8866,26.6177 C18.9236,26.5537 18.9346,26.4857 18.9196,26.4187 C18.9036,26.3437 18.8646,26.2857 18.8046,26.2457 C18.7606,26.2147 18.7156,26.2007 18.6676,26.2007 C18.6496,26.2007 18.6306,26.2027 18.6116,26.2067 L17.2576,26.5137 C17.1846,26.5297 17.1316,26.5677 17.1006,26.6247 C17.0706,26.6827 17.0636,26.7497 17.0776,26.8257 L17.6206,29.2247 C17.6406,29.2977 17.6766,29.3547 17.7286,29.3947 C17.7636,29.4207 17.8046,29.4327 17.8486,29.4337 L17.8526,29.4657 L17.8526,29.4657 L17.8526,29.4337 C17.8736,29.4337 17.8946,29.4327 17.9176,29.4267 L19.3096,29.1107 C19.3746,29.0967 19.4276,29.0567 19.4646,28.9917 C19.5016,28.9267 19.5126,28.8597 19.4976,28.7907 C19.4816,28.7197 19.4426,28.6627 19.3826,28.6207" id="Fill-26" fill="#231F20"></path>
                <path d="M21.4236,26.317 C21.4056,26.429 21.3456,26.512 21.2406,26.57 L20.7306,26.846 L20.3196,26.088 L20.8436,25.803 C20.9426,25.751 21.0456,25.747 21.1466,25.796 C21.2476,25.842 21.3236,25.913 21.3746,26.006 C21.4266,26.102 21.4436,26.207 21.4236,26.317 M22.5146,27.194 L21.7416,26.805 L21.7716,26.774 C21.9106,26.625 21.9946,26.454 22.0166,26.266 C22.0406,26.069 22.0056,25.878 21.9136,25.695 C21.7826,25.467 21.5966,25.309 21.3586,25.226 C21.2746,25.197 21.1866,25.182 21.0966,25.182 C20.9336,25.182 20.7616,25.231 20.5856,25.327 L19.7766,25.765 C19.6956,25.809 19.6476,25.87 19.6306,25.947 C19.6136,26.026 19.6256,26.108 19.6666,26.189 L20.8106,28.298 C20.8476,28.365 20.9076,28.41 20.9896,28.43 C21.0186,28.437 21.0456,28.442 21.0696,28.442 L21.0736,28.473 L21.0746,28.473 L21.0746,28.442 C21.1256,28.442 21.1746,28.429 21.2226,28.403 C21.2966,28.363 21.3486,28.303 21.3746,28.224 C21.4016,28.146 21.3956,28.07 21.3576,28.002 L20.9796,27.305 L21.2466,27.159 L22.2116,27.723 C22.2486,27.744 22.2896,27.754 22.3346,27.754 C22.3636,27.754 22.3946,27.75 22.4256,27.74 C22.5046,27.717 22.5656,27.671 22.6056,27.603 C22.6496,27.532 22.6636,27.454 22.6456,27.372 C22.6266,27.291 22.5826,27.231 22.5146,27.194" id="Fill-28" fill="#231F20"></path>
                <path d="M23.9881,24.7545 L23.9861,24.7445 L23.7641,23.2915 C23.7501,23.2205 23.7081,23.1595 23.6391,23.1145 C23.5701,23.0675 23.5001,23.0495 23.4211,23.0615 C23.3441,23.0745 23.2781,23.1125 23.2261,23.1765 C23.1741,23.2415 23.1551,23.3085 23.1701,23.3805 L23.4091,24.6025 L22.2001,24.3185 C22.1841,24.3145 22.1671,24.3135 22.1511,24.3135 C22.0951,24.3135 22.0431,24.3325 21.9941,24.3685 C21.9291,24.4185 21.8881,24.4825 21.8731,24.5605 C21.8601,24.6355 21.8761,24.7095 21.9201,24.7795 C21.9641,24.8485 22.0221,24.8925 22.0941,24.9095 L23.5351,25.1795 L23.5421,25.1875 L24.2931,25.9635 C24.3421,26.0145 24.4071,26.0415 24.4861,26.0425 L24.5001,26.0425 C24.5861,26.0415 24.6581,26.0105 24.7171,25.9545 C24.7781,25.8955 24.8111,25.8235 24.8151,25.7405 C24.8201,25.6585 24.7931,25.5875 24.7381,25.5305 L23.9881,24.7545 Z" id="Fill-30" fill="#231F20"></path>
                <path d="M7.3328,10.9166 L7.3328,10.9476 L7.3398,10.9166 C7.3518,10.9166 7.3628,10.9166 7.3748,10.9156 C7.4598,10.9066 7.5298,10.8696 7.5828,10.8056 C7.6378,10.7416 7.6648,10.6666 7.6618,10.5836 C7.6578,10.5006 7.6248,10.4326 7.5648,10.3816 L6.3658,9.3566 L8.2388,9.7076 C8.4008,9.7356 8.5288,9.6986 8.6208,9.5916 L8.6568,9.5486 C8.7068,9.4916 8.7258,9.4206 8.7128,9.3406 C8.7028,9.2606 8.6638,9.1916 8.5998,9.1366 L6.7438,7.5516 C6.6828,7.4996 6.6118,7.4776 6.5278,7.4886 C6.4458,7.4986 6.3758,7.5356 6.3208,7.6006 C6.2678,7.6626 6.2418,7.7376 6.2458,7.8236 C6.2498,7.9086 6.2808,7.9756 6.3378,8.0256 L7.5218,9.0356 L5.6818,8.6856 C5.6458,8.6796 5.6108,8.6746 5.5778,8.6746 C5.4618,8.6746 5.3648,8.7206 5.2898,8.8076 L5.2528,8.8516 C5.2038,8.9086 5.1838,8.9796 5.1938,9.0636 C5.2048,9.1466 5.2438,9.2186 5.3108,9.2756 L7.1608,10.8556 C7.2088,10.8966 7.2668,10.9166 7.3328,10.9166" id="Fill-32" fill="#231F20"></path>
                <path d="M10.3997,5.2613 C10.4667,5.2943 10.5327,5.3003 10.5937,5.2793 L11.1437,5.0803 L11.8867,7.1303 C11.9127,7.2023 11.9657,7.2553 12.0447,7.2883 C12.0867,7.3063 12.1297,7.3153 12.1717,7.3153 L12.1717,7.3463 L12.1727,7.3463 L12.1767,7.3153 C12.2117,7.3143 12.2457,7.3083 12.2787,7.2963 C12.3577,7.2673 12.4187,7.2153 12.4557,7.1413 C12.4947,7.0673 12.4997,6.9923 12.4727,6.9183 L11.7287,4.8663 L12.2797,4.6673 C12.3397,4.6453 12.3867,4.5993 12.4177,4.5303 C12.4467,4.4613 12.4497,4.3923 12.4267,4.3263 C12.4007,4.2553 12.3557,4.2033 12.2907,4.1703 C12.2257,4.1363 12.1597,4.1333 12.0937,4.1563 L10.4077,4.7673 C10.3417,4.7913 10.2947,4.8373 10.2657,4.9033 C10.2377,4.9703 10.2357,5.0403 10.2627,5.1113 C10.2847,5.1783 10.3327,5.2273 10.3997,5.2613" id="Fill-34" fill="#231F20"></path>
                <path d="M13.8416,4.0787 C13.8286,4.0007 13.7866,3.9387 13.7176,3.8927 C13.6646,3.8587 13.6056,3.8407 13.5446,3.8407 C13.5256,3.8407 13.5066,3.8427 13.4866,3.8457 C13.4076,3.8587 13.3416,3.8997 13.2906,3.9677 C13.2376,4.0347 13.2176,4.1077 13.2276,4.1847 L13.6376,6.6107 C13.6506,6.6857 13.6936,6.7477 13.7636,6.7947 C13.8196,6.8307 13.8776,6.8487 13.9396,6.8487 L13.9396,6.8807 L13.9396,6.8807 L13.9446,6.8487 C13.9606,6.8487 13.9766,6.8477 13.9936,6.8447 C14.0776,6.8297 14.1456,6.7897 14.1956,6.7237 C14.2466,6.6587 14.2656,6.5847 14.2526,6.5067 L13.8416,4.0787 Z" id="Fill-36" fill="#231F20"></path>
                <path d="M15.7527,4.5118 C15.9137,4.3588 16.1077,4.2788 16.3297,4.2758 L16.3477,4.2758 C16.3667,4.2758 16.3867,4.2758 16.4077,4.2768 C16.6627,4.2918 16.8727,4.3968 17.0327,4.5908 C17.1917,4.7828 17.2647,5.0098 17.2507,5.2638 C17.2347,5.5178 17.1357,5.7328 16.9547,5.9018 C16.7877,6.0578 16.5877,6.1368 16.3607,6.1368 C16.3397,6.1368 16.3187,6.1358 16.2967,6.1358 C16.0437,6.1198 15.8337,6.0168 15.6747,5.8258 C15.5157,5.6368 15.4427,5.4108 15.4577,5.1578 C15.4737,4.8998 15.5717,4.6828 15.7527,4.5118 M16.2617,6.7398 C16.2987,6.7418 16.3357,6.7428 16.3727,6.7428 L16.3937,6.7428 C16.7587,6.7358 17.0867,6.6058 17.3657,6.3558 C17.6777,6.0758 17.8477,5.7208 17.8727,5.3008 C17.8967,4.8768 17.7707,4.5018 17.4967,4.1858 C17.2217,3.8698 16.8667,3.6978 16.4427,3.6728 C16.4097,3.6708 16.3767,3.6698 16.3427,3.6698 C15.9627,3.6698 15.6267,3.8008 15.3417,4.0578 C15.0307,4.3398 14.8617,4.6968 14.8357,5.1198 C14.8107,5.5408 14.9377,5.9138 15.2127,6.2278 C15.4877,6.5428 15.8397,6.7138 16.2617,6.7398" id="Fill-38" fill="#231F20"></path>
                <path d="M18.3318,7.0313 C18.3698,7.0453 18.4078,7.0523 18.4448,7.0523 C18.4858,7.0523 18.5268,7.0443 18.5678,7.0273 C18.6438,6.9953 18.6958,6.9413 18.7248,6.8673 L19.2688,5.3863 L19.5898,7.2653 C19.6188,7.4273 19.6988,7.5333 19.8298,7.5823 L19.8828,7.6013 C19.9118,7.6133 19.9418,7.6173 19.9718,7.6173 L19.9718,7.6493 L19.9718,7.6493 L19.9758,7.6173 C20.0158,7.6173 20.0568,7.6063 20.0988,7.5833 C20.1698,7.5453 20.2218,7.4853 20.2508,7.4053 L21.0928,5.1143 C21.1198,5.0403 21.1148,4.9653 21.0768,4.8913 C21.0398,4.8173 20.9798,4.7643 20.9008,4.7353 C20.8238,4.7063 20.7438,4.7083 20.6648,4.7413 C20.5878,4.7743 20.5348,4.8273 20.5078,4.8993 L19.9718,6.3593 L19.6608,4.5123 C19.6328,4.3473 19.5488,4.2383 19.4098,4.1873 L19.3558,4.1683 C19.2858,4.1403 19.2108,4.1473 19.1358,4.1863 C19.0608,4.2253 19.0078,4.2863 18.9788,4.3703 L18.1398,6.6523 C18.1128,6.7233 18.1188,6.7983 18.1578,6.8743 C18.1958,6.9503 18.2538,7.0033 18.3318,7.0313" id="Fill-40" fill="#231F20"></path>
                <path d="M25.4588,8.1158 C25.4078,8.0538 25.3408,8.0168 25.2558,8.0058 C25.2378,8.0028 25.2218,8.0018 25.2058,8.0018 C25.1428,8.0018 25.0858,8.0208 25.0358,8.0578 L23.1248,9.6158 C23.0668,9.6638 23.0308,9.7218 23.0198,9.7868 C23.0098,9.8518 23.0288,9.9138 23.0768,9.9738 L23.8708,10.9468 C23.9148,10.9958 23.9738,11.0248 24.0488,11.0298 C24.0588,11.0308 24.0678,11.0288 24.0778,11.0308 C24.1398,11.0298 24.1948,11.0108 24.2418,10.9718 C24.2978,10.9258 24.3328,10.8658 24.3428,10.7928 C24.3538,10.7208 24.3358,10.6568 24.2918,10.6018 L23.7368,9.9208 L23.7618,9.9008 L25.4308,8.5398 C25.4928,8.4898 25.5268,8.4228 25.5318,8.3398 C25.5368,8.2568 25.5118,8.1808 25.4588,8.1158" id="Fill-42" fill="#231F20"></path>
                <path d="M21.9465,7.483 L22.9615,6.75 L22.5515,7.98 L21.9105,7.508 L21.9465,7.483 Z M20.6735,7.971 C20.7225,8.038 20.7885,8.083 20.8685,8.103 C20.9475,8.122 21.0225,8.112 21.0865,8.072 L21.4695,7.821 L21.4875,7.834 L22.3855,8.497 L22.2615,8.936 C22.2415,9.008 22.2545,9.081 22.2975,9.152 C22.3415,9.223 22.4035,9.272 22.4825,9.297 C22.5105,9.307 22.5395,9.312 22.5695,9.312 L22.5695,9.342 L22.5715,9.312 C22.6185,9.311 22.6665,9.296 22.7135,9.272 C22.7895,9.229 22.8405,9.17 22.8635,9.096 L23.5485,6.691 C23.6035,6.491 23.5465,6.327 23.3785,6.203 L23.3565,6.188 C23.1895,6.065 23.0155,6.059 22.8405,6.172 L20.7515,7.547 C20.6875,7.591 20.6475,7.655 20.6295,7.742 C20.6125,7.828 20.6275,7.905 20.6735,7.971 L20.6735,7.971 Z" id="Fill-44" fill="#231F20"></path>
                <path d="M9.2703,7.6119 L8.9203,6.3639 L9.9333,7.1729 L9.2703,7.6119 Z M9.0683,5.7929 C8.9823,5.7309 8.8943,5.6999 8.8063,5.6999 C8.7213,5.6999 8.6363,5.7289 8.5513,5.7839 L8.5293,5.7989 C8.3553,5.9139 8.2913,6.0749 8.3373,6.2779 L8.9063,8.7139 C8.9243,8.7879 8.9733,8.8489 9.0473,8.8949 C9.0983,8.9269 9.1503,8.9429 9.2043,8.9429 L9.2043,8.9739 L9.2083,8.9429 C9.2303,8.9419 9.2533,8.9389 9.2753,8.9329 C9.3563,8.9099 9.4213,8.8639 9.4673,8.7959 C9.5143,8.7279 9.5293,8.6549 9.5143,8.5799 L9.4113,8.1349 L9.4293,8.1229 L10.3583,7.5069 L10.7303,7.7769 C10.7743,7.8069 10.8263,7.8229 10.8823,7.8229 C10.9033,7.8229 10.9243,7.8209 10.9463,7.8169 C11.0253,7.8009 11.0943,7.7589 11.1463,7.6949 C11.1963,7.6309 11.2153,7.5549 11.2013,7.4679 C11.1883,7.3819 11.1503,7.3139 11.0873,7.2669 L9.0683,5.7929 Z" id="Fill-46" fill="#231F20"></path>
                <path d="M84.3894,1.8258 L20.6394,1.8258 C26.8154,3.9168 31.2734,9.7648 31.2734,16.6368 C31.2734,23.4588 26.8814,29.2688 20.7784,31.4008 L84.3894,31.4008 C92.5564,31.4008 99.1774,24.7808 99.1774,16.6138 C99.1774,8.4468 92.5564,1.8258 84.3894,1.8258" id="Fill-48" fill="#CFCFCF"></path>
                <path d="M43.3875,23.0357 L38.6055,23.0357 C38.1605,23.0357 37.7815,22.8777 37.4655,22.5627 C37.1505,22.2477 36.9935,21.8677 36.9935,21.4237 L36.9935,11.4517 C36.9935,11.0077 37.1505,10.6277 37.4655,10.3117 C37.7815,9.9967 38.1605,9.8397 38.6055,9.8397 C39.0505,9.8397 39.4305,9.9967 39.7455,10.3117 C40.0605,10.6277 40.2195,11.0077 40.2195,11.4517 L40.2195,20.1437 L43.3875,20.1437 C43.7955,20.1437 44.1355,20.2847 44.4065,20.5617 C44.6785,20.8397 44.8145,21.1887 44.8145,21.6087 C44.8145,22.0167 44.6785,22.3567 44.4065,22.6277 C44.1355,22.9007 43.7955,23.0357 43.3875,23.0357" id="Fill-50" fill="#6E6E6E"></path>
                <path d="M48.8919,13.8433 C48.1759,14.5723 47.8169,15.4733 47.8169,16.5493 C47.8169,17.6243 48.1789,18.5303 48.9019,19.2643 C49.6249,19.9993 50.5059,20.3663 51.5429,20.3663 C52.5819,20.3663 53.4619,19.9993 54.1839,19.2643 C54.9069,18.5303 55.2689,17.6243 55.2689,16.5493 C55.2689,15.4733 54.9069,14.5693 54.1839,13.8333 C53.4619,13.0983 52.5819,12.7313 51.5429,12.7313 C50.5059,12.7313 49.6219,13.1013 48.8919,13.8433 M56.4359,11.7673 C57.8079,13.0393 58.4939,14.6343 58.4939,16.5493 C58.4939,18.4643 57.8099,20.0613 56.4449,21.3403 C55.0799,22.6183 53.4459,23.2583 51.5429,23.2583 C49.6409,23.2583 48.0049,22.6183 46.6409,21.3403 C45.2749,20.0613 44.5929,18.4643 44.5929,16.5493 C44.5929,14.6343 45.2749,13.0363 46.6409,11.7583 C48.0049,10.4783 49.6409,9.8393 51.5429,9.8393 C53.4459,9.8393 55.0759,10.4823 56.4359,11.7673" id="Fill-52" fill="#6E6E6E"></path>
                <path d="M76.2302,10.4791 C75.9582,10.2001 75.6192,10.0621 75.2102,10.0621 L66.4622,10.0621 L63.9922,10.0621 L59.9752,10.0621 C59.5692,10.0621 59.2282,10.2001 58.9572,10.4791 C58.6842,10.7571 58.5482,11.1061 58.5482,11.5261 C58.5482,11.9341 58.6842,12.2731 58.9572,12.5451 C59.2282,12.8171 59.5692,12.9541 59.9752,12.9541 L61.6072,12.9541 L61.6072,21.6461 C61.6072,22.0901 61.7642,22.4701 62.0802,22.7861 C62.3942,23.1011 62.7742,23.2581 63.2192,23.2581 C63.6652,23.2581 64.0442,23.1011 64.3592,22.7861 C64.6742,22.4701 64.8312,22.0901 64.8312,21.6461 L64.8312,12.9541 L66.4622,12.9541 L70.3552,12.9541 L70.3552,21.6461 C70.3552,22.0901 70.5122,22.4701 70.8282,22.7861 C71.1422,23.1011 71.5222,23.2581 71.9662,23.2581 C72.4122,23.2581 72.7922,23.1011 73.1072,22.7861 C73.4222,22.4701 73.5802,22.0901 73.5802,21.6461 L73.5802,12.9541 L75.2102,12.9541 C75.6192,12.9541 75.9582,12.8171 76.2302,12.5451 C76.5012,12.2731 76.6372,11.9341 76.6372,11.5261 C76.6372,11.1061 76.5012,10.7571 76.2302,10.4791" id="Fill-54" fill="#6E6E6E"></path>
                <path d="M80.6218,13.8433 C79.9058,14.5723 79.5478,15.4733 79.5478,16.5493 C79.5478,17.6243 79.9098,18.5303 80.6338,19.2643 C81.3548,19.9993 82.2348,20.3663 83.2728,20.3663 C84.3108,20.3663 85.1918,19.9993 85.9148,19.2643 C86.6368,18.5303 86.9988,17.6243 86.9988,16.5493 C86.9988,15.4733 86.6368,14.5693 85.9148,13.8333 C85.1918,13.0983 84.3108,12.7313 83.2728,12.7313 C82.2348,12.7313 81.3508,13.1013 80.6218,13.8433 M88.1658,11.7673 C89.5378,13.0393 90.2238,14.6343 90.2238,16.5493 C90.2238,18.4643 89.5418,20.0613 88.1758,21.3403 C86.8088,22.6183 85.1768,23.2583 83.2728,23.2583 C81.3708,23.2583 79.7348,22.6183 78.3708,21.3403 C77.0058,20.0613 76.3238,18.4643 76.3238,16.5493 C76.3238,14.6343 77.0058,13.0363 78.3708,11.7583 C79.7348,10.4783 81.3708,9.8393 83.2728,9.8393 C85.1768,9.8393 86.8078,10.4823 88.1658,11.7673" id="Fill-56" fill="#6E6E6E"></path>
                <path d="M43.324,21.3907 L38.818,21.3907 L38.818,11.5157 C38.818,11.3967 38.721,11.3007 38.601,11.3007 C38.482,11.3007 38.385,11.3967 38.385,11.5157 L38.385,21.6077 C38.385,21.7257 38.482,21.8237 38.601,21.8237 L43.324,21.8237 C43.443,21.8237 43.54,21.7257 43.54,21.6077 C43.54,21.4877 43.443,21.3907 43.324,21.3907" id="Fill-58" fill="#FFFFFF"></path>
                <path d="M75.4939,11.2999 L59.8769,11.2999 C59.7579,11.2999 59.6599,11.3969 59.6599,11.5159 C59.6599,11.6349 59.7579,11.7329 59.8769,11.7329 L62.9409,11.7329 L62.9409,21.6069 C62.9409,21.7269 63.0389,21.8239 63.1579,21.8239 C63.2769,21.8239 63.3749,21.7269 63.3749,21.6069 L63.3749,11.7329 L71.7489,11.7329 L71.7489,21.6069 C71.7489,21.7269 71.8459,21.8239 71.9659,21.8239 C72.0849,21.8239 72.1819,21.7269 72.1819,21.6069 L72.1819,11.7329 L75.4939,11.7329 C75.6129,11.7329 75.7109,11.6349 75.7109,11.5159 C75.7109,11.3969 75.6129,11.2999 75.4939,11.2999" id="Fill-60" fill="#FFFFFF"></path>
                <path d="M51.5506,21.7872 C48.7236,21.7872 46.4236,19.4872 46.4236,16.6602 C46.4236,13.8322 48.7236,11.5332 51.5506,11.5332 C54.3776,11.5332 56.6786,13.8322 56.6786,16.6602 C56.6786,19.4872 54.3776,21.7872 51.5506,21.7872 M51.5506,11.0992 C48.4846,11.0992 45.9906,13.5942 45.9906,16.6602 C45.9906,19.7262 48.4846,22.2202 51.5506,22.2202 C54.6166,22.2202 57.1116,19.7262 57.1116,16.6602 C57.1116,13.5942 54.6166,11.0992 51.5506,11.0992" id="Fill-62" fill="#FFFFFF"></path>
                <path d="M83.2732,21.7872 C80.4462,21.7872 78.1462,19.4872 78.1462,16.6602 C78.1462,13.8322 80.4462,11.5332 83.2732,11.5332 C86.1002,11.5332 88.4012,13.8322 88.4012,16.6602 C88.4012,19.4872 86.1002,21.7872 83.2732,21.7872 M83.2732,11.0992 C80.2082,11.0992 77.7122,13.5942 77.7122,16.6602 C77.7122,19.7262 80.2082,22.2202 83.2732,22.2202 C86.3392,22.2202 88.8342,19.7262 88.8342,16.6602 C88.8342,13.5942 86.3392,11.0992 83.2732,11.0992" id="Fill-64" fill="#FFFFFF"></path>
            </g>
        </g>
    </g>
</svg>