<?xml version="1.0" encoding="UTF-8"?>
<svg width="100px" height="32px" viewBox="0 0 100 32" version="1.1" xmlns="http://www.w3.org/2000/svg" xmlns:xlink="http://www.w3.org/1999/xlink">
    <!-- Generator: Sketch 47.1 (45422) - http://www.bohemiancoding.com/sketch -->
    <title>Powerballgrey</title>
    <desc>Created with Sketch.</desc>
    <defs></defs>
    <g id="Lotto" stroke="none" stroke-width="1" fill="none" fill-rule="evenodd">
        <g id="1440-Lotto-1" transform="translate(-673.000000, -239.000000)">
            <g id="Powerballgrey" transform="translate(673.000000, 239.000000)">
                <path d="M84.3893,0.0035 C84.3893,0.0035 15.6813,0.0005 15.6363,0.0005 C7.0143,0.0005 0.0003,7.0145 0.0003,15.6365 C0.0003,24.2595 7.0143,31.2735 15.6363,31.2735 C16.0393,31.2735 84.3893,31.2235 84.3893,31.2235 C92.9963,31.2235 99.9993,24.2215 99.9993,15.6135 C99.9993,7.0065 92.9963,0.0035 84.3893,0.0035" id="Fill-1" fill="#FFFFFF"></path>
                <path d="M15.6651,0.8497 C23.8321,0.8497 30.4531,7.4707 30.4531,15.6377 C30.4531,23.8047 23.8321,30.4257 15.6651,30.4257 C7.4981,30.4257 0.8771,23.8047 0.8771,15.6377 C0.8771,7.4707 7.4981,0.8497 15.6651,0.8497" id="Fill-3" fill="#FFFFFF"></path>
                <path d="M30.4527,15.6373 C30.4527,7.4703 23.8327,0.8493 15.6647,0.8493 C7.4987,0.8493 0.8777,7.4703 0.8777,15.6373 C0.8777,23.8043 7.4987,30.4253 15.6647,30.4253 C23.8327,30.4253 30.4527,23.8043 30.4527,15.6373" id="Fill-5" fill="#CFCFCF"></path>
                <path d="M16.6944,19.9029 C16.4194,19.6279 16.0534,19.4769 15.6654,19.4769 C15.2764,19.4769 14.9104,19.6279 14.6354,19.9029 L12.1264,22.4109 C12.0844,22.4549 12.0354,22.4979 11.9854,22.5399 C13.0824,23.1259 14.3344,23.4619 15.6654,23.4619 C16.9954,23.4619 18.2484,23.1259 19.3454,22.5399 C19.2954,22.4979 19.2464,22.4549 19.2034,22.4119 L16.6944,19.9029 Z" id="Fill-7" fill="#6E6E6E"></path>
                <path d="M19.9308,14.608 C19.3628,15.176 19.3628,16.099 19.9308,16.668 L22.4388,19.176 C22.4828,19.22 22.5258,19.267 22.5678,19.317 C23.1538,18.22 23.4898,16.968 23.4898,15.637 C23.4898,14.307 23.1538,13.054 22.5678,11.957 C22.5258,12.008 22.4828,12.055 22.4388,12.099 L19.9308,14.608 Z" id="Fill-9" fill="#6E6E6E"></path>
                <path d="M11.4,16.6671 C11.967,16.0991 11.967,15.1761 11.4,14.6071 L8.891,12.0991 C8.848,12.0561 8.805,12.0081 8.762,11.9581 C8.177,13.0551 7.84,14.3071 7.84,15.6381 C7.84,16.9681 8.177,18.2211 8.762,19.3181 C8.805,19.2671 8.848,19.2191 8.891,19.1761 L11.4,16.6671 Z" id="Fill-11" fill="#6E6E6E"></path>
                <path d="M20.8219,22.0333 C20.5049,22.0333 20.1869,21.9123 19.9449,21.6693 L15.6649,17.3893 L11.3849,21.6693 C10.9019,22.1543 10.1169,22.1543 9.6319,21.6693 C9.1489,21.1863 9.1489,20.4013 9.6319,19.9173 L13.9129,15.6373 L9.6319,11.3583 C9.1489,10.8743 9.1489,10.0893 9.6319,9.6053 C10.1169,9.1203 10.9019,9.1203 11.3849,9.6053 L15.6649,13.8853 L19.9449,9.6053 C20.4289,9.1203 21.2139,9.1203 21.6969,9.6053 C22.1819,10.0893 22.1819,10.8743 21.6969,11.3583 L17.4179,15.6373 L21.6969,19.9173 C22.1819,20.4013 22.1819,21.1863 21.6969,21.6693 C21.4559,21.9123 21.1379,22.0333 20.8219,22.0333" id="Fill-13" fill="#231F20"></path>
                <path d="M17.4586,9.7042 C17.4586,8.7302 16.6686,7.9402 15.6946,7.9402 C14.7206,7.9402 13.9316,8.7302 13.9316,9.7042 C13.9316,10.6782 14.7206,11.4682 15.6946,11.4682 C16.6686,11.4682 17.4586,10.6782 17.4586,9.7042" id="Fill-15" fill="#231F20"></path>
                <path d="M6.4786,24.004 L6.5016,23.983 L8.0766,22.521 C8.1346,22.467 8.1656,22.399 8.1656,22.316 C8.1656,22.233 8.1356,22.159 8.0766,22.097 C8.0236,22.038 7.9536,22.006 7.8696,22 C7.7856,21.993 7.7116,22.017 7.6536,22.066 L5.8496,23.738 C5.7936,23.791 5.7626,23.851 5.7556,23.916 C5.7496,23.981 5.7726,24.042 5.8236,24.098 L6.6766,25.017 C6.7166,25.056 6.7576,25.074 6.8246,25.087 C6.9276,25.099 7.0056,25.058 7.0476,25.018 C7.1006,24.968 7.1316,24.906 7.1376,24.834 C7.1436,24.761 7.1216,24.698 7.0736,24.647 L6.4786,24.004 Z" id="Fill-17" fill="#231F20"></path>
                <path d="M10.1241,25.7335 C9.9861,25.9465 9.7921,26.0825 9.5511,26.1385 C9.4821,26.1545 9.4141,26.1635 9.3451,26.1635 C9.1791,26.1635 9.0171,26.1125 8.8671,26.0135 C8.6541,25.8745 8.5251,25.6805 8.4811,25.4375 C8.4381,25.1945 8.4861,24.9635 8.6261,24.7505 C8.7671,24.5355 8.9611,24.3975 9.2011,24.3385 C9.2721,24.3215 9.3431,24.3135 9.4131,24.3135 L9.4271,24.3135 C9.5851,24.3165 9.7391,24.3655 9.8851,24.4615 C10.0981,24.6015 10.2271,24.7965 10.2701,25.0425 C10.3131,25.2895 10.2631,25.5215 10.1241,25.7335 M10.2161,23.9555 C9.9631,23.7905 9.6901,23.7045 9.4051,23.7045 C9.2961,23.7045 9.1841,23.7175 9.0721,23.7415 C8.6641,23.8305 8.3391,24.0555 8.1071,24.4095 C7.8761,24.7605 7.8001,25.1475 7.8811,25.5555 C7.9631,25.9635 8.1841,26.2885 8.5351,26.5195 C8.7831,26.6815 9.0491,26.7665 9.3251,26.7715 L9.3511,26.7715 C9.4591,26.7715 9.5701,26.7595 9.6811,26.7355 C10.0881,26.6495 10.4141,26.4265 10.6441,26.0755 C10.8761,25.7205 10.9541,25.3335 10.8731,24.9235 C10.7911,24.5135 10.5711,24.1885 10.2161,23.9555" id="Fill-19" fill="#231F20"></path>
                <path d="M13.5533,25.4361 L11.8453,24.9061 C11.8203,24.8981 11.7953,24.8941 11.7723,24.8941 C11.7303,24.8941 11.6883,24.9061 11.6493,24.9291 C11.5873,24.9651 11.5433,25.0201 11.5213,25.0921 C11.5003,25.1591 11.5063,25.2271 11.5403,25.2941 C11.5743,25.3621 11.6223,25.4061 11.6843,25.4251 L12.2413,25.5981 L12.2313,25.6281 L11.5953,27.6771 C11.5733,27.7491 11.5833,27.8231 11.6253,27.8961 C11.6673,27.9701 11.7283,28.0201 11.8063,28.0451 C11.8373,28.0541 11.8683,28.0601 11.9003,28.0611 L11.9053,28.0911 L11.9053,28.0611 C11.9523,28.0611 11.9973,28.0491 12.0413,28.0281 C12.1163,27.9931 12.1653,27.9361 12.1903,27.8611 L12.8343,25.7821 L13.3933,25.9551 C13.4533,25.9741 13.5183,25.9641 13.5843,25.9291 C13.6513,25.8931 13.6943,25.8401 13.7153,25.7731 C13.7373,25.7011 13.7323,25.6311 13.7013,25.5661 C13.6703,25.5001 13.6213,25.4571 13.5533,25.4361" id="Fill-21" fill="#231F20"></path>
                <path d="M16.1998,25.6451 L14.4048,25.5811 C14.3358,25.5811 14.2778,25.6051 14.2288,25.6541 C14.1788,25.7061 14.1518,25.7701 14.1478,25.8461 C14.1448,25.9151 14.1698,25.9781 14.2208,26.0351 C14.2698,26.0921 14.3278,26.1211 14.3918,26.1241 L14.9758,26.1451 L14.9748,26.1771 L14.8988,28.3201 C14.8948,28.3951 14.9248,28.4641 14.9838,28.5241 C15.0448,28.5841 15.1168,28.6171 15.1988,28.6191 L15.2128,28.6501 L15.2128,28.6501 L15.2128,28.6191 C15.2908,28.6191 15.3608,28.5931 15.4208,28.5421 C15.4838,28.4881 15.5168,28.4201 15.5198,28.3411 L15.5958,26.1661 L15.6288,26.1671 L16.1858,26.1881 L16.1858,26.1881 C16.2498,26.1881 16.3068,26.1621 16.3588,26.1111 C16.4128,26.0591 16.4418,25.9961 16.4438,25.9261 C16.4458,25.8511 16.4238,25.7851 16.3758,25.7301 C16.3288,25.6761 16.2688,25.6471 16.1998,25.6451" id="Fill-23" fill="#231F20"></path>
                <path d="M19.3829,27.6207 C19.3219,27.5787 19.2569,27.5667 19.1899,27.5817 L18.1649,27.8137 L18.0189,27.1697 L18.8729,26.9757 C18.9389,26.9607 18.9919,26.9207 19.0289,26.8577 C19.0669,26.7947 19.0779,26.7277 19.0619,26.6587 C19.0469,26.5877 19.0079,26.5307 18.9469,26.4917 C18.8869,26.4517 18.8219,26.4397 18.7559,26.4547 L17.9009,26.6477 L17.7449,25.9597 L18.7319,25.7367 C18.7969,25.7217 18.8499,25.6817 18.8869,25.6177 C18.9229,25.5547 18.9349,25.4857 18.9199,25.4187 C18.9039,25.3437 18.8639,25.2867 18.8039,25.2457 C18.7609,25.2157 18.7159,25.2007 18.6679,25.2007 C18.6499,25.2007 18.6309,25.2037 18.6119,25.2077 L17.2579,25.5137 C17.1839,25.5307 17.1319,25.5677 17.1009,25.6247 C17.0709,25.6837 17.0629,25.7497 17.0769,25.8257 L17.6209,28.2257 C17.6399,28.2987 17.6769,28.3547 17.7289,28.3947 C17.7639,28.4207 17.8049,28.4327 17.8489,28.4337 L17.8529,28.4657 L17.8529,28.4657 L17.8529,28.4337 C17.8739,28.4337 17.8949,28.4327 17.9179,28.4267 L19.3099,28.1107 C19.3749,28.0967 19.4279,28.0567 19.4639,27.9917 C19.5019,27.9267 19.5129,27.8597 19.4979,27.7907 C19.4819,27.7197 19.4429,27.6627 19.3829,27.6207" id="Fill-25" fill="#231F20"></path>
                <path d="M21.4234,25.317 C21.4054,25.429 21.3454,25.512 21.2404,25.57 L20.7304,25.846 L20.3194,25.088 L20.8444,24.803 C20.9424,24.751 21.0454,24.747 21.1474,24.796 C21.2474,24.842 21.3244,24.913 21.3744,25.006 C21.4264,25.102 21.4434,25.207 21.4234,25.317 M22.5144,26.194 L21.7414,25.806 L21.7714,25.774 C21.9104,25.625 21.9944,25.454 22.0164,25.267 C22.0404,25.069 22.0054,24.878 21.9124,24.695 C21.7824,24.467 21.5964,24.31 21.3584,24.227 C21.2744,24.197 21.1864,24.182 21.0964,24.182 C20.9334,24.182 20.7614,24.231 20.5854,24.327 L19.7764,24.765 C19.6964,24.809 19.6474,24.87 19.6304,24.947 C19.6134,25.026 19.6254,25.108 19.6664,25.189 L20.8104,27.298 C20.8474,27.365 20.9074,27.41 20.9894,27.43 C21.0184,27.438 21.0454,27.442 21.0704,27.442 L21.0744,27.473 L21.0744,27.442 C21.1254,27.442 21.1754,27.429 21.2224,27.403 C21.2964,27.363 21.3484,27.303 21.3744,27.224 C21.4014,27.146 21.3954,27.07 21.3574,27.002 L20.9794,26.305 L21.2464,26.159 L22.2114,26.723 C22.2484,26.744 22.2894,26.755 22.3354,26.755 C22.3634,26.755 22.3944,26.75 22.4254,26.741 C22.5054,26.717 22.5654,26.671 22.6064,26.604 C22.6504,26.532 22.6644,26.454 22.6454,26.372 C22.6264,26.291 22.5824,26.231 22.5144,26.194" id="Fill-27" fill="#231F20"></path>
                <path d="M23.9879,23.7545 L23.9869,23.7445 L23.7639,22.2915 C23.7509,22.2205 23.7079,22.1595 23.6389,22.1145 C23.5699,22.0675 23.4999,22.0495 23.4209,22.0615 C23.3449,22.0735 23.2779,22.1125 23.2259,22.1765 C23.1739,22.2415 23.1549,22.3075 23.1699,22.3805 L23.4089,23.6035 L22.2009,23.3175 C22.1849,23.3145 22.1669,23.3145 22.1509,23.3145 C22.0959,23.3145 22.0429,23.3325 21.9949,23.3685 C21.9289,23.4185 21.8879,23.4825 21.8729,23.5615 C21.8599,23.6355 21.8759,23.7095 21.9199,23.7795 C21.9639,23.8495 22.0219,23.8935 22.0939,23.9095 L23.5349,24.1805 L23.5429,24.1875 L24.2929,24.9635 C24.3419,25.0145 24.4069,25.0415 24.4859,25.0425 L24.5009,25.0425 C24.5859,25.0415 24.6589,25.0115 24.7169,24.9545 C24.7779,24.8955 24.8109,24.8245 24.8159,24.7405 C24.8199,24.6585 24.7939,24.5875 24.7379,24.5305 L23.9879,23.7545 Z" id="Fill-29" fill="#231F20"></path>
                <path d="M7.3326,9.9171 L7.3326,9.9471 L7.3396,9.9171 C7.3516,9.9171 7.3626,9.9171 7.3746,9.9151 C7.4596,9.9051 7.5296,9.8691 7.5826,9.8061 C7.6386,9.7411 7.6656,9.6671 7.6616,9.5841 C7.6576,9.5001 7.6246,9.4331 7.5646,9.3811 L6.3656,8.3571 L8.2396,8.7081 C8.4006,8.7351 8.5286,8.6981 8.6206,8.5911 L8.6566,8.5491 C8.7066,8.4911 8.7256,8.4211 8.7136,8.3411 C8.7026,8.2601 8.6636,8.1911 8.5996,8.1361 L6.7436,6.5511 C6.6826,6.5001 6.6116,6.4771 6.5286,6.4881 C6.4456,6.4981 6.3756,6.5361 6.3206,6.6011 C6.2676,6.6621 6.2416,6.7371 6.2446,6.8231 C6.2496,6.9071 6.2806,6.9761 6.3386,7.0251 L7.5216,8.0351 L5.6816,7.6851 C5.6456,7.6791 5.6106,7.6751 5.5776,7.6751 C5.4616,7.6751 5.3646,7.7201 5.2896,7.8081 L5.2516,7.8511 C5.2036,7.9081 5.1836,7.9801 5.1946,8.0631 C5.2046,8.1471 5.2436,8.2191 5.3106,8.2761 L7.1606,9.8551 C7.2086,9.8961 7.2676,9.9171 7.3326,9.9171" id="Fill-31" fill="#231F20"></path>
                <path d="M10.4,4.2613 C10.467,4.2953 10.533,4.3003 10.593,4.2793 L11.144,4.0793 L11.887,6.1303 C11.913,6.2023 11.965,6.2543 12.045,6.2883 C12.087,6.3063 12.13,6.3163 12.172,6.3163 L12.172,6.3463 L12.172,6.3463 L12.176,6.3163 C12.211,6.3143 12.245,6.3083 12.279,6.2973 C12.358,6.2673 12.419,6.2153 12.456,6.1413 C12.494,6.0683 12.5,5.9923 12.473,5.9183 L11.728,3.8673 L12.28,3.6673 C12.339,3.6443 12.387,3.5993 12.417,3.5303 C12.447,3.4613 12.45,3.3923 12.426,3.3273 C12.401,3.2563 12.356,3.2023 12.291,3.1703 C12.226,3.1363 12.159,3.1333 12.094,3.1563 L10.408,3.7673 C10.341,3.7913 10.294,3.8373 10.265,3.9043 C10.237,3.9703 10.236,4.0403 10.262,4.1113 C10.285,4.1773 10.332,4.2283 10.4,4.2613" id="Fill-33" fill="#231F20"></path>
                <path d="M13.8419,3.0787 C13.8279,3.0007 13.7859,2.9377 13.7169,2.8927 C13.6649,2.8587 13.6059,2.8407 13.5449,2.8407 C13.5259,2.8407 13.5059,2.8427 13.4859,2.8467 C13.4079,2.8587 13.3419,2.8987 13.2909,2.9677 C13.2379,3.0357 13.2169,3.1077 13.2269,3.1837 L13.6369,5.6107 C13.6509,5.6857 13.6929,5.7477 13.7629,5.7947 C13.8189,5.8307 13.8779,5.8487 13.9389,5.8487 L13.9389,5.8807 L13.9399,5.8807 L13.9449,5.8487 C13.9609,5.8487 13.9769,5.8477 13.9939,5.8447 C14.0769,5.8297 14.1449,5.7897 14.1959,5.7237 C14.2469,5.6577 14.2659,5.5847 14.2519,5.5077 L13.8419,3.0787 Z" id="Fill-35" fill="#231F20"></path>
                <path d="M15.7525,3.5113 C15.9135,3.3593 16.1075,3.2793 16.3295,3.2753 L16.3475,3.2753 C16.3675,3.2753 16.3875,3.2753 16.4075,3.2763 C16.6625,3.2923 16.8725,3.3973 17.0325,3.5903 C17.1915,3.7833 17.2655,4.0093 17.2505,4.2633 C17.2345,4.5173 17.1355,4.7323 16.9545,4.9023 C16.7875,5.0573 16.5875,5.1363 16.3605,5.1363 C16.3395,5.1363 16.3185,5.1363 16.2965,5.1353 C16.0435,5.1203 15.8335,5.0163 15.6745,4.8263 C15.5155,4.6363 15.4425,4.4113 15.4585,4.1573 C15.4735,3.8993 15.5725,3.6823 15.7525,3.5113 M16.2615,5.7393 C16.2985,5.7413 16.3355,5.7423 16.3725,5.7423 L16.3935,5.7423 C16.7585,5.7353 17.0865,5.6063 17.3655,5.3563 C17.6775,5.0763 17.8485,4.7203 17.8725,4.3003 C17.8965,3.8763 17.7705,3.5013 17.4965,3.1863 C17.2215,2.8693 16.8665,2.6973 16.4425,2.6723 C16.4095,2.6703 16.3765,2.6693 16.3425,2.6693 C15.9635,2.6693 15.6265,2.8003 15.3415,3.0583 C15.0315,3.3403 14.8615,3.6963 14.8355,4.1203 C14.8105,4.5403 14.9375,4.9133 15.2125,5.2283 C15.4875,5.5433 15.8395,5.7143 16.2615,5.7393" id="Fill-37" fill="#231F20"></path>
                <path d="M18.3316,6.0318 C18.3696,6.0448 18.4076,6.0528 18.4446,6.0528 C18.4856,6.0528 18.5276,6.0438 18.5676,6.0278 C18.6436,5.9948 18.6966,5.9408 18.7246,5.8668 L19.2686,4.3858 L19.5906,6.2658 C19.6186,6.4278 19.6996,6.5338 19.8306,6.5828 L19.8836,6.6018 C19.9116,6.6128 19.9416,6.6178 19.9716,6.6178 L19.9716,6.6488 L19.9716,6.6498 L19.9756,6.6178 C20.0166,6.6178 20.0566,6.6058 20.0986,6.5838 C20.1696,6.5448 20.2216,6.4848 20.2506,6.4048 L21.0936,4.1138 C21.1196,4.0398 21.1146,3.9658 21.0776,3.8908 C21.0396,3.8168 20.9796,3.7638 20.9006,3.7348 C20.8236,3.7068 20.7436,3.7088 20.6656,3.7418 C20.5876,3.7738 20.5346,3.8278 20.5076,3.8988 L19.9716,5.3598 L19.6606,3.5118 C19.6326,3.3468 19.5486,3.2388 19.4096,3.1878 L19.3566,3.1668 C19.2856,3.1408 19.2106,3.1468 19.1366,3.1868 C19.0616,3.2248 19.0076,3.2868 18.9786,3.3698 L18.1396,5.6518 C18.1126,5.7238 18.1196,5.7988 18.1576,5.8738 C18.1956,5.9508 18.2536,6.0028 18.3316,6.0318" id="Fill-39" fill="#231F20"></path>
                <path d="M25.4591,7.1163 C25.4081,7.0533 25.3401,7.0163 25.2551,7.0053 C25.2371,7.0033 25.2211,7.0023 25.2051,7.0023 C25.1431,7.0023 25.0861,7.0203 25.0361,7.0573 L23.1251,8.6163 C23.0661,8.6643 23.0311,8.7213 23.0201,8.7863 C23.0101,8.8513 23.0281,8.9143 23.0761,8.9723 L23.8701,9.9473 C23.9141,9.9963 23.9741,10.0243 24.0491,10.0303 C24.0581,10.0313 24.0681,10.0293 24.0781,10.0313 C24.1401,10.0293 24.1941,10.0113 24.2411,9.9713 C24.2981,9.9253 24.3321,9.8653 24.3431,9.7933 C24.3531,9.7203 24.3351,9.6573 24.2911,9.6023 L23.7361,8.9213 L23.7611,8.9013 L25.4311,7.5403 C25.4931,7.4903 25.5261,7.4223 25.5321,7.3393 C25.5371,7.2563 25.5121,7.1813 25.4591,7.1163" id="Fill-41" fill="#231F20"></path>
                <path d="M21.9464,6.483 L22.9614,5.75 L22.5514,6.98 L21.9104,6.508 L21.9464,6.483 Z M20.6744,6.971 C20.7224,7.038 20.7884,7.083 20.8694,7.103 C20.9484,7.122 21.0224,7.112 21.0864,7.072 L21.4694,6.821 L21.4874,6.834 L22.3854,7.497 L22.2614,7.936 C22.2414,8.008 22.2544,8.082 22.2984,8.152 C22.3414,8.222 22.4034,8.272 22.4824,8.297 C22.5104,8.307 22.5404,8.311 22.5694,8.311 L22.5694,8.343 L22.5724,8.311 C22.6184,8.311 22.6664,8.297 22.7134,8.272 C22.7904,8.229 22.8414,8.17 22.8634,8.096 L23.5494,5.691 C23.6034,5.49 23.5474,5.326 23.3784,5.203 L23.3564,5.188 C23.1894,5.065 23.0154,5.06 22.8414,5.172 L20.7514,6.546 C20.6884,6.59 20.6474,6.656 20.6294,6.742 C20.6124,6.828 20.6274,6.905 20.6744,6.971 L20.6744,6.971 Z" id="Fill-43" fill="#231F20"></path>
                <path d="M9.2706,6.6114 L8.9206,5.3644 L9.9336,6.1734 L9.2706,6.6114 Z M9.0686,4.7934 C8.9826,4.7314 8.8946,4.6994 8.8066,4.6994 C8.7216,4.6994 8.6366,4.7284 8.5516,4.7834 L8.5296,4.7994 C8.3556,4.9134 8.2916,5.0754 8.3366,5.2784 L8.9056,7.7144 C8.9246,7.7884 8.9726,7.8504 9.0466,7.8954 C9.0976,7.9274 9.1506,7.9434 9.2046,7.9434 L9.2046,7.9734 L9.2086,7.9434 C9.2306,7.9424 9.2536,7.9394 9.2756,7.9334 C9.3566,7.9104 9.4206,7.8634 9.4676,7.7964 C9.5136,7.7274 9.5296,7.6554 9.5146,7.5804 L9.4106,7.1344 L9.4296,7.1234 L10.3586,6.5074 L10.7306,6.7764 C10.7746,6.8064 10.8266,6.8224 10.8826,6.8224 C10.9036,6.8224 10.9246,6.8214 10.9456,6.8174 C11.0256,6.8014 11.0946,6.7594 11.1466,6.6944 C11.1966,6.6314 11.2146,6.5544 11.2016,6.4674 C11.1876,6.3824 11.1506,6.3144 11.0876,6.2664 L9.0686,4.7934 Z" id="Fill-45" fill="#231F20"></path>
                <path d="M84.3893,0.8262 L20.6393,0.8262 C26.8153,2.9172 31.2733,8.7642 31.2733,15.6372 C31.2733,22.4572 26.8813,28.2692 20.7793,30.4012 L84.3893,30.4012 C92.5563,30.4012 99.1773,23.7812 99.1773,15.6142 C99.1773,7.4472 92.5563,0.8262 84.3893,0.8262" id="Fill-47" fill="#CFCFCF"></path>
                <path d="M37.2442,21.1465 C36.8262,21.1465 36.4492,20.9895 36.1552,20.6935 C35.8632,20.4015 35.7062,20.0255 35.7062,19.6085 L35.7062,12.2575 C35.7062,11.8575 35.8552,11.4965 36.1372,11.2135 C36.4222,10.9295 36.7842,10.7805 37.1822,10.7805 L38.6762,10.7805 C39.7962,10.7805 40.7192,11.1185 41.4182,11.7865 C42.1282,12.4645 42.4882,13.3105 42.4882,14.3005 C42.4882,15.2905 42.1282,16.1365 41.4182,16.8135 C40.7422,17.4585 39.8562,17.7975 38.7832,17.8185 L38.7832,19.6085 C38.7832,20.0245 38.6262,20.4005 38.3322,20.6955 C38.0362,20.9915 37.6602,21.1465 37.2442,21.1465" id="Fill-49" fill="#6E6E6E"></path>
                <path d="M45.6075,21.1465 C44.5095,21.1465 43.5675,20.7765 42.8065,20.0465 C42.0385,19.3085 41.6475,18.3875 41.6475,17.3095 C41.6475,16.2295 42.0385,15.3095 42.8065,14.5705 C43.5675,13.8415 44.5095,13.4715 45.6075,13.4715 C46.7035,13.4715 47.6465,13.8415 48.4055,14.5705 C49.1755,15.3095 49.5665,16.2305 49.5665,17.3095 C49.5665,18.3875 49.1755,19.3085 48.4065,20.0465 C47.6465,20.7775 46.7035,21.1465 45.6075,21.1465" id="Fill-51" fill="#6E6E6E"></path>
                <path d="M55.7779,21.1465 C55.2719,21.1465 54.8569,20.8595 54.6659,20.3785 L53.9669,18.6505 L53.2679,20.3835 C53.0759,20.8605 52.6609,21.1465 52.1569,21.1465 C51.6989,21.1465 51.2989,20.8935 51.0859,20.4685 L48.8579,15.4955 C48.7809,15.3425 48.7359,15.1365 48.7359,14.9115 C48.7359,14.5245 48.8759,14.1755 49.1389,13.9025 C49.4109,13.6205 49.7649,13.4715 50.1639,13.4715 C50.7809,13.4715 51.2639,13.7875 51.4929,14.3385 L52.1569,15.9515 L52.8589,14.2425 C53.0409,13.7665 53.4589,13.4715 53.9669,13.4715 C54.4769,13.4715 54.8949,13.7665 55.0839,14.2615 L55.7789,15.9515 L56.4429,14.3395 C56.6709,13.7875 57.1559,13.4715 57.7709,13.4715 C58.1689,13.4715 58.5229,13.6205 58.7959,13.9015 C59.0599,14.1755 59.1999,14.5245 59.1999,14.9115 C59.1999,15.1365 59.1549,15.3425 59.0659,15.5225 L56.8649,20.4365 C56.6359,20.8935 56.2369,21.1465 55.7779,21.1465" id="Fill-53" fill="#6E6E6E"></path>
                <path d="M62.3394,21.1465 C61.2444,21.1465 60.3024,20.7795 59.5374,20.0575 C58.7614,19.3225 58.3684,18.3975 58.3684,17.3095 C58.3684,16.2415 58.7524,15.3245 59.5094,14.5835 C60.2634,13.8455 61.1824,13.4715 62.2414,13.4715 C63.2734,13.4715 64.1704,13.8255 64.9094,14.5235 C65.6474,15.2205 66.0524,16.0915 66.1144,17.1125 C66.1374,17.4505 66.0254,17.7755 65.7874,18.0455 C65.7374,18.1025 65.6844,18.1535 65.6254,18.1995 C65.7074,18.3845 65.7494,18.5865 65.7494,18.8015 C65.7494,19.1565 65.6244,19.4885 65.3864,19.7615 C64.5794,20.6815 63.5544,21.1465 62.3394,21.1465" id="Fill-55" fill="#6E6E6E"></path>
                <path d="M67.4654,21.1465 C67.0664,21.1465 66.7044,20.9975 66.4214,20.7145 C66.1384,20.4315 65.9884,20.0705 65.9884,19.6695 L65.9884,14.9485 C65.9884,14.5485 66.1384,14.1885 66.4194,13.9055 C66.7044,13.6205 67.0664,13.4715 67.4654,13.4715 C67.8024,13.4715 68.1124,13.5785 68.3704,13.7815 C68.7504,13.5765 69.1704,13.4715 69.6184,13.4715 C69.8514,13.4715 70.0534,13.4885 70.2364,13.5225 C70.5844,13.5995 70.8634,13.7655 71.0694,14.0085 C71.2864,14.2665 71.4014,14.5785 71.4014,14.9115 C71.4014,15.2935 71.2584,15.6405 70.9874,15.9115 C70.7154,16.1845 70.3694,16.3275 69.9844,16.3275 C69.8894,16.3275 69.7824,16.3135 69.5894,16.2735 C69.4224,16.2435 69.2654,16.1955 69.1124,16.3865 C68.9954,16.5305 68.9424,16.7035 68.9424,16.9305 L68.9424,19.6695 C68.9424,20.0715 68.7914,20.4325 68.5084,20.7145 C68.2264,20.9975 67.8644,21.1465 67.4654,21.1465" id="Fill-57" fill="#6E6E6E"></path>
                <path d="M74.2691,21.0001 L72.4821,21.0001 C72.0901,21.0001 71.7371,20.8541 71.4621,20.5801 C71.1881,20.3061 71.0421,19.9521 71.0421,19.5601 L71.0421,12.2211 C71.0421,11.8341 71.1821,11.4861 71.4461,11.2111 C71.7161,10.9291 72.0721,10.7811 72.4701,10.7811 L73.9381,10.7811 C74.9961,10.7811 75.8531,11.0461 76.4891,11.5691 C77.1641,12.1251 77.5191,12.8661 77.5191,13.7131 C77.5191,14.3171 77.3611,14.8611 77.0491,15.3281 C77.0241,15.3661 76.9971,15.4041 76.9701,15.4401 C77.1241,15.5691 77.2621,15.7121 77.3861,15.8701 C77.8071,16.4081 78.0201,17.0531 78.0201,17.7861 C78.0201,18.7241 77.6511,19.5361 76.9541,20.1341 C76.2851,20.7081 75.3811,21.0001 74.2691,21.0001" id="Fill-59" fill="#6E6E6E"></path>
                <path d="M84.2154,21.1465 C83.8244,21.1465 83.4704,21.0035 83.1914,20.7335 C82.6804,21.0055 82.0904,21.1465 81.4394,21.1465 C80.3974,21.1465 79.4984,20.7715 78.7694,20.0305 C78.0424,19.2945 77.6754,18.3785 77.6754,17.3095 C77.6754,16.2395 78.0424,15.3235 78.7694,14.5865 C79.4984,13.8465 80.3974,13.4715 81.4394,13.4715 C82.0904,13.4715 82.6804,13.6125 83.1914,13.8845 C83.4704,13.6145 83.8244,13.4715 84.2154,13.4715 C84.6144,13.4715 84.9764,13.6205 85.2594,13.9035 C85.5414,14.1855 85.6924,14.5475 85.6924,14.9485 L85.6924,19.6695 C85.6924,20.0725 85.5404,20.4345 85.2574,20.7155 C84.9764,20.9975 84.6144,21.1465 84.2154,21.1465" id="Fill-61" fill="#6E6E6E"></path>
                <path d="M87.4869,21.1465 C87.0869,21.1465 86.7249,20.9975 86.4419,20.7145 C86.1609,20.4325 86.0099,20.0715 86.0099,19.6695 L86.0099,11.4995 C86.0099,11.0995 86.1599,10.7375 86.4409,10.4555 C87.0099,9.8885 87.9629,9.8885 88.5299,10.4525 C88.8149,10.7395 88.9649,11.1005 88.9649,11.4995 L88.9649,19.6695 C88.9649,20.0705 88.8139,20.4315 88.5319,20.7145 C88.2469,20.9975 87.8869,21.1465 87.4869,21.1465" id="Fill-63" fill="#6E6E6E"></path>
                <path d="M90.7848,21.1465 C90.3848,21.1465 90.0228,20.9975 89.7398,20.7145 C89.4578,20.4325 89.3068,20.0715 89.3068,19.6695 L89.3068,11.4995 C89.3068,11.0995 89.4568,10.7375 89.7388,10.4555 C90.0238,10.1705 90.3858,10.0215 90.7848,10.0215 C91.1818,10.0215 91.5438,10.1705 91.8268,10.4525 C92.1108,10.7375 92.2608,11.0995 92.2608,11.4995 L92.2608,19.6695 C92.2608,20.0715 92.1098,20.4325 91.8278,20.7145 C91.5448,20.9975 91.1828,21.1465 90.7848,21.1465" id="Fill-65" fill="#6E6E6E"></path>
                <path d="M37.9537,12.9058 L37.9537,15.6948 L38.6387,15.6948 C39.1117,15.6948 39.4967,15.5708 39.7947,15.3218 C40.0917,15.0728 40.2417,14.7318 40.2417,14.2998 C40.2417,13.8678 40.0917,13.5268 39.7947,13.2788 C39.4967,13.0298 39.1117,12.9058 38.6387,12.9058 L37.9537,12.9058 Z M36.5357,19.6088 L36.5357,12.2578 C36.5357,12.0778 36.5987,11.9248 36.7247,11.7988 C36.8507,11.6718 37.0037,11.6098 37.1827,11.6098 L38.6757,11.6098 C39.5797,11.6098 40.3047,11.8678 40.8467,12.3858 C41.3887,12.9038 41.6607,13.5418 41.6607,14.2998 C41.6607,15.0578 41.3887,15.6968 40.8467,16.2138 C40.3047,16.7328 39.5797,16.9908 38.6757,16.9908 L37.9537,16.9908 L37.9537,19.6088 C37.9537,19.8048 37.8847,19.9718 37.7457,20.1098 C37.6067,20.2488 37.4397,20.3188 37.2447,20.3188 C37.0487,20.3188 36.8807,20.2488 36.7427,20.1098 C36.6037,19.9718 36.5357,19.8048 36.5357,19.6088 L36.5357,19.6088 Z" id="Fill-67" fill="#FFFFFF"></path>
                <path d="M44.2979,16.0132 C43.9469,16.3552 43.7719,16.7872 43.7719,17.3092 C43.7719,17.8312 43.9469,18.2632 44.2979,18.6062 C44.6489,18.9482 45.0849,19.1192 45.6079,19.1192 C46.1299,19.1192 46.5649,18.9482 46.9149,18.6062 C47.2669,18.2632 47.4419,17.8312 47.4419,17.3092 C47.4419,16.7872 47.2669,16.3552 46.9149,16.0132 C46.5649,15.6702 46.1299,15.4992 45.6079,15.4992 C45.0849,15.4992 44.6489,15.6702 44.2979,16.0132 M43.3809,19.4502 C42.7769,18.8702 42.4759,18.1572 42.4759,17.3092 C42.4759,16.4612 42.7769,15.7472 43.3809,15.1682 C43.9849,14.5892 44.7259,14.3002 45.6079,14.3002 C46.4869,14.3002 47.2299,14.5892 47.8329,15.1682 C48.4369,15.7472 48.7379,16.4612 48.7379,17.3092 C48.7379,18.1572 48.4369,18.8702 47.8329,19.4502 C47.2299,20.0292 46.4869,20.3182 45.6079,20.3182 C44.7259,20.3182 43.9849,20.0292 43.3809,19.4502" id="Fill-69" fill="#FFFFFF"></path>
                <path d="M53.9684,16.4405 L52.4994,20.0735 C52.4344,20.2375 52.3204,20.3185 52.1564,20.3185 C52.0114,20.3185 51.9014,20.2455 51.8274,20.0985 L49.6124,15.1565 C49.5804,15.0915 49.5644,15.0095 49.5644,14.9115 C49.5644,14.7405 49.6214,14.5955 49.7364,14.4775 C49.8494,14.3585 49.9924,14.2995 50.1634,14.2995 C50.4414,14.2995 50.6284,14.4185 50.7264,14.6545 L52.1564,18.1285 L53.6244,14.5565 C53.6904,14.3855 53.8054,14.2995 53.9684,14.2995 C54.1314,14.2995 54.2454,14.3855 54.3104,14.5565 L55.7794,18.1285 L57.2084,14.6545 C57.3064,14.4185 57.4934,14.2995 57.7724,14.2995 C57.9444,14.2995 58.0854,14.3585 58.1994,14.4775 C58.3154,14.5955 58.3714,14.7405 58.3714,14.9115 C58.3714,15.0095 58.3554,15.0915 58.3224,15.1565 L56.1084,20.0985 C56.0344,20.2455 55.9254,20.3185 55.7794,20.3185 C55.6154,20.3185 55.5004,20.2375 55.4364,20.0735 L53.9684,16.4405 Z" id="Fill-71" fill="#FFFFFF"></path>
                <path d="M60.5914,16.6978 L63.9674,16.6978 C63.8774,16.3058 63.6774,16.0088 63.3674,15.8048 C63.0584,15.6018 62.6864,15.4988 62.2544,15.4988 C61.9034,15.4988 61.5704,15.6068 61.2514,15.8228 C60.9334,16.0388 60.7134,16.3308 60.5914,16.6978 M62.3394,20.3188 C61.4594,20.3188 60.7154,20.0308 60.1084,19.4558 C59.4994,18.8818 59.1964,18.1648 59.1964,17.3088 C59.1964,16.4688 59.4944,15.7578 60.0894,15.1748 C60.6854,14.5918 61.4024,14.2998 62.2414,14.2998 C63.0584,14.2998 63.7564,14.5748 64.3394,15.1258 C64.9234,15.6758 65.2384,16.3558 65.2874,17.1628 C65.2954,17.2848 65.2554,17.3968 65.1654,17.4988 C65.0754,17.6008 64.9574,17.6518 64.8114,17.6518 L60.5184,17.6518 C60.5914,18.1158 60.8054,18.4768 61.1594,18.7348 C61.5154,18.9908 61.9154,19.1188 62.3644,19.1188 C62.9444,19.1188 63.4244,18.8868 63.8094,18.4218 C63.9304,18.2588 64.0944,18.1778 64.2974,18.1778 C64.4774,18.1778 64.6254,18.2368 64.7434,18.3548 C64.8624,18.4728 64.9214,18.6218 64.9214,18.8018 C64.9214,18.9568 64.8674,19.0958 64.7624,19.2168 C64.1174,19.9508 63.3114,20.3188 62.3394,20.3188" id="Fill-73" fill="#FFFFFF"></path>
                <path d="M68.1129,14.9483 L68.1129,15.0713 C68.5209,14.5573 69.0229,14.3003 69.6189,14.3003 C69.7979,14.3003 69.9529,14.3123 70.0839,14.3373 C70.2299,14.3693 70.3469,14.4383 70.4369,14.5443 C70.5269,14.6513 70.5729,14.7733 70.5729,14.9113 C70.5729,15.0753 70.5149,15.2133 70.4009,15.3273 C70.2869,15.4423 70.1479,15.4983 69.9849,15.4983 C69.9529,15.4983 69.8749,15.4873 69.7529,15.4623 C69.6219,15.4373 69.4959,15.4253 69.3739,15.4253 C69.0059,15.4253 68.7049,15.5723 68.4669,15.8653 C68.2309,16.1593 68.1129,16.5133 68.1129,16.9303 L68.1129,19.6693 C68.1129,19.8493 68.0499,20.0023 67.9249,20.1283 C67.7979,20.2553 67.6449,20.3183 67.4659,20.3183 C67.2859,20.3183 67.1329,20.2553 67.0069,20.1283 C66.8799,20.0023 66.8169,19.8493 66.8169,19.6693 L66.8169,14.9483 C66.8169,14.7693 66.8799,14.6153 67.0069,14.4903 C67.1329,14.3633 67.2859,14.3003 67.4659,14.3003 C67.6449,14.3003 67.7979,14.3633 67.9249,14.4903 C68.0499,14.6153 68.1129,14.7693 68.1129,14.9483" id="Fill-75" fill="#FFFFFF"></path>
                <path d="M73.2896,16.2325 L73.2896,18.9485 L74.1216,18.9485 C74.6356,18.9485 75.0386,18.8235 75.3326,18.5755 C75.6256,18.3265 75.7726,17.9985 75.7726,17.5905 C75.7726,17.1835 75.6256,16.8555 75.3326,16.6055 C75.0386,16.3575 74.6356,16.2325 74.1216,16.2325 L73.2896,16.2325 Z M73.2896,12.8325 L73.2896,15.0095 L73.9496,15.0095 C74.3986,15.0095 74.7336,14.9095 74.9596,14.7105 C75.1836,14.5095 75.2956,14.2475 75.2956,13.9205 C75.2956,13.5955 75.1836,13.3315 74.9596,13.1315 C74.7336,12.9315 74.3986,12.8325 73.9496,12.8325 L73.2896,12.8325 Z M71.8706,19.5605 L71.8706,12.2205 C71.8706,12.0495 71.9276,11.9045 72.0426,11.7865 C72.1556,11.6685 72.2986,11.6085 72.4706,11.6085 L73.9366,11.6085 C74.8026,11.6085 75.4776,11.8095 75.9626,12.2085 C76.4466,12.6075 76.6896,13.1095 76.6896,13.7125 C76.6896,14.1525 76.5796,14.5385 76.3596,14.8685 C76.1396,15.1995 75.8166,15.4385 75.3936,15.5845 C75.9806,15.7225 76.4266,15.9885 76.7326,16.3795 C77.0386,16.7715 77.1906,17.2405 77.1906,17.7865 C77.1906,18.4875 76.9326,19.0605 76.4146,19.5045 C75.8966,19.9495 75.1816,20.1715 74.2686,20.1715 L72.4816,20.1715 C72.3116,20.1715 72.1666,20.1125 72.0476,19.9935 C71.9306,19.8765 71.8706,19.7315 71.8706,19.5605 L71.8706,19.5605 Z" id="Fill-77" fill="#FFFFFF"></path>
                <path d="M82.9801,18.6422 C83.3471,18.2752 83.5301,17.8312 83.5301,17.3092 C83.5301,16.7872 83.3471,16.3452 82.9801,15.9822 C82.6131,15.6192 82.1721,15.4372 81.6591,15.4372 C81.1451,15.4372 80.7061,15.6192 80.3371,15.9822 C79.9711,16.3452 79.7881,16.7872 79.7881,17.3092 C79.7881,17.8312 79.9711,18.2742 80.3371,18.6372 C80.7061,18.9982 81.1451,19.1812 81.6591,19.1812 C82.1721,19.1812 82.6131,19.0012 82.9801,18.6422 M83.5671,15.2542 L83.5671,14.9492 C83.5671,14.7692 83.6301,14.6162 83.7561,14.4902 C83.8821,14.3632 84.0371,14.3002 84.2151,14.3002 C84.3941,14.3002 84.5471,14.3632 84.6741,14.4902 C84.8011,14.6162 84.8641,14.7692 84.8641,14.9492 L84.8641,19.6702 C84.8641,19.8502 84.8011,20.0022 84.6741,20.1282 C84.5471,20.2552 84.3941,20.3182 84.2151,20.3182 C84.0371,20.3182 83.8821,20.2552 83.7561,20.1282 C83.6301,20.0022 83.5671,19.8502 83.5671,19.6702 L83.5671,19.3642 C83.0531,20.0002 82.3431,20.3182 81.4391,20.3182 C80.6231,20.3182 79.9301,20.0292 79.3591,19.4492 C78.7891,18.8702 78.5031,18.1572 78.5031,17.3092 C78.5031,16.4612 78.7891,15.7472 79.3591,15.1682 C79.9301,14.5892 80.6231,14.3002 81.4391,14.3002 C82.3431,14.3002 83.0531,14.6182 83.5671,15.2542" id="Fill-79" fill="#FFFFFF"></path>
                <path d="M86.8385,19.67 L86.8385,11.499 C86.8385,11.32 86.9015,11.167 87.0275,11.04 C87.1545,10.914 87.3085,10.851 87.4865,10.851 C87.6665,10.851 87.8195,10.914 87.9465,11.04 C88.0725,11.167 88.1355,11.32 88.1355,11.499 L88.1355,19.67 C88.1355,19.85 88.0725,20.003 87.9465,20.128 C87.8195,20.255 87.6665,20.318 87.4865,20.318 C87.3085,20.318 87.1545,20.255 87.0275,20.128 C86.9015,20.003 86.8385,19.85 86.8385,19.67" id="Fill-81" fill="#FFFFFF"></path>
                <path d="M90.1363,19.67 L90.1363,11.499 C90.1363,11.32 90.1983,11.167 90.3243,11.04 C90.4513,10.914 90.6043,10.851 90.7843,10.851 C90.9633,10.851 91.1153,10.914 91.2423,11.04 C91.3693,11.167 91.4323,11.32 91.4323,11.499 L91.4323,19.67 C91.4323,19.85 91.3693,20.003 91.2423,20.128 C91.1153,20.255 90.9633,20.318 90.7843,20.318 C90.6043,20.318 90.4513,20.255 90.3243,20.128 C90.1983,20.003 90.1363,19.85 90.1363,19.67" id="Fill-83" fill="#FFFFFF"></path>
                <path d="M81.6744,16.4898 C81.2154,16.4898 80.8404,16.8638 80.8404,17.3238 C80.8404,17.7838 81.2154,18.1578 81.6744,18.1578 C82.1344,18.1578 82.5084,17.7838 82.5084,17.3238 C82.5084,16.8638 82.1344,16.4898 81.6744,16.4898" id="Fill-85" fill="#FFFFFF"></path>
                <path d="M45.607,16.4747 C45.148,16.4747 44.773,16.8487 44.773,17.3097 C44.773,17.7687 45.148,18.1427 45.607,18.1427 C46.066,18.1427 46.441,17.7687 46.441,17.3097 C46.441,16.8487 46.066,16.4747 45.607,16.4747" id="Fill-87" fill="#FFFFFF"></path>
            </g>
        </g>
    </g>
</svg>