<svg xmlns="http://www.w3.org/2000/svg" xmlns:xlink="http://www.w3.org/1999/xlink" width="16" height="12" viewBox="0 0 16 12">
    <defs>
        <path id="a" d="M0 0h16v11.429H0z"/>
    </defs>
    <g fill="none" fill-rule="evenodd">
        <mask id="b" fill="#fff">
            <use xlink:href="#a"/>
        </mask>
        <use fill="#FFF" xlink:href="#a"/>
        <path fill="#0A17A7" d="M0 0h16v11.429H0z" mask="url(#b)"/>
        <path fill="#FFF" d="M3.814 7.619H0v-3.81h3.814L-1.585.17l.852-1.264L6.095 3.51V-.762h3.81V3.51l6.828-4.605.852 1.263-5.399 3.642H16v3.809h-3.814l5.399 3.641-.852 1.264-6.828-4.606v4.272h-3.81V7.918l-6.828 4.606-.852-1.264L3.814 7.62z" mask="url(#b)"/>
        <path stroke="#DB1F35" stroke-linecap="round" stroke-width=".667" d="M10.667 3.618l7.238-4.76" mask="url(#b)"/>
        <path stroke="#DB1F35" stroke-linecap="round" stroke-width=".667" d="M11.436 12.2l6.488-4.373" mask="url(#b)" transform="matrix(1 0 0 -1 0 20.027)"/>
        <path stroke="#DB1F35" stroke-linecap="round" stroke-width=".667" d="M4.575 3.606l-6.768-4.56" mask="url(#b)"/>
        <path stroke="#DB1F35" stroke-linecap="round" stroke-width=".667" d="M5.309 12.749l-7.502-4.975" mask="url(#b)" transform="matrix(1 0 0 -1 0 20.523)"/>
        <path fill="#E6273E" d="M0 6.857h6.857v4.572h2.286V6.857H16V4.571H9.143V0H6.857v4.571H0z" mask="url(#b)"/>
    </g>
</svg>
