<?xml version="1.0" encoding="UTF-8"?>
<svg viewBox="0 0 24 24" version="1.1" xmlns="http://www.w3.org/2000/svg" xmlns:xlink="http://www.w3.org/1999/xlink">
    <!-- Generator: Sketch 48.2 (47327) - http://www.bohemiancoding.com/sketch -->
    <title>24px/Print/Green</title>
    <desc>Created with Sketch.</desc>
    <defs></defs>
    <g id="Symbols" stroke="none" stroke-width="1" fill="none" fill-rule="evenodd">
        <g id="24px/Print/Green" stroke="#009639">
            <g id="Group" transform="translate(4.000000, 4.000000)">
                <path d="M5.68953333,13.6774 L10.2856667,13.6774" id="Shape"></path>
                <path d="M5.68953333,11.6 L10.2856667,11.6" id="Shape"></path>
                <path d="M4.33753333,2.3488 L1.65773333,2.3488 C0.925866667,2.3488 0.330333333,2.95386667 0.330333333,3.69746667 L0.330333333,8.30426667 C0.330333333,9.0482 0.925866667,9.65266667 1.65773333,9.65266667 L14.3253333,9.65266667 C15.0572,9.65266667 15.6521333,9.04813333 15.6521333,8.30426667 L15.6521333,3.69746667 C15.6521333,2.95386667 15.0572,2.3488 14.3253333,2.3488 L11.6639333,2.3488" id="Shape"></path>
                <path d="M4.33753333,11.071 L4.33753333,15.3289333 C4.33753333,15.5175333 4.4814,15.6702667 4.65906667,15.6702667 L11.342,15.6702667 C11.5200667,15.6702667 11.6638667,15.5174667 11.6638667,15.3289333 L11.6638667,11.0708" id="Shape"></path>
                <path d="M11.6638667,5.03593333 L11.6638667,2.46526667 C11.6638667,2.37393333 11.6271333,2.2864 11.5624,2.22233333 L10.1364667,0.4708 C10.0729333,0.407933333 9.9872,0.372666667 9.8978,0.372666667 L4.67766667,0.372666667 C4.48973333,0.372666667 4.33753333,0.525466667 4.33753333,0.713933333 L4.33753333,5.03593333 L11.6638667,5.03593333 Z" id="Shape"></path>
            </g>
        </g>
    </g>
</svg>