<svg xmlns="http://www.w3.org/2000/svg" viewBox="0 0 64 64">
    <g fill="none" fill-rule="evenodd">
        <path stroke="#009639" stroke-width="2" d="M33.696 13.117l21.83 34.934a2 2 0 0 1-1.697 3.06H10.17a2 2 0 0 1-1.696-3.06l21.83-34.934a2 2 0 0 1 3.392 0z"/>
        <path fill="#009639" d="M33.088 26.222h-2.277l.298 11.885h1.68l.299-11.885zm-1.132 14.523c-.834 0-1.556.722-1.556 1.555 0 .834.722 1.568 1.556 1.568.833 0 1.555-.734 1.555-1.568 0-.833-.722-1.555-1.555-1.555z"/>
    </g>
</svg>
