<?xml version="1.0" encoding="UTF-8"?>
<svg viewBox="0 0 21 18" version="1.1" xmlns="http://www.w3.org/2000/svg" xmlns:xlink="http://www.w3.org/1999/xlink">
    <!-- Generator: Sketch 51.2 (57519) - http://www.bohemiancoding.com/sketch -->
    <title>Green-chat-ic</title>
    <desc>Created with Sketch.</desc>
    <defs></defs>
    <g id="Android" stroke="none" stroke-width="1" fill="none" fill-rule="evenodd">
        <g id="Mobile-chat" transform="translate(-76.000000, -38.000000)" stroke="#006341" stroke-width="1.5">
            <g id="Green-chat-ic" transform="translate(77.000000, 39.000000)">
                <path d="M15.7945944,0 L3.30262222,0 C1.53446111,0 0,1.46796985 0,3.27884701 L0,8.68186872 C0,10.4927459 1.53446111,11.9745409 3.30262222,11.9745409 L4.22222222,11.9745409 L4.22222222,15.1841533 C4.22222222,15.8903246 4.91128889,16.2643657 5.41679444,15.7840778 L9.30071111,11.9745409 L15.7945944,11.9745409 C17.5627556,11.9745409 19,10.492637 19,8.68186872 L19,3.27884701 C19,1.46796985 17.5627556,0 15.7945944,0 L15.7945944,0 Z" id="Shape"></path>
                <path d="M3,4 L16,4" id="Shape"></path>
                <path d="M3,8 L14,8" id="Shape"></path>
            </g>
        </g>
    </g>
</svg>