<?xml version="1.0" encoding="UTF-8"?>
<svg viewBox="0 0 30 32" version="1.1" xmlns="http://www.w3.org/2000/svg" xmlns:xlink="http://www.w3.org/1999/xlink">
    <!-- Generator: sketchtool 50.2 (55047) - http://www.bohemiancoding.com/sketch -->
    <title>4692D3AD-ED80-42B2-BAAA-32F9944E35A7</title>
    <desc>Created with sketchtool.</desc>
    <defs></defs>
    <g id="Desktop-chat" stroke="none" stroke-width="1" fill="none" fill-rule="evenodd">
        <g id="New-closed-option" transform="translate(-1381.000000, -103.000000)" stroke-width="2">
            <g id="Group-6" transform="translate(1384.000000, 106.000000)">
                <g id="chat_icon-copy" transform="translate(1.000000, 3.000000)" stroke="#4A4A4A">
                    <g id="Group" transform="translate(0.000000, 0.647321)">
                        <path d="M20.7823611,0.647321429 L4.34555556,0.647321429 C2.01902778,0.647321429 0,2.7853802 0,5.42287428 L0,13.2922307 C0,15.9297247 2.01902778,18.0879195 4.34555556,18.0879195 L5.55555556,18.0879195 L5.55555556,22.762634 C5.55555556,23.7911536 6.46222222,24.3359345 7.12736111,23.6364079 L12.2377778,18.0879195 L20.7823611,18.0879195 C23.1088889,18.0879195 25,15.9295662 25,13.2922307 L25,5.42287428 C25,2.7853802 23.1088889,0.647321429 20.7823611,0.647321429 L20.7823611,0.647321429 Z" id="Shape"></path>
                        <path d="M4.16666667,6.47321429 L20.8333333,6.47321429" id="Shape"></path>
                        <path d="M4.16666667,12.2271825 L18.0555556,12.2271825" id="Shape"></path>
                    </g>
                </g>
                <path d="M11.8567452,-2 L12.0046315,-2 L12.0007154,-2.84749459 L11.9217884,-2.92605766 L11.8527864,-2.85673605 L11.8567452,-2 Z M11.9953685,28 L11.9992846,28.8474946 L12.0782116,28.9260577 L12.1472136,28.8567361 L12.1432548,28 L11.9953685,28 Z M9.99536855,-4 L13.847525,-4 L14.0046315,30 L10.152475,30 L9.99536855,-4 Z" id="Rectangle-path" stroke="#FFFFFF" fill="#D0021B" fill-rule="nonzero" transform="translate(12.000000, 13.000000) rotate(43.496721) translate(-12.000000, -13.000000) "></path>
            </g>
        </g>
    </g>
</svg>