<?xml version="1.0" encoding="UTF-8"?>
<svg viewBox="0 0 66 52" version="1.1" xmlns="http://www.w3.org/2000/svg" xmlns:xlink="http://www.w3.org/1999/xlink">
    <!-- Generator: Sketch 50.2 (55047) - http://www.bohemiancoding.com/sketch -->
    <title>Group 4</title>
    <desc>Created with Sketch.</desc>
    <defs></defs>
    <g id="Page-1" stroke="none" stroke-width="1" fill="none" fill-rule="evenodd">
        <g id="ONIA_03" transform="translate(-365.000000, -394.000000)" stroke="#666666" stroke-width="2">
            <g id="Group-13" transform="translate(236.000000, 356.000000)">
                <g id="Group-9">
                    <g id="Group-4" transform="translate(130.000000, 40.000000)">
                        <polyline id="Shape" points="36.0173992 28.3495223 20.5653098 34.8101524 -1.26565425e-14 24.5"></polyline>
                        <path d="M63.7588892,17.0434783 L50.1333333,22.7035116" id="Shape"></path>
                        <polyline id="Shape" points="63.8365837 10.366008 42.9822941 0 -1.26565425e-14 18.0190705"></polyline>
                        <path d="M50.1333333,16.3928876 L63.7588892,10.6521739" id="Shape"></path>
                        <polyline id="Shape" points="-1.26565425e-14 18.1086957 20.5653098 28.4188481 36.0165517 22.0042001"></polyline>
                        <polyline id="Shape" points="36.0165517 35.8669774 20.5653098 42.2666742 -1.26565425e-14 31.9565217"></polyline>
                        <path d="M63.7588892,24.5 L50.1333333,30.1995272" id="Shape"></path>
                        <polyline id="Shape" points="63.8365837 30.8913043 20.5653098 48.8545192 -1.26565425e-14 38.5443668"></polyline>
                        <polyline id="Shape" points="36.7531608 42.0599544 36.7531608 22.0120283 16 11.7173913"></polyline>
                        <polyline id="Shape" points="29.8666667 5.32608696 50.2122049 15.9332896 50.2122049 35.8968681"></polyline>
                    </g>
                </g>
            </g>
        </g>
    </g>
</svg>