<svg xmlns="http://www.w3.org/2000/svg" viewBox="0 0 24 24">
    <g fill="none" fill-rule="evenodd" transform="translate(3 3)">
        <rect width="17" height="17" x=".5" y=".5" stroke="#666666" rx="8.5"/>
        <path fill="#666666" d="M9.02 10.794l.053-.843c1.955-.25 3.015-1.23 3.015-2.81 0-1.66-1.323-2.733-3.634-2.733-.382 0-.902.04-1.238.092l.119 1.416c.283-.027.665-.06 1.053-.06 1.39 0 2.16.488 2.16 1.343 0 .955-.784 1.475-2.193 1.475H7.77v2.12H9.02zM8.403 12c-.533 0-1.003.457-1.003.994 0 .537.47 1.006 1.003 1.006.533 0 .997-.469.997-1.006S8.936 12 8.403 12z"/>
    </g>
</svg>
