<svg xmlns="http://www.w3.org/2000/svg" xmlns:xlink="http://www.w3.org/1999/xlink" width="16" height="12" viewBox="0 0 16 12">
    <defs>
        <path id="a" d="M0 0h16v11.429H0z"/>
    </defs>
    <g fill="none" fill-rule="evenodd">
        <mask id="b" fill="#fff">
            <use xlink:href="#a"/>
        </mask>
        <use fill="#FFF" xlink:href="#a"/>
        <path fill="#F0371D" d="M0 0h16v11.429H0z" mask="url(#b)"/>
        <path fill="#FFF" d="M9.143 5.478c-.608-.38-.762.312-.762 0 0-.63.682-1.142 1.524-1.142.841 0 1.524.511 1.524 1.142-.723 0-.796.381-1.143.381-.427 0-.535 0-1.143-.38zm.952-.145a.19.19 0 1 0 0-.38.19.19 0 0 0 0 .38zM8.715 6.83c.175-.696-.531-.629-.235-.725.6-.195 1.298.296 1.558 1.096s-.016 1.607-.616 1.802c-.224-.687-.608-.638-.716-.969-.131-.406-.165-.509.01-1.204zm.433.86a.19.19 0 1 0 .362-.117.19.19 0 0 0-.362.117zm-1.849-.85c.716-.049.434-.7.617-.448.37.511.12 1.326-.561 1.82-.681.495-1.534.482-1.905-.028.585-.425.42-.776.7-.98.346-.25.434-.315 1.15-.364zm-.685.677a.19.19 0 1 0 .224.309.19.19 0 0 0-.224-.309zm.237-2.02c.268.665.8.196.617.448-.371.51-1.224.523-1.905.029-.68-.495-.932-1.31-.56-1.82.584.424.867.158 1.148.363.345.25.433.314.7.98zm-.855-.443a.19.19 0 1 0-.224.309.19.19 0 0 0 .224-.309zm1.995-.398c-.55.46.06.82-.236.724-.6-.195-.876-1.002-.616-1.802s.958-1.291 1.558-1.096c-.223.687.117.874.01 1.204-.132.406-.166.51-.716.97zm.156-.95a.19.19 0 1 0-.362-.119.19.19 0 0 0 .362.118z" mask="url(#b)"/>
    </g>
</svg>
