<?xml version="1.0" encoding="UTF-8"?>
<svg width="10px" height="26px" viewBox="0 0 10 26" version="1.1" xmlns="http://www.w3.org/2000/svg" xmlns:xlink="http://www.w3.org/1999/xlink">
    <!-- Generator: Sketch 50.2 (55047) - http://www.bohemiancoding.com/sketch -->
    <title>move</title>
    <desc>Created with Sketch.</desc>
    <defs></defs>
    <g id="Sprint2" stroke="none" stroke-width="1" fill="none" fill-rule="evenodd" opacity="0.699999988">
        <g id="2.3b-TravelCard_CurrencyPockets_Transactions-Copy-7" transform="translate(-335.000000, -920.000000)" stroke="#000000" stroke-width="2">
            <g id="move" transform="translate(335.000000, 921.000000)">
                <path d="M4,8 L4,1 L4,8 Z" id="Shape" stroke-linecap="round" transform="translate(4.500000, 4.500000) scale(-1, 1) translate(-4.500000, -4.500000) "></path>
                <path d="M4,24 L4,16 L4,24 Z" id="Shape-Copy" stroke-linecap="round" transform="translate(4.500000, 20.000000) scale(-1, 1) translate(-4.500000, -20.000000) "></path>
                <path d="M10,12 L-1.42108547e-14,12 L10,12 Z" id="Shape-Copy-12" stroke-linecap="round" transform="translate(5.000000, 12.500000) scale(-1, 1) translate(-5.000000, -12.500000) "></path>
                <polygon id="Shape" stroke-linecap="square" points="9 3.99520096 4.99760048 0 1 3.99520096 4.99760048 0"></polygon>
                <polygon id="Shape-Copy-14" stroke-linecap="square" transform="translate(5.000000, 21.997600) scale(1, -1) translate(-5.000000, -21.997600) " points="9 23.995201 4.99760048 20 1 23.995201 4.99760048 20"></polygon>
            </g>
        </g>
    </g>
</svg>