<?xml version="1.0" encoding="UTF-8"?>
<svg viewBox="0 0 70 70" version="1.1" xmlns="http://www.w3.org/2000/svg" xmlns:xlink="http://www.w3.org/1999/xlink">
    <!-- Generator: Sketch 46.2 (44496) - http://www.bohemiancoding.com/sketch -->
    <title>Telkommobile</title>
    <desc>Created with Sketch.</desc>
    <defs>
        <linearGradient x1="100%" y1="100%" x2="1.11022302e-14%" y2="-2.22044605e-14%" id="linearGradient-1">
            <stop stop-color="#005FA3" offset="0%"></stop>
            <stop stop-color="#1A9DFC" offset="100%"></stop>
        </linearGradient>
        <polygon id="path-2" points="0 0.0274258137 0 6.36624013 4.45600819 6.36624013 4.45600819 0.0274258137 1.26083346e-21 0.0274258137"></polygon>
        <polygon id="path-4" points="1.30569552 0.0595746809 0.0914231927 0.0595746809 0.0914231927 6.54183741 1.30569552 6.54183741"></polygon>
        <polygon id="path-6" points="0.389881057 15.9973907 13.6697774 15.9973907 13.6697774 0.03504828 0.389881057 0.03504828"></polygon>
    </defs>
    <g id="Symbols" stroke="none" stroke-width="1" fill="none" fill-rule="evenodd">
        <g id="Prepaid01" transform="translate(-33.000000, -922.000000)">
            <g id="Telkommobile" transform="translate(33.000000, 922.000000)">
                <circle id="Oval-3-Copy-5" stroke="#FFFFFF" stroke-width="4" cx="35" cy="35" r="33"></circle>
                <circle id="Oval-2-Copy-5" fill="url(#linearGradient-1)" cx="35.35" cy="35.35" r="31.85"></circle>
                <g id="Group-5" transform="translate(15.081818, 23.768182)">
                    <g id="Group-7">
                        <path d="M20.541185,2.64425667 C20.7473463,2.29502253 21.0195612,2.06871427 21.3799714,1.97260171 C21.7848514,1.8645931 22.1844285,1.90037567 22.5643756,2.08372596 C22.8275662,2.21052278 22.9977237,2.42890034 23.1094565,2.71676595 C23.2040711,2.55324242 23.310687,2.41955344 23.4321883,2.29691079 C23.7078453,2.01867532 24.044439,1.90925051 24.4248513,1.91699238 C24.5661686,1.91991919 24.7072998,1.92917168 24.845733,1.96136655 C25.3998381,2.08995723 25.7160576,2.44683883 25.8192312,3.06052413 C25.8505834,3.24680123 25.8673294,3.43421128 25.8672363,3.62350959 C25.866399,4.56358106 25.8659339,5.50374694 25.8684458,6.44381841 C25.8686318,6.51953774 25.8570957,6.55428177 25.7725286,6.56504487 C25.4271898,6.60866373 25.0834326,6.60923021 24.7381868,6.56428956 C24.6552943,6.55352646 24.640409,6.52019863 24.640595,6.44259104 C24.6430139,5.60816786 24.6415254,4.77383909 24.6410602,3.93951031 C24.6409672,3.78826049 24.6303614,3.63823804 24.5974277,3.49000943 C24.5106278,3.09828938 24.2870693,2.94939989 23.8969816,3.02521363 C23.5478284,3.09300225 23.3400855,3.32997919 23.2757066,3.73000759 C23.2528205,3.87228817 23.2490991,4.01532405 23.2490991,4.158832 C23.2492852,4.91763027 23.2482618,5.67652296 23.2506807,6.43541565 C23.2508668,6.5134953 23.2406331,6.55428177 23.1498328,6.56551693 C22.804401,6.60800284 22.4605507,6.6106464 22.115491,6.5631566 C22.0432042,6.55324322 22.0218066,6.52916788 22.0221788,6.45212677 C22.0253419,5.617798 22.0238534,4.78337481 22.0233882,3.94904604 C22.0232952,3.80147833 22.0085959,3.65532681 21.9812442,3.51040267 C21.9050501,3.1077307 21.6739559,2.94892782 21.2745649,3.02511921 C20.9335986,3.09026427 20.7354381,3.31298483 20.6639887,3.71140821 C20.6358927,3.86794517 20.6272406,4.02618156 20.6270546,4.18479561 C20.6264033,4.93613525 20.62538,5.68738047 20.6287292,6.43872011 C20.6290083,6.52199248 20.6090992,6.55569797 20.52416,6.565989 C20.1750998,6.60838049 19.8273421,6.61262908 19.4790262,6.55985214 C19.4194851,6.55078848 19.4003203,6.53067849 19.4004133,6.46855465 C19.4020879,5.01128809 19.4019948,3.55392712 19.4005994,2.09666056 C19.4005994,2.04095681 19.4168801,2.01650382 19.4715836,2.00734574 C19.7601722,1.95891181 20.0481097,1.95645707 20.3368844,2.00762898 C20.3989374,2.01867532 20.4237773,2.05266404 20.4388486,2.10742365 C20.4846209,2.27377958 20.5105771,2.44410085 20.541185,2.64425667" id="Fill-4" fill="#231F20"></path>
                        <path d="M6.68875347,4.66782259 C6.24619507,4.66782259 5.80354363,4.66999409 5.36098523,4.66583991 C5.27558085,4.66508461 5.25846276,4.68283428 5.2712083,4.77196027 C5.34423927,5.28462353 5.66864565,5.58655669 6.21391258,5.64575372 C6.68121779,5.69654798 7.1328004,5.62262251 7.57424241,5.4736386 C7.65387873,5.44673086 7.68234686,5.46391405 7.71332688,5.5354792 C7.82171042,5.78671252 7.88599629,6.04738715 7.90581234,6.32099638 C7.91083612,6.38935148 7.87659995,6.40190843 7.82812971,6.4196581 C7.51172417,6.535503 7.18489893,6.60423575 6.85081711,6.63180438 C6.43077271,6.66635959 6.01082135,6.66900316 5.59784747,6.56495989 C4.75775868,6.35319126 4.22467908,5.74724783 4.09554915,4.87090522 C4.02065752,4.36305703 4.0374965,3.86219541 4.19230356,3.37181364 C4.48721846,2.43684048 5.27837184,1.89207676 6.25317255,1.91426384 C7.21504165,1.9362621 8.00498561,2.57638308 8.13997662,3.69121324 C8.17560829,3.98531012 8.16583982,4.27817963 8.13848809,4.57199327 C8.13113848,4.65101705 8.10174002,4.66989968 8.02777872,4.66942761 C7.58140596,4.66621757 7.1350332,4.66782259 6.68875347,4.66782259 Z M6.13482516,3.79790951 C6.39494567,3.79790951 6.65506619,3.79545477 6.91509367,3.79951453 C6.98858981,3.80055308 7.00766159,3.78072632 7.00291691,3.70453493 C6.96281965,3.06309217 6.44518354,2.71027033 5.83953813,2.91514681 C5.52992401,3.01994537 5.27408302,3.398542 5.27640884,3.7388069 C5.27687401,3.80801172 5.31483151,3.7978151 5.35446361,3.7978151 C5.61458412,3.79800392 5.87470464,3.79790951 6.13482516,3.79790951 Z" id="Combined-Shape" fill="#231F20"></path>
                        <path d="M18.7285004,4.32635865 C18.7313844,4.67219392 18.6816117,5.04540899 18.5378756,5.39832525 C18.2350529,6.14192301 17.6713654,6.53354865 16.8931436,6.61729309 C16.5084518,6.65864604 16.1273883,6.63258801 15.761117,6.49455603 C15.1972435,6.2821265 14.8314374,5.86906908 14.6380216,5.30192945 C14.4067413,4.62338233 14.411486,3.93614921 14.6423941,3.25939594 C14.9196327,2.44659336 15.5780279,1.96933502 16.441468,1.93128653 C16.8282065,1.91429217 17.2067582,1.95404009 17.5627028,2.12134015 C18.2163533,2.42865486 18.547365,2.97577892 18.6758437,3.67217011 C18.7136151,3.87695218 18.7286865,4.08343368 18.7285004,4.32635865 Z M17.4253487,4.27854784 L17.4249766,4.27854784 C17.4249766,4.07461549 17.4278606,3.87077756 17.4244184,3.66693963 C17.4171618,3.23490517 17.0870804,2.88264981 16.6644311,2.85187113 C16.2322924,2.82043156 15.8405301,3.11868262 15.7956881,3.55317181 C15.7473109,4.02221621 15.7541953,4.49720863 15.7901061,4.96644186 C15.8258308,5.4315209 16.2204772,5.74308421 16.6681524,5.71126699 C17.0977792,5.68067714 17.4226508,5.31425981 17.4252557,4.85616733 C17.4262791,4.66365897 17.4253487,4.4710562 17.4253487,4.27854784 Z" id="Combined-Shape" fill="#231F20"></path>
                        <g id="Group-12" transform="translate(0.390041, 0.223665)">
                            <mask id="mask-3" fill="white">
                                <use xlink:href="#path-2"></use>
                            </mask>
                            <g id="Clip-11"></g>
                            <path d="M2.86071166,3.73351976 C2.86071166,4.55651896 2.8594092,5.37951816 2.86257232,6.20251735 C2.86285142,6.29230423 2.85010589,6.32780357 2.74814162,6.33837784 C2.39852328,6.37463248 2.05076559,6.37585985 1.70151937,6.33998286 C1.61155638,6.33073038 1.59062393,6.29872433 1.59081,6.20846538 C1.59397312,4.57379656 1.59304279,2.93912774 1.59304279,1.30445892 C1.59304279,1.1158215 1.59304279,1.1158215 1.40874424,1.1158215 C0.992142072,1.1158215 0.575446867,1.11412206 0.158844696,1.11733211 C0.0819063314,1.11789859 0.0425533348,1.10694667 0.0307381325,1.01527152 C-0.00842879785,0.713716007 -0.0136386508,0.414331992 0.035389787,0.113531781 C0.045902526,0.049330857 0.0634857798,0.0272381861 0.131213868,0.0274270124 C1.52996636,0.0296929273 2.92871885,0.0296929273 4.32747134,0.0274270124 C4.39826952,0.0273325992 4.41231752,0.0563174282 4.42171386,0.117780372 C4.46804434,0.418674996 4.46627671,0.718436663 4.42338845,1.01970894 C4.41250358,1.0963724 4.38803588,1.11808741 4.31305121,1.11752094 C3.86295713,1.11412206 3.41277001,1.11818183 2.96267593,1.11365 C2.87913221,1.11289469 2.8582928,1.13413765 2.8585719,1.21920387 C2.86201412,2.05730917 2.86071166,2.89541446 2.86071166,3.73351976" id="Fill-10" fill="#231F20" mask="url(#mask-3)"></path>
                        </g>
                        <path d="M11.884298,3.34450937 C11.884298,4.37540626 11.8834607,5.40620875 11.8859725,6.43691682 C11.8861586,6.51764004 11.8709942,6.55483881 11.7833571,6.56588514 C11.4454609,6.60818222 11.1087741,6.60922077 10.7708779,6.56720693 C10.686683,6.55672707 10.6596104,6.52689252 10.6597964,6.43399001 C10.6637969,4.99532283 10.6625874,3.55675007 10.6625874,2.11808289 C10.6625874,1.49892163 10.6636108,0.879665954 10.661285,0.260315864 C10.6610989,0.18251945 10.6691928,0.14352683 10.7630632,0.131158711 C11.1049598,0.0864068906 11.4445305,0.0865013037 11.786148,0.132574908 C11.870343,0.143904483 11.8861586,0.173266964 11.8859725,0.252007509 C11.8834607,1.2829044 11.884298,2.31370689 11.884298,3.34450937" id="Fill-13" fill="#231F20"></path>
                        <g id="Group-17" transform="translate(8.576953, 0.034838)">
                            <mask id="mask-5" fill="white">
                                <use xlink:href="#path-4"></use>
                            </mask>
                            <g id="Clip-16"></g>
                            <path d="M1.30308656,3.29791649 C1.30308656,4.32465921 1.301505,5.35149634 1.30569149,6.37823906 C1.30606362,6.47029185 1.28075862,6.50182584 1.19470302,6.50994537 C1.02808075,6.52571236 0.861830625,6.54648325 0.694091966,6.54091287 C0.404759059,6.53128273 0.121566337,6.23803557 0.0963543701,5.92212926 C0.093098212,5.88077631 0.0935633774,5.83914012 0.0935633774,5.79769276 C0.0933773112,3.94030338 0.0940285429,2.08300842 0.0914236164,0.225713454 C0.0913305833,0.139231033 0.106494977,0.103731699 0.199435032,0.0919300583 C0.541238601,0.0485000215 0.880902408,0.0472726509 1.22214778,0.0971227801 C1.2910853,0.107130571 1.30494723,0.1303562 1.30438903,0.194840363 C1.301505,0.523209206 1.30308656,0.851672463 1.30308656,1.18013572 L1.30308656,3.29791649 Z" id="Fill-15" fill="#231F20" mask="url(#mask-5)"></path>
                        </g>
                        <path d="M14.3820131,2.02812607 C14.3134477,2.15511172 14.2462778,2.28030352 14.1783637,2.40511767 C13.8857746,2.94223393 13.5948601,3.48029432 13.2978985,4.01495584 C13.2551963,4.09190254 13.2622669,4.14609567 13.3018059,4.21794406 C13.7086396,4.95776529 14.1124962,5.69919155 14.5169111,6.44024016 C14.5345874,6.47252945 14.55031,6.50585728 14.5707772,6.54645492 C14.1415226,6.61282735 13.721013,6.6182089 13.2993871,6.55466886 C13.2530566,6.54768229 13.2392877,6.51945277 13.2213323,6.486597 C12.8138474,5.73856182 12.4065485,4.99052665 11.997482,4.2434356 C11.9711536,4.19537932 11.9691069,4.15884144 11.9948771,4.10870807 C12.3420766,3.43497602 12.6868572,2.75992219 13.0318239,2.08496277 C13.0512678,2.04691428 13.0720142,2.02293335 13.1203914,2.01377528 C13.4347502,1.95391736 14.0688637,1.95741064 14.3820131,2.02812607" id="Fill-18" fill="#231F20"></path>
                    </g>
                    <g id="Group-8" transform="translate(1.447727, 4.343182)">
                        <g id="Group-3" transform="translate(0.122410, 3.699747)">
                            <mask id="mask-7" fill="white">
                                <use xlink:href="#path-6"></use>
                            </mask>
                            <g id="Clip-2"></g>
                            <path d="M9.15201598,2.0699329 C8.97671095,2.41253598 8.82227122,2.7415459 8.67311616,3.07314499 C7.89116826,4.81085 7.26876251,6.6043147 6.85546541,8.46962896 C6.56307775,9.78909004 6.37683894,11.1222368 6.38057465,12.4780387 C6.38166803,12.8598493 6.45264652,13.2355568 6.48244109,13.6149631 C6.50039072,13.8437351 6.50995778,14.0725995 6.45064199,14.2981349 C6.3747433,14.5871976 6.18094194,14.7650183 5.91643545,14.8694175 C5.747144,14.9362736 5.58723738,14.8917953 5.43835567,14.7964583 C5.28081804,14.6956655 5.16902008,14.5492847 5.05758658,14.402719 C4.36037551,13.4858744 3.80457474,12.4821999 3.29624482,11.4492123 C2.8295544,10.5008352 2.41206602,9.5299878 2.00915601,8.55239002 C1.99393983,8.51540184 1.97753915,8.47906094 1.95239144,8.42108196 C1.91421431,8.62830828 1.91403208,8.81759532 1.90492059,9.00484802 C1.83467102,10.4352737 1.83786004,11.8664391 1.88523978,13.2974195 C1.90974968,14.0362586 1.94947577,14.7748202 2.02792568,15.5104228 C2.05416676,15.7570415 1.9998623,15.8496044 1.76451256,15.9175702 C1.37326526,16.0306616 0.979284516,16.0217844 0.590497319,15.9024975 C0.408449788,15.8466454 0.386035527,15.8042939 0.396604853,15.6133424 C0.447538071,14.6940935 0.525896869,13.7771563 0.603526747,12.8601267 C0.727989675,11.3903086 0.85391044,9.92021317 0.842703309,8.44281252 C0.837783106,7.79921807 0.805163979,7.15691821 0.71988045,6.5182247 C0.70439092,6.40282156 0.657011182,6.29906969 0.60899364,6.19550277 C0.556329239,6.08194904 0.499291324,5.97033718 0.451000437,5.85493404 C0.319430549,5.54062692 0.40307401,5.2438892 0.674960814,5.04572499 C0.942291874,4.85088971 1.34611303,4.83581703 1.62583571,5.01114103 C1.72013961,5.07022966 1.79594719,5.1465178 1.85225619,5.24592355 C2.39047179,6.19559524 2.81415598,7.20019439 3.23547119,8.20608813 C3.69505465,9.30334268 4.13532176,10.4093819 4.67891314,11.4683537 C4.84547114,11.7927401 5.02223401,12.1113009 5.21767543,12.4189501 C5.23626286,12.4481708 5.24582992,12.4869159 5.29330078,12.5050401 C5.30614797,12.2431638 5.31580615,11.9860034 5.33184237,11.7293054 C5.54131548,8.3799326 6.35096231,5.19654432 7.89299055,2.21696094 C8.23038896,1.56495168 8.61662494,0.943272736 9.05789431,0.3575648 C9.23638836,0.120747935 9.47802502,0.0234690044 9.76476355,0.0361374584 C9.95510254,0.0446447413 10.0603402,0.158013533 10.0804766,0.350721986 C10.1797918,1.29863674 10.3018858,2.24359244 10.4403804,3.18651379 C10.6741812,4.77931757 10.9631065,6.36305926 11.1994585,7.95549316 C11.3652875,9.07262887 11.5323011,10.1903194 11.82806,11.2824881 C11.9904267,11.8820666 12.194433,12.4646305 12.4987567,13.0083569 C12.7126033,13.3903524 12.9964261,13.6846859 13.4024341,13.8568659 C13.571361,13.9283455 13.6654827,14.0771305 13.669674,14.2686369 C13.6736831,14.4492317 13.5606095,14.553076 13.4145523,14.6215966 C13.0212094,14.8060752 12.6366135,14.77556 12.2652292,14.5558501 C11.9564409,14.373221 11.724918,14.1090328 11.5220051,13.8161789 C11.1241065,13.2416599 10.8984149,12.5938118 10.7353193,11.9184999 C10.479742,10.859898 10.2857584,9.78881263 10.1011597,8.71569287 C9.93851963,7.76971999 9.79027572,6.82125042 9.65059661,5.87148625 C9.52148682,4.99468129 9.39629497,4.11722903 9.29005502,3.2371876 C9.24404201,2.85574693 9.19976018,2.47421378 9.15201598,2.0699329" id="Fill-1" fill="#FFFFFF" mask="url(#mask-7)"></path>
                        </g>
                        <path d="M24.3490638,4.58481868 C24.2379036,4.44296899 24.1759455,4.27633721 24.1586337,4.09638968 C24.1381328,3.88324525 24.1930751,3.6905368 24.3493371,3.54073464 C24.5680128,3.33119657 24.8407197,3.24806562 25.1315584,3.26017925 C25.4499138,3.27340253 25.6952862,3.49782835 25.7908657,3.8195331 C25.917242,4.24563701 25.7251718,4.71621922 25.3377514,4.92677447 C25.2433563,4.97809558 25.1432211,5.00999789 25.0336099,5.00666895 C24.7287395,4.99511014 24.5255533,4.80979933 24.3490638,4.58481868 Z" id="Fill-20" fill="#FFFFFF"></path>
                        <path d="M35.616822,10.5471757 C35.6078016,10.571033 35.6051593,10.5982194 35.5753647,10.6144017 C35.4560042,10.3219176 35.3919504,10.0154705 35.3552311,9.70495466 C35.2486267,8.80290525 35.2817014,7.9060342 35.4809697,7.01831772 C35.5302628,6.79870036 35.5921298,6.58194959 35.7045656,6.38535737 C35.7610568,6.28669139 35.8223771,6.17387742 35.9537648,6.18099764 C36.0815079,6.18793293 36.1396392,6.29871255 36.1907546,6.40246441 C36.3000925,6.62430106 36.3431898,6.86342969 36.3545792,7.10838395 C36.3896584,7.86812131 36.2213692,8.59697352 36.0204609,9.3200001 C35.9049272,9.73537744 35.7685282,10.1440044 35.616822,10.5471757 M31.1960191,9.84412271 C31.1159291,10.0728022 31.024632,10.2966732 30.9044514,10.5320105 C30.6366648,9.82978979 30.4704713,9.1268293 30.3468284,8.41332718 C30.1486535,7.2701148 30.0642811,6.1175629 30.104645,4.95733596 C30.1325262,4.15413748 30.2143473,3.35759689 30.4735692,2.59083178 C30.5660508,2.31711919 30.6862313,2.05681483 30.8656365,1.82850525 C30.9388018,1.73547996 31.0213518,1.65225654 31.1180247,1.58447569 C31.2984322,1.45788362 31.4627123,1.4826657 31.5935533,1.66141112 C31.7381526,1.85883556 31.7996551,2.09158373 31.8504061,2.32655118 C31.9795159,2.92566734 32.0075793,3.53458536 32.0131373,4.14526032 C32.0221577,5.104364 31.9562816,6.05865922 31.8295408,7.00879326 C31.7007955,7.97279787 31.5184746,8.92468886 31.1960191,9.84412271 M18.5796149,8.89972183 C18.4616211,8.16828044 18.4069522,7.432308 18.4469516,6.69134215 C18.4782951,6.10961044 18.5624853,5.53777308 18.7969239,4.99922508 C18.9067173,4.74705812 19.0472164,4.5147723 19.2601519,4.3363043 C19.5047954,4.13138975 19.7057948,4.1716144 19.8523075,4.45651591 C19.9806884,4.70627864 20.0288882,4.98017616 20.0598672,5.25518333 C20.1420528,5.98570002 20.1355837,6.7162167 20.0219634,7.44312704 C19.9239238,8.07063163 19.6587795,8.63072524 19.3232034,9.15974878 C19.1692193,9.40239129 18.9959188,9.6296837 18.7765141,9.84671188 C18.6895905,9.52362007 18.6300925,9.21236448 18.5796149,8.89972183 M16.3256149,15.3409371 C16.3010139,15.6471068 16.09965,15.7791547 15.8146427,15.6702245 C15.5736438,15.5781239 15.3819381,15.414821 15.2174758,15.2179514 C14.8070943,14.7268408 14.571289,14.1450166 14.3831368,13.5401673 C14.2603139,13.1455958 14.1760327,12.7414998 14.1211815,12.3313933 C14.115988,12.2921858 14.1158969,12.2523311 14.1121611,12.1933349 C14.4646846,12.6122261 14.8935624,12.7700732 15.4022567,12.723653 C15.4274045,12.7213413 15.4525522,12.715978 15.4770621,12.7097825 C15.6304995,12.6704825 15.6312284,12.6699277 15.6846218,12.8181579 C15.905302,13.4309596 16.1359138,14.040525 16.2702171,14.6813453 C16.3157745,14.8987434 16.3434735,15.1178984 16.3256149,15.3409371 M43.1732524,10.8585237 C43.0291997,10.6255906 42.8193622,10.4791174 42.5565869,10.4152203 C42.3050187,10.3541898 42.0891675,10.4168848 41.9153203,10.6178231 C41.8699451,10.6701614 41.8174629,10.7175987 41.7628851,10.7603201 C40.9824862,11.3723821 40.1333866,11.8591466 39.2023748,12.1935199 C38.6763685,12.3823445 38.1375151,12.5007992 37.575063,12.4564134 C37.0220868,12.4128598 36.5597699,12.1871394 36.210071,11.740507 C36.1687048,11.6877064 36.1595022,11.6493312 36.1957659,11.5859889 C36.307655,11.3909687 36.3904784,11.1816155 36.4653748,10.9693958 C36.7352571,10.20485 36.9029085,9.41533715 37.0089662,8.61213868 C37.1108327,7.84075005 37.1624948,7.06704965 37.0544326,6.29112997 C37.0114263,5.98246355 36.9408123,5.68100983 36.7797212,5.41007136 C36.6073318,5.12017645 36.3608661,4.97619993 36.0210076,5.02160293 C35.922968,5.03464127 35.8293019,5.06376947 35.7376403,5.1002953 C35.2364173,5.30003151 34.9135062,5.6811023 34.6941016,6.1645379 C34.4228526,6.76217453 34.3261797,7.39938851 34.3013053,8.04927095 C34.2561123,9.23520468 34.430324,10.3917328 34.7789295,11.5224617 C34.800706,11.5931091 34.7932346,11.6472968 34.7556952,11.7080499 C34.5885905,11.9778787 34.3561565,12.1681829 34.0648622,12.2788701 C33.4763512,12.5024637 32.8929426,12.4602047 32.3195567,12.2184869 C31.9962811,12.0822779 31.7252143,11.8774558 31.5366976,11.5705463 C31.500525,11.5118276 31.4928713,11.46513 31.5308663,11.3996609 C31.853504,10.8435435 32.0954141,10.2509003 32.2878487,9.63708133 C32.7395963,8.19555923 32.9282952,6.71261036 32.9574519,5.20552669 C32.9722126,4.43922393 32.9328509,3.67514047 32.8294355,2.91568053 C32.7491633,2.32599636 32.6340852,1.74333995 32.4208764,1.18555809 C32.2937711,0.853034297 32.1446161,0.532439189 31.8783784,0.286652689 C31.6245323,0.052240056 31.3327825,0.0196904518 31.0328323,0.188911406 C30.9109206,0.257616962 30.8050451,0.347775667 30.7057299,0.446534126 C30.2371261,0.912122925 29.904739,1.46759302 29.6640135,2.08205927 C29.2850667,3.04948529 29.1452964,4.0629616 29.1185087,5.09576425 C29.0873474,6.29436643 29.207619,7.47965288 29.4416931,8.6540278 C29.6289342,9.59315786 29.8692042,10.5159206 30.2548023,11.3941127 C30.2782189,11.4472832 30.2650983,11.4828843 30.2420463,11.5268078 C30.0730282,11.8474029 29.8750355,12.1483018 29.639868,12.4224767 C29.3703502,12.7367838 29.0765047,13.0226101 28.6929111,13.1924783 C28.3321872,13.3521748 28.0102784,13.2829144 27.7280956,13.0108663 C27.5127,12.8031776 27.3685563,12.5462947 27.2579428,12.2710101 C26.8664222,11.2962789 26.7403192,10.2751276 26.7677447,9.2314134 C26.7773118,8.86698729 26.792528,8.8672647 26.4635122,8.71265408 C26.43718,8.70026304 26.4099366,8.6897214 26.3828755,8.67890236 C26.0637912,8.55036841 25.7842507,8.61056668 25.5437074,8.85931224 C25.3996548,9.00837463 25.2905903,9.18323628 25.1855348,9.36087205 C25.0263571,9.63005358 24.8845824,9.90986921 24.7014415,10.1640705 C24.5536531,10.369355 24.3843617,10.5494874 24.1528388,10.660452 C24.0970765,10.687176 24.0725666,10.6800557 24.0505168,10.6188403 C23.980085,10.4230803 23.8537086,10.265973 23.7005445,10.1310586 C23.3545813,9.82655332 22.9492112,9.65243143 22.4975547,9.59944585 C22.1119566,9.55422779 21.7418479,9.60702843 21.4130143,9.84153353 C21.257299,9.95259056 21.1849538,10.1053518 21.178758,10.2938066 C21.1699198,10.5672418 21.2788932,10.7986953 21.4433556,11.0037024 C21.8149221,11.4670719 22.3177851,11.6759627 22.8864331,11.7413393 C22.9821037,11.7523433 23.0078892,11.7817489 23.0111693,11.8716302 C23.0265677,12.2904289 23.0121716,12.7075632 22.9448377,13.1210911 C22.8834263,13.4980932 22.7884846,13.8655708 22.5822916,14.1926389 C22.4252095,14.4418468 22.2184699,14.6216094 21.9217087,14.6784787 C21.5139696,14.7567087 21.1680975,14.6246609 20.8597648,14.3635243 C20.5412271,14.093603 20.3139866,13.7503526 20.114445,13.3871286 C19.6975033,12.628316 19.433908,11.8059761 19.1550053,10.9899243 C19.135689,10.9335173 19.1657569,10.9083653 19.1949137,10.8760006 C19.3889884,10.660267 19.5878921,10.4487871 19.7758621,10.2276902 C20.2721649,9.64392415 20.6814529,9.00606287 20.930561,8.27166242 C21.177209,7.54447467 21.2439962,6.7957413 21.2028123,6.03138043 C21.1671864,5.37040153 21.0304229,4.73744119 20.7413154,4.14183891 C20.5417738,3.73090016 20.3089753,3.34354137 19.9395045,3.06372574 C19.5477105,2.76708049 19.1387869,2.77364589 18.7540999,3.07722643 C18.5175656,3.2639243 18.3332402,3.49722729 18.1890965,3.76132294 C17.8660031,4.35331887 17.6325668,4.98184063 17.5073749,5.64577858 C17.3371724,6.54893763 17.3902923,7.45718255 17.4948011,8.36320818 C17.5816336,9.11591778 17.7269618,9.85845563 17.895251,10.5962775 C17.9116517,10.6684969 17.8940665,10.7077969 17.831835,10.7493161 C17.3024576,11.103478 16.730165,11.346028 16.1055725,11.4645752 C16.0030683,11.483994 15.9329098,11.4697535 15.8643003,11.3942051 C15.64198,11.1496208 15.4176552,10.9068858 15.1926014,10.6647981 C15.0070915,10.4653393 14.8140191,10.2740179 14.5748425,10.1402131 C14.1880598,9.92364731 13.820138,10.046633 13.6302545,10.4524859 C13.544151,10.6363172 13.4735369,10.8261591 13.4176835,11.0213642 C13.1700333,11.8884598 13.1648397,12.7642476 13.3398714,13.6433643 C13.498958,14.4429564 13.792439,15.1854943 14.2932064,15.8319553 C14.8635856,16.5681127 15.592049,16.9721162 16.5370015,16.9423407 C16.9678837,16.92884 17.2537111,16.6169371 17.3126624,16.2566722 C17.4009528,15.7172919 17.3823653,15.181518 17.2973551,14.6454667 C17.1710699,13.8487412 16.9198662,13.091778 16.5781854,12.3649601 C16.539826,12.2833087 16.550122,12.266664 16.6370456,12.2497419 C17.171161,12.1458976 17.6959828,12.0109832 18.1685956,11.7228452 C18.2380252,11.6805862 18.2382985,11.7382877 18.2539703,11.7742588 C18.4281819,12.1763203 18.5982934,12.5802313 18.7761497,12.9806285 C19.0488565,13.5945399 19.3466199,14.1945808 19.762286,14.7253612 C20.4291558,15.5767368 21.2687795,15.9660375 22.3540488,15.7687055 C22.9440177,15.6615322 23.34875,15.3535131 23.5927556,14.8034988 C23.7737098,14.395704 23.8801319,13.9681206 23.9550284,13.5307353 C24.0497878,12.9765598 24.0949808,12.4166511 24.131609,11.8560951 C24.1360736,11.787667 24.1483742,11.751696 24.2280086,11.743651 C24.4078693,11.7256193 24.5725139,11.6546944 24.7267714,11.560467 C24.9639434,11.4157508 25.1578359,11.2209155 25.3375145,11.0105452 C25.4514081,10.8771103 25.560837,10.7396992 25.6743662,10.6014558 C25.7017918,10.6416805 25.6991494,10.6828298 25.7029762,10.7216674 C25.7656633,11.3607308 25.9014245,11.9829646 26.1302139,12.5820808 C26.3518964,13.1628878 26.6415506,13.7024529 27.1025919,14.1284644 C27.4733384,14.470975 27.9032184,14.6656253 28.4139173,14.6278049 C28.8210186,14.5976595 29.1794645,14.4296407 29.5100293,14.1964302 C30.0810463,13.7935363 30.5205845,13.2625709 30.9179364,12.6923055 C30.9739721,12.6118562 30.9959308,12.6025167 31.0690049,12.6821338 C31.7754186,13.4513956 32.6504859,13.7456366 33.6690592,13.5964818 C34.3513274,13.4965212 34.9271734,13.1717649 35.4159137,12.6844456 C35.4664824,12.6340492 35.4931791,12.6324772 35.5453879,12.6825037 C35.7370936,12.8666124 35.9548582,13.0138254 36.1946725,13.1267318 C36.8876923,13.4533375 37.6156091,13.47664 38.3557353,13.3773268 C39.1585485,13.2696911 39.9218179,13.0179865 40.6695977,12.7119093 C41.3317295,12.4408784 41.9678025,12.1143651 42.6009598,11.7814715 C42.7333497,11.7118412 42.87312,11.6556191 43.0012275,11.5790536 C43.2795834,11.4126068 43.3447306,11.136305 43.1732524,10.8585237" id="Fill-22" fill="#FFFFFF"></path>
                    </g>
                </g>
            </g>
        </g>
    </g>
</svg>