<?xml version="1.0" encoding="UTF-8"?>
<svg viewBox="0 0 70 70" version="1.1" xmlns="http://www.w3.org/2000/svg" xmlns:xlink="http://www.w3.org/1999/xlink">
    <!-- Generator: Sketch 46.2 (44496) - http://www.bohemiancoding.com/sketch -->
    <title>MTN</title>
    <desc>Created with Sketch.</desc>
    <defs>
        <linearGradient x1="0%" y1="0%" x2="100%" y2="100%" id="linearGradient-1">
            <stop stop-color="#E1A400" offset="0%"></stop>
            <stop stop-color="#FFCA3D" offset="100%"></stop>
        </linearGradient>
    </defs>
    <g id="Symbols" stroke="none" stroke-width="1" fill="none" fill-rule="evenodd">
        <g id="Prepaid01" transform="translate(-32.000000, -482.000000)">
            <g id="MTN" transform="translate(32.000000, 482.000000)">
                <circle id="Oval-3-Copy" stroke="#FFFFFF" stroke-width="4" cx="35" cy="35" r="33"></circle>
                <g id="Group-13-Copy-5" transform="translate(3.500000, 3.500000)">
                    <circle id="Oval-2-Copy" fill="url(#linearGradient-1)" cx="31.85" cy="31.85" r="31.85"></circle>
                    <g id="Group-6-Copy-9" transform="translate(17.372727, 17.372727)">
                        <g id="Page-1">
                            <polygon id="Fill-1" fill="#FEFEFE" points="0 28.8520012 28.846624 28.8520012 28.846624 0.000488842975 0 0.000488842975"></polygon>
                            <polygon id="Fill-2" fill="#FEC325" points="0.631422176 28.2165054 28.2298671 28.2165054 28.2298671 0.618875207 0.631422176 0.618875207"></polygon>
                            <g id="Group-15" transform="translate(0.814738, 8.859577)">
                                <path d="M0.236274105,5.55786887 C0.236274105,2.67532479 6.22704477,0.338655372 13.6159063,0.338655372 C21.0055826,0.338655372 26.9963533,2.67532479 26.9963533,5.55786887 C26.9963533,8.43959821 21.0055826,10.7762676 13.6159063,10.7762676 C6.22704477,10.7762676 0.236274105,8.43959821 0.236274105,5.55786887" id="Fill-3" fill="#006791"></path>
                                <path d="M0.236274105,5.55786887 C0.236274105,2.67532479 6.22704477,0.338655372 13.6159063,0.338655372 C21.0055826,0.338655372 26.9963533,2.67532479 26.9963533,5.55786887 C26.9963533,8.43959821 21.0055826,10.7762676 13.6159063,10.7762676 C6.22704477,10.7762676 0.236274105,8.43959821 0.236274105,5.55786887 L0.236274105,5.55786887 Z" id="Stroke-5" stroke="#006791" stroke-width="0.049"></path>
                                <polygon id="Fill-7" fill="#FEFEFE" points="5.13977652 8.0943936 6.5289053 2.91102858 8.72055131 2.91102858 8.72055131 5.95977927 8.73440186 5.95977927 10.2212992 2.91102858 12.447979 2.91102858 11.0596649 8.0943936 9.611875 8.0943936 10.502384 4.76944663 10.4877187 4.76944663 8.72055131 8.0943936 7.56117872 8.0943936 7.56117872 4.76944663 7.53755131 4.76944663 6.64785709 8.0943936"></polygon>
                                <polygon id="Fill-9" fill="#EE4135" points="12.8400311 8.19705062 13.0371977 7.4605272 14.6340848 7.4605272 14.4369181 8.19705062"></polygon>
                                <polygon id="Fill-11" fill="#FEC325" points="13.092274 7.25342073 13.9004944 4.23970379 12.447816 4.23970379 12.8038567 2.91086563 17.3052857 2.91086563 16.9492451 4.23970379 15.4973815 4.23970379 14.6899758 7.25260599"></polygon>
                                <polygon id="Fill-13" fill="#FEFEFE" points="16.2732567 8.0943936 17.6615708 2.91102858 19.229942 2.91102858 19.9371348 5.68439773 19.9518001 5.68439773 20.6940267 2.91102858 22.1442609 2.91102858 20.7559468 8.0943936 19.264161 8.0943936 18.4950481 5.26317803 18.4811975 5.26317803 17.7234909 8.0943936"></polygon>
                            </g>
                        </g>
                    </g>
                </g>
            </g>
        </g>
    </g>
</svg>