<?xml version="1.0" encoding="UTF-8"?>
<svg viewBox="0 0 70 70" version="1.1" xmlns="http://www.w3.org/2000/svg" xmlns:xlink="http://www.w3.org/1999/xlink">
    <!-- Generator: Sketch 46.2 (44496) - http://www.bohemiancoding.com/sketch -->
    <title>Telkom</title>
    <desc>Created with Sketch.</desc>
    <defs>
        <linearGradient x1="0%" y1="0%" x2="100%" y2="100%" id="linearGradient-1">
            <stop stop-color="#005FA3" offset="0%"></stop>
            <stop stop-color="#1A9DFC" offset="100%"></stop>
        </linearGradient>
        <polygon id="path-2" points="0 0.0449902344 0 10.4433961 7.83372678 10.4433961 7.83372678 0.0449902344 2.21656344e-21 0.0449902344"></polygon>
        <polygon id="path-4" points="2.29543159 0.0977283258 0.160723294 0.0977283258 0.160723294 10.7314518 2.29543159 10.7314518"></polygon>
    </defs>
    <g id="Symbols" stroke="none" stroke-width="1" fill="none" fill-rule="evenodd">
        <g id="Prepaid01" transform="translate(-33.000000, -702.000000)">
            <g id="Telkom" transform="translate(33.000000, 702.000000)">
                <circle id="Oval-3-Copy-3" stroke="#FFFFFF" stroke-width="4" cx="35" cy="35" r="33"></circle>
                <g id="Group-18-Copy-5" transform="translate(3.500000, 3.500000)">
                    <circle id="Oval-2-Copy-3" fill="url(#linearGradient-1)" cx="31.85" cy="31.85" r="31.85"></circle>
                    <g id="Group-7-Copy-4" transform="translate(8.686364, 27.506818)">
                        <g id="Group-4">
                            <path d="M35.4728361,4.14116239 C35.8352707,3.56826687 36.3138283,3.19702313 36.9474346,3.03935683 C37.6592195,2.86217584 38.3616818,2.92087479 39.0296344,3.22164881 C39.4923273,3.42965062 39.7914666,3.78788456 39.9878944,4.26010907 C40.1542283,3.99185953 40.3416607,3.77255159 40.5552615,3.57136444 C41.0398706,3.11493753 41.6316072,2.93543337 42.3003775,2.9481334 C42.5488153,2.95293463 42.796926,2.96811273 43.0402936,3.02092629 C44.0144184,3.23187079 44.5703368,3.81731148 44.7517176,4.82402165 C44.8068351,5.1295969 44.8362748,5.4370307 44.8361112,5.74756207 C44.8346392,7.28968717 44.8338215,8.83196716 44.8382374,10.3740923 C44.8385645,10.4983048 44.8182839,10.5553001 44.6696137,10.5729562 C44.0625031,10.6445101 43.4581729,10.6454394 42.8512258,10.5717172 C42.7054996,10.5540611 42.679331,10.499389 42.6796581,10.3720788 C42.6839105,9.00326276 42.6812937,7.63460157 42.6804759,6.26594037 C42.6803124,6.01782503 42.6616673,5.77172311 42.6037693,5.52856389 C42.4511739,4.88597304 42.0581548,4.64172967 41.3723749,4.76609709 C40.7585586,4.87729985 40.3933436,5.26604485 40.2801645,5.922265 C40.2399304,6.15566688 40.2333882,6.39030779 40.2333882,6.6257231 C40.2337153,7.8704815 40.2319162,9.11539479 40.2361686,10.3603081 C40.2364957,10.4883926 40.2185049,10.5553001 40.0588766,10.5737306 C39.4516024,10.6434259 38.8471086,10.6477625 38.2404887,10.5698587 C38.1134076,10.5535964 38.0757903,10.5141024 38.0764445,10.3877216 C38.0820053,9.01906037 38.0793884,7.65024429 38.0785707,6.2815831 C38.0784071,6.03950802 38.0525657,5.79975612 38.0044809,5.56201764 C37.8705306,4.90146089 37.4642637,4.64095527 36.7621284,4.76594221 C36.1627048,4.87280837 35.8143358,5.23816672 35.6887267,5.89175394 C35.6393336,6.14854247 35.6241231,6.40811882 35.623796,6.66831468 C35.6226511,7.90083769 35.620852,9.13320581 35.6267399,10.3657288 C35.6272306,10.5023316 35.5922301,10.5576233 35.4429058,10.574505 C34.829253,10.6440455 34.21789,10.651015 33.6055456,10.5644379 C33.5008714,10.5495696 33.4671793,10.5165805 33.4673429,10.4146704 C33.4702869,8.02412096 33.4701233,5.63341662 33.46767,3.24286716 C33.46767,3.15148886 33.4962919,3.11137533 33.5924613,3.09635211 C34.0998043,3.01689945 34.6060025,3.01287261 35.1136726,3.09681675 C35.2227628,3.11493753 35.2664315,3.17069379 35.2929272,3.26052331 C35.3733955,3.53341921 35.419027,3.81282 35.4728361,4.14116239" id="Fill-4" fill="#FFFFFF"></path>
                            <path d="M11.0433311,7.45796716 C10.2653071,7.45796716 9.48711943,7.46152937 8.70909536,7.45471472 C8.55895324,7.45347569 8.52885939,7.48259284 8.55126622,7.62879814 C8.67965573,8.46978832 9.24996683,8.96508973 10.208554,9.06219854 C11.0300833,9.14552317 11.823972,9.02425331 12.6000335,8.77985506 C12.7400353,8.73571469 12.7900827,8.76390257 12.844546,8.88130047 C13.0350858,9.29343212 13.1481013,9.72105163 13.1829382,10.1698895 C13.1917701,10.2820215 13.1315824,10.3026204 13.046371,10.3317375 C12.4901255,10.5217734 11.915562,10.6345249 11.3282413,10.6797495 C10.5897972,10.736435 9.85151666,10.7407716 9.12550261,10.5700955 C7.64861438,10.2227031 6.71145274,9.22869292 6.48444046,7.79111079 C6.35277988,6.9580194 6.38238307,6.13638903 6.65453612,5.33195016 C7.17300076,3.7981885 8.56385984,2.90453962 10.2775736,2.94093607 C11.9685533,2.97702275 13.3572862,4.0270989 13.5946024,5.85590409 C13.6572434,6.33835058 13.6400703,6.81878364 13.5919855,7.3007655 C13.5790648,7.43039879 13.5273819,7.46137449 13.3973568,7.4606001 C12.6126271,7.45533423 11.8278973,7.45796716 11.0433311,7.45796716 Z M10.0695171,6.03093226 C10.5268128,6.03093226 10.9841084,6.02690542 11.4412405,6.0335652 C11.5704477,6.03526886 11.6039762,6.00274438 11.595635,5.87775744 C11.5251434,4.82551299 10.6151317,4.24673208 9.55039828,4.5828184 C9.00609219,4.75473352 8.55632002,5.37579626 8.56040886,5.93397833 C8.56122663,6.04750426 8.62795646,6.03077739 8.69763026,6.03077739 C9.15492589,6.03108714 9.61222151,6.03093226 10.0695171,6.03093226 Z" id="Combined-Shape" fill="#FFFFFF"></path>
                            <path d="M32.4144962,6.87474142 C32.4195664,7.44206133 32.3320652,8.05429599 32.079375,8.63323178 C31.5470084,9.85305475 30.5560376,10.4954907 29.1879125,10.6328679 C28.5116187,10.7007047 27.8417035,10.6579582 27.1977933,10.4315259 C26.2064954,10.0830493 25.563403,9.40545592 25.2233753,8.47510084 C24.8167812,7.36198915 24.8251225,6.23462863 25.2310623,5.12445963 C25.7184518,3.79111073 26.87592,3.00819997 28.3938601,2.94578394 C29.0737521,2.91790582 29.7392514,2.98310966 30.3650071,3.25755434 C31.5141341,3.76168382 32.0960575,4.65920466 32.3219249,5.80158838 C32.3883276,6.13751982 32.4148233,6.47623907 32.4144962,6.87474142 Z M30.1235367,6.79631096 L30.1228825,6.79631096 C30.1228825,6.46177342 30.1279526,6.12739077 30.1219012,5.79300811 C30.109144,5.08428415 29.5288561,4.50643251 28.7858325,4.45594213 C28.0261264,4.40436759 27.3374026,4.89362873 27.2585698,5.60637954 C27.173522,6.37581586 27.1856249,7.15500954 27.2487566,7.92475562 C27.3115611,8.68768705 28.0053551,9.19878606 28.7923746,9.14659201 C29.5476648,9.09641138 30.1187936,8.49532797 30.1233731,7.74385755 C30.1251722,7.42806031 30.1235367,7.11210819 30.1235367,6.79631096 Z" id="Combined-Shape" fill="#FFFFFF"></path>
                            <g id="Group-12" transform="translate(0.000000, 0.242657)">
                                <mask id="mask-3" fill="white">
                                    <use xlink:href="#path-2"></use>
                                </mask>
                                <g id="Clip-11"></g>
                                <path d="M5.02917243,6.12459236 C5.02917243,7.47466814 5.02688268,8.82474392 5.0324435,10.1748197 C5.03293416,10.3221091 5.01052733,10.3803435 4.83127268,10.3976898 C4.21663857,10.4571632 3.60527554,10.4591766 2.99129564,10.4003228 C2.8331394,10.3851447 2.79633985,10.3326409 2.79666696,10.184577 C2.80222778,7.50301091 2.80059225,4.82144477 2.80059225,2.13987863 C2.80059225,1.83043141 2.80059225,1.83043141 2.47659273,1.83043141 C1.7442001,1.83043141 1.01164391,1.8276436 0.27925127,1.83290946 C0.143992514,1.83383874 0.0748093774,1.81587283 0.0540380811,1.66548582 C-0.0148179484,1.17080393 -0.0239769452,0.679684244 0.0622157568,0.186241382 C0.0806973039,0.0809240099 0.111608918,0.0446824437 0.230675877,0.0449922007 C2.68970296,0.0487092844 5.14873005,0.0487092844 7.60775714,0.0449922007 C7.73222136,0.0448373222 7.75691794,0.092385018 7.77343685,0.193210914 C7.8548865,0.686808654 7.85177898,1.17854785 7.77638081,1.67276511 C7.75724505,1.79852644 7.71423048,1.83414849 7.58240634,1.83321922 C6.79113444,1.8276436 5.99969899,1.83430337 5.20842708,1.8268692 C5.06155603,1.82563018 5.02492004,1.86047784 5.0254107,2.00002335 C5.03146218,3.37487969 5.02917243,4.74973603 5.02917243,6.12459236" id="Fill-10" fill="#FFFFFF" mask="url(#mask-3)"></path>
                            </g>
                            <path d="M20.666542,5.56866079 C20.666542,7.25977899 20.66507,8.95074233 20.6694859,10.6415508 C20.669813,10.7739719 20.6431538,10.834994 20.4890864,10.8531148 C19.89506,10.9225004 19.3031599,10.924204 18.7091335,10.8552831 C18.5611176,10.8380916 18.5135235,10.78915 18.5138506,10.6367495 C18.5208834,8.27671115 18.5187572,5.91682763 18.5187572,3.55678923 C18.5187572,2.54109611 18.5205563,1.5252481 18.5164675,0.509245223 C18.5161404,0.381625349 18.5303695,0.317660534 18.695395,0.297371452 C19.2964542,0.223959049 19.8934245,0.224113927 20.493993,0.299694629 C20.6420089,0.318280048 20.669813,0.366447257 20.6694859,0.495615916 C20.66507,2.18673413 20.666542,3.87769746 20.666542,5.56866079" id="Fill-13" fill="#FFFFFF"></path>
                            <g id="Group-17" transform="translate(14.872005, 0.000000)">
                                <mask id="mask-5" fill="white">
                                    <use xlink:href="#path-4"></use>
                                </mask>
                                <g id="Clip-16"></g>
                                <path d="M2.29084501,5.410014 C2.29084501,7.09431755 2.2880646,8.77877599 2.29542451,10.4630795 C2.29607872,10.6140861 2.25159216,10.6658155 2.10030516,10.679135 C1.80738082,10.7049997 1.51511069,10.739073 1.2202237,10.7299352 C0.711572275,10.7141376 0.213715377,10.233085 0.169392375,9.71486157 C0.163668002,9.64702479 0.164485769,9.57872337 0.164485769,9.51073172 C0.164158662,6.46380723 0.165303537,3.41703761 0.160724038,0.370268001 C0.160560485,0.228399306 0.187219708,0.170164995 0.350609669,0.150805184 C0.95150528,0.0795610792 1.54863916,0.0775476589 2.14855345,0.1593235 C2.26974661,0.17574062 2.29411608,0.213840728 2.29313476,0.319622735 C2.2880646,0.858290116 2.29084501,1.39711238 2.29084501,1.93593463 L2.29084501,5.410014 Z" id="Fill-15" fill="#FFFFFF" mask="url(#mask-5)"></path>
                            </g>
                            <path d="M24.8788068,3.03233553 C24.7582678,3.2406471 24.6401822,3.44601597 24.5207881,3.65076533 C24.0064123,4.53186905 23.4949805,5.41452155 22.9729177,6.29159843 C22.8978466,6.4178244 22.9102767,6.50672465 22.9797869,6.62458718 C23.6950064,7.83821501 24.4049922,9.05447577 25.1159594,10.270117 C25.1470345,10.3230855 25.1746751,10.3777576 25.2106568,10.4443553 C24.4560209,10.5532349 23.716759,10.562063 22.9755345,10.4578298 C22.8940849,10.4463687 22.8698789,10.4000601 22.8383131,10.3461624 C22.1219487,9.1190601 21.4059114,7.89195784 20.6867666,6.66640437 C20.640481,6.58757122 20.6368828,6.52763324 20.6821871,6.44539277 C21.2925689,5.34017988 21.8986982,4.23279869 22.5051546,3.12557238 C22.5393373,3.06315635 22.5758097,3.02381721 22.6608576,3.008794 C23.2135049,2.91060104 24.3282856,2.91633154 24.8788068,3.03233553" id="Fill-18" fill="#FFFFFF"></path>
                        </g>
                    </g>
                </g>
            </g>
        </g>
    </g>
</svg>