<svg xmlns="http://www.w3.org/2000/svg" viewBox="0 0 51 58">
    <g fill="none" fill-rule="evenodd" stroke="#666" stroke-width="2" transform="translate(1 1)">
        <path d="M13.232 30.72c.862 3.088 2.465 4.946 4.313 6.836v2.793c-.829 2.66-7.377 6.935-16.284 10.379A1.99 1.99 0 0 0 0 52.586v1.42c0 1.097.877 1.989 1.96 1.989h44.722c1.082 0 1.96-.892 1.96-1.99v-1.419c0-.825-.503-1.566-1.262-1.858-8.906-3.442-15.453-7.716-16.284-10.379v-2.793c1.848-1.89 3.5-3.75 4.362-6.835V16.857c0-6.457-2.917-10.607-11.136-10.607-8.007 0-11.09 4.15-11.09 10.607V30.72zM39.795 31.25c0 6.778-4.716 7.884-12.295 8.025"/>
        <path d="M13.734 31.364H11.5a2.75 2.75 0 0 1-2.75-2.75V20.25a2.75 2.75 0 0 1 2.75-2.75h2.234M36.25 17.5h2.234a2.75 2.75 0 0 1 2.75 2.75v8.364a2.75 2.75 0 0 1-2.75 2.75H36.25M11.25 17.149V13.25C11.25 5.934 17.183 0 24.5 0c7.319 0 13.251 5.933 13.251 13.25v3.899"/>
        <circle cx="25.761" cy="38.261" r="2.011"/>
    </g>
</svg>
