<?xml version="1.0" encoding="UTF-8"?>
<svg viewBox="0 0 70 70" version="1.1" xmlns="http://www.w3.org/2000/svg" xmlns:xlink="http://www.w3.org/1999/xlink">
    <!-- Generator: Sketch 46.2 (44496) - http://www.bohemiancoding.com/sketch -->
    <title>CellC</title>
    <desc>Created with Sketch.</desc>
    <defs>
        <linearGradient x1="0%" y1="0%" x2="98.044882%" y2="98.044882%" id="linearGradient-1">
            <stop stop-color="#171717" offset="0%"></stop>
            <stop stop-color="#595959" offset="100%"></stop>
        </linearGradient>
        <polygon id="path-2" points="1.34527374 1.50678265 1.34527374 0.20972683 0.103155963 0.20972683 0.103155963 1.50678265 1.34527374 1.50678265"></polygon>
        <polygon id="path-4" points="0 15.7903335 40.2162488 15.7903335 40.2162488 0.21050578 0 0.21050578"></polygon>
    </defs>
    <g id="Symbols" stroke="none" stroke-width="1" fill="none" fill-rule="evenodd">
        <g id="Prepaid01" transform="translate(-33.000000, -592.000000)">
            <g id="CellC" transform="translate(33.000000, 592.000000)">
                <circle id="Oval-3-Copy-2" stroke="#FFFFFF" stroke-width="4" cx="35" cy="35" r="33"></circle>
                <g id="Group-16-Copy-5" transform="translate(3.500000, 3.500000)">
                    <circle id="Oval-2-Copy-2" fill="url(#linearGradient-1)" cx="31.85" cy="31.85" r="31.85"></circle>
                    <g id="Group-2-Copy-6" transform="translate(13.029545, 24.611364)">
                        <g id="Page-1">
                            <path d="M2.10245499,5.65277177 C2.10245499,7.38351286 2.98296707,8.00772492 4.10874656,8.00772492 C4.83335224,8.00772492 5.4459926,7.7557243 5.74301755,7.45614461 C6.04025376,7.15656493 6.11524939,7.04309097 6.43847,7.04309097 C6.82865854,7.04309097 7.33038987,7.30267055 7.33038987,7.83256659 C7.33419247,8.38583111 6.6138119,9.57214981 4.14233615,9.57930772 C2.98317833,9.57930772 2.41469032,9.287307 2.08006193,9.09256968 C1.12138538,8.54098938 0.218691486,7.38351286 0.218691486,5.58771898 C0.218691486,3.41339785 1.62311671,1.63970929 4.09776129,1.63970929 C4.71082416,1.63970929 5.27931217,1.74749903 5.7030903,1.91002574 C6.34932026,2.15865793 7.15187914,2.76455415 7.15187914,3.38118725 C7.15187914,3.87845162 6.70613046,4.18161026 6.33833499,4.18161026 C6.00391785,4.18161026 5.80343657,3.95445181 5.72506085,3.86771476 C5.63591112,3.78118823 5.12784212,3.24960798 4.26951184,3.24960798 C2.49729114,3.24960798 2.10245499,4.7656117 2.10245499,5.65277177 L2.10245499,5.65277177 Z" id="Fill-1" fill="#FFFFFF"></path>
                            <path d="M10.1945258,3.19716574 L10.1945258,4.74411691 L11.4808594,4.74411691 C11.6479623,4.74411691 11.8150652,4.74411691 11.9713942,4.80874864 C12.1163153,4.86306457 12.3947498,5.0359071 12.3947498,5.42538174 C12.3947498,5.71759298 12.2500399,5.94475143 11.9713942,6.05296222 C11.8150652,6.10706762 11.6591588,6.10706762 11.4920559,6.10706762 L10.1945258,6.10706762 L10.1945258,8.04349342 L13.3156116,8.04349342 C13.6164392,8.05401977 13.9508563,8.05401977 14.1405636,8.41107327 C14.2073202,8.53002093 14.2297133,8.64896859 14.2297133,8.74644252 C14.2297133,9.11402237 13.9844459,9.30897021 13.8169205,9.37381248 C13.6612253,9.43865474 13.4939111,9.43865474 13.3156116,9.43865474 L9.36978515,9.43865474 C9.22465276,9.43865474 9.09092816,9.43865474 8.96840008,9.40623361 C8.43329041,9.25486482 8.43329041,8.76812678 8.43329041,8.4975998 L8.43329041,2.68874344 C8.43329041,2.48305873 8.44448694,2.22347914 8.61180114,2.02874182 C8.81228242,1.8017939 9.10212469,1.8017939 9.35837737,1.7908465 L13.282022,1.7908465 C13.4717293,1.7908465 13.6500288,1.8017939 13.8061464,1.86663616 C13.9844459,1.95316269 14.1851384,2.15863688 14.1851384,2.50495352 C14.1851384,2.63463804 14.1627454,2.77526997 14.0847922,2.89421763 C13.8843109,3.18621835 13.560879,3.19716574 13.282022,3.19716574 L10.1945258,3.19716574 Z" id="Fill-3" fill="#FFFFFF"></path>
                            <path d="M16.9491183,8.03250392 L19.6690302,8.03250392 C19.9474647,8.04345132 20.3154715,8.05397766 20.516164,8.41103117 C20.5829207,8.52997883 20.5941172,8.65987388 20.5941172,8.74661094 C20.5941172,8.87629547 20.5607389,8.99524313 20.5047562,9.10345392 C20.3042749,9.43882316 19.9474647,9.43882316 19.691212,9.43882316 L16.3248589,9.43882316 C16.0350166,9.42787577 15.7005995,9.4171389 15.4443468,9.17903305 C15.1876716,8.94113773 15.1876716,8.62724223 15.1766863,8.35692577 L15.1766863,2.77522786 C15.1766863,2.49396402 15.1766863,2.19122643 15.4555433,1.95312058 C15.5668748,1.85585719 15.7563708,1.74743587 16.0686062,1.74743587 C16.2135273,1.74743587 16.4807653,1.76933066 16.7038509,1.99648911 C16.9377105,2.24533183 16.9491183,2.51564828 16.9491183,2.78596473 L16.9491183,8.03250392 Z" id="Fill-5" fill="#FFFFFF"></path>
                            <path d="M22.9903227,8.03250392 L25.7102347,8.03250392 C25.9886691,8.04345132 26.3566759,8.05397766 26.5571571,8.41103117 C26.6241251,8.52997883 26.6351104,8.65987388 26.6351104,8.74661094 C26.6351104,8.87629547 26.6021545,8.99524313 26.5459606,9.10345392 C26.3454793,9.43882316 25.9886691,9.43882316 25.7324165,9.43882316 L22.3660633,9.43882316 C22.076221,9.42787577 21.7420151,9.4171389 21.4855512,9.17903305 C21.2290872,8.94113773 21.2290872,8.62724223 21.2178907,8.35692577 L21.2178907,2.77522786 C21.2178907,2.49396402 21.2178907,2.19122643 21.4965365,1.95312058 C21.6082905,1.85585719 21.7977865,1.74743587 22.1095993,1.74743587 C22.2547317,1.74743587 22.5221809,1.76933066 22.744844,1.99648911 C22.9789149,2.24533183 22.9903227,2.51564828 22.9903227,2.78596473 L22.9903227,8.03250392 Z" id="Fill-7" fill="#FFFFFF"></path>
                            <path d="M31.5698863,5.60712955 C31.5698863,6.69386906 32.1829491,7.18292289 32.9295254,7.18292289 C33.4097087,7.18292289 33.7496184,6.97934344 33.9268616,6.72123755 C33.9712252,6.65323738 34.0079837,6.57850036 34.0599525,6.51050019 C34.1188927,6.4290263 34.230013,6.32039446 34.4440146,6.32039446 C34.7025911,6.32039446 35.0351069,6.48334223 35.0351069,6.81618515 C35.0351069,6.86376421 35.0279242,6.95218548 34.9835606,7.06755419 C34.9022273,7.25092306 34.739772,7.43450246 34.5768942,7.56334488 C34.0301655,8.00503017 33.4097087,8.07303034 32.9219202,8.07303034 C32.1535846,8.07303034 31.7767052,7.88945094 31.5550984,7.76734538 C30.9196424,7.42081821 30.3213674,6.69386906 30.3213674,5.56649787 C30.3213674,4.20102084 31.2521583,3.08691284 32.8925557,3.08691284 C33.2990109,3.08691284 33.6756791,3.15512353 33.9566486,3.25680799 C34.3850744,3.4130189 34.9170152,3.79344089 34.9170152,4.18081026 C34.9170152,4.49323208 34.6212578,4.68333781 34.3776804,4.68333781 C34.1558624,4.68333781 34.0229828,4.54081114 33.9712252,4.48649522 C33.912285,4.43196877 33.8677101,4.37765285 33.8087699,4.32333693 C33.7126488,4.21470508 33.483648,3.98354662 32.9145262,3.98354662 C31.7397355,3.98354662 31.5698863,5.05028608 31.5698863,5.60712955" id="Fill-9" fill="#FFFFFF"></path>
                            <path d="M28.8489391,5.68546658 C28.8527417,7.89220884 30.6446092,9.67747638 32.8583535,9.68105534 C35.072309,9.67747638 36.8639652,7.89220884 36.867979,5.68546658 C36.8639652,3.47914538 35.072309,1.69366731 32.8583535,1.6896673 C30.6446092,1.69366731 28.8527417,3.47914538 28.8489391,5.68546658 M27.5623944,5.68546658 C27.5632394,2.77093312 29.9337351,0.408822056 32.8583535,0.407979949 C35.7836056,0.408822056 38.1536788,2.77093312 38.1545238,5.68546658 C38.1541013,8.60063163 35.7836056,10.9627427 32.8583535,10.9631637 C29.9337351,10.9623216 27.5632394,8.60063163 27.5623944,5.68546658" id="Fill-11" fill="#FFFFFF"></path>
                            <polygon id="Fill-13" fill="#FFFFFF" points="38.1998803 1.5076037 38.1998803 0.363600892 37.7710321 0.363600892 37.7710321 0.210547885 38.8028029 0.210547885 38.8028029 0.363600892 38.3720534 0.363600892 38.3720534 1.5076037"></polygon>
                            <g id="Group-17" transform="translate(38.870975, 0.000821)">
                                <mask id="mask-3" fill="white">
                                    <use xlink:href="#path-2"></use>
                                </mask>
                                <g id="Clip-16"></g>
                                <path d="M0.103155963,1.50678265 L0.103155963,0.20972683 L0.362366214,0.20972683 L0.670587696,1.12804487 C0.698895906,1.21351877 0.719598925,1.27772945 0.732696754,1.32004534 C0.747484624,1.27309786 0.770511452,1.20383453 0.801988492,1.11225536 L1.11359006,0.20972683 L1.34533712,0.20972683 L1.34533712,1.50678265 L1.17929046,1.50678265 L1.17929046,0.42109577 L0.80114347,1.50678265 L0.64565957,1.50678265 L0.269202628,0.402569409 L0.269202628,1.50678265 L0.103155963,1.50678265 Z" id="Fill-15" fill="#FFFFFF" mask="url(#mask-3)"></path>
                            </g>
                            <mask id="mask-5" fill="white">
                                <use xlink:href="#path-4"></use>
                            </mask>
                            <g id="Clip-19"></g>
                            <polygon id="Fill-18" fill="#0079AE" mask="url(#mask-5)" points="0 15.7903335 6.65010556 15.7903335 6.65010556 14.4821198 0 14.4821198"></polygon>
                            <polygon id="Fill-20" fill="#E51837" mask="url(#mask-5)" points="6.64503543 15.7903335 13.295141 15.7903335 13.295141 14.4821198 6.64503543 14.4821198"></polygon>
                            <polygon id="Fill-21" fill="#48AA45" mask="url(#mask-5)" points="13.2900709 15.7903335 19.9401764 15.7903335 19.9401764 14.4821198 13.2900709 14.4821198"></polygon>
                            <polygon id="Fill-22" fill="#FFB715" mask="url(#mask-5)" points="19.9346838 15.7903335 26.5847893 15.7903335 26.5847893 14.4821198 19.9346838 14.4821198"></polygon>
                            <polygon id="Fill-23" fill="#010101" mask="url(#mask-5)" points="26.5799305 15.7903335 33.2298248 15.7903335 33.2298248 14.4821198 26.5799305 14.4821198"></polygon>
                            <polygon id="Fill-24" fill="#BFC0C2" mask="url(#mask-5)" points="33.2245434 15.7903335 39.8746489 15.7903335 39.8746489 14.4821198 33.2245434 14.4821198"></polygon>
                        </g>
                    </g>
                </g>
            </g>
        </g>
    </g>
</svg>