<?xml version="1.0" encoding="UTF-8"?>
<svg viewBox="0 0 70 70" version="1.1" xmlns="http://www.w3.org/2000/svg" xmlns:xlink="http://www.w3.org/1999/xlink">
    <!-- Generator: Sketch 46.2 (44496) - http://www.bohemiancoding.com/sketch -->
    <title>Virgin</title>
    <desc>Created with Sketch.</desc>
    <defs>
        <linearGradient x1="69.159635%" y1="36.732241%" x2="1.11022302e-14%" y2="100%" id="linearGradient-1">
            <stop stop-color="#E60000" offset="0%"></stop>
            <stop stop-color="#810BC0" offset="100%"></stop>
        </linearGradient>
        <polygon id="path-2" points="35.51388 32.0869565 0.0104236851 32.0869565 0.0104236851 0.290135892 35.51388 0.290135892"></polygon>
        <polygon id="path-4" points="9.1360025e-16 36.4415201 9.1360025e-16 0.0845216331 18.095515 0.0845216331 18.095515 36.4415201"></polygon>
        <polygon id="path-6" points="19.6428 7.16157101 19.6428 0.157701449 0.38892 0.157701449 0.38892 7.16157101"></polygon>
    </defs>
    <g id="Symbols" stroke="none" stroke-width="1" fill="none" fill-rule="evenodd">
        <g id="Prepaid01" transform="translate(-33.000000, -812.000000)">
            <g id="Virgin" transform="translate(33.000000, 812.000000)">
                <circle id="Oval-3-Copy-4" fill="#FFFFFF" fill-rule="nonzero" cx="35" cy="35" r="35"></circle>
                <circle id="Oval-2-Copy-4" fill="url(#linearGradient-1)" fill-rule="nonzero" cx="35.35" cy="35.35" r="31.85"></circle>
                <g id="Page-1" transform="translate(11.000000, 14.000000)">
                    <path d="M30.99942,10.0277087 C30.83982,9.71753478 31.20942,9.19107101 31.41762,8.9836942 C31.65342,8.74957826 32.01642,8.53388261 32.35902,8.48278116 C32.73882,8.42633188 33.11202,8.51902754 33.20022,8.9011 C33.29862,9.32120145 32.94162,9.7003029 32.67342,10.0122594 C32.44182,10.2814333 32.16642,10.5066362 31.82922,10.5488246 C31.42782,10.5993319 31.05282,10.4591 30.99942,10.0277087" id="Fill-1" fill="#FFFFFF"></path>
                    <path d="M29.70012,20.3270275 C29.56452,19.7857087 29.74632,19.0399841 29.79912,18.5212449 C29.83812,18.1344188 29.89512,17.7184768 29.92512,17.3280855 C29.94852,17.0286072 29.97252,16.776071 30.00552,16.4742159 C30.02592,16.2834768 30.02412,15.8336652 30.09492,15.7326507 C30.04032,15.218071 30.19932,14.5400855 30.28152,14.0492739 C30.39072,13.3956507 30.86592,12.6594333 31.57452,12.5750565 C32.01072,12.5227667 32.13732,12.6950855 32.14632,13.0171435 C32.13732,13.0147667 32.20272,13.0005058 32.21232,13.0011 C32.19852,13.0533899 32.22192,13.0848826 32.21532,13.1567812 C32.22912,13.159158 32.23692,13.1508391 32.23752,13.133013 C32.32812,13.3570275 32.11092,13.7919841 32.22312,13.8407087 C32.17452,14.0261 32.21352,14.2168391 32.07072,14.3760855 C32.10912,14.3867812 32.14752,14.386187 32.18052,14.3855928 C32.13492,14.4230275 32.14392,14.4384768 32.14812,14.4806652 C32.13132,14.4824478 32.10612,14.4640275 32.07492,14.4664043 C32.09892,14.5917812 32.08632,14.5525638 32.05692,14.6214913 C32.07252,14.6446652 32.10792,14.673187 32.11632,14.6945783 C32.02272,14.7635058 32.00472,15.1224043 32.08032,15.1758826 C32.07732,15.180042 32.05392,15.221042 32.04192,15.2376797 C32.05632,15.2489696 32.06112,15.2358971 32.04732,15.2626362 C32.15352,15.3381 31.97592,15.5567667 32.10732,15.6625348 C32.06232,15.7593899 32.01852,15.9043754 32.11032,16.0184623 C32.06412,16.079071 32.07852,16.1004623 32.05092,16.1658246 C32.07012,16.155129 32.08752,16.1420565 32.10252,16.1266072 C32.04492,16.2258391 32.02992,16.3553754 32.12472,16.4486652 C32.07552,16.5532449 32.10012,16.659013 32.11032,16.7885493 C32.00652,16.8485638 31.93152,16.9816652 31.95372,17.1272449 C31.97712,17.2823319 32.12472,17.3655203 32.07672,17.5027812 C32.03592,17.4564333 31.99152,17.4528681 31.96872,17.4011725 C31.95012,17.5069406 32.01432,17.6014188 32.07792,17.6988681 C32.04132,17.6679696 31.97532,17.6477667 31.93212,17.6239986 C31.89912,17.9876507 31.87332,18.404187 31.86492,18.7654623 C31.85652,19.1124768 31.95372,19.3269841 31.83492,19.6448826 C31.64112,20.1636217 29.89932,21.4066942 29.70012,20.3270275" id="Fill-3" fill="#FFFFFF"></path>
                    <g id="Group-7" transform="translate(10.200000, 8.828488)">
                        <mask id="mask-3" fill="white">
                            <use xlink:href="#path-2"></use>
                        </mask>
                        <g id="Clip-6"></g>
                        <path d="M35.48388,6.90392464 C35.44608,6.95146087 35.44128,6.98889565 35.39808,7.03821449 C35.48928,7.0607942 35.42928,7.06673623 35.51388,7.12377971 C35.40468,7.16953333 35.35548,7.27054783 35.33868,7.38701159 C35.27268,7.40364928 35.21208,7.50050435 35.24328,7.62291014 C35.17188,7.60686667 34.62588,8.24028696 34.45488,8.34843188 C33.85788,8.72456232 33.16128,8.88202609 32.49288,9.0905913 C31.59828,9.36867826 30.73188,9.72757681 29.89668,10.1280696 C28.62468,10.7377217 27.37128,11.4157072 26.12268,12.071113 C23.59908,13.3979681 21.05988,14.9678522 18.76488,16.4747507 C18.34248,16.7522435 18.02148,17.0130986 17.66208,17.3060406 C17.31648,17.5876928 17.65488,18.0969246 17.40588,18.4665188 C17.43948,18.4730551 17.46408,18.4784029 17.48508,18.4801855 C17.47968,18.6483449 17.35488,19.3607942 17.48328,19.4202145 C17.47008,19.4879536 17.46588,19.4950841 17.42988,19.5432145 C17.38368,19.5230116 17.46648,19.5218232 17.38188,19.5028087 C17.38068,19.6775043 17.40408,19.808229 17.39928,19.9894609 C17.39688,20.0797797 17.42868,20.2455623 17.42088,20.3560841 C17.40708,20.5450406 17.46768,20.9639536 17.37228,21.120229 C17.44068,21.1642 17.46768,21.2200551 17.47548,21.296113 C17.39508,21.337113 17.35728,21.3828667 17.32968,21.4660551 C17.35248,21.4660551 17.37468,21.4624899 17.41068,21.4595188 C17.41188,21.5587507 17.41668,21.6490696 17.45448,21.7275043 C17.38608,21.8184174 17.42448,21.9794464 17.36208,22.0858087 C17.47248,22.2105913 17.41428,22.7328957 17.32368,22.851142 C17.43768,22.9093739 17.42628,23.372258 17.35128,23.5273449 C17.37348,23.510113 17.39568,23.4851565 17.41668,23.4667362 C17.40468,23.5136783 17.38248,23.5647797 17.36208,23.6063739 C17.38188,23.6253884 17.39748,23.6230116 17.40948,23.5986493 C17.39868,23.6188522 17.36988,23.6390551 17.36208,23.659258 C17.41188,23.7311565 17.39328,23.7567072 17.45448,23.8226638 C17.18328,23.8707942 17.33088,24.1060986 17.29188,24.2290986 C17.32308,24.2088957 17.29848,24.201171 17.35308,24.2160261 C17.34108,24.2285043 17.32968,24.242171 17.31768,24.2552435 C17.44728,24.2665333 17.41308,24.2356348 17.41968,24.3770551 C17.12568,24.3200116 17.51628,24.5048087 17.33328,24.5660116 C17.45148,24.6753449 17.45988,24.8500406 17.24628,24.8137942 C17.28828,24.8143884 17.33208,24.8339971 17.37828,24.8339971 C17.37108,24.8714319 17.32608,24.8518232 17.32248,24.8839101 C17.37228,25.0116638 17.26848,25.1394174 17.32068,25.3010406 C17.35188,25.2867797 17.38848,25.2754899 17.40588,25.2642 C17.36208,25.3586783 17.38368,25.3800696 17.38668,25.463258 C17.40768,25.4489971 17.43528,25.4258232 17.45748,25.4139391 C17.44068,25.4596928 17.42148,25.5078232 17.39388,25.5517942 C17.42928,25.5399101 17.44068,25.5179246 17.47008,25.507229 C17.22108,25.6908377 17.26728,25.8055188 17.41668,26.0319101 C17.18028,26.0265623 17.25468,26.4193304 17.36928,26.2303739 C17.39208,26.3064319 17.41008,26.3539681 17.47908,26.4276493 C17.23428,26.4858812 17.46948,26.6368087 17.32608,26.7972435 C17.34408,26.8138812 17.55828,27.0557217 17.56008,26.9903594 C17.48628,27.0604754 17.44788,27.1460406 17.43168,27.2547797 C17.46228,27.2482435 17.62308,27.2630986 17.57028,27.2874609 C17.48388,27.3534174 17.48748,27.3962 17.60208,27.4389826 C17.59908,27.4484899 17.53908,27.5495043 17.54148,27.5518812 C17.56788,27.5637652 17.59428,27.5756493 17.62008,27.5887217 C17.60388,27.6160551 17.58828,27.6433884 17.57208,27.6707217 C17.59368,27.674287 17.61468,27.677258 17.63568,27.680229 C17.63268,27.7384609 17.62128,27.8353159 17.60928,27.8905768 C17.59848,27.8638377 17.58108,27.8418522 17.55708,27.8234319 C17.45508,27.8252145 17.52108,28.2476928 17.63868,28.3088957 C17.65668,28.2708667 17.66388,28.2655188 17.69148,28.2304609 C17.72688,28.3279101 17.75988,28.4342725 17.70888,28.4806203 C17.77008,28.6238232 17.79288,28.8270406 17.88768,28.8145623 C17.90088,28.9114174 17.81448,28.9952 17.82408,29.0938377 C17.77728,29.0938377 17.64768,29.1069101 17.61768,29.1437507 C17.60748,29.1550406 17.78268,29.1859391 17.80608,29.1853449 C17.74008,29.2013884 17.72688,29.235258 17.64588,29.2394174 C17.66088,29.3487507 17.61108,29.5579101 17.80068,29.6298087 C17.83788,29.6000986 17.84808,29.5638522 17.83068,29.5198812 C17.83908,29.5638522 17.86728,29.6018812 17.86668,29.6731855 C17.91888,29.6838812 17.91408,29.6838812 17.99568,29.7367652 C17.98068,29.7498377 17.96568,29.7635043 17.95068,29.7759826 C17.88408,29.7563739 17.91708,29.7807362 17.82948,29.7819246 C17.93088,29.7973739 17.97948,29.8496638 18.07368,29.8906638 C18.06288,29.9013594 18.00888,30.023171 18.05028,29.932258 C18.05568,29.9209681 17.97288,29.9524609 17.92668,29.9667217 C17.94648,29.9928667 17.96988,30.0029681 17.98848,30.0344609 C17.90688,30.1117072 17.89728,30.1426058 17.80128,30.0516928 C17.83308,30.1259681 17.86848,30.1568667 17.94828,30.2210406 C17.80488,30.2917507 17.88408,30.3874174 17.94108,30.4403014 C17.95488,30.4296058 17.96928,30.4177217 17.98308,30.4070261 C17.96808,30.4700116 17.98188,30.503287 17.96928,30.5549826 C18.01908,30.5698377 18.07668,30.6084609 18.12528,30.6250986 C18.13428,30.6108377 18.14328,30.5977652 18.15228,30.5840986 C18.09048,30.6750116 18.04968,30.7677072 17.99268,30.8306928 C18.00168,30.8407942 18.05208,30.8710986 18.05988,30.8770406 C17.88888,30.9507217 17.91348,31.1254174 18.11748,31.1390841 C17.92968,31.2074174 17.95068,31.2977362 17.84208,31.4504464 C17.66928,31.692287 17.45088,31.9097652 17.16108,32.0101855 C16.42008,32.2668812 15.67068,31.8550986 15.44568,31.1569101 C15.16908,30.298287 15.29568,29.3267652 15.32088,28.4004029 C15.37608,26.3706058 15.43428,24.4388522 15.45108,22.4892725 C15.46068,21.3014609 15.55428,20.0138232 15.46968,18.8319536 C14.44848,19.3578232 13.50228,20.1813884 12.62808,20.8855188 C11.60868,21.7078957 10.57068,22.5540406 9.53088,23.4019681 C8.94888,23.8767362 8.38428,24.3354609 7.83048,24.8090406 C7.39428,25.1822 7.02828,25.6225043 6.56748,25.9802145 C5.94948,26.459142 5.44548,27.1020696 4.92708,27.674287 C4.58868,28.0474464 4.11768,28.3998087 3.78348,28.7806928 C3.36648,29.2560551 2.98488,29.7129971 2.49768,30.1503304 C2.06988,30.5353739 1.83888,30.8728812 1.23288,30.8503014 C0.48708,30.8217797 -0.20892,30.1366638 0.07548,29.3523159 C0.28728,28.7670261 0.96228,28.1930261 1.40568,27.7753014 C1.84668,27.3593594 2.29608,26.9594609 2.73768,26.5417362 C4.00368,25.3462 5.40828,24.3033739 6.69828,23.1387362 C7.89288,22.0608522 9.37848,20.9057217 10.68828,19.9888667 C11.85648,19.1700551 13.00908,18.2930116 14.17908,17.427258 C14.54148,17.1592725 14.90568,16.9453594 15.25668,16.6536058 C15.45348,16.4902 15.47568,16.4266203 15.48468,16.1485333 C15.48768,16.0588087 15.49308,15.3528957 15.40668,15.3178377 C15.28068,15.266142 14.86008,15.6618812 14.74548,15.7207072 C14.51688,15.8365768 14.26188,15.963142 14.01588,16.0077072 C14.04108,16.0184029 14.06688,16.0285043 14.09208,16.0392 C14.00088,16.0623739 13.91088,16.0178087 13.83828,16.0273159 C13.73928,16.0409826 13.56228,16.0885188 13.42188,16.1116928 C13.18128,16.1515043 13.01688,16.1746783 12.79788,16.1580406 C12.33588,16.124171 11.88228,15.9346203 11.60808,15.5216493 C11.23668,14.9619101 11.33148,14.1460696 11.33808,13.5269101 C11.34648,12.7467217 11.31888,12.0307072 11.43588,11.2546783 C11.68368,9.60992464 12.23388,7.66806957 13.93008,6.91046087 C14.19228,6.7928087 14.74008,6.59493913 15.01248,6.80528696 C15.30768,7.03227246 15.08568,7.60330145 14.95908,7.86356232 C14.80248,8.18324348 14.46408,8.42567826 14.28588,8.71386667 C14.00088,9.17615652 13.80648,9.7454029 13.62948,10.3093014 C13.47828,10.7900116 13.57188,11.1946638 13.49748,11.6664609 C13.40808,12.2327362 13.28808,13.0824464 13.54488,13.6100986 C13.80888,14.1537942 14.40708,14.0200986 14.82768,13.7027942 C15.48948,13.2048522 15.52368,12.2273884 15.60348,11.4602725 C15.72468,10.2908812 15.83748,9.26350435 15.90588,8.05073623 C15.96168,7.06435942 15.95568,5.37801159 17.43168,5.61212754 C17.89008,5.68462029 17.87208,6.0144029 18.14568,6.15641739 C18.11928,6.17543188 18.10188,6.18553333 18.06648,6.19385217 C18.14808,6.41667826 18.11928,6.90689565 18.09408,7.09228696 C18.04308,7.46782319 18.08748,7.78691014 18.03168,8.1469971 C17.96148,8.17195362 17.99028,8.13511304 18.00168,8.25514203 C17.97048,8.28722899 17.97348,8.32169275 17.95788,8.40428696 C17.95368,8.40488116 18.06768,8.35972174 18.02568,8.42033043 C17.91588,8.58017101 17.92008,8.85291014 17.90808,9.04364928 C17.87568,9.56535942 17.83068,10.0864754 17.79288,10.6081855 C17.77068,10.9124174 17.74668,11.204171 17.71248,11.5125623 C17.69388,11.6801275 17.59548,12.0740841 17.71248,12.1608377 C17.53068,12.4044609 17.59188,13.1858377 17.64828,13.4466928 C17.59428,13.5518667 17.44908,15.0504464 17.57208,15.1265043 C17.69508,15.2019681 19.27368,14.080113 19.37748,14.0177217 C20.68128,13.2262435 22.01208,12.4603159 23.27628,11.7300406 C24.96048,10.7573304 26.68008,9.90405507 28.33008,8.87727246 C28.38108,8.84637391 28.77588,8.67583768 28.79508,8.59621449 C28.83708,8.42092464 28.63968,8.41617101 28.51788,8.28901159 C28.19628,7.95328696 28.26408,7.53734493 28.25328,7.1006058 C28.23588,6.40954783 28.29708,5.64243188 28.30728,4.98702609 C28.31148,4.69289565 28.36848,4.21515652 28.37148,3.85506957 C28.37568,3.36782319 28.61688,2.59833043 27.90168,2.54604058 C27.61548,2.52464928 27.28248,2.70231594 27.06528,2.90018551 C26.89428,3.05646087 26.72568,3.5336058 26.46168,3.49022899 C26.57628,3.67918551 26.36688,3.67502609 26.30268,3.80218551 C26.26248,3.8824029 26.24688,4.06185217 26.22828,4.14504058 C26.21028,4.22644638 26.17728,4.51582319 26.09328,4.63882319 C26.11908,4.64773623 26.14428,4.65664928 26.16948,4.66496812 C26.11488,4.73389565 26.13468,4.73033043 26.06268,4.75469275 C26.12748,4.69111304 26.01408,4.69170725 26.00988,4.70715652 C26.00148,4.79747536 25.98528,4.82837391 26.10408,4.87591014 C26.03568,4.9692 26.05968,4.98167826 25.96848,5.04882319 C26.03028,5.05951884 26.03808,5.08269275 26.08668,5.10348986 C25.65228,5.10883768 26.21808,5.62638841 25.90308,5.68402609 C25.88028,5.73809855 25.87908,5.70244638 25.82928,5.76364928 C25.84428,5.78741739 25.85928,5.81177971 25.87428,5.83614203 C25.83768,5.84624348 25.84368,5.83317101 25.79748,5.83851884 C25.76748,5.99598261 26.14068,6.41727246 25.83768,6.46183768 C25.83408,6.42856232 25.82988,6.39588116 25.82628,6.3632 C25.80408,6.51412754 25.72488,6.62167826 25.84188,6.75477971 C25.65048,6.78924348 25.75068,7.37572174 25.73088,7.49693913 C25.76388,7.48802609 25.81788,7.49931594 25.85508,7.48446087 C25.75848,7.6342 25.71708,7.72214203 25.82628,7.87722899 C25.79268,7.88317101 25.75908,7.88911304 25.72488,7.89564928 C25.97448,7.96101159 25.73268,8.27712754 25.79748,8.46548986 C25.77288,8.43162029 25.74828,8.39834493 25.72368,8.36506957 C25.76088,8.72931594 25.78788,8.68475072 25.63428,8.9467942 C25.55208,9.08702609 25.57308,9.34134493 25.45128,9.4168087 C25.07928,9.60576522 24.77628,9.95515652 24.29328,9.99793913 C23.67108,10.0532 23.52768,9.59804058 23.54148,9.08464928 C23.56728,8.15531594 23.62368,7.25331594 23.66868,6.33586667 C23.69448,5.79454783 23.71788,5.24312754 23.73888,4.7024029 C23.77128,3.88477971 23.74788,2.92335942 24.44748,2.35827246 C24.59448,2.23883768 24.77928,2.13722899 24.96468,2.06830145 C25.22568,1.97204058 25.45488,2.02135942 25.71888,1.98927246 C25.82268,1.9762 25.89588,1.90846087 26.02488,1.90608406 C26.18748,1.90370725 26.33808,2.02908406 26.54388,1.99996812 C26.74308,1.97144638 26.92368,1.85498261 27.07788,1.72841739 C27.53628,1.35228696 27.85128,0.875736232 28.40868,0.573286957 C28.91208,0.299953623 29.77188,0.0789101449 30.17328,0.633895652 C30.18348,0.582794203 30.20268,0.573286957 30.23028,0.60477971 C30.23868,0.718272464 30.30708,0.794924638 30.31908,0.920895652 C30.33708,0.913171014 30.35448,0.904852174 30.37248,0.897721739 C30.32748,1.05756232 30.40068,1.1769971 30.51468,1.27028696 C30.32688,1.2999971 30.44088,1.5448087 30.57708,1.56976522 C30.50808,1.66543188 30.50808,1.75931594 30.59628,1.81992464 C30.34248,1.86211304 30.45648,2.15564928 30.41928,2.34995362 C30.45648,2.31548986 30.51228,2.29409855 30.55248,2.26022899 C30.50868,2.38204058 30.53448,2.51930145 30.56328,2.59357681 C30.48828,2.60486667 30.47388,2.64111304 30.46068,2.73262029 L30.51588,2.75401159 C30.43788,2.89127246 30.68448,3.1438087 30.41448,3.09330145 C30.38448,3.20025797 30.41508,3.27869275 30.50508,3.33692464 C30.37608,3.40763478 30.37908,3.49438841 30.50268,3.55262029 C30.14508,3.58648986 30.54228,4.64892464 30.37968,4.69230145 C30.40848,4.77014203 30.38388,4.81886667 30.44388,4.89730145 C30.34188,4.97454783 30.44868,5.28709855 30.48588,5.43267826 L30.48588,5.3786058 C30.41208,5.4808087 30.43668,5.57944638 30.44208,5.70957681 C30.38808,5.76008406 30.39288,5.7279971 30.37248,5.84208406 C30.43188,5.82841739 30.39588,5.82485217 30.44208,5.80108406 C30.45288,5.89377971 30.45048,5.90447536 30.44388,5.96686667 L30.37968,5.98231594 C30.53868,6.1576058 30.38028,6.10056232 30.40188,6.23366377 C30.42108,6.35250435 30.33648,6.43688116 30.50508,6.45114203 C30.51048,6.49748986 30.51288,6.59909855 30.51648,6.62227246 C30.51108,6.58305507 30.53868,6.87005507 30.50268,6.79043188 C30.53328,6.85817101 30.55428,6.90867826 30.60828,6.9782 C30.87408,7.31927246 31.04748,7.4089971 31.60728,7.17547536 C32.21808,6.92056232 32.75688,6.57473623 33.34128,6.29189565 C33.91068,6.01618551 34.29648,6.12611304 34.89468,6.1374029 C34.88448,6.12195362 34.87428,6.10650435 34.86408,6.09164928 C34.91388,6.12135942 34.98048,6.14037391 35.03448,6.18791014 C35.02728,6.17543188 35.02008,6.16414203 35.01288,6.15166377 C35.27388,6.3014029 35.43888,6.68347536 35.48388,6.90392464" id="Fill-5" fill="#FFFFFF" mask="url(#mask-3)"></path>
                    </g>
                    <path d="M17.99982,18.6361043 C18.19002,18.5475681 18.42522,18.5648 18.63402,18.5136986 C18.83862,18.4631913 19.02702,18.3021623 19.23942,18.3081043 C19.19922,18.2724522 19.23462,18.2985971 19.17642,18.2968145 C19.33062,18.2237275 19.66722,18.1280609 19.70922,18.0193217 C19.71762,18.0234812 19.73202,18.0609159 19.73502,18.0621043 C19.74522,18.0525971 19.77942,17.9908 19.77402,17.9943652 C20.10462,17.9622783 20.41002,17.7863942 20.67522,18.1304377 C20.84322,18.3479159 20.90802,18.5713362 20.90022,18.8214957 C20.87802,19.5571188 19.98342,19.9178 19.54722,20.3539449 C19.32522,20.5749884 18.78402,21.1929594 18.91182,21.4645101 C18.78822,21.5892928 18.82362,21.8269739 18.76782,21.9939449 C18.72162,22.1335826 18.67542,22.2280609 18.65802,22.424742 C18.61902,22.8537565 18.59982,23.4313217 18.57402,23.9482783 C18.52662,24.9073217 18.69462,26.2312058 17.71662,26.7790609 C17.36622,26.9751478 16.80462,27.3055246 16.46442,26.9894087 C16.12842,26.6774522 16.15182,26.0422493 16.17882,25.6233362 C16.24122,24.6565681 16.27422,23.7611043 16.39242,22.8080029 C16.50642,21.8875826 16.40922,20.9416116 16.59642,20.0354522 C16.72062,19.4364957 17.27202,18.5689594 17.99982,18.6361043" id="Fill-8" fill="#FFFFFF"></path>
                    <path d="M14.7915,21.2955188 C14.7921,21.3008667 14.6559,21.3840551 14.6361,21.445258 C14.5989,21.5605333 14.7009,21.6514464 14.7147,21.7542435 C14.7261,21.8469391 14.7435,21.9396348 14.7285,22.0519391 C14.6943,22.2979391 14.6403,22.5457217 14.6085,22.8113304 C14.5389,23.3972145 14.4753,24.0294464 14.3787,24.614142 C14.2929,25.1328812 14.2263,25.630229 14.1579,26.1644174 C14.0991,26.6243304 14.1531,27.0438377 14.0961,27.5067217 C14.0679,27.7337072 14.0019,27.9785188 13.9821,28.2078812 C13.9755,28.2875043 13.9209,28.3338522 13.9287,28.4200116 C13.9353,28.4930986 14.0655,28.3724754 14.0679,28.4550696 C14.0721,28.5929246 14.0211,28.6784899 13.9023,28.5697507 C13.8915,28.7010696 13.6587,28.8181275 13.5465,28.9025043 C13.3659,29.0379826 13.1871,29.1776203 12.9843,29.2816058 C12.7377,29.4087652 12.4377,29.5282 12.1653,29.3297362 C11.6697,28.9684609 11.9511,27.6701275 11.9793,27.1620841 C12.0357,26.1560986 12.1209,25.3467942 12.1719,24.3580406 C12.2247,23.3377942 12.1239,22.0727362 12.8097,21.2063884 C13.0689,20.8783884 13.5267,20.5248377 13.9731,20.461258 C14.3181,20.4119391 14.5137,20.5390986 14.6139,20.8629391 C14.6493,20.9782145 14.6385,21.2955188 14.7915,21.2955188" id="Fill-10" fill="#FFFFFF"></path>
                    <path d="M15.6918,16.2726623 C15.6426,16.8989522 14.673,17.8389812 14.001,17.8425464 C13.647,17.8449232 13.3818,17.5359377 13.4328,17.1229667 C13.5114,16.4919232 14.0412,15.9321841 14.616,15.6434014 C14.826,15.5382275 15.1914,15.4039377 15.4002,15.5358507 C15.5628,15.6386478 15.7224,16.0843 15.6918,16.2726623" id="Fill-12" fill="#FFFFFF"></path>
                    <g id="Group-16" transform="translate(0.000000, 0.509648)">
                        <mask id="mask-5" fill="white">
                            <use xlink:href="#path-4"></use>
                        </mask>
                        <g id="Clip-15"></g>
                        <path d="M10.19748,22.5632507 C10.31088,22.4325261 10.29468,22.2257435 10.29108,22.0593667 C10.28868,21.9494391 10.24728,21.9066565 10.26768,21.7658304 C10.30308,21.5233957 10.38768,21.5828159 10.44348,21.4259464 C10.52448,21.1989609 10.48368,20.8804681 10.54368,20.5750478 C10.66128,19.9772797 10.80828,19.3248449 10.93728,18.7876855 C11.05788,18.2861783 11.22588,17.7650623 11.42268,17.2855406 C11.54868,16.9789319 11.59188,16.5915116 11.75808,16.2926275 C11.84448,16.1369464 11.97228,16.0745551 12.03888,15.8891638 C12.09708,15.7275406 12.06948,15.5962217 12.08268,15.4375696 C12.11208,15.0804536 12.16248,14.7393812 12.29148,14.4202942 C12.39948,14.1511203 12.44448,13.9015551 12.53748,13.6300043 C12.59148,13.4725406 12.74808,13.3299319 12.77808,13.1819754 C12.79128,13.1142362 12.73608,13.0096565 12.74688,12.9199319 C12.75408,12.852787 12.80388,12.7422652 12.82668,12.6727435 C12.87228,12.5337 12.93768,12.4326855 12.96408,12.2877 C13.02228,11.9638594 13.11108,11.634671 13.23648,11.3114246 C13.40328,10.8841928 13.58688,10.3708014 13.73388,9.91504783 C13.83288,9.60784493 13.98768,9.2744971 14.12628,8.99700435 C14.29128,8.66603333 14.33088,8.35407681 14.48088,7.99755507 C15.08568,6.56433768 15.68988,5.04614928 16.78188,3.91122174 C16.88328,3.80604783 17.02308,3.74781594 17.07408,3.60283043 C17.08368,3.63551159 17.08428,3.65987391 17.08728,3.68780145 C17.16408,3.61946812 17.19468,3.54281594 17.21748,3.44774348 C17.24328,3.45903333 17.24748,3.47448261 17.23068,3.49527971 C17.29788,3.39545362 17.40228,3.43704783 17.47248,3.34316377 C17.55228,3.23739565 17.52588,2.99139565 17.67348,2.98842464 C17.66808,2.70736667 18.04248,2.3657 18.08448,2.01987391 C18.12408,1.69127971 18.05628,1.27474348 17.89428,0.951497101 C17.45268,0.0726710145 16.22688,-0.184024638 15.43308,0.394728986 C14.61528,0.991308696 14.21808,2.01393188 13.87848,2.96227971 C13.24008,4.7431058 12.55548,6.51501884 11.88048,8.28396087 C11.61708,8.97442464 11.39928,9.67083043 11.15088,10.3571348 C10.89288,11.0678014 10.70688,11.7541058 10.52988,12.4671493 C10.14468,14.0180188 9.58128,15.5546275 9.23268,17.128671 C8.87628,18.7365841 8.40528,20.3403377 8.17368,21.9785551 C8.02188,23.0570333 7.79268,24.1254101 7.63008,25.2015116 C7.52508,25.8973232 7.57188,26.9371783 7.24608,27.5521783 C7.14888,27.4458159 7.11948,27.4577 7.07328,27.3281638 C7.00008,27.1184101 7.18068,26.9603522 6.94848,26.8605261 C7.03188,26.5652072 6.89628,26.2235406 6.90288,25.9252507 C6.90588,25.7891783 6.81228,25.3530333 6.84228,25.3084681 C6.73908,25.2745986 6.74388,25.1991348 6.84408,25.1088159 C6.52908,25.2300333 6.77508,24.6471203 6.78528,24.5199609 C6.80808,24.2181058 6.63708,23.7950333 6.58308,23.474758 C6.55488,23.3089754 6.47208,23.1509174 6.46308,22.9845406 C6.46068,22.9381928 6.44688,22.8383667 6.44388,22.8134101 C6.44448,22.8205406 6.51648,22.7848884 6.51108,22.748642 C6.50088,22.6797145 6.40068,22.6048449 6.38388,22.5275986 C6.33588,22.3142797 6.33348,22.1538449 6.25068,21.9434971 C6.20088,21.8175261 6.22908,21.7141348 6.19248,21.588758 C6.17628,21.5346855 6.10128,21.4419899 6.07608,21.3629609 C6.05088,21.2863087 6.05868,21.1662797 6.04848,21.1074536 C6.01728,20.9232507 5.84388,20.4978014 5.94648,20.3124101 C5.78028,20.1905986 5.85048,19.787729 5.85228,19.6409609 C5.85528,19.3563377 5.67828,19.2119464 5.76588,18.9516855 C5.72388,18.9463377 5.72148,18.9302942 5.66988,18.9409899 C5.68968,18.7241058 5.60268,18.4430478 5.53968,18.1554536 C5.46228,17.8024971 5.42988,17.4210188 5.37048,17.081729 C5.25048,16.3983957 5.27448,15.3983522 4.76328,14.873671 C4.48128,14.5842942 4.00728,14.4874391 3.62568,14.6151928 C3.03108,14.8142507 2.85948,15.441729 2.66988,15.9777 C2.40648,16.7204536 2.12448,17.4941058 1.89828,18.2540913 C1.60128,19.2529464 1.12848,20.3551928 0.89268,21.2661058 C0.75948,21.7830623 0.55608,22.2405986 0.38568,22.7165551 C0.18168,23.2875841 -0.27432,24.0915406 0.22668,24.6037435 C0.47088,24.8533087 0.83508,24.9293667 1.16628,24.8325116 C1.39308,24.7665551 1.57968,24.4765841 1.78068,24.4623232 C1.71708,24.2139464 2.16768,23.1675551 2.38968,23.0790188 C2.28708,23.026729 2.48448,22.5014536 2.56308,22.3832072 C2.54328,22.3927145 2.52288,22.3933087 2.50248,22.3861783 C2.56908,22.341613 2.49228,22.3208159 2.59728,22.3445841 C2.57508,22.1758304 2.69868,21.597671 2.87868,21.4984391 C2.83428,21.3980188 2.96208,21.1894536 3.00048,21.0403087 C2.97708,21.026642 2.98908,21.026642 2.95908,20.9571203 C3.02748,20.9690043 3.09168,20.9452362 3.15108,20.9583087 C3.09108,20.9208739 3.11928,20.9256275 3.07788,20.9202797 C3.07728,20.8703667 3.08928,20.8293667 3.09528,20.7830188 C3.41328,20.8703667 3.18588,20.0473957 3.72888,20.4722507 C3.68508,20.5613812 3.69348,20.6279319 3.71148,20.7117145 C3.79908,20.6534826 3.78768,20.6950768 3.86328,20.6825986 C3.79488,20.7675696 3.78948,20.8608594 3.86088,20.9291928 C3.61548,21.2090623 4.14288,21.5329029 3.98268,21.837729 C3.99948,21.8258449 4.01688,21.8127725 4.03428,21.8008884 C4.39308,24.4492507 4.80828,27.1748594 5.23908,29.7329029 C5.28168,29.9860333 5.35788,30.2932362 5.35428,30.5505261 C5.35248,30.6931348 5.34888,30.7834536 5.36688,30.8838739 C5.39688,31.0490623 5.51388,31.112642 5.33148,31.2623812 C5.56008,31.1696855 5.62068,31.9843377 5.65308,32.1542797 C5.72208,32.5131783 5.76708,32.9415986 5.82228,33.2957435 C5.94108,34.0551348 6.08268,34.7568884 6.25068,35.4818159 C6.43308,36.266758 7.13568,36.7843087 7.85988,36.1722797 C8.44068,35.6808739 8.39268,34.5203957 8.49888,33.8281493 C8.62188,33.0295406 8.73048,32.1649754 8.82888,31.3645841 C8.84928,30.7691928 8.96688,30.1738014 9.03948,29.595642 C9.07548,29.3074536 9.10308,29.0388739 9.16368,28.7584101 C9.20148,28.5849029 9.25668,28.1778739 9.35328,28.081613 C9.52248,28.1243957 9.35208,27.6632942 9.37428,27.4743377 C9.41148,27.164758 9.40728,26.8629029 9.53388,26.6079899 C9.63888,26.394671 9.78828,26.1754101 9.77208,25.8985116 C9.75768,25.656671 9.58908,25.6382507 9.63648,25.3292652 C9.67068,25.1094101 9.72168,24.5318449 9.87168,24.4237 C9.78348,24.2418739 9.90648,24.1973087 9.93528,24.0398449 C9.97308,23.8300913 9.92688,23.6244971 9.96408,23.436729 C10.00128,23.2459899 10.08948,22.6464391 10.19748,22.5632507" id="Fill-14" fill="#FFFFFF" mask="url(#mask-5)"></path>
                    </g>
                    <g id="Group-19" transform="translate(28.200000, 24.871967)">
                        <mask id="mask-7" fill="white">
                            <use xlink:href="#path-6"></use>
                        </mask>
                        <g id="Clip-18"></g>
                        <path d="M3.92472,7.16157101 C1.97172,7.16157101 0.38892,5.59346957 0.38892,3.65993333 C0.38892,1.7263971 1.97172,0.157701449 3.92472,0.157701449 L16.10712,0.157701449 C18.05952,0.157701449 19.64292,1.7263971 19.64292,3.65993333 C19.64292,5.59346957 18.05952,7.16157101 16.10712,7.16157101 L3.92472,7.16157101 Z" id="Fill-17" fill="#231F20" mask="url(#mask-7)"></path>
                    </g>
                    <path d="M31.2054,27.8294333 C31.2054,27.6892014 31.3134,27.5780855 31.455,27.5780855 C31.5954,27.5780855 31.7082,27.6892014 31.7082,27.8294333 L31.7082,27.9322304 C31.8492,27.7391145 32.04,27.5578826 32.3766,27.5578826 C32.6928,27.5578826 32.9166,27.7099986 33.033,27.9405493 C33.2076,27.7099986 33.4404,27.5578826 33.7728,27.5578826 C34.2498,27.5578826 34.5414,27.8579551 34.5414,28.3891725 L34.5414,29.5490565 C34.5414,29.6886942 34.4328,29.7956507 34.2918,29.7956507 C34.1508,29.7956507 34.0386,29.6886942 34.0386,29.5490565 L34.0386,28.5412884 C34.0386,28.1954623 33.876,28.0106652 33.594,28.0106652 C33.3198,28.0106652 33.1248,28.1996217 33.1248,28.5496072 L33.1248,29.5490565 C33.1248,29.6886942 33.0126,29.7956507 32.8752,29.7956507 C32.7336,29.7956507 32.6214,29.6886942 32.6214,29.5490565 L32.6214,28.537129 C32.6214,28.1996217 32.4558,28.0106652 32.1774,28.0106652 C31.899,28.0106652 31.7082,28.2162594 31.7082,28.5496072 L31.7082,29.5490565 C31.7082,29.6886942 31.5954,29.7956507 31.455,29.7956507 C31.3176,29.7956507 31.2054,29.6886942 31.2054,29.5490565 L31.2054,27.8294333 Z" id="Fill-20" fill="#FFFFFF"></path>
                    <path d="M36.92766,28.7004159 C36.92766,29.0747638 36.67026,29.3867203 36.26286,29.3867203 C35.87286,29.3867203 35.59446,29.0706043 35.59446,28.6915029 L35.59446,28.6837783 C35.59446,28.3058652 35.85186,27.9927203 36.25506,27.9927203 C36.64986,27.9927203 36.92766,28.3100246 36.92766,28.6915029 L36.92766,28.7004159 Z M36.26286,27.5559812 C35.59026,27.5559812 35.09166,28.0705609 35.09166,28.6915029 L35.09166,28.7004159 C35.09166,29.3177928 35.58606,29.8234594 36.25506,29.8234594 C36.93186,29.8234594 37.43046,29.3088797 37.43046,28.6915029 L37.43046,28.6837783 C37.43046,28.0628362 36.93606,27.5559812 36.26286,27.5559812 L36.26286,27.5559812 Z" id="Fill-22" fill="#FFFFFF"></path>
                    <path d="M39.73836,28.6923348 C39.73836,29.1201609 39.45576,29.3875522 39.11076,29.3875522 C38.77056,29.3875522 38.47116,29.1070884 38.47116,28.6923348 L38.47116,28.6834217 C38.47116,28.2686681 38.77056,27.9882043 39.11076,27.9882043 C39.45156,27.9882043 39.73836,28.2639145 39.73836,28.6834217 L39.73836,28.6923348 Z M39.23136,27.556813 C38.87436,27.556813 38.64576,27.7380449 38.48376,27.9632478 L38.48376,26.9970739 C38.48376,26.8574362 38.37156,26.7498855 38.23056,26.7498855 C38.08896,26.7498855 37.98096,26.8574362 37.98096,26.9970739 L37.98096,29.5473928 C37.98096,29.6834652 38.09376,29.793987 38.23056,29.793987 C38.37156,29.793987 38.48376,29.6834652 38.48376,29.5473928 L38.48376,29.436871 C38.63736,29.6383058 38.86596,29.8189435 39.23136,29.8189435 C39.75096,29.8189435 40.24896,29.4119145 40.24896,28.6923348 L40.24896,28.6834217 C40.24896,27.9602768 39.74676,27.556813 39.23136,27.556813 L39.23136,27.556813 Z" id="Fill-24" fill="#FFFFFF"></path>
                    <path d="M40.83264,27.8283043 C40.83264,27.6886667 40.94064,27.5775507 41.08164,27.5775507 C41.22264,27.5775507 41.33484,27.6886667 41.33484,27.8283043 L41.33484,29.5479275 C41.33484,29.6875652 41.22264,29.7945217 41.08164,29.7945217 C40.94424,29.7945217 40.83264,29.6875652 40.83264,29.5479275 L40.83264,27.8283043 Z" id="Fill-26" fill="#FFFFFF"></path>
                    <path d="M42.04026,26.9973116 C42.04026,26.8612391 42.14826,26.7501232 42.28926,26.7501232 C42.43086,26.7501232 42.54246,26.8612391 42.54246,26.9973116 L42.54246,29.5476304 C42.54246,29.6872681 42.43086,29.7948188 42.28926,29.7948188 C42.15246,29.7948188 42.04026,29.6872681 42.04026,29.5476304 L42.04026,26.9973116 Z" id="Fill-28" fill="#FFFFFF"></path>
                    <path d="M43.61052,28.5356435 C43.65612,28.1987304 43.87212,27.9640203 44.17992,27.9640203 C44.51172,27.9640203 44.70252,28.2147739 44.73612,28.5356435 L43.61052,28.5356435 Z M45.22632,28.6259623 C45.22632,28.1250493 44.88132,27.5569913 44.18352,27.5569913 C43.55652,27.5569913 43.11192,28.0668174 43.11192,28.6877594 L43.11192,28.6966725 C43.11192,29.3669333 43.60212,29.8232812 44.23752,29.8232812 C44.57832,29.8232812 44.82792,29.7121652 45.02652,29.535687 C45.06432,29.4982522 45.09312,29.4447739 45.09312,29.3829768 C45.09312,29.2677014 45.00612,29.181542 44.89392,29.181542 C44.83572,29.181542 44.80212,29.1975855 44.76492,29.2267014 C44.62452,29.3419768 44.45772,29.415658 44.24592,29.415658 C43.92192,29.415658 43.66872,29.2183826 43.61412,28.8654261 L44.98932,28.8654261 C45.11832,28.8654261 45.22632,28.7667884 45.22632,28.6259623 L45.22632,28.6259623 Z" id="Fill-30" fill="#FFFFFF"></path>
                    <path d="M41.3541,27.0182275 C41.3541,27.1661841 41.2335,27.286213 41.0841,27.286213 C40.9341,27.286213 40.8135,27.1661841 40.8135,27.0182275 C40.8135,26.870271 40.9341,26.750242 41.0841,26.750242 C41.2335,26.750242 41.3541,26.870271 41.3541,27.0182275" id="Fill-32" fill="#FFFFFF"></path>
                </g>
            </g>
        </g>
    </g>
</svg>