<?xml version="1.0" encoding="UTF-8"?>
<svg  viewBox="0 0 71 68" version="1.1" xmlns="http://www.w3.org/2000/svg" xmlns:xlink="http://www.w3.org/1999/xlink">
    <!-- Generator: Sketch 50.2 (55047) - http://www.bohemiancoding.com/sketch -->
    <title>Web icon</title>
    <desc>Created with Sketch.</desc>
    <defs></defs>
    <g id="Web-icon" stroke="none" stroke-width="1" fill="none" fill-rule="evenodd">
        <g id="Group-3" transform="translate(2.000000, 11.000000)">
            <text id="INACTIVE" font-family="MarkPro-Bold, Mark Pro" font-size="10" font-weight="bold" letter-spacing="0.8125" fill="#F5A623">
                <tspan x="7.20734375" y="49.3372093">INACTIV</tspan>
                <tspan x="54.6248437" y="49.3372093" letter-spacing="0.5078125">E</tspan>
            </text>
            <g id="Group-8" transform="translate(30.109091, 14.441860) rotate(-360.000000) translate(-30.109091, -14.441860) translate(7.527273, 0.000000)" fill="#F2A900" fill-rule="nonzero">
                <path d="M25.9420065,22.5220366 C25.6052056,22.2098384 25.1795591,22.0559853 24.7496541,22.0907988 L18.1839735,22.0907988 L24.3005863,14.1668044 L24.8735349,13.4301065 L25.2451772,12.9090275 C25.3475724,12.7425966 25.4308048,12.561342 25.4929387,12.3699802 C25.5755904,12.1608748 25.6230135,11.9351488 25.6323046,11.7051553 C25.6754693,11.1811565 25.4517096,10.6757997 25.059356,10.4114419 C24.5502835,10.1412445 23.9924329,10.0179375 23.433421,10.0520771 L15.7373284,10.0520771 C15.3316189,10.0199589 14.9297807,10.1605604 14.6069164,10.4473784 C14.3401857,10.7108378 14.1917223,11.1011978 14.2043039,11.5075047 C14.2043039,12.1184249 14.3798662,12.4896936 14.7307972,12.6215356 C15.2340628,12.7875172 15.7564912,12.8602886 16.2793068,12.8371545 L21.2500225,12.8371545 C21.04349,13.1724868 20.7699845,13.5677881 20.4293124,14.0230584 L19.1595346,15.7300414 L17.4871442,17.8862303 L15.4895669,20.5095935 C14.7979638,21.4080056 14.3436698,22.0070218 14.1268785,22.3064177 C13.9238301,22.5896421 13.8092404,22.9442902 13.8016914,23.3126392 C13.7809801,23.8081134 13.9513162,24.2887639 14.2662443,24.6243208 C14.6746637,24.9814396 15.1810263,25.1537101 15.6908731,25.1094633 L24.734169,25.1094633 C25.1667839,25.1487688 25.5968824,25.0016539 25.9420065,24.6961938 C26.2050595,24.42959 26.3525551,24.0412514 26.344619,23.6360675 C26.3579749,23.2140384 26.2106729,22.8068332 25.9420065,22.5220366 Z" id="Shape"></path>
                <path d="M9.7077788,27.1656308 C9.43421593,26.9552653 9.08776808,26.8532757 8.73858461,26.8801348 L3.43928089,26.8801348 L8.36341267,21.5909474 L8.81674543,21.0950861 L9.11375656,20.7494858 C9.19758404,20.6382927 9.26577936,20.5171447 9.31697469,20.3888594 C9.37657232,20.2506193 9.40842286,20.1028 9.41076768,19.9531025 C9.45004349,19.6024309 9.27281383,19.2619019 8.95743491,19.0815887 C8.54650439,18.9001485 8.09590726,18.8175049 7.64433311,18.841171 L1.53215684,18.841171 C1.20603081,18.8237032 0.884008221,18.9196824 0.625491302,19.1116409 C0.40937663,19.2863193 0.288422758,19.5466465 0.29721585,19.8178676 C0.29721585,20.218501 0.43790533,20.4690612 0.719284288,20.5691726 C1.12611137,20.6775484 1.5481798,20.7231901 1.96985744,20.7044075 L5.97169152,20.7044075 C5.81536987,20.929799 5.58088741,21.1852427 5.31514061,21.5007908 L4.28341777,22.6728267 L2.93905163,24.1754367 L1.37583519,25.8884122 C0.813077275,26.4894562 0.453537494,26.8951609 0.265951522,27.1205524 C0.103767816,27.3065004 0.0101702319,27.5390293 0.000204727121,27.7817009 C-0.00546193247,28.071329 0.106698847,28.3517536 0.312848015,28.5630581 C0.640928064,28.7976531 1.04638733,28.9097854 1.45399601,28.8786062 L8.73858461,28.8786062 C9.08522786,28.9052775 9.42991708,28.8091105 9.7077788,28.6081364 C9.92193946,28.4321432 10.0425025,28.1727551 10.0360543,27.9019097 C10.0432841,27.6222364 9.92350267,27.353457 9.7077788,27.1656308 Z" id="Shape"></path>
                <path d="M44.6414204,15.5734227 C44.172635,15.1854171 43.5873153,15.0206697 43.011571,15.1145161 L34.568951,15.1145161 L42.4900192,5.14706438 L43.2397499,4.22925115 C43.4353318,3.97226345 43.592816,3.75818351 43.7124062,3.58678189 C43.8417755,3.37683211 43.9458822,3.14829662 44.0220776,2.9076001 C44.1145716,2.65084185 44.164282,2.37710405 44.1687641,2.09992446 C44.2302909,1.44047565 43.9434374,0.801448186 43.4353318,0.466216903 C42.7730018,0.120430768 42.0454777,-0.0369742008 41.3165276,0.00731028762 L31.3092521,0.00731028762 C30.7830145,-0.0339913078 30.2614627,0.142228833 29.8423877,0.502929433 C29.4948223,0.835636729 29.3025,1.3296497 29.3208358,1.84293675 C29.3208358,2.61389986 29.5490148,3.07280648 30.0053726,3.25636913 C30.6569049,3.46494218 31.3332924,3.55787077 32.0100874,3.5317131 L38.4316941,3.5317131 C38.1709182,3.94771194 37.8178521,4.44952633 37.372292,5.0369268 C36.9267319,5.62432726 36.3835846,6.33402634 35.7424426,7.16625349 L33.5747428,9.86462439 L30.9832823,13.095327 C30.0813643,14.2212543 29.4893215,14.9981832 29.2067464,15.4265726 C28.6564685,16.294365 28.7607788,17.4868338 29.4512238,18.2167248 C29.9794987,18.6636998 30.634087,18.878927 31.2929536,18.8224815 L43.011571,18.8224815 C43.5932235,18.8929237 44.1767096,18.7089021 44.6414204,18.3085061 C44.9851149,17.9725865 45.1764185,17.4806386 45.1629722,16.9684988 C45.1753998,16.4405267 44.9853186,15.9322877 44.6414204,15.5734227 Z" id="Shape"></path>
            </g>
        </g>
    </g>
</svg>