<?xml version="1.0" encoding="UTF-8"?>
<svg  viewBox="0 0 18 18" version="1.1" xmlns="http://www.w3.org/2000/svg" xmlns:xlink="http://www.w3.org/1999/xlink">
    <!-- Generator: Sketch 46.2 (44496) - http://www.bohemiancoding.com/sketch -->
    <title>icons/information</title>
    <desc>Created with Sketch.</desc>
    <defs></defs>
    <g id="Symbols" stroke="none" stroke-width="1" fill="none" fill-rule="evenodd">
        <g id="icons/information" fill-rule="nonzero" fill="#666666">
            <g id="Info">
                <path d="M9.01198402,18 C4.0505992,18 0,13.9787234 0,9 C0,4.0212766 4.02663116,0 9.01198402,0 C13.9973369,0 18,4.0212766 18,9 C18,13.9787234 13.9733688,18 9.01198402,18 Z M9,0.818181818 C4.48097252,0.818181818 0.818181818,4.48097252 0.818181818,9 C0.818181818,13.5190275 4.48097252,17.1818182 9,17.1818182 C13.5190275,17.1818182 17.1818182,13.5190275 17.1818182,9 C17.1818182,4.50475687 13.5190275,0.818181818 9,0.818181818 Z" id="Shape"></path>
                <circle id="Oval" cx="9" cy="5" r="1"></circle>
                <polygon id="Shape-Copy" points="10 12 8.03015137 12 7.99060059 8.02050781 7 8.02050781 7 7 10 7"></polygon>
                <rect id="Rectangle-path-Copy" x="7" y="12" width="4" height="1"></rect>
            </g>
        </g>
    </g>
</svg>