<svg xmlns="http://www.w3.org/2000/svg" viewBox="0 0 30 36">
    <g fill="none" fill-rule="evenodd">
        <g stroke="#BBB">
            <path d="M17.044 22.336c0 1.551 2.7 2.809 6.03 2.809s6.03-1.258 6.03-2.81M17.044 25.863c0 1.551 2.7 2.809 6.03 2.809s6.03-1.258 6.03-2.81"/>
            <path d="M29.104 18.809v10.58c0 1.552-2.7 2.81-6.03 2.81s-6.03-1.258-6.03-2.81V18.81"/>
            <path d="M19.958 16.403c-1.746.492-2.914 1.385-2.914 2.406 0 1.551 2.7 2.81 6.03 2.81s6.03-1.259 6.03-2.81a1.4 1.4 0 0 0-.123-.568"/>
            <g transform="translate(1 11)">
                <path d="M.057 6.763c0 1.552 2.7 2.81 6.03 2.81s6.03-1.258 6.03-2.81M.057 10.29c0 1.552 2.7 2.81 6.03 2.81s6.03-1.258 6.03-2.81M.057 13.817c0 1.552 2.7 2.81 6.03 2.81s6.03-1.258 6.03-2.81M.057 17.344c0 1.551 2.7 2.81 6.03 2.81s6.03-1.259 6.03-2.81"/>
                <path d="M12.117 3.176v17.695c0 1.551-2.7 2.809-6.03 2.809s-6.03-1.258-6.03-2.81V3.177"/>
                <ellipse cx="6.087" cy="3.176" rx="6.03" ry="2.809"/>
            </g>
        </g>
        <path fill="#BBB" d="M11.827 0c2.783 0 4.88 2.061 4.88 4.783 0 2.748-2.097 4.81-4.88 4.81C9.084 9.592 7 7.53 7 4.782 7 2.061 9.084 0 11.827 0zm0 1.744c-1.688 0-2.98 1.269-2.98 3.039 0 1.797 1.292 3.065 2.98 3.065 1.74 0 3.02-1.268 3.02-3.065 0-1.77-1.28-3.039-3.02-3.039zM25.345.251l-10.3 16.34v-3.176L23.287.251h2.058zm-.225 9.157c2.783 0 4.88 2.074 4.88 4.796C30 16.952 27.903 19 25.12 19c-2.743 0-4.826-2.048-4.826-4.796 0-2.722 2.083-4.796 4.826-4.796zm0 1.744c-1.688 0-2.98 1.268-2.98 3.052 0 1.783 1.292 3.052 2.98 3.052 1.741 0 3.034-1.269 3.034-3.052 0-1.784-1.293-3.052-3.034-3.052z"/>
    </g>
</svg>
