<?xml version="1.0" encoding="UTF-8"?>
<svg viewBox="0 0 77 76" version="1.1" xmlns="http://www.w3.org/2000/svg" xmlns:xlink="http://www.w3.org/1999/xlink">
    <!-- Generator: Sketch 47.1 (45422) - http://www.bohemiancoding.com/sketch -->
    <title>icons/lightbulbgreen</title>
    <desc>Created with Sketch.</desc>
    <defs></defs>
    <g id="Electricity" stroke="none" stroke-width="1" fill="#FFF" fill-rule="evenodd" stroke-linecap="square">
        <g id="1440-FBE-Accept-Terms-Dialogue" transform="translate(-682.000000, -324.000000)" stroke-width="2" stroke="gray">
            <g id="icons/lightbulbgreen" transform="translate(683.000000, 325.000000)">
                <g id="business-24px-outline_bulb-63">
                    <path d="M0.677083333,36.8541667 L7.38541667,36.8541667" id="Shape"></path>
                    <path d="M11.4104167,11.1791667 L16.10625,15.7875" id="Shape"></path>
                    <path d="M37.5729167,0.645833333 L37.5729167,7.22916667" id="Shape"></path>
                    <path d="M63.7354167,11.1791667 L59.0395833,15.7875" id="Shape"></path>
                    <path d="M74.46875,36.8541667 L67.7604167,36.8541667" id="Shape"></path>
                    <path d="M57.6979167,36.8541667 C57.6979167,25.9916667 48.6416667,17.1041667 37.5729167,17.1041667 C26.5041667,17.1041667 17.4479167,25.9916667 17.4479167,36.8541667 C17.4479167,45.4125 23.15,52.6541667 30.8645833,55.6166667 L30.8645833,63.1875 L44.28125,63.1875 L44.28125,55.6166667 C51.9958333,52.6541667 57.6979167,45.4125 57.6979167,36.8541667 Z" id="Shape"></path>
                    <path d="M30.8645833,73.0625 L44.28125,73.0625" id="Shape"></path>
                </g>
            </g>
        </g>
    </g>
</svg>
