<?xml version="1.0" encoding="UTF-8"?>
<svg width="36px" height="36px" viewBox="0 0 36 36" version="1.1" xmlns="http://www.w3.org/2000/svg" xmlns:xlink="http://www.w3.org/1999/xlink">
    <!-- Generator: Sketch 46.2 (44496) - http://www.bohemiancoding.com/sketch -->
    <title>Dashboard/account/section title/loans</title>
    <desc>Created with Sketch.</desc>
    <defs></defs>
    <g id="Symbols" stroke="none" stroke-width="1" fill="none" fill-rule="evenodd">
        <g id="Dashboard/account/section-title/loans">
            <g id="Group-4" transform="translate(3.000000, 4.000000)">
                <g id="Group-3">
                    <path d="M5.30491304,19.1287826 C8.88443478,18.5470435 12.5136522,18.7729565 13.6570435,19.1084348 L20.8706087,21.2252609 C22.9279565,21.8287826 22.0168696,24.9517826 19.9601739,24.3477391 L12.3815217,22.1236957" id="Shape" stroke="#F2A900"></path>
                    <path d="M21.9007826,22.134913 L27.5212174,19.5727826 C29.5605652,18.6431739 30.8437826,21.6318261 28.9129565,22.5118696 L21.2808261,25.9909565 C19.9763478,26.5856087 14.7945652,27.0173478 9.04304348,24.4462174 C8.05473913,24.0045652 6.37604348,24.5782174 5.30491304,24.8530435" id="Shape" stroke="#F2A900"></path>
                    <rect id="Rectangle-path" stroke="#F2A900" x="0.0632608696" y="17.6126087" width="5.2173913" height="9.13043478"></rect>
                    <g id="Group" transform="translate(11.739130, 0.000000)">
                        <path d="M14.3459182,14.0897492 C14.4595596,10.3442506 9.45857229,3.07959785 9.45857229,3.07959785 C9.40175159,2.35344157 11.2203203,-3.55271368e-15 11.2203203,-3.55271368e-15 L3.12750579,-3.55271368e-15 C3.12750579,-3.55271368e-15 4.94607449,2.35344157 4.88925379,3.07959785 C4.88925379,3.07959785 -0.111733556,10.3332037 0.00190784324,14.0787023 C0.115549243,17.8242782 7.17387475,17.6059678 7.17387475,17.6059678 C7.17387475,17.6059678 14.2322768,17.8352478 14.3459182,14.0897492 Z" id="Shape" stroke="#F2A900"></path>
                        <path d="M0.652173913,5.0380216 C0.652173913,5.0380216 1.46189297,5.89522864 2.52189171,4.69513878 C3.58189045,3.49504892 3.34637044,3.2961457 4.81860855,3.32360751 L9.55360817,3.32360751 C9.55360817,3.32360751 11.2571606,2.94286724 11.8460399,4.05727971 C12.4349193,5.17160555 12.2189995,6.02881259 13.0434783,6.52173913" id="Shape" stroke="#F2A900"></path>
                        <path d="M5.86956522,1.95652174 L8.47826087,1.95652174" id="Shape" stroke="#F2A900"></path>
                        <path d="M5.86956522,4.56521739 L8.47826087,4.56521739" id="Shape" stroke="#F2A900"></path>
                        <g id="Group-2" transform="translate(5.217391, 7.826087)" fill="#F2A900">
                            <path d="M2.23356827,3.61880095 L0.926672894,3.61880095 L0.926672894,5.86956522 L0.18915591,5.86956522 L0.18915591,0.305706522 L2.0310377,0.305706522 C2.65773921,0.305706522 3.13985905,0.448368139 3.47741168,0.733695652 C3.81496432,1.01902317 3.98373811,1.43427037 3.98373811,1.97944973 C3.98373811,2.32591885 3.89011643,2.62780102 3.70287024,2.8851053 C3.51562406,3.14240957 3.25513924,3.334748 2.92140795,3.46212636 L4.22830333,5.82370924 L4.22830333,5.86956522 L3.44110904,5.86956522 L2.23356827,3.61880095 Z M0.926672894,3.0188519 L2.05396569,3.0188519 C2.41826779,3.0188519 2.7080492,2.92459333 2.92331861,2.73607337 C3.13858803,2.54755341 3.24622113,2.29534805 3.24622113,1.97944973 C3.24622113,1.63552817 3.14368309,1.37185893 2.93860394,1.1884341 C2.73352479,1.00500927 2.43737456,0.912024469 2.05014436,0.909476902 L0.926672894,0.909476902 L0.926672894,3.0188519 Z" id="R"></path>
                        </g>
                    </g>
                </g>
            </g>
        </g>
    </g>
</svg>