<?xml version="1.0" encoding="UTF-8"?>
<svg width="36px" height="36px" viewBox="0 0 36 36" version="1.1" xmlns="http://www.w3.org/2000/svg" xmlns:xlink="http://www.w3.org/1999/xlink">
    <!-- Generator: Sketch 47.1 (45422) - http://www.bohemiancoding.com/sketch -->
    <title>36px/Lock/Red</title>
    <desc>Created with Sketch.</desc>
    <defs></defs>
    <g id="Symbols" stroke="none" stroke-width="1" fill="none" fill-rule="evenodd">
        <g id="36px/Lock/Red" stroke="#D22630">
            <g id="Group" transform="translate(9.000000, 6.000000)">
                <path d="M2.61588706,9.65647059 C1.42112753,9.65647059 0.448771765,10.590912 0.448771765,11.7856715 L1.40760847,21.7543002 C1.40760847,22.9504828 2.38006588,23.8870588 3.57472376,23.8870588 L14.691456,23.8870588 C15.8862155,23.8870588 16.8590795,22.9312715 16.8590795,21.7350889 L17.8179162,11.7774381 C17.8179162,10.5826786 16.8450522,9.65647059 15.6502927,9.65647059 L2.61588706,9.65647059 L2.61588706,9.65647059 Z" id="Shape"></path>
                <path d="M10.2676744,19.8211765 L7.99942024,19.8211765 L7.57250259,16.3072376 C7.57250259,15.460416 8.27142776,14.7903586 9.13197176,14.7903586 C9.99393882,14.7903586 10.6933722,15.451776 10.6933722,16.298496 L10.2676744,19.8211765 L10.2676744,19.8211765 Z" id="Shape"></path>
                <path d="M4.56029365,9.65647059 L4.56029365,5.11955576 C4.56029365,2.76429176 6.72212329,0.847939765 9.13471624,0.847939765 C11.5486306,0.847939765 13.7085289,2.76429176 13.7085289,5.11955576 L13.7085289,9.65647059" id="Shape"></path>
            </g>
        </g>
    </g>
</svg>