<?xml version="1.0" encoding="UTF-8"?>
<svg viewBox="0 0 85 70" version="1.1" xmlns="http://www.w3.org/2000/svg" xmlns:xlink="http://www.w3.org/1999/xlink">
    <!-- Generator: Sketch 47.1 (45422) - http://www.bohemiancoding.com/sketch -->
    <title>Logout</title>
    <desc>Created with Sketch.</desc>
    <defs></defs>
    <g id="Page-1" stroke="none" stroke-width="1" fill="none" fill-rule="evenodd">
        <g id="1440_Browser_back_error" transform="translate(-678.000000, -335.000000)">
            <g id="Logout" transform="translate(679.000000, 336.000000)">
                <path d="M44.1058699,1.45262663 L82.5326372,63.2736531 L82.5326372,63.2736531 C83.4320077,64.7205614 82.9943117,66.6264521 81.5550158,67.5305793 C81.0666697,67.8373452 80.5024085,68 79.9265615,68 L3.07302691,68 L3.07302691,68 C1.37584101,68 0,66.6168823 0,64.9107201 C0,64.3318276 0.161799092,63.764582 0.466951125,63.2736531 L38.8937184,1.45262663 L38.8937184,1.45262663 C39.7930889,0.00571841387 41.6889526,-0.434292582 43.1282485,0.469834566 C43.5241495,0.718528993 43.8584839,1.05463171 44.1058699,1.45262663 Z" id="Triangle" stroke="#009639" stroke-width="2"></path>
                <path d="M43.3200001,25 L39.6599999,25 L40.14,45.2045134 L42.84,45.2045134 L43.3200001,25 Z M41.4999999,49.6897038 C40.16,49.6897038 39,50.9167841 39,52.3342736 C39,53.751763 40.16,55 41.4999999,55 C42.84,55 44,53.751763 44,52.3342736 C44,50.9167841 42.84,49.6897038 41.4999999,49.6897038 Z" id="!" fill="#009639" fill-rule="nonzero"></path>
            </g>
        </g>
    </g>
</svg>