<?xml version="1.0" encoding="UTF-8"?>
<svg width="120px" height="38px" viewBox="0 0 120 38" version="1.1" xmlns="http://www.w3.org/2000/svg" xmlns:xlink="http://www.w3.org/1999/xlink">
    <!-- Generator: Sketch 47.1 (45422) - http://www.bohemiancoding.com/sketch -->
    <title>Lotto</title>
    <desc>Created with Sketch.</desc>
    <defs>
        <polygon id="path-1" points="59.99965 0.472 0 0.472 0 38 59.99965 38 119.9993 38 119.9993 0.472"></polygon>
    </defs>
    <g id="Lotto" stroke="none" stroke-width="1" fill="none" fill-rule="evenodd">
        <g id="1440-Lotto-1" transform="translate(-473.000000, -457.000000)">
            <g id="Lotto" transform="translate(473.000000, 456.000000)">
                <g id="Group-3" transform="translate(0.000000, 0.528400)">
                    <mask id="mask-2" fill="white">
                        <use xlink:href="#path-1"></use>
                    </mask>
                    <g id="Clip-2"></g>
                    <path d="M101.2673,0.476 C101.2673,0.476 18.8173,0.472 18.7643,0.472 C8.4173,0.472 -0.0007,8.89 -0.0007,19.236 C-0.0007,29.583 8.4173,38 18.7643,38 C19.2473,38 101.2673,37.939 101.2673,37.939 C111.5963,37.939 119.9993,29.537 119.9993,19.208 C119.9993,8.879 111.5963,0.476 101.2673,0.476" id="Fill-1" fill="#FFFFFF" mask="url(#mask-2)"></path>
                </g>
                <path d="M18.7986,2.02 C28.5986,2.02 36.5436,9.964 36.5436,19.765 C36.5436,29.565 28.5986,37.51 18.7986,37.51 C8.9986,37.51 1.0526,29.565 1.0526,19.765 C1.0526,9.964 8.9986,2.02 18.7986,2.02" id="Fill-4" fill="#FFFFFF"></path>
                <path d="M36.5437,19.7651 C36.5437,9.9651 28.5987,2.0191 18.7987,2.0191 C8.9987,2.0191 1.0527,9.9651 1.0527,19.7651 C1.0527,29.5651 8.9987,37.5101 18.7987,37.5101 C28.5987,37.5101 36.5437,29.5651 36.5437,19.7651" id="Fill-6" fill="#FADA19"></path>
                <path d="M20.0335,24.8838 C19.7035,24.5538 19.2645,24.3728 18.7985,24.3728 C18.3315,24.3728 17.8935,24.5538 17.5625,24.8838 L14.5525,27.8938 C14.5005,27.9468 14.4425,27.9978 14.3825,28.0488 C15.6995,28.7518 17.2005,29.1538 18.7985,29.1538 C20.3945,29.1538 21.8985,28.7518 23.2145,28.0488 C23.1545,27.9978 23.0965,27.9468 23.0445,27.8938 L20.0335,24.8838 Z" id="Fill-8" fill="#009DDA"></path>
                <path d="M23.9168,18.5298 C23.2348,19.2118 23.2348,20.3198 23.9168,21.0008 L26.9268,24.0108 C26.9798,24.0628 27.0308,24.1208 27.0818,24.1808 C27.7848,22.8638 28.1878,21.3628 28.1878,19.7648 C28.1878,18.1678 27.7848,16.6658 27.0818,15.3488 C27.0308,15.4098 26.9798,15.4668 26.9268,15.5198 L23.9168,18.5298 Z" id="Fill-10" fill="#00A66A"></path>
                <path d="M13.6799,21.0005 C14.3609,20.3185 14.3609,19.2115 13.6799,18.5295 L10.6689,15.5195 C10.6169,15.4675 10.5659,15.4105 10.5149,15.3495 C9.8119,16.6665 9.4089,18.1675 9.4089,19.7655 C9.4089,21.3615 9.8119,22.8645 10.5149,24.1815 C10.5659,24.1205 10.6169,24.0635 10.6689,24.0115 L13.6799,21.0005 Z" id="Fill-12" fill="#ED3342"></path>
                <path d="M24.9861,27.4399 C24.6051,27.4399 24.2241,27.2939 23.9341,27.0039 L18.7981,21.8679 L13.6621,27.0039 C13.0821,27.5849 12.1401,27.5849 11.5591,27.0039 C10.9781,26.4229 10.9781,25.4809 11.5591,24.9009 L16.6951,19.7649 L11.5591,14.6289 C10.9781,14.0489 10.9781,13.1069 11.5591,12.5259 C12.1401,11.9449 13.0821,11.9449 13.6621,12.5259 L18.7981,17.6619 L23.9341,12.5259 C24.5151,11.9449 25.4571,11.9449 26.0361,12.5259 C26.6181,13.1069 26.6181,14.0489 26.0361,14.6289 L20.9021,19.7649 L26.0361,24.9009 C26.6181,25.4809 26.6181,26.4229 26.0361,27.0039 C25.7471,27.2939 25.3661,27.4399 24.9861,27.4399" id="Fill-14" fill="#231F20"></path>
                <path d="M20.95,12.645 C20.95,11.477 20.003,10.529 18.834,10.529 C17.665,10.529 16.718,11.477 16.718,12.645 C16.718,13.813 17.665,14.761 18.834,14.761 C20.003,14.761 20.95,13.813 20.95,12.645" id="Fill-16" fill="#231F20"></path>
                <path d="M7.7747,29.8051 L7.8017,29.7791 L9.6917,28.0261 C9.7617,27.9601 9.7967,27.8781 9.7967,27.7791 C9.7967,27.6791 9.7627,27.5911 9.6917,27.5151 C9.6287,27.4461 9.5447,27.4081 9.4427,27.4001 C9.3427,27.3911 9.2537,27.4201 9.1847,27.4781 L7.0197,29.4871 C6.9527,29.5491 6.9157,29.6201 6.9067,29.6991 C6.8997,29.7781 6.9267,29.8501 6.9887,29.9171 L8.0117,31.0201 C8.0597,31.0671 8.1087,31.0891 8.1897,31.1031 C8.3137,31.1181 8.4067,31.0691 8.4577,31.0211 C8.5207,30.9611 8.5577,30.8871 8.5647,30.8001 C8.5717,30.7131 8.5457,30.6381 8.4887,30.5761 L7.7747,29.8051 Z" id="Fill-18" fill="#231F20"></path>
                <path d="M12.1487,31.8799 C11.9827,32.1349 11.7517,32.2979 11.4617,32.3669 C11.3787,32.3859 11.2957,32.3959 11.2147,32.3959 C11.0147,32.3959 10.8207,32.3349 10.6407,32.2159 C10.3847,32.0499 10.2297,31.8159 10.1777,31.5249 C10.1257,31.2329 10.1837,30.9559 10.3517,30.7009 C10.5207,30.4429 10.7527,30.2769 11.0427,30.2069 C11.1277,30.1859 11.2117,30.1759 11.2947,30.1759 L11.3127,30.1759 C11.5027,30.1789 11.6877,30.2389 11.8627,30.3539 C12.1177,30.5209 12.2737,30.7549 12.3237,31.0509 C12.3757,31.3469 12.3157,31.6259 12.1487,31.8799 M12.2597,29.7469 C11.9567,29.5479 11.6277,29.4459 11.2857,29.4459 C11.1557,29.4459 11.0207,29.4609 10.8857,29.4899 C10.3977,29.5969 10.0077,29.8659 9.7287,30.2919 C9.4517,30.7129 9.3607,31.1749 9.4577,31.6659 C9.5557,32.1569 9.8197,32.5459 10.2427,32.8229 C10.5397,33.0179 10.8587,33.1189 11.1907,33.1249 L11.2207,33.1249 C11.3507,33.1249 11.4837,33.1109 11.6177,33.0829 C12.1067,32.9789 12.4967,32.7119 12.7737,32.2899 C13.0517,31.8639 13.1447,31.3999 13.0467,30.9079 C12.9497,30.4169 12.6857,30.0259 12.2597,29.7469" id="Fill-20" fill="#231F20"></path>
                <path d="M16.2639,31.5234 L14.2139,30.8864 C14.1839,30.8784 14.1549,30.8734 14.1269,30.8734 C14.0759,30.8734 14.0269,30.8864 13.9779,30.9144 C13.9039,30.9584 13.8519,31.0244 13.8259,31.1104 C13.7999,31.1904 13.8069,31.2724 13.8479,31.3534 C13.8889,31.4344 13.9469,31.4864 14.0209,31.5094 L14.6899,31.7174 L14.6789,31.7524 L13.9149,34.2114 C13.8889,34.2984 13.8999,34.3874 13.9509,34.4764 C14.0009,34.5644 14.0739,34.6244 14.1679,34.6534 C14.2039,34.6644 14.2419,34.6714 14.2809,34.6724 L14.2859,34.7084 L14.2859,34.6724 C14.3429,34.6724 14.3969,34.6594 14.4489,34.6334 C14.5399,34.5914 14.5989,34.5234 14.6279,34.4334 L15.4019,31.9384 L16.0719,32.1464 C16.1429,32.1694 16.2219,32.1574 16.3019,32.1144 C16.3809,32.0714 16.4329,32.0084 16.4579,31.9274 C16.4849,31.8404 16.4789,31.7574 16.4419,31.6794 C16.4029,31.5994 16.3459,31.5484 16.2639,31.5234" id="Fill-22" fill="#231F20"></path>
                <path d="M19.4397,31.7734 L17.2867,31.6964 C17.2027,31.6964 17.1337,31.7264 17.0747,31.7844 C17.0137,31.8474 16.9817,31.9234 16.9777,32.0154 C16.9737,32.0984 17.0037,32.1744 17.0647,32.2424 C17.1247,32.3094 17.1937,32.3454 17.2707,32.3484 L17.9717,32.3734 L17.9697,32.4114 L17.8777,34.9844 C17.8737,35.0734 17.9087,35.1574 17.9807,35.2294 C18.0537,35.3014 18.1397,35.3394 18.2377,35.3424 L18.2547,35.3794 L18.2557,35.3794 L18.2557,35.3424 C18.3497,35.3424 18.4337,35.3124 18.5047,35.2504 C18.5807,35.1844 18.6197,35.1044 18.6237,35.0084 L18.7157,32.3994 L18.7547,32.4004 L19.4227,32.4244 L19.4237,32.4244 C19.4997,32.4244 19.5677,32.3944 19.6307,32.3334 C19.6947,32.2704 19.7297,32.1954 19.7327,32.1114 C19.7347,32.0214 19.7087,31.9414 19.6507,31.8764 C19.5947,31.8114 19.5227,31.7764 19.4397,31.7734" id="Fill-24" fill="#231F20"></path>
                <path d="M23.259,34.145 C23.188,34.095 23.108,34.08 23.028,34.098 L21.798,34.377 L21.623,33.603 L22.648,33.371 C22.727,33.353 22.79,33.305 22.835,33.228 C22.88,33.153 22.893,33.074 22.875,32.99 C22.856,32.905 22.809,32.836 22.737,32.79 C22.665,32.742 22.587,32.727 22.507,32.746 L21.481,32.977 L21.294,32.152 L22.477,31.884 C22.556,31.866 22.619,31.818 22.664,31.741 C22.708,31.664 22.721,31.583 22.703,31.502 C22.684,31.413 22.637,31.343 22.565,31.294 C22.513,31.258 22.459,31.241 22.401,31.241 C22.38,31.241 22.356,31.244 22.334,31.249 L20.71,31.617 C20.621,31.636 20.557,31.681 20.521,31.75 C20.485,31.819 20.476,31.9 20.493,31.99 L21.145,34.871 C21.168,34.957 21.212,35.026 21.275,35.073 C21.317,35.105 21.365,35.12 21.419,35.121 L21.423,35.159 L21.424,35.158 L21.424,35.121 C21.448,35.121 21.473,35.119 21.501,35.111 L23.172,34.733 C23.249,34.716 23.314,34.667 23.357,34.59 C23.402,34.512 23.415,34.431 23.398,34.349 C23.377,34.263 23.331,34.195 23.259,34.145" id="Fill-26" fill="#231F20"></path>
                <path d="M25.7083,31.3803 C25.6873,31.5143 25.6153,31.6143 25.4883,31.6843 L24.8763,32.0153 L24.3833,31.1053 L25.0133,30.7633 C25.1313,30.7003 25.2543,30.6963 25.3763,30.7543 C25.4973,30.8103 25.5893,30.8953 25.6493,31.0073 C25.7123,31.1223 25.7323,31.2483 25.7083,31.3803 M27.0173,32.4333 L26.0903,31.9663 L26.1253,31.9293 C26.2923,31.7503 26.3933,31.5443 26.4203,31.3193 C26.4483,31.0823 26.4063,30.8533 26.2953,30.6343 C26.1393,30.3603 25.9153,30.1713 25.6303,30.0713 C25.5293,30.0363 25.4233,30.0183 25.3153,30.0183 C25.1203,30.0183 24.9143,30.0763 24.7023,30.1923 L23.7313,30.7183 C23.6353,30.7713 23.5773,30.8433 23.5563,30.9373 C23.5363,31.0313 23.5513,31.1293 23.6003,31.2263 L24.9733,33.7573 C25.0173,33.8383 25.0893,33.8923 25.1873,33.9163 C25.2223,33.9243 25.2543,33.9293 25.2843,33.9293 L25.2893,33.9673 L25.2893,33.9673 L25.2893,33.9293 C25.3513,33.9293 25.4103,33.9143 25.4673,33.8843 C25.5563,33.8353 25.6183,33.7643 25.6493,33.6693 C25.6813,33.5743 25.6753,33.4843 25.6293,33.4013 L25.1753,32.5653 L25.4963,32.3913 L26.6533,33.0673 C26.6983,33.0923 26.7483,33.1053 26.8023,33.1053 C26.8363,33.1053 26.8733,33.1003 26.9113,33.0883 C27.0053,33.0603 27.0793,33.0053 27.1273,32.9233 C27.1803,32.8383 27.1973,32.7453 27.1743,32.6463 C27.1523,32.5493 27.0993,32.4763 27.0173,32.4333" id="Fill-28" fill="#231F20"></path>
                <path d="M28.7854,29.5053 L28.7834,29.4933 L28.5164,27.7493 C28.5004,27.6643 28.4494,27.5913 28.3674,27.5373 C28.2844,27.4813 28.2004,27.4603 28.1054,27.4733 C28.0134,27.4893 27.9334,27.5353 27.8714,27.6113 C27.8084,27.6903 27.7864,27.7703 27.8034,27.8573 L28.0904,29.3233 L26.6404,28.9823 C26.6214,28.9773 26.6004,28.9763 26.5804,28.9763 C26.5144,28.9763 26.4514,28.9983 26.3934,29.0423 C26.3144,29.1013 26.2654,29.1783 26.2474,29.2733 C26.2324,29.3623 26.2514,29.4513 26.3044,29.5353 C26.3564,29.6183 26.4264,29.6713 26.5134,29.6913 L28.2424,30.0163 L28.2504,30.0253 L29.1514,30.9563 C29.2104,31.0173 29.2884,31.0493 29.3824,31.0503 L29.4004,31.0503 C29.5034,31.0493 29.5904,31.0133 29.6604,30.9443 C29.7334,30.8743 29.7724,30.7873 29.7784,30.6883 C29.7834,30.5893 29.7524,30.5053 29.6854,30.4363 L28.7854,29.5053 Z" id="Fill-30" fill="#231F20"></path>
                <path d="M8.7991,12.9004 L8.7991,12.9374 L8.8081,12.9004 C8.8211,12.9004 8.8361,12.9004 8.8491,12.8984 C8.9511,12.8874 9.0351,12.8434 9.0991,12.7674 C9.1661,12.6904 9.1981,12.6004 9.1941,12.4994 C9.1891,12.4004 9.1501,12.3194 9.0781,12.2574 L7.6381,11.0284 L9.8871,11.4484 C10.0801,11.4824 10.2351,11.4384 10.3441,11.3104 L10.3881,11.2584 C10.4471,11.1894 10.4701,11.1054 10.4561,11.0094 C10.4431,10.9124 10.3971,10.8304 10.3191,10.7634 L8.0921,8.8624 C8.0191,8.7994 7.9341,8.7734 7.8341,8.7854 C7.7351,8.7974 7.6511,8.8424 7.5851,8.9204 C7.5211,8.9944 7.4891,9.0854 7.4941,9.1884 C7.4991,9.2894 7.5371,9.3704 7.6061,9.4304 L9.0261,10.6424 L6.8181,10.2224 C6.7751,10.2144 6.7331,10.2104 6.6941,10.2104 C6.5541,10.2104 6.4371,10.2644 6.3471,10.3694 L6.3031,10.4214 C6.2441,10.4904 6.2201,10.5764 6.2331,10.6764 C6.2451,10.7764 6.2931,10.8624 6.3731,10.9314 L8.5921,12.8264 C8.6511,12.8754 8.7201,12.9004 8.7991,12.9004" id="Fill-32" fill="#231F20"></path>
                <path d="M12.4798,6.1133 C12.5608,6.1533 12.6398,6.1603 12.7118,6.1343 L13.3728,5.8963 L14.2638,8.3563 C14.2948,8.4423 14.3588,8.5063 14.4538,8.5463 C14.5038,8.5683 14.5558,8.5793 14.6068,8.5793 L14.6068,8.6153 L14.6068,8.6153 L14.6118,8.5793 C14.6528,8.5773 14.6948,8.5703 14.7348,8.5553 C14.8298,8.5203 14.9028,8.4573 14.9468,8.3693 C14.9928,8.2813 14.9998,8.1913 14.9668,8.1023 L14.0738,5.6403 L14.7358,5.4013 C14.8078,5.3743 14.8638,5.3193 14.9008,5.2363 C14.9368,5.1533 14.9398,5.0713 14.9118,4.9923 C14.8808,4.9063 14.8268,4.8433 14.7498,4.8033 C14.6708,4.7633 14.5908,4.7593 14.5128,4.7873 L12.4898,5.5203 C12.4098,5.5493 12.3528,5.6053 12.3188,5.6833 C12.2848,5.7643 12.2828,5.8483 12.3148,5.9333 C12.3418,6.0133 12.3988,6.0733 12.4798,6.1133" id="Fill-34" fill="#231F20"></path>
                <path d="M16.6101,4.6948 C16.5941,4.6008 16.5441,4.5268 16.4611,4.4708 C16.3971,4.4308 16.3271,4.4088 16.2531,4.4088 C16.2301,4.4088 16.2071,4.4108 16.1831,4.4148 C16.0891,4.4308 16.0101,4.4798 15.9481,4.5608 C15.8851,4.6418 15.8611,4.7298 15.8731,4.8208 L16.3651,7.7338 C16.3811,7.8218 16.4321,7.8978 16.5171,7.9528 C16.5831,7.9968 16.6531,8.0188 16.7271,8.0188 L16.7271,8.0568 L16.7271,8.0568 L16.7341,8.0188 C16.7531,8.0178 16.7721,8.0168 16.7921,8.0138 C16.8931,7.9958 16.9741,7.9468 17.0351,7.8678 C17.0951,7.7898 17.1181,7.7018 17.1031,7.6088 L16.6101,4.6948 Z" id="Fill-36" fill="#231F20"></path>
                <path d="M18.9031,5.2143 C19.0961,5.0303 19.3301,4.9343 19.5951,4.9303 L19.6171,4.9303 C19.6401,4.9303 19.6651,4.9303 19.6891,4.9313 C19.9951,4.9503 20.2471,5.0763 20.4391,5.3083 C20.6301,5.5393 20.7181,5.8113 20.7001,6.1163 C20.6821,6.4213 20.5621,6.6793 20.3461,6.8813 C20.1451,7.0693 19.9051,7.1633 19.6321,7.1633 C19.6081,7.1633 19.5821,7.1623 19.5561,7.1623 C19.2521,7.1433 19.0001,7.0203 18.8091,6.7913 C18.6181,6.5643 18.5311,6.2943 18.5491,5.9883 C18.5681,5.6803 18.6871,5.4193 18.9031,5.2143 M19.5131,7.8873 C19.5581,7.8903 19.6031,7.8913 19.6471,7.8913 L19.6731,7.8913 C20.1111,7.8833 20.5041,7.7273 20.8391,7.4273 C21.2131,7.0913 21.4181,6.6653 21.4471,6.1603 C21.4761,5.6523 21.3251,5.2023 20.9961,4.8233 C20.6661,4.4433 20.2391,4.2363 19.7321,4.2073 C19.6921,4.2043 19.6511,4.2033 19.6111,4.2033 C19.1551,4.2033 18.7521,4.3603 18.4091,4.6703 C18.0371,5.0073 17.8341,5.4363 17.8031,5.9443 C17.7731,6.4483 17.9241,6.8963 18.2561,7.2733 C18.5851,7.6513 19.0081,7.8573 19.5131,7.8873" id="Fill-38" fill="#231F20"></path>
                <path d="M21.9983,8.2373 C22.0433,8.2543 22.0893,8.2623 22.1343,8.2623 C22.1833,8.2623 22.2323,8.2533 22.2813,8.2323 C22.3733,8.1943 22.4353,8.1293 22.4693,8.0403 L23.1223,6.2633 L23.5083,8.5183 C23.5423,8.7133 23.6393,8.8413 23.7963,8.8993 L23.8593,8.9223 C23.8943,8.9353 23.9303,8.9413 23.9663,8.9413 L23.9663,8.9793 L23.9663,8.9793 L23.9703,8.9413 C24.0193,8.9413 24.0683,8.9273 24.1183,8.9003 C24.2043,8.8543 24.2653,8.7813 24.3013,8.6853 L25.3113,5.9363 C25.3433,5.8473 25.3373,5.7583 25.2923,5.6703 C25.2473,5.5803 25.1753,5.5173 25.0813,5.4823 C24.9883,5.4473 24.8923,5.4503 24.7983,5.4903 C24.7053,5.5293 24.6413,5.5933 24.6093,5.6793 L23.9653,7.4313 L23.5923,5.2153 C23.5603,5.0173 23.4583,4.8853 23.2913,4.8253 L23.2273,4.8013 C23.1433,4.7693 23.0533,4.7763 22.9633,4.8243 C22.8733,4.8703 22.8103,4.9443 22.7743,5.0443 L21.7673,7.7823 C21.7353,7.8683 21.7433,7.9583 21.7893,8.0493 C21.8343,8.1403 21.9043,8.2043 21.9983,8.2373" id="Fill-40" fill="#231F20"></path>
                <path d="M30.5506,9.539 C30.4896,9.465 30.4086,9.42 30.3076,9.406 C30.2856,9.404 30.2656,9.402 30.2466,9.402 C30.1706,9.402 30.1036,9.425 30.0436,9.469 L27.7496,11.339 C27.6796,11.397 27.6366,11.466 27.6236,11.544 C27.6116,11.622 27.6336,11.697 27.6916,11.768 L28.6446,12.936 C28.6966,12.995 28.7686,13.03 28.8586,13.036 C28.8696,13.037 28.8826,13.034 28.8936,13.037 C28.9676,13.035 29.0336,13.013 29.0896,12.966 C29.1576,12.91 29.1986,12.838 29.2116,12.752 C29.2236,12.665 29.2036,12.588 29.1496,12.522 L28.4836,11.706 L28.5136,11.681 L30.5166,10.048 C30.5916,9.988 30.6316,9.907 30.6376,9.808 C30.6446,9.708 30.6146,9.617 30.5506,9.539" id="Fill-42" fill="#231F20"></path>
                <path d="M26.3357,8.7793 L27.5527,7.9003 L27.0627,9.3763 L26.2937,8.8103 L26.3357,8.7793 Z M24.8087,9.3653 C24.8667,9.4453 24.9457,9.4993 25.0427,9.5243 C25.1377,9.5473 25.2267,9.5343 25.3037,9.4863 L25.7637,9.1853 L25.7847,9.2003 L26.8627,9.9963 L26.7137,10.5233 C26.6897,10.6093 26.7047,10.6973 26.7577,10.7823 C26.8097,10.8673 26.8837,10.9263 26.9797,10.9563 C27.0127,10.9683 27.0477,10.9733 27.0827,10.9733 L27.0827,11.0113 L27.0867,10.9733 C27.1417,10.9723 27.1997,10.9553 27.2557,10.9263 C27.3477,10.8743 27.4087,10.8033 27.4367,10.7153 L28.2587,7.8293 C28.3247,7.5893 28.2557,7.3923 28.0537,7.2443 L28.0277,7.2253 C27.8277,7.0773 27.6187,7.0713 27.4087,7.2063 L24.9017,8.8563 C24.8257,8.9083 24.7767,8.9873 24.7547,9.0913 C24.7347,9.1943 24.7527,9.2863 24.8087,9.3653 L24.8087,9.3653 Z" id="Fill-44" fill="#231F20"></path>
                <path d="M11.1243,8.9345 L10.7053,7.4365 L11.9193,8.4075 L11.1243,8.9345 Z M10.8823,6.7515 C10.7793,6.6765 10.6733,6.6405 10.5673,6.6405 C10.4663,6.6405 10.3633,6.6745 10.2623,6.7405 L10.2353,6.7585 C10.0273,6.8965 9.9503,7.0905 10.0043,7.3335 L10.6873,10.2565 C10.7093,10.3455 10.7673,10.4185 10.8563,10.4745 C10.9173,10.5125 10.9813,10.5315 11.0443,10.5315 L11.0443,10.5695 L11.0503,10.5315 C11.0773,10.5295 11.1043,10.5265 11.1303,10.5195 C11.2283,10.4925 11.3053,10.4365 11.3613,10.3545 C11.4163,10.2725 11.4353,10.1865 11.4173,10.0965 L11.2923,9.5615 L11.3153,9.5475 L12.4303,8.8085 L12.8763,9.1315 C12.9293,9.1685 12.9923,9.1875 13.0593,9.1875 C13.0843,9.1875 13.1093,9.1845 13.1353,9.1805 C13.2303,9.1615 13.3133,9.1115 13.3763,9.0335 C13.4363,8.9565 13.4573,8.8665 13.4413,8.7615 C13.4253,8.6585 13.3813,8.5765 13.3053,8.5195 L10.8823,6.7515 Z" id="Fill-46" fill="#231F20"></path>
                <path d="M101.2673,1.9907 L24.7673,1.9907 C32.1783,4.5007 37.5283,11.5177 37.5283,19.7637 C37.5283,27.9497 32.2573,34.9227 24.9343,37.4817 L101.2673,37.4817 C111.0673,37.4817 119.0123,29.5357 119.0123,19.7367 C119.0123,9.9357 111.0673,1.9907 101.2673,1.9907" id="Fill-48" fill="#FADA19"></path>
                <path d="M52.0647,27.4428 L46.3267,27.4428 C45.7937,27.4428 45.3367,27.2538 44.9587,26.8758 C44.5807,26.4978 44.3917,26.0418 44.3917,25.5078 L44.3917,13.5418 C44.3917,13.0088 44.5807,12.5528 44.9587,12.1738 C45.3367,11.7968 45.7937,11.6078 46.3267,11.6078 C46.8597,11.6078 47.3157,11.7968 47.6947,12.1738 C48.0727,12.5528 48.2627,13.0088 48.2627,13.5418 L48.2627,23.9728 L52.0647,23.9728 C52.5537,23.9728 52.9627,24.1408 53.2877,24.4748 C53.6137,24.8068 53.7767,25.2268 53.7767,25.7308 C53.7767,26.2198 53.6137,26.6288 53.2877,26.9538 C52.9627,27.2808 52.5537,27.4428 52.0647,27.4428" id="Fill-50" fill="#231F20"></path>
                <path d="M58.6702,16.4116 C57.8112,17.2866 57.3802,18.3686 57.3802,19.6586 C57.3802,20.9486 57.8152,22.0356 58.6822,22.9166 C59.5492,23.7996 60.6062,24.2396 61.8522,24.2396 C63.0972,24.2396 64.1542,23.7996 65.0202,22.9166 C65.8882,22.0356 66.3232,20.9486 66.3232,19.6586 C66.3232,18.3686 65.8882,17.2826 65.0202,16.3996 C64.1542,15.5186 63.0972,15.0776 61.8522,15.0776 C60.6062,15.0776 59.5462,15.5216 58.6702,16.4116 M67.7232,13.9206 C69.3692,15.4476 70.1922,17.3606 70.1922,19.6586 C70.1922,21.9576 69.3732,23.8736 67.7342,25.4086 C66.0952,26.9416 64.1342,27.7096 61.8522,27.7096 C59.5682,27.7096 57.6062,26.9416 55.9692,25.4086 C54.3302,23.8736 53.5112,21.9576 53.5112,19.6586 C53.5112,17.3606 54.3302,15.4436 55.9692,13.9096 C57.6062,12.3736 59.5682,11.6076 61.8522,11.6076 C64.1342,11.6076 66.0912,12.3786 67.7232,13.9206" id="Fill-52" fill="#231F20"></path>
                <path d="M91.4763,12.3745 C91.1493,12.0405 90.7433,11.8745 90.2533,11.8745 L79.7553,11.8745 L76.7903,11.8745 L71.9703,11.8745 C71.4823,11.8745 71.0743,12.0405 70.7473,12.3745 C70.4213,12.7075 70.2583,13.1275 70.2583,13.6315 C70.2583,14.1205 70.4213,14.5285 70.7473,14.8535 C71.0743,15.1815 71.4823,15.3445 71.9703,15.3445 L73.9293,15.3445 L73.9293,25.7745 C73.9293,26.3085 74.1173,26.7645 74.4963,27.1435 C74.8723,27.5205 75.3293,27.7095 75.8633,27.7095 C76.3973,27.7095 76.8533,27.5205 77.2313,27.1435 C77.6093,26.7645 77.7973,26.3085 77.7973,25.7745 L77.7973,15.3445 L79.7553,15.3445 L84.4263,15.3445 L84.4263,25.7745 C84.4263,26.3085 84.6153,26.7645 84.9933,27.1435 C85.3713,27.5205 85.8273,27.7095 86.3603,27.7095 C86.8953,27.7095 87.3503,27.5205 87.7283,27.1435 C88.1073,26.7645 88.2953,26.3085 88.2953,25.7745 L88.2953,15.3445 L90.2533,15.3445 C90.7433,15.3445 91.1493,15.1815 91.4763,14.8535 C91.8013,14.5285 91.9653,14.1205 91.9653,13.6315 C91.9653,13.1275 91.8013,12.7075 91.4763,12.3745" id="Fill-54" fill="#231F20"></path>
                <path d="M96.7468,16.4116 C95.8878,17.2866 95.4568,18.3686 95.4568,19.6586 C95.4568,20.9486 95.8918,22.0356 96.7598,22.9166 C97.6268,23.7996 98.6828,24.2396 99.9288,24.2396 C101.1738,24.2396 102.2298,23.7996 103.0978,22.9166 C103.9648,22.0356 104.3988,20.9486 104.3988,19.6586 C104.3988,18.3686 103.9648,17.2826 103.0978,16.3996 C102.2298,15.5186 101.1738,15.0776 99.9288,15.0776 C98.6828,15.0776 97.6218,15.5216 96.7468,16.4116 M105.7998,13.9206 C107.4448,15.4476 108.2678,17.3606 108.2678,19.6586 C108.2678,21.9576 107.4498,23.8736 105.8098,25.4086 C104.1718,26.9416 102.2118,27.7096 99.9288,27.7096 C97.6438,27.7096 95.6828,26.9416 94.0448,25.4086 C92.4068,23.8736 91.5888,21.9576 91.5888,19.6586 C91.5888,17.3606 92.4068,15.4436 94.0448,13.9096 C95.6828,12.3736 97.6438,11.6076 99.9288,11.6076 C102.2118,11.6076 104.1688,12.3786 105.7998,13.9206" id="Fill-56" fill="#231F20"></path>
                <path d="M51.9885,25.4692 L46.5815,25.4692 L46.5815,13.6192 C46.5815,13.4762 46.4655,13.3602 46.3215,13.3602 C46.1785,13.3602 46.0615,13.4762 46.0615,13.6192 L46.0615,25.7292 C46.0615,25.8712 46.1785,25.9892 46.3215,25.9892 L51.9885,25.9892 C52.1315,25.9892 52.2485,25.8712 52.2485,25.7292 C52.2485,25.5852 52.1315,25.4692 51.9885,25.4692" id="Fill-58" fill="#FFFFFF"></path>
                <path d="M90.5925,13.3598 L71.8525,13.3598 C71.7085,13.3598 71.5925,13.4768 71.5925,13.6198 C71.5925,13.7628 71.7085,13.8788 71.8525,13.8788 L75.5295,13.8788 L75.5295,25.7288 C75.5295,25.8728 75.6475,25.9888 75.7885,25.9888 C75.9325,25.9888 76.0495,25.8728 76.0495,25.7288 L76.0495,13.8788 L86.0995,13.8788 L86.0995,25.7288 C86.0995,25.8728 86.2145,25.9888 86.3585,25.9888 C86.5015,25.9888 86.6175,25.8728 86.6175,25.7288 L86.6175,13.8788 L90.5925,13.8788 C90.7365,13.8788 90.8525,13.7628 90.8525,13.6198 C90.8525,13.4768 90.7365,13.3598 90.5925,13.3598" id="Fill-60" fill="#FFFFFF"></path>
                <path d="M61.8601,25.9448 C58.4681,25.9448 55.7081,23.1848 55.7081,19.7918 C55.7081,16.3988 58.4681,13.6388 61.8601,13.6388 C65.2541,13.6388 68.0131,16.3988 68.0131,19.7918 C68.0131,23.1848 65.2541,25.9448 61.8601,25.9448 M61.8601,13.1198 C58.1811,13.1198 55.1881,16.1128 55.1881,19.7918 C55.1881,23.4708 58.1811,26.4648 61.8601,26.4648 C65.5401,26.4648 68.5331,23.4708 68.5331,19.7918 C68.5331,16.1128 65.5401,13.1198 61.8601,13.1198" id="Fill-62" fill="#FFFFFF"></path>
                <path d="M99.9285,25.9448 C96.5355,25.9448 93.7755,23.1848 93.7755,19.7918 C93.7755,16.3988 96.5355,13.6388 99.9285,13.6388 C103.3215,13.6388 106.0815,16.3988 106.0815,19.7918 C106.0815,23.1848 103.3215,25.9448 99.9285,25.9448 M99.9285,13.1198 C96.2495,13.1198 93.2555,16.1128 93.2555,19.7918 C93.2555,23.4708 96.2495,26.4648 99.9285,26.4648 C103.6075,26.4648 106.6015,23.4708 106.6015,19.7918 C106.6015,16.1128 103.6075,13.1198 99.9285,13.1198" id="Fill-64" fill="#FFFFFF"></path>
            </g>
        </g>
    </g>
</svg>