<?xml version="1.0" encoding="UTF-8"?>
<svg width="120px" height="38px" viewBox="0 0 120 38" version="1.1" xmlns="http://www.w3.org/2000/svg" xmlns:xlink="http://www.w3.org/1999/xlink">
    <!-- Generator: Sketch 47.1 (45422) - http://www.bohemiancoding.com/sketch -->
    <title>LottoPlus1</title>
    <desc>Created with Sketch.</desc>
    <defs>
        <polygon id="path-1" points="0 37.9998 0 0.472 119.9996 0.472 119.9996 37.9998"></polygon>
    </defs>
    <g id="Lotto" stroke="none" stroke-width="1" fill="none" fill-rule="evenodd">
        <g id="1440-Lotto-1" transform="translate(-473.000000, -533.000000)">
            <g id="LottoPlus1" transform="translate(473.000000, 532.000000)">
                <g id="Group-3" transform="translate(0.000000, 0.528300)">
                    <mask id="mask-2" fill="white">
                        <use xlink:href="#path-1"></use>
                    </mask>
                    <g id="Clip-2"></g>
                    <path d="M101.2676,0.4758 C101.2676,0.4758 18.8176,0.4718 18.7636,0.4718 C8.4176,0.4718 -0.0004,8.8898 -0.0004,19.2348 C-0.0004,29.5828 8.4176,37.9998 18.7636,37.9998 C19.2476,37.9998 101.2676,37.9388 101.2676,37.9388 C111.5966,37.9388 119.9996,29.5378 119.9996,19.2078 C119.9996,8.8788 111.5966,0.4758 101.2676,0.4758" id="Fill-1" fill="#FFFFFF" mask="url(#mask-2)"></path>
                </g>
                <g id="Group-76" transform="translate(0.000000, 1.528300)">
                    <path d="M18.7212,0.3811 C28.5322,0.3811 36.4862,8.3341 36.4862,18.1451 C36.4862,27.9551 28.5322,35.9091 18.7212,35.9091 C8.9112,35.9091 0.9572,27.9551 0.9572,18.1451 C0.9572,8.3341 8.9112,0.3811 18.7212,0.3811" id="Fill-4" fill="#FFFFFF"></path>
                    <path d="M36.4854,18.1452 C36.4854,8.3342 28.5324,0.3812 18.7214,0.3812 C8.9104,0.3812 0.9574,8.3342 0.9574,18.1452 C0.9574,27.9562 8.9104,35.9092 18.7214,35.9092 C28.5324,35.9092 36.4854,27.9562 36.4854,18.1452" id="Fill-6" fill="#FADA19"></path>
                    <path d="M19.958,23.2693 C19.627,22.9393 19.188,22.7573 18.722,22.7573 C18.254,22.7573 17.815,22.9393 17.484,23.2693 L14.471,26.2823 C14.419,26.3353 14.36,26.3863 14.301,26.4373 C15.618,27.1403 17.123,27.5433 18.722,27.5433 C20.319,27.5433 21.825,27.1403 23.142,26.4373 C23.082,26.3863 23.024,26.3353 22.972,26.2823 L19.958,23.2693 Z" id="Fill-8" fill="#009DDA"></path>
                    <path d="M23.8452,16.9084 C23.1622,17.5904 23.1622,18.6994 23.8452,19.3824 L26.8592,22.3954 C26.9112,22.4474 26.9622,22.5054 27.0132,22.5654 C27.7172,21.2474 28.1202,19.7434 28.1202,18.1444 C28.1202,16.5464 27.7172,15.0424 27.0132,13.7234 C26.9622,13.7844 26.9112,13.8424 26.8592,13.8954 L23.8452,16.9084 Z" id="Fill-10" fill="#00A66A"></path>
                    <path d="M13.5977,19.3816 C14.2797,18.6996 14.2797,17.5906 13.5977,16.9076 L10.5837,13.8946 C10.5317,13.8426 10.4797,13.7856 10.4297,13.7246 C9.7257,15.0426 9.3217,16.5456 9.3217,18.1456 C9.3217,19.7436 9.7257,21.2476 10.4297,22.5666 C10.4797,22.5056 10.5317,22.4476 10.5837,22.3956 L13.5977,19.3816 Z" id="Fill-12" fill="#ED3342"></path>
                    <path d="M24.9155,25.8279 C24.5345,25.8279 24.1525,25.6819 23.8625,25.3919 L18.7215,20.2499 L13.5805,25.3919 C12.9985,25.9729 12.0565,25.9729 11.4735,25.3919 C10.8925,24.8099 10.8925,23.8679 11.4735,23.2859 L16.6165,18.1449 L11.4735,13.0039 C10.8925,12.4219 10.8925,11.4799 11.4735,10.8979 C12.0565,10.3169 12.9985,10.3169 13.5805,10.8979 L18.7215,16.0389 L23.8625,10.8979 C24.4435,10.3169 25.3865,10.3169 25.9665,10.8979 C26.5505,11.4799 26.5505,12.4219 25.9665,13.0039 L20.8265,18.1449 L25.9665,23.2859 C26.5505,23.8679 26.5505,24.8099 25.9665,25.3919 C25.6775,25.6819 25.2955,25.8279 24.9155,25.8279" id="Fill-14" fill="#231F20"></path>
                    <path d="M20.8755,11.0173 C20.8755,9.8483 19.9265,8.8993 18.7565,8.8993 C17.5865,8.8993 16.6385,9.8483 16.6385,11.0173 C16.6385,12.1873 17.5865,13.1363 18.7565,13.1363 C19.9265,13.1363 20.8755,12.1873 20.8755,11.0173" id="Fill-16" fill="#231F20"></path>
                    <path d="M7.686,28.196 L7.713,28.17 L9.605,26.414 C9.676,26.349 9.711,26.267 9.711,26.168 C9.711,26.067 9.676,25.979 9.605,25.904 C9.541,25.834 9.457,25.796 9.356,25.788 C9.256,25.78 9.167,25.809 9.097,25.867 L6.93,27.877 C6.863,27.94 6.826,28.011 6.817,28.09 C6.81,28.168 6.837,28.241 6.899,28.308 L7.923,29.412 C7.971,29.46 8.021,29.482 8.102,29.496 C8.225,29.511 8.318,29.461 8.369,29.414 C8.433,29.354 8.47,29.279 8.477,29.192 C8.484,29.105 8.458,29.03 8.4,28.968 L7.686,28.196 Z" id="Fill-18" fill="#231F20"></path>
                    <path d="M12.1758,28.1374 C11.8718,27.9384 11.5438,27.8354 11.2008,27.8354 C11.0708,27.8354 10.9348,27.8514 10.8008,27.8804 C10.3118,27.9884 9.9218,28.2574 9.6418,28.6824 C9.3648,29.1044 9.2738,29.5684 9.3708,30.0594 C9.4688,30.5504 9.7338,30.9394 10.1558,31.2174 C10.4528,31.4124 10.7728,31.5134 11.1048,31.5194 L11.1358,31.5194 C11.2658,31.5194 11.3988,31.5064 11.5328,31.4774 C12.0228,31.3734 12.4118,31.1054 12.6898,30.6834 C12.9678,30.2574 13.0618,29.7924 12.9638,29.3004 C12.8658,28.8074 12.6008,28.4164 12.1758,28.1374 M12.0648,30.2734 C11.8988,30.5284 11.6668,30.6924 11.3768,30.7604 C11.2938,30.7794 11.2118,30.7894 11.1298,30.7894 C10.9298,30.7894 10.7348,30.7284 10.5548,30.6104 C10.2988,30.4434 10.1438,30.2094 10.0918,29.9174 C10.0398,29.6254 10.0978,29.3474 10.2648,29.0924 C10.4338,28.8344 10.6678,28.6684 10.9568,28.5974 C11.0418,28.5784 11.1268,28.5664 11.2098,28.5664 L11.2268,28.5664 C11.4178,28.5704 11.6028,28.6304 11.7778,28.7444 C12.0338,28.9124 12.1878,29.1464 12.2388,29.4434 C12.2918,29.7394 12.2318,30.0194 12.0648,30.2734" id="Fill-20" fill="#231F20"></path>
                    <path d="M16.1846,29.9162 L14.1326,29.2782 C14.1016,29.2702 14.0726,29.2652 14.0446,29.2652 C13.9946,29.2652 13.9446,29.2792 13.8966,29.3072 C13.8216,29.3512 13.7696,29.4162 13.7436,29.5032 C13.7176,29.5822 13.7256,29.6642 13.7666,29.7462 C13.8076,29.8272 13.8646,29.8792 13.9386,29.9022 L14.6086,30.1102 L14.5966,30.1462 L13.8326,32.6072 C13.8066,32.6942 13.8176,32.7832 13.8686,32.8722 C13.9186,32.9602 13.9916,33.0202 14.0856,33.0502 C14.1226,33.0612 14.1606,33.0672 14.1996,33.0682 L14.2046,33.1042 L14.2046,33.0682 C14.2616,33.0682 14.3156,33.0552 14.3676,33.0292 C14.4576,32.9872 14.5176,32.9192 14.5466,32.8292 L15.3206,30.3322 L15.9916,30.5402 C16.0636,30.5622 16.1426,30.5512 16.2216,30.5082 C16.3016,30.4652 16.3536,30.4012 16.3786,30.3212 C16.4056,30.2342 16.3996,30.1502 16.3626,30.0722 C16.3246,29.9922 16.2666,29.9412 16.1846,29.9162" id="Fill-22" fill="#231F20"></path>
                    <path d="M19.3633,30.1667 L17.2073,30.0897 C17.1243,30.0897 17.0543,30.1197 16.9963,30.1777 C16.9353,30.2407 16.9033,30.3167 16.8983,30.4087 C16.8953,30.4917 16.9253,30.5677 16.9853,30.6367 C17.0463,30.7037 17.1143,30.7387 17.1913,30.7417 L17.8933,30.7677 L17.8913,30.8057 L17.8003,33.3807 C17.7953,33.4707 17.8313,33.5547 17.9033,33.6257 C17.9763,33.6987 18.0623,33.7367 18.1603,33.7397 L18.1773,33.7767 L18.1783,33.7767 L18.1783,33.7397 C18.2723,33.7397 18.3563,33.7087 18.4273,33.6477 C18.5033,33.5817 18.5433,33.5017 18.5473,33.4057 L18.6383,30.7937 L18.6783,30.7947 L19.3463,30.8187 L19.3473,30.8187 C19.4243,30.8187 19.4923,30.7877 19.5543,30.7277 C19.6193,30.6647 19.6533,30.5887 19.6563,30.5047 C19.6593,30.4157 19.6323,30.3347 19.5753,30.2697 C19.5193,30.2047 19.4463,30.1697 19.3633,30.1667" id="Fill-24" fill="#231F20"></path>
                    <path d="M23.187,32.5408 C23.115,32.4908 23.036,32.4758 22.956,32.4948 L21.725,32.7728 L21.549,31.9988 L22.575,31.7658 C22.654,31.7478 22.717,31.6998 22.762,31.6238 C22.807,31.5478 22.821,31.4678 22.802,31.3838 C22.783,31.2988 22.736,31.2308 22.664,31.1838 C22.592,31.1358 22.514,31.1218 22.434,31.1398 L21.407,31.3718 L21.22,30.5458 L22.404,30.2768 C22.483,30.2598 22.547,30.2108 22.591,30.1348 C22.635,30.0568 22.648,29.9758 22.631,29.8948 C22.611,29.8048 22.564,29.7358 22.493,29.6868 C22.44,29.6508 22.385,29.6338 22.328,29.6338 C22.306,29.6338 22.283,29.6358 22.261,29.6418 L20.635,30.0098 C20.546,30.0288 20.482,30.0738 20.446,30.1438 C20.409,30.2128 20.401,30.2928 20.417,30.3838 L21.071,33.2678 C21.094,33.3538 21.138,33.4228 21.2,33.4698 C21.242,33.5018 21.291,33.5168 21.345,33.5178 L21.349,33.5558 L21.349,33.5548 L21.349,33.5178 C21.375,33.5178 21.399,33.5158 21.427,33.5088 L23.099,33.1298 C23.177,33.1128 23.242,33.0638 23.285,32.9868 C23.33,32.9088 23.343,32.8278 23.325,32.7448 C23.306,32.6588 23.259,32.5908 23.187,32.5408" id="Fill-26" fill="#231F20"></path>
                    <path d="M26.9487,30.8274 L26.0207,30.3604 L26.0557,30.3224 C26.2237,30.1434 26.3247,29.9374 26.3517,29.7124 C26.3787,29.4754 26.3377,29.2454 26.2257,29.0264 C26.0707,28.7514 25.8457,28.5614 25.5607,28.4624 C25.4587,28.4274 25.3537,28.4104 25.2457,28.4104 C25.0507,28.4104 24.8437,28.4674 24.6317,28.5834 L23.6597,29.1104 C23.5637,29.1624 23.5047,29.2354 23.4847,29.3294 C23.4647,29.4244 23.4787,29.5214 23.5287,29.6184 L24.9027,32.1534 C24.9467,32.2334 25.0187,32.2874 25.1177,32.3114 C25.1517,32.3214 25.1837,32.3254 25.2147,32.3254 L25.2187,32.3624 L25.2197,32.3624 L25.2197,32.3254 C25.2817,32.3254 25.3407,32.3104 25.3967,32.2794 C25.4867,32.2304 25.5487,32.1604 25.5797,32.0644 C25.6117,31.9704 25.6047,31.8794 25.5597,31.7964 L25.1047,30.9594 L25.4257,30.7854 L26.5847,31.4624 C26.6297,31.4874 26.6787,31.4994 26.7337,31.4994 C26.7667,31.4994 26.8047,31.4944 26.8427,31.4834 C26.9377,31.4544 27.0107,31.4004 27.0587,31.3184 C27.1117,31.2324 27.1287,31.1394 27.1057,31.0404 C27.0837,30.9434 27.0307,30.8704 26.9487,30.8274 M25.6387,29.7734 C25.6167,29.9074 25.5457,30.0084 25.4187,30.0774 L24.8057,30.4084 L24.3127,29.4974 L24.9427,29.1554 C25.0607,29.0924 25.1837,29.0884 25.3057,29.1464 C25.4267,29.2014 25.5187,29.2874 25.5797,29.3994 C25.6417,29.5144 25.6627,29.6414 25.6387,29.7734" id="Fill-28" fill="#231F20"></path>
                    <path d="M28.7192,27.8957 L28.7172,27.8847 L28.4492,26.1377 C28.4342,26.0527 28.3832,25.9807 28.3002,25.9257 C28.2172,25.8697 28.1332,25.8477 28.0382,25.8617 C27.9472,25.8767 27.8662,25.9227 27.8032,26.0007 C27.7402,26.0787 27.7192,26.1587 27.7362,26.2457 L28.0232,27.7137 L26.5722,27.3717 C26.5522,27.3677 26.5322,27.3667 26.5122,27.3667 C26.4462,27.3667 26.3832,27.3887 26.3242,27.4327 C26.2462,27.4927 26.1972,27.5677 26.1782,27.6627 C26.1632,27.7537 26.1822,27.8417 26.2352,27.9257 C26.2882,28.0087 26.3582,28.0627 26.4442,28.0827 L28.1752,28.4067 L28.1842,28.4167 L29.0852,29.3477 C29.1442,29.4097 29.2222,29.4417 29.3172,29.4437 L29.3352,29.4437 C29.4372,29.4407 29.5252,29.4057 29.5952,29.3367 C29.6682,29.2667 29.7072,29.1807 29.7132,29.0807 C29.7182,28.9817 29.6862,28.8967 29.6202,28.8277 L28.7192,27.8957 Z" id="Fill-30" fill="#231F20"></path>
                    <path d="M8.7114,11.2732 L8.7114,11.3102 L8.7204,11.2732 C8.7334,11.2732 8.7474,11.2732 8.7614,11.2712 C8.8634,11.2592 8.9474,11.2152 9.0114,11.1402 C9.0784,11.0622 9.1114,10.9732 9.1064,10.8722 C9.1014,10.7732 9.0634,10.6912 8.9904,10.6292 L7.5494,9.3992 L9.8004,9.8202 C9.9944,9.8542 10.1484,9.8082 10.2574,9.6812 L10.3024,9.6292 C10.3614,9.5612 10.3844,9.4762 10.3704,9.3802 C10.3574,9.2832 10.3104,9.2002 10.2334,9.1342 L8.0034,7.2302 C7.9304,7.1672 7.8454,7.1412 7.7464,7.1542 C7.6464,7.1662 7.5624,7.2112 7.4964,7.2892 C7.4314,7.3632 7.4004,7.4532 7.4044,7.5562 C7.4104,7.6582 7.4464,7.7402 7.5174,7.7992 L8.9394,9.0122 L6.7284,8.5922 C6.6854,8.5852 6.6434,8.5802 6.6034,8.5802 C6.4634,8.5802 6.3474,8.6342 6.2564,8.7392 L6.2114,8.7922 C6.1534,8.8602 6.1294,8.9462 6.1434,9.0462 C6.1554,9.1482 6.2034,9.2332 6.2824,9.3012 L8.5054,11.1992 C8.5634,11.2492 8.6324,11.2732 8.7114,11.2732" id="Fill-32" fill="#231F20"></path>
                    <path d="M12.3965,4.4792 C12.4765,4.5192 12.5565,4.5252 12.6285,4.5002 L13.2895,4.2612 L14.1835,6.7242 C14.2135,6.8102 14.2765,6.8742 14.3725,6.9142 C14.4215,6.9362 14.4745,6.9472 14.5245,6.9472 L14.5245,6.9832 L14.5255,6.9832 L14.5305,6.9472 C14.5725,6.9452 14.6125,6.9382 14.6535,6.9242 C14.7485,6.8892 14.8215,6.8262 14.8655,6.7372 C14.9125,6.6492 14.9185,6.5592 14.8855,6.4692 L13.9925,4.0052 L14.6545,3.7652 C14.7265,3.7392 14.7835,3.6842 14.8195,3.6012 C14.8545,3.5182 14.8595,3.4362 14.8315,3.3562 C14.7995,3.2712 14.7455,3.2082 14.6675,3.1672 C14.5895,3.1272 14.5095,3.1232 14.4315,3.1512 L12.4055,3.8852 C12.3255,3.9142 12.2695,3.9702 12.2335,4.0482 C12.2015,4.1292 12.1995,4.2132 12.2305,4.2992 C12.2585,4.3782 12.3145,4.4392 12.3965,4.4792" id="Fill-34" fill="#231F20"></path>
                    <path d="M16.5308,3.0583 C16.5148,2.9653 16.4648,2.8903 16.3818,2.8353 C16.3178,2.7933 16.2478,2.7723 16.1738,2.7723 C16.1508,2.7723 16.1278,2.7743 16.1028,2.7783 C16.0098,2.7933 15.9298,2.8433 15.8688,2.9243 C15.8048,3.0063 15.7808,3.0933 15.7928,3.1853 L16.2848,6.1003 C16.3008,6.1903 16.3518,6.2643 16.4368,6.3213 C16.5028,6.3643 16.5748,6.3863 16.6478,6.3863 L16.6478,6.4243 L16.6548,6.3863 C16.6738,6.3863 16.6928,6.3853 16.7138,6.3813 C16.8138,6.3643 16.8948,6.3153 16.9558,6.2353 C17.0178,6.1573 17.0398,6.0693 17.0238,5.9753 L16.5308,3.0583 Z" id="Fill-36" fill="#231F20"></path>
                    <path d="M19.4375,6.2541 C19.4825,6.2571 19.5265,6.2581 19.5715,6.2581 L19.5965,6.2581 C20.0355,6.2501 20.4295,6.0941 20.7645,5.7941 C21.1385,5.4581 21.3435,5.0311 21.3735,4.5261 C21.4025,4.0171 21.2495,3.5661 20.9205,3.1871 C20.5905,2.8071 20.1645,2.6011 19.6555,2.5701 C19.6155,2.5681 19.5755,2.5661 19.5345,2.5661 C19.0795,2.5661 18.6745,2.7231 18.3325,3.0341 C17.9595,3.3721 17.7555,3.8001 17.7255,4.3091 C17.6945,4.8151 17.8465,5.2631 18.1775,5.6401 C18.5075,6.0181 18.9315,6.2241 19.4375,6.2541 M18.8265,3.5781 C19.0205,3.3941 19.2525,3.2991 19.5195,3.2951 L19.5415,3.2951 C19.5645,3.2951 19.5885,3.2951 19.6125,3.2961 C19.9185,3.3151 20.1715,3.4411 20.3635,3.6721 C20.5545,3.9041 20.6435,4.1761 20.6255,4.4821 C20.6075,4.7871 20.4875,5.0451 20.2705,5.2481 C20.0695,5.4361 19.8295,5.5301 19.5565,5.5301 C19.5315,5.5301 19.5055,5.5291 19.4805,5.5281 C19.1755,5.5101 18.9235,5.3851 18.7325,5.1581 C18.5415,4.9301 18.4535,4.6601 18.4735,4.3541 C18.4905,4.0451 18.6095,3.7841 18.8265,3.5781" id="Fill-38" fill="#231F20"></path>
                    <path d="M21.9248,6.6052 C21.9698,6.6222 22.0158,6.6312 22.0608,6.6312 C22.1088,6.6312 22.1598,6.6212 22.2088,6.6002 C22.2998,6.5622 22.3618,6.4982 22.3958,6.4082 L23.0498,4.6282 L23.4368,6.8872 C23.4698,7.0822 23.5678,7.2092 23.7238,7.2672 L23.7878,7.2902 C23.8228,7.3032 23.8598,7.3092 23.8948,7.3092 L23.8948,7.3472 L23.8948,7.3482 L23.8988,7.3092 C23.9478,7.3092 23.9968,7.2962 24.0468,7.2682 C24.1328,7.2232 24.1948,7.1502 24.2298,7.0542 L25.2418,4.3012 C25.2738,4.2132 25.2678,4.1232 25.2228,4.0342 C25.1768,3.9442 25.1058,3.8822 25.0108,3.8462 C24.9178,3.8132 24.8218,3.8142 24.7278,3.8552 C24.6338,3.8952 24.5708,3.9582 24.5378,4.0432 L23.8938,5.7982 L23.5208,3.5802 C23.4878,3.3812 23.3858,3.2502 23.2188,3.1882 L23.1548,3.1662 C23.0708,3.1332 22.9808,3.1402 22.8908,3.1882 C22.8018,3.2342 22.7368,3.3082 22.7008,3.4082 L21.6938,6.1502 C21.6618,6.2362 21.6698,6.3262 21.7158,6.4162 C21.7608,6.5082 21.8308,6.5712 21.9248,6.6052" id="Fill-40" fill="#231F20"></path>
                    <path d="M30.4863,7.9084 C30.4253,7.8334 30.3433,7.7894 30.2413,7.7754 C30.2203,7.7714 30.2013,7.7704 30.1813,7.7704 C30.1063,7.7704 30.0393,7.7934 29.9783,7.8384 L27.6823,9.7104 C27.6123,9.7684 27.5693,9.8384 27.5563,9.9144 C27.5443,9.9924 27.5673,10.0674 27.6243,10.1394 L28.5773,11.3094 C28.6303,11.3674 28.7023,11.4034 28.7923,11.4084 C28.8033,11.4094 28.8163,11.4074 28.8273,11.4094 C28.9013,11.4074 28.9673,11.3854 29.0233,11.3394 C29.0913,11.2834 29.1323,11.2114 29.1453,11.1234 C29.1573,11.0374 29.1363,10.9604 29.0833,10.8954 L28.4173,10.0764 L28.4473,10.0534 L30.4533,8.4174 C30.5273,8.3564 30.5673,8.2764 30.5733,8.1774 C30.5803,8.0774 30.5503,7.9864 30.4863,7.9084" id="Fill-42" fill="#231F20"></path>
                    <path d="M24.7378,7.7336 C24.7968,7.8136 24.8758,7.8686 24.9728,7.8936 C25.0678,7.9156 25.1568,7.9036 25.2338,7.8556 L25.6948,7.5536 L25.7158,7.5696 L26.7948,8.3656 L26.6458,8.8926 C26.6218,8.9806 26.6368,9.0676 26.6888,9.1526 C26.7408,9.2376 26.8158,9.2966 26.9108,9.3276 C26.9448,9.3386 26.9798,9.3446 27.0148,9.3446 L27.0148,9.3816 L27.0188,9.3446 C27.0738,9.3426 27.1318,9.3276 27.1878,9.2966 C27.2798,9.2446 27.3408,9.1736 27.3688,9.0856 L28.1918,6.1956 C28.2578,5.9566 28.1898,5.7586 27.9868,5.6096 L27.9608,5.5916 C27.7598,5.4446 27.5508,5.4376 27.3408,5.5726 L24.8318,7.2246 C24.7548,7.2766 24.7058,7.3556 24.6848,7.4596 C24.6638,7.5626 24.6828,7.6546 24.7378,7.7336 L24.7378,7.7336 Z M26.2668,7.1476 L27.4858,6.2666 L26.9938,7.7446 L26.2238,7.1786 L26.2668,7.1476 Z" id="Fill-44" fill="#231F20"></path>
                    <path d="M10.7964,5.1174 C10.6934,5.0434 10.5874,5.0064 10.4814,5.0064 C10.3794,5.0064 10.2774,5.0404 10.1764,5.1064 L10.1494,5.1244 C9.9404,5.2624 9.8634,5.4564 9.9184,5.7004 L10.6014,8.6264 C10.6244,8.7154 10.6814,8.7894 10.7714,8.8444 C10.8324,8.8824 10.8964,8.9014 10.9594,8.9014 L10.9594,8.9394 L10.9644,8.9014 C10.9914,8.9004 11.0194,8.8974 11.0464,8.8894 C11.1434,8.8624 11.2204,8.8064 11.2764,8.7244 C11.3314,8.6424 11.3504,8.5564 11.3324,8.4664 L11.2084,7.9304 L11.2304,7.9164 L12.3464,7.1764 L12.7934,7.5004 C12.8464,7.5364 12.9084,7.5564 12.9764,7.5564 C13.0014,7.5564 13.0254,7.5544 13.0524,7.5484 C13.1484,7.5304 13.2304,7.4794 13.2944,7.4014 C13.3534,7.3254 13.3754,7.2344 13.3594,7.1294 C13.3424,7.0264 13.2984,6.9444 13.2224,6.8884 L10.7964,5.1174 Z M11.0394,7.3024 L10.6194,5.8034 L11.8364,6.7754 L11.0394,7.3024 Z" id="Fill-46" fill="#231F20"></path>
                    <path d="M101.2783,0.3523 L24.6973,0.3523 C32.1153,2.8653 37.4713,9.8893 37.4713,18.1443 C37.4713,26.3383 32.1953,33.3193 24.8633,35.8803 L101.2783,35.8803 C111.0893,35.8803 119.0433,27.9263 119.0433,18.1163 C119.0433,8.3053 111.0893,0.3523 101.2783,0.3523" id="Fill-48" fill="#FADA19"></path>
                    <path d="M47.7939,17.0056 L43.7109,17.0056 C43.3299,17.0056 43.0059,16.8716 42.7359,16.6026 C42.4669,16.3336 42.3329,16.0076 42.3329,15.6296 L42.3329,7.1136 C42.3329,6.7336 42.4669,6.4086 42.7359,6.1406 C43.0059,5.8706 43.3299,5.7366 43.7109,5.7366 C44.0889,5.7366 44.4139,5.8706 44.6849,6.1406 C44.9529,6.4086 45.0869,6.7336 45.0869,7.1136 L45.0869,14.5366 L47.7939,14.5366 C48.1429,14.5366 48.4319,14.6546 48.6639,14.8936 C48.8959,15.1306 49.0129,15.4276 49.0129,15.7876 C49.0129,16.1356 48.8959,16.4256 48.6639,16.6576 C48.4319,16.8906 48.1429,17.0056 47.7939,17.0056" id="Fill-50" fill="#231F20"></path>
                    <path d="M58.9375,7.3826 C60.1085,8.4696 60.6945,9.8306 60.6945,11.4666 C60.6945,13.1026 60.1105,14.4656 58.9455,15.5576 C57.7785,16.6506 56.3835,17.1956 54.7585,17.1956 C53.1325,17.1956 51.7365,16.6506 50.5715,15.5576 C49.4055,14.4656 48.8235,13.1026 48.8235,11.4666 C48.8235,9.8306 49.4055,8.4666 50.5715,7.3736 C51.7365,6.2816 53.1325,5.7356 54.7585,5.7356 C56.3835,5.7356 57.7755,6.2856 58.9375,7.3826 M52.4955,9.1546 C51.8835,9.7776 51.5765,10.5486 51.5765,11.4666 C51.5765,12.3846 51.8855,13.1576 52.5035,13.7856 C53.1195,14.4136 53.8735,14.7256 54.7585,14.7256 C55.6445,14.7256 56.3955,14.4136 57.0145,13.7856 C57.6305,13.1576 57.9395,12.3846 57.9395,11.4666 C57.9395,10.5486 57.6305,9.7766 57.0145,9.1476 C56.3955,8.5206 55.6445,8.2056 54.7585,8.2056 C53.8735,8.2056 53.1185,8.5216 52.4955,9.1546" id="Fill-52" fill="#231F20"></path>
                    <path d="M75.8408,6.2825 C75.6098,6.0455 75.3198,5.9265 74.9718,5.9265 L67.4988,5.9265 L65.3888,5.9265 L61.9598,5.9265 C61.6128,5.9265 61.3208,6.0455 61.0898,6.2825 C60.8578,6.5205 60.7418,6.8185 60.7418,7.1785 C60.7418,7.5245 60.8578,7.8145 61.0898,8.0475 C61.3208,8.2805 61.6128,8.3955 61.9598,8.3955 L63.3528,8.3955 L63.3528,15.8195 C63.3528,16.1995 63.4868,16.5235 63.7568,16.7925 C64.0248,17.0615 64.3508,17.1955 64.7298,17.1955 C65.1098,17.1955 65.4338,17.0615 65.7038,16.7925 C65.9718,16.5235 66.1078,16.1995 66.1078,15.8195 L66.1078,8.3955 L67.4988,8.3955 L70.8238,8.3955 L70.8238,15.8195 C70.8238,16.1995 70.9578,16.5235 71.2268,16.7925 C71.4968,17.0615 71.8208,17.1955 72.1998,17.1955 C72.5798,17.1955 72.9048,17.0615 73.1748,16.7925 C73.4438,16.5235 73.5758,16.1995 73.5758,15.8195 L73.5758,8.3955 L74.9718,8.3955 C75.3198,8.3955 75.6098,8.2805 75.8408,8.0475 C76.0728,7.8145 76.1898,7.5245 76.1898,7.1785 C76.1898,6.8185 76.0728,6.5205 75.8408,6.2825" id="Fill-54" fill="#231F20"></path>
                    <path d="M86.0342,7.3826 C87.2072,8.4696 87.7922,9.8306 87.7922,11.4666 C87.7922,13.1026 87.2092,14.4656 86.0432,15.5576 C84.8762,16.6506 83.4812,17.1956 81.8562,17.1956 C80.2312,17.1956 78.8342,16.6506 77.6692,15.5576 C76.5032,14.4656 75.9212,13.1026 75.9212,11.4666 C75.9212,9.8306 76.5032,8.4666 77.6692,7.3736 C78.8342,6.2816 80.2312,5.7356 81.8562,5.7356 C83.4812,5.7356 84.8742,6.2856 86.0342,7.3826 M79.5922,9.1546 C78.9802,9.7776 78.6762,10.5486 78.6762,11.4666 C78.6762,12.3846 78.9822,13.1576 79.6012,13.7856 C80.2182,14.4136 80.9692,14.7256 81.8562,14.7256 C82.7422,14.7256 83.4942,14.4136 84.1122,13.7856 C84.7282,13.1576 85.0362,12.3846 85.0362,11.4666 C85.0362,10.5486 84.7282,9.7766 84.1122,9.1476 C83.4942,8.5206 82.7422,8.2056 81.8562,8.2056 C80.9692,8.2056 80.2162,8.5216 79.5922,9.1546" id="Fill-56" fill="#231F20"></path>
                    <path d="M47.7388,15.6506 L43.8418,15.6506 L43.8418,7.1686 C43.8418,7.0936 43.7818,7.0336 43.7068,7.0336 C43.6318,7.0336 43.5708,7.0936 43.5708,7.1686 L43.5708,15.7856 C43.5708,15.8606 43.6318,15.9216 43.7068,15.9216 L47.7388,15.9216 C47.8138,15.9216 47.8738,15.8606 47.8738,15.7856 C47.8738,15.7116 47.8138,15.6506 47.7388,15.6506" id="Fill-58" fill="#FFFFFF"></path>
                    <path d="M75.2129,7.0334 L67.6919,7.0334 L67.2289,7.0334 L61.8769,7.0334 C61.8009,7.0334 61.7399,7.0944 61.7399,7.1694 C61.7399,7.2434 61.8009,7.3044 61.8769,7.3044 L64.5419,7.3044 L64.5419,15.7864 C64.5419,15.8614 64.6039,15.9214 64.6779,15.9214 C64.7529,15.9214 64.8139,15.8614 64.8139,15.7864 L64.8139,7.3044 L67.2289,7.3044 L67.6919,7.3044 L72.0629,7.3044 L72.0629,15.7864 C72.0629,15.8614 72.1239,15.9214 72.1969,15.9214 C72.2739,15.9214 72.3339,15.8614 72.3339,15.7864 L72.3339,7.3044 L75.2129,7.3044 C75.2879,7.3044 75.3479,7.2434 75.3479,7.1694 C75.3479,7.0944 75.2879,7.0334 75.2129,7.0334" id="Fill-60" fill="#FFFFFF"></path>
                    <path d="M54.7642,6.863 C52.1742,6.863 50.0662,8.971 50.0662,11.561 C50.0662,14.153 52.1742,16.26 54.7642,16.26 C57.3552,16.26 59.4642,14.153 59.4642,11.561 C59.4642,8.971 57.3552,6.863 54.7642,6.863 M54.7642,15.99 C52.3242,15.99 50.3372,14.002 50.3372,11.561 C50.3372,9.12 52.3242,7.134 54.7642,7.134 C57.2062,7.134 59.1942,9.12 59.1942,11.561 C59.1942,14.002 57.2062,15.99 54.7642,15.99" id="Fill-62" fill="#FFFFFF"></path>
                    <path d="M81.8564,6.863 C79.2644,6.863 77.1574,8.971 77.1574,11.561 C77.1574,14.153 79.2644,16.26 81.8564,16.26 C84.4464,16.26 86.5544,14.153 86.5544,11.561 C86.5544,8.971 84.4464,6.863 81.8564,6.863 M81.8564,15.99 C79.4154,15.99 77.4274,14.002 77.4274,11.561 C77.4274,9.12 79.4154,7.134 81.8564,7.134 C84.2964,7.134 86.2844,9.12 86.2844,11.561 C86.2844,14.002 84.2964,15.99 81.8564,15.99" id="Fill-64" fill="#FFFFFF"></path>
                    <path d="M42.333,20.3039 C42.333,19.6049 42.886,19.0519 43.585,19.0519 L46.985,19.0519 C49.702,19.0519 51.345,20.6619 51.345,22.9899 L51.345,23.0209 C51.345,25.6569 49.296,27.0239 46.742,27.0239 L44.838,27.0239 L44.838,29.2849 C44.838,29.9849 44.285,30.5379 43.585,30.5379 C42.886,30.5379 42.333,29.9849 42.333,29.2849 L42.333,20.3039 Z M46.823,24.7949 C48.076,24.7949 48.809,24.0449 48.809,23.0689 L48.809,23.0369 C48.809,21.9149 48.027,21.3129 46.774,21.3129 L44.838,21.3129 L44.838,24.7949 L46.823,24.7949 Z" id="Fill-66" fill="#231F20"></path>
                    <path d="M53.6084,20.2058 C53.6084,19.5068 54.1604,18.9538 54.8594,18.9538 C55.5594,18.9538 56.1124,19.5068 56.1124,20.2058 L56.1124,28.1618 L60.7504,28.1628 C61.3844,28.1628 61.8884,28.6668 61.8884,29.3008 C61.8884,29.9358 61.3844,30.4408 60.7504,30.4408 L54.8594,30.4408 C54.1604,30.4408 53.6084,29.8868 53.6084,29.1868 L53.6084,20.2058 Z" id="Fill-68" fill="#231F20"></path>
                    <path d="M63.582,25.5593 L63.582,20.2063 C63.582,19.5063 64.134,18.9533 64.834,18.9533 C65.533,18.9533 66.087,19.5063 66.087,20.2063 L66.087,25.4943 C66.087,27.3483 67.015,28.3093 68.543,28.3093 C70.072,28.3093 71.001,27.3813 71.001,25.5753 L71.001,20.2063 C71.001,19.5063 71.553,18.9533 72.253,18.9533 C72.953,18.9533 73.506,19.5063 73.506,20.2063 L73.506,25.4783 C73.506,28.9273 71.568,30.6193 68.511,30.6193 C65.453,30.6193 63.582,28.9103 63.582,25.5593" id="Fill-70" fill="#231F20"></path>
                    <path d="M77.2158,29.2356 C76.9388,29.0406 76.7438,28.6836 76.7438,28.2926 C76.7438,27.6426 77.2648,27.1366 77.9148,27.1366 C78.2408,27.1366 78.4678,27.2516 78.6318,27.3646 C79.4928,27.9996 80.4378,28.3896 81.5438,28.3896 C82.5688,28.3896 83.1858,27.9836 83.1858,27.3166 L83.1858,27.2836 C83.1858,26.6496 82.7958,26.3236 80.8928,25.8356 C78.5988,25.2506 77.1178,24.6146 77.1178,22.3546 L77.1178,22.3206 C77.1178,20.2546 78.7778,18.8886 81.1058,18.8886 C82.4868,18.8886 83.6918,19.2466 84.7158,19.8966 C84.9918,20.0606 85.2688,20.4016 85.2688,20.8896 C85.2688,21.5416 84.7478,22.0456 84.0988,22.0456 C83.8548,22.0456 83.6588,21.9796 83.4648,21.8656 C82.6338,21.3786 81.8528,21.1006 81.0708,21.1006 C80.1118,21.1006 79.6088,21.5416 79.6088,22.0936 L79.6088,22.1256 C79.6088,22.8756 80.0958,23.1176 82.0648,23.6236 C84.3748,24.2246 85.6768,25.0546 85.6768,27.0386 L85.6768,27.0726 C85.6768,29.3336 83.9508,30.6036 81.4948,30.6036 C79.9978,30.6036 78.4848,30.1466 77.2158,29.2356" id="Fill-72" fill="#231F20"></path>
                    <path d="M106.0068,26.6477 C105.9928,28.4807 105.0368,29.8197 103.2828,29.8077 C101.8458,29.7967 100.6808,28.5287 100.6758,26.8497 C100.6638,22.5847 100.6718,18.3207 100.6718,14.0557 L100.6718,12.9297 C99.8668,13.5457 99.2538,14.0397 98.6158,14.5007 C95.2258,16.9517 92.8618,13.0957 94.7408,11.6727 C95.0728,11.4217 98.9798,8.5687 101.2568,6.9597 C101.7088,6.6397 102.9038,6.2867 103.9718,6.5427 C105.9478,7.0167 106.0278,8.8307 106.0278,10.7467 L106.0068,26.6477 Z" id="Fill-74" fill="#000000"></path>
                </g>
            </g>
        </g>
    </g>
</svg>