<?xml version="1.0" encoding="UTF-8"?>
<svg width="120px" height="38px" viewBox="0 0 120 38" version="1.1" xmlns="http://www.w3.org/2000/svg" xmlns:xlink="http://www.w3.org/1999/xlink">
    <!-- Generator: Sketch 47.1 (45422) - http://www.bohemiancoding.com/sketch -->
    <title>LottoPlus2</title>
    <desc>Created with Sketch.</desc>
    <defs>
        <polygon id="path-1" points="0 37.9997 0 0.472 119.9995 0.472 119.9995 37.9997"></polygon>
    </defs>
    <g id="Lotto" stroke="none" stroke-width="1" fill="none" fill-rule="evenodd">
        <g id="1440-Lotto-1" transform="translate(-473.000000, -609.000000)">
            <g id="LottoPlus2" transform="translate(473.000000, 608.000000)">
                <path d="M99.8524,1.2001 C99.8524,1.2001 18.9244,1.1961 18.8714,1.1961 C8.7164,1.1961 0.4544,9.4581 0.4544,19.6131 C0.4544,29.7691 8.7164,38.0321 18.8714,38.0321 C19.3464,38.0321 99.8524,37.9711 99.8524,37.9711 C109.9914,37.9711 118.2394,29.7251 118.2394,19.5871 C118.2394,9.4481 109.9914,1.2001 99.8524,1.2001" id="Fill-1" fill="#FFFFFF"></path>
                <g id="Group-5" transform="translate(0.000000, 0.528100)">
                    <mask id="mask-2" fill="white">
                        <use xlink:href="#path-1"></use>
                    </mask>
                    <g id="Clip-4"></g>
                    <path d="M101.2675,0.4757 C101.2675,0.4757 18.8175,0.4717 18.7645,0.4717 C8.4185,0.4717 -0.0005,8.8897 -0.0005,19.2357 C-0.0005,29.5827 8.4185,37.9997 18.7645,37.9997 C19.2475,37.9997 101.2675,37.9387 101.2675,37.9387 C111.5955,37.9387 119.9995,29.5377 119.9995,19.2077 C119.9995,8.8797 111.5955,0.4757 101.2675,0.4757" id="Fill-3" fill="#FFFFFF" mask="url(#mask-2)"></path>
                </g>
                <path d="M18.8896,2.0893 C28.6666,2.0893 36.5936,10.0153 36.5936,19.7933 C36.5936,29.5693 28.6666,37.4963 18.8896,37.4963 C9.1126,37.4963 1.1856,29.5693 1.1856,19.7933 C1.1856,10.0153 9.1126,2.0893 18.8896,2.0893" id="Fill-6" fill="#FFFFFF"></path>
                <path d="M36.5937,19.7929 C36.5937,10.0149 28.6677,2.0889 18.8897,2.0889 C9.1127,2.0889 1.1857,10.0149 1.1857,19.7929 C1.1857,29.5699 9.1127,37.4969 18.8897,37.4969 C28.6677,37.4969 36.5937,29.5699 36.5937,19.7929" id="Fill-8" fill="#FADA19"></path>
                <path d="M20.122,24.8993 C19.792,24.5703 19.355,24.3893 18.89,24.3893 C18.425,24.3893 17.986,24.5703 17.657,24.8993 L14.653,27.9023 C14.602,27.9553 14.544,28.0063 14.484,28.0563 C15.797,28.7573 17.296,29.1593 18.89,29.1593 C20.482,29.1593 21.982,28.7573 23.296,28.0563 C23.235,28.0063 23.178,27.9553 23.126,27.9023 L20.122,24.8993 Z" id="Fill-10" fill="#009DDA"></path>
                <path d="M23.996,18.56 C23.316,19.24 23.316,20.345 23.996,21.026 L26.999,24.028 C27.052,24.081 27.102,24.139 27.153,24.198 C27.855,22.885 28.257,21.386 28.257,19.792 C28.257,18.2 27.855,16.7 27.153,15.386 C27.102,15.448 27.052,15.504 26.999,15.557 L23.996,18.56 Z" id="Fill-12" fill="#00A66A"></path>
                <path d="M13.7831,21.0253 C14.4631,20.3443 14.4631,19.2403 13.7831,18.5593 L10.7791,15.5573 C10.7271,15.5053 10.6761,15.4473 10.6251,15.3863 C9.9241,16.7003 9.5211,18.1983 9.5211,19.7933 C9.5211,21.3853 9.9241,22.8843 10.6251,24.1993 C10.6761,24.1373 10.7271,24.0813 10.7791,24.0283 L13.7831,21.0253 Z" id="Fill-14" fill="#ED3342"></path>
                <path d="M25.0629,27.4496 C24.6829,27.4496 24.3029,27.3036 24.0129,27.0146 L18.8899,21.8906 L13.7659,27.0146 C13.1869,27.5946 12.2469,27.5946 11.6669,27.0146 C11.0879,26.4356 11.0879,25.4956 11.6669,24.9166 L16.7919,19.7926 L11.6669,14.6686 C11.0879,14.0896 11.0879,13.1496 11.6669,12.5706 C12.2469,11.9906 13.1869,11.9906 13.7659,12.5706 L18.8899,17.6946 L24.0129,12.5706 C24.5929,11.9906 25.5319,11.9906 26.1109,12.5706 C26.6919,13.1496 26.6919,14.0896 26.1109,14.6686 L20.9879,19.7926 L26.1109,24.9166 C26.6919,25.4956 26.6919,26.4356 26.1109,27.0146 C25.8219,27.3036 25.4419,27.4496 25.0629,27.4496" id="Fill-16" fill="#231F20"></path>
                <path d="M21.0365,12.6894 C21.0365,11.5234 20.0915,10.5784 18.9255,10.5784 C17.7595,10.5784 16.8135,11.5234 16.8135,12.6894 C16.8135,13.8554 17.7595,14.8014 18.9255,14.8014 C20.0915,14.8014 21.0365,13.8554 21.0365,12.6894" id="Fill-18" fill="#231F20"></path>
                <path d="M7.8915,29.809 L7.9185,29.784 L9.8055,28.034 C9.8745,27.969 9.9105,27.887 9.9105,27.788 C9.9105,27.688 9.8745,27.6 9.8055,27.525 C9.7405,27.455 9.6575,27.417 9.5565,27.41 C9.4565,27.402 9.3675,27.43 9.2985,27.489 L7.1385,29.492 C7.0715,29.554 7.0345,29.626 7.0265,29.703 C7.0175,29.782 7.0465,29.854 7.1075,29.921 L8.1285,31.022 C8.1755,31.069 8.2255,31.091 8.3055,31.105 C8.4295,31.12 8.5215,31.07 8.5725,31.023 C8.6365,30.963 8.6725,30.89 8.6795,30.802 C8.6865,30.715 8.6615,30.641 8.6035,30.578 L7.8915,29.809 Z" id="Fill-20" fill="#231F20"></path>
                <path d="M12.3661,29.7509 C12.0641,29.5529 11.7361,29.4509 11.3951,29.4509 C11.2641,29.4509 11.1301,29.4659 10.9951,29.4949 C10.5081,29.6019 10.1191,29.8709 9.8411,30.2949 C9.5651,30.7149 9.4741,31.1769 9.5711,31.6659 C9.6691,32.1559 9.9321,32.5439 10.3541,32.8199 C10.6501,33.0149 10.9681,33.1159 11.2991,33.1219 L11.3291,33.1219 C11.4591,33.1219 11.5921,33.1089 11.7251,33.0799 C12.2131,32.9759 12.6021,32.7089 12.8781,32.2889 C13.1561,31.8639 13.2481,31.4009 13.1521,30.9099 C13.0541,30.4189 12.7901,30.0289 12.3661,29.7509 M12.2561,31.8799 C12.0901,32.1339 11.8591,32.2969 11.5701,32.3649 C11.4871,32.3839 11.4051,32.3939 11.3231,32.3939 C11.1241,32.3939 10.9301,32.3339 10.7501,32.2149 C10.4961,32.0489 10.3411,31.8159 10.2891,31.5249 C10.2381,31.2329 10.2951,30.9579 10.4621,30.7029 C10.6311,30.4459 10.8631,30.2799 11.1511,30.2089 C11.2361,30.1899 11.3211,30.1789 11.4041,30.1789 L11.4211,30.1789 C11.6111,30.1819 11.7951,30.2419 11.9701,30.3559 C12.2241,30.5239 12.3781,30.7579 12.4301,31.0529 C12.4821,31.3479 12.4221,31.6259 12.2561,31.8799" id="Fill-22" fill="#231F20"></path>
                <path d="M16.3612,31.5238 L14.3162,30.8888 C14.2862,30.8798 14.2562,30.8748 14.2282,30.8748 C14.1782,30.8748 14.1292,30.8888 14.0822,30.9168 C14.0072,30.9598 13.9552,31.0258 13.9282,31.1118 C13.9032,31.1908 13.9102,31.2728 13.9512,31.3538 C13.9922,31.4348 14.0492,31.4868 14.1232,31.5098 L14.7902,31.7168 L14.7782,31.7528 L14.0172,34.2058 C13.9912,34.2928 14.0022,34.3808 14.0532,34.4698 C14.1032,34.5578 14.1752,34.6168 14.2702,34.6468 C14.3062,34.6578 14.3442,34.6648 14.3822,34.6658 L14.3872,34.7008 L14.3872,34.6658 C14.4442,34.6658 14.4982,34.6518 14.5502,34.6268 C14.6402,34.5848 14.6992,34.5168 14.7292,34.4268 L15.5012,31.9378 L16.1692,32.1458 C16.2412,32.1678 16.3202,32.1558 16.3982,32.1138 C16.4782,32.0708 16.5292,32.0078 16.5542,31.9268 C16.5822,31.8408 16.5752,31.7578 16.5382,31.6798 C16.5002,31.5998 16.4432,31.5488 16.3612,31.5238" id="Fill-24" fill="#231F20"></path>
                <path d="M19.5292,31.7733 L17.3812,31.6963 C17.2982,31.6963 17.2282,31.7263 17.1702,31.7843 C17.1092,31.8463 17.0772,31.9233 17.0732,32.0143 C17.0702,32.0973 17.0992,32.1733 17.1592,32.2413 C17.2192,32.3083 17.2892,32.3433 17.3652,32.3463 L18.0642,32.3723 L18.0622,32.4103 L17.9712,34.9763 C17.9672,35.0663 18.0022,35.1493 18.0732,35.2213 C18.1462,35.2933 18.2322,35.3313 18.3302,35.3343 L18.3472,35.3703 L18.3482,35.3703 L18.3482,35.3343 C18.4412,35.3343 18.5252,35.3033 18.5972,35.2423 C18.6722,35.1763 18.7122,35.0963 18.7152,35.0013 L18.8072,32.3983 L18.8462,32.3993 L19.5122,32.4223 L19.5132,32.4223 C19.5902,32.4223 19.6572,32.3923 19.7192,32.3323 C19.7842,32.2693 19.8192,32.1943 19.8212,32.1103 C19.8232,32.0203 19.7982,31.9413 19.7402,31.8763 C19.6842,31.8113 19.6122,31.7763 19.5292,31.7733" id="Fill-26" fill="#231F20"></path>
                <path d="M23.3402,34.1391 C23.2682,34.0891 23.1892,34.0751 23.1092,34.0931 L21.8822,34.3701 L21.7082,33.5991 L22.7302,33.3671 C22.8092,33.3491 22.8722,33.3021 22.9162,33.2251 C22.9622,33.1491 22.9752,33.0701 22.9572,32.9871 C22.9372,32.9021 22.8902,32.8341 22.8192,32.7871 C22.7472,32.7391 22.6692,32.7241 22.5892,32.7441 L21.5662,32.9741 L21.3802,32.1511 L22.5602,31.8831 C22.6382,31.8661 22.7022,31.8181 22.7462,31.7411 C22.7902,31.6641 22.8032,31.5831 22.7862,31.5031 C22.7662,31.4131 22.7192,31.3441 22.6482,31.2961 C22.5952,31.2601 22.5412,31.2431 22.4842,31.2431 C22.4622,31.2431 22.4392,31.2441 22.4172,31.2501 L20.7962,31.6171 C20.7082,31.6361 20.6452,31.6811 20.6092,31.7501 C20.5722,31.8191 20.5632,31.8991 20.5802,31.9901 L21.2312,34.8631 C21.2542,34.9501 21.2982,35.0181 21.3602,35.0661 C21.4022,35.0971 21.4502,35.1121 21.5042,35.1131 L21.5082,35.1511 L21.5082,35.1501 L21.5082,35.1131 C21.5332,35.1131 21.5592,35.1111 21.5862,35.1031 L23.2532,34.7261 C23.3302,34.7091 23.3942,34.6611 23.4372,34.5831 C23.4822,34.5061 23.4962,34.4251 23.4782,34.3431 C23.4582,34.2571 23.4122,34.1891 23.3402,34.1391" id="Fill-28" fill="#231F20"></path>
                <path d="M27.0893,32.4315 L26.1643,31.9655 L26.1993,31.9275 C26.3663,31.7505 26.4673,31.5445 26.4933,31.3205 C26.5223,31.0835 26.4793,30.8545 26.3693,30.6365 C26.2143,30.3635 25.9903,30.1745 25.7053,30.0745 C25.6053,30.0395 25.4993,30.0225 25.3923,30.0225 C25.1973,30.0225 24.9903,30.0795 24.7793,30.1955 L23.8113,30.7205 C23.7153,30.7725 23.6573,30.8455 23.6373,30.9385 C23.6163,31.0325 23.6313,31.1305 23.6803,31.2275 L25.0493,33.7525 C25.0933,33.8335 25.1663,33.8875 25.2643,33.9105 C25.2983,33.9205 25.3303,33.9245 25.3603,33.9245 L25.3653,33.9615 L25.3653,33.9615 L25.3653,33.9245 C25.4263,33.9245 25.4863,33.9095 25.5423,33.8785 C25.6313,33.8305 25.6933,33.7595 25.7253,33.6645 C25.7573,33.5705 25.7503,33.4795 25.7043,33.3975 L25.2513,32.5635 L25.5713,32.3895 L26.7273,33.0645 C26.7713,33.0895 26.8203,33.1015 26.8743,33.1015 C26.9083,33.1015 26.9453,33.0965 26.9833,33.0845 C27.0783,33.0575 27.1513,33.0025 27.1983,32.9215 C27.2513,32.8355 27.2683,32.7425 27.2463,32.6435 C27.2233,32.5475 27.1713,32.4745 27.0893,32.4315 M25.7843,31.3815 C25.7623,31.5145 25.6903,31.6155 25.5643,31.6835 L24.9533,32.0145 L24.4623,31.1065 L25.0893,30.7655 C25.2073,30.7025 25.3303,30.6985 25.4523,30.7565 C25.5723,30.8115 25.6643,30.8975 25.7253,31.0085 C25.7863,31.1235 25.8073,31.2495 25.7843,31.3815" id="Fill-30" fill="#231F20"></path>
                <path d="M28.8534,29.5102 L28.8514,29.4982 L28.5844,27.7572 C28.5684,27.6732 28.5184,27.6012 28.4364,27.5462 C28.3534,27.4912 28.2694,27.4692 28.1744,27.4832 C28.0834,27.4982 28.0034,27.5452 27.9414,27.6212 C27.8784,27.6992 27.8564,27.7792 27.8744,27.8652 L28.1604,29.3282 L26.7134,28.9882 C26.6944,28.9842 26.6744,28.9822 26.6534,28.9822 C26.5884,28.9822 26.5254,29.0052 26.4674,29.0492 C26.3884,29.1082 26.3394,29.1842 26.3214,29.2782 C26.3064,29.3682 26.3254,29.4562 26.3774,29.5402 C26.4304,29.6232 26.4994,29.6762 26.5864,29.6962 L28.3114,30.0202 L28.3204,30.0292 L29.2184,30.9582 C29.2774,31.0182 29.3554,31.0512 29.4494,31.0522 L29.4674,31.0522 C29.5694,31.0502 29.6564,31.0152 29.7264,30.9462 C29.7994,30.8762 29.8384,30.7912 29.8444,30.6902 C29.8494,30.5932 29.8174,30.5082 29.7514,30.4392 L28.8534,29.5102 Z" id="Fill-32" fill="#231F20"></path>
                <path d="M8.914,12.9442 L8.914,12.9812 L8.922,12.9442 C8.936,12.9442 8.95,12.9442 8.964,12.9422 C9.066,12.9302 9.149,12.8862 9.213,12.8112 C9.28,12.7342 9.312,12.6442 9.308,12.5442 C9.302,12.4452 9.264,12.3642 9.192,12.3022 L7.756,11.0762 L9.999,11.4962 C10.192,11.5292 10.346,11.4842 10.455,11.3572 L10.499,11.3062 C10.559,11.2372 10.581,11.1522 10.567,11.0572 C10.554,10.9612 10.507,10.8782 10.431,10.8122 L8.209,8.9142 C8.136,8.8522 8.051,8.8262 7.952,8.8392 C7.852,8.8502 7.768,8.8952 7.703,8.9732 C7.638,9.0472 7.607,9.1372 7.611,9.2392 C7.617,9.3412 7.654,9.4232 7.724,9.4812 L9.141,10.6912 L6.937,10.2722 C6.894,10.2652 6.852,10.2592 6.813,10.2592 C6.674,10.2592 6.558,10.3142 6.467,10.4192 L6.423,10.4712 C6.365,10.5392 6.341,10.6252 6.353,10.7242 C6.366,10.8252 6.414,10.9102 6.494,10.9792 L8.708,12.8702 C8.766,12.9192 8.835,12.9442 8.914,12.9442" id="Fill-34" fill="#231F20"></path>
                <path d="M12.5858,6.1728 C12.6668,6.2138 12.7448,6.2198 12.8178,6.1938 L13.4768,5.9558 L14.3658,8.4108 C14.3978,8.4968 14.4608,8.5598 14.5548,8.5998 C14.6048,8.6218 14.6568,8.6328 14.7078,8.6328 L14.7078,8.6698 L14.7088,8.6698 L14.7128,8.6328 C14.7538,8.6318 14.7948,8.6238 14.8348,8.6108 C14.9298,8.5748 15.0028,8.5118 15.0478,8.4238 C15.0928,8.3358 15.0998,8.2458 15.0668,8.1568 L14.1758,5.7008 L14.8358,5.4618 C14.9088,5.4358 14.9648,5.3808 15.0008,5.2978 C15.0368,5.2148 15.0408,5.1328 15.0118,5.0548 C14.9818,4.9688 14.9268,4.9058 14.8498,4.8658 C14.7728,4.8258 14.6918,4.8208 14.6148,4.8498 L12.5958,5.5808 C12.5158,5.6108 12.4598,5.6648 12.4238,5.7448 C12.3918,5.8248 12.3898,5.9078 12.4208,5.9928 C12.4488,6.0728 12.5048,6.1328 12.5858,6.1728" id="Fill-36" fill="#231F20"></path>
                <path d="M16.7065,4.7572 C16.6905,4.6642 16.6405,4.5892 16.5575,4.5342 C16.4945,4.4932 16.4235,4.4712 16.3505,4.4712 C16.3285,4.4712 16.3045,4.4742 16.2805,4.4782 C16.1875,4.4932 16.1085,4.5422 16.0465,4.6242 C15.9835,4.7052 15.9585,4.7922 15.9705,4.8832 L16.4615,7.7892 C16.4775,7.8792 16.5275,7.9522 16.6125,8.0082 C16.6795,8.0522 16.7495,8.0742 16.8235,8.0742 L16.8235,8.1112 L16.8235,8.1112 L16.8295,8.0742 C16.8485,8.0732 16.8685,8.0722 16.8895,8.0692 C16.9885,8.0512 17.0695,8.0032 17.1295,7.9232 C17.1915,7.8452 17.2135,7.7582 17.1975,7.6642 L16.7065,4.7572 Z" id="Fill-38" fill="#231F20"></path>
                <path d="M19.6029,7.9423 C19.6479,7.9453 19.6929,7.9463 19.7369,7.9463 L19.7619,7.9463 C20.1989,7.9383 20.5919,7.7823 20.9249,7.4843 C21.2989,7.1483 21.5019,6.7233 21.5329,6.2203 C21.5609,5.7123 21.4099,5.2633 21.0819,4.8853 C20.7529,4.5063 20.3279,4.3003 19.8209,4.2713 C19.7809,4.2683 19.7409,4.2663 19.6999,4.2663 C19.2469,4.2663 18.8429,4.4233 18.5019,4.7333 C18.1299,5.0693 17.9269,5.4973 17.8969,6.0043 C17.8669,6.5073 18.0189,6.9543 18.3479,7.3303 C18.6769,7.7073 19.0989,7.9123 19.6029,7.9423 M18.9939,5.2753 C19.1869,5.0913 19.4199,4.9973 19.6849,4.9933 L19.7059,4.9933 C19.7299,4.9933 19.7539,4.9933 19.7779,4.9943 C20.0829,5.0133 20.3349,5.1383 20.5259,5.3693 C20.7169,5.6003 20.8049,5.8713 20.7879,6.1763 C20.7689,6.4803 20.6499,6.7373 20.4339,6.9403 C20.2329,7.1273 19.9939,7.2213 19.7219,7.2213 C19.6969,7.2213 19.6719,7.2193 19.6459,7.2183 C19.3419,7.2003 19.0909,7.0763 18.9009,6.8493 C18.7099,6.6223 18.6229,6.3533 18.6419,6.0483 C18.6599,5.7403 18.7779,5.4803 18.9939,5.2753" id="Fill-40" fill="#231F20"></path>
                <path d="M22.0819,8.2919 C22.1269,8.3089 22.1729,8.3169 22.2179,8.3169 C22.2659,8.3169 22.3159,8.3069 22.3639,8.2869 C22.4559,8.2499 22.5189,8.1849 22.5519,8.0959 L23.2029,6.3219 L23.5879,8.5729 C23.6229,8.7669 23.7189,8.8939 23.8759,8.9509 L23.9389,8.9749 C23.9739,8.9879 24.0099,8.9939 24.0459,8.9939 L24.0459,9.0309 L24.0459,9.0319 L24.0489,8.9939 C24.0989,8.9939 24.1469,8.9799 24.1969,8.9529 C24.2819,8.9069 24.3439,8.8349 24.3789,8.7389 L25.3879,5.9959 C25.4189,5.9079 25.4139,5.8189 25.3689,5.7299 C25.3239,5.6409 25.2519,5.5779 25.1569,5.5419 C25.0649,5.5089 24.9699,5.5109 24.8759,5.5519 C24.7829,5.5909 24.7189,5.6539 24.6869,5.7389 L24.0449,7.4869 L23.6719,5.2769 C23.6399,5.0789 23.5389,4.9479 23.3729,4.8869 L23.3089,4.8639 C23.2239,4.8319 23.1339,4.8389 23.0449,4.8859 C22.9569,4.9329 22.8919,5.0059 22.8559,5.1059 L21.8519,7.8379 C21.8199,7.9239 21.8269,8.0129 21.8739,8.1039 C21.9189,8.1949 21.9889,8.2579 22.0819,8.2919" id="Fill-42" fill="#231F20"></path>
                <path d="M30.6147,9.5907 C30.5537,9.5157 30.4727,9.4717 30.3707,9.4587 C30.3497,9.4547 30.3307,9.4537 30.3117,9.4537 C30.2357,9.4537 30.1687,9.4757 30.1087,9.5217 L27.8207,11.3857 C27.7507,11.4447 27.7077,11.5127 27.6947,11.5907 C27.6817,11.6687 27.7047,11.7427 27.7617,11.8147 L28.7127,12.9797 C28.7657,13.0377 28.8367,13.0727 28.9267,13.0787 C28.9377,13.0797 28.9497,13.0777 28.9607,13.0797 C29.0347,13.0787 29.1017,13.0557 29.1567,13.0097 C29.2247,12.9547 29.2657,12.8817 29.2787,12.7957 C29.2907,12.7087 29.2697,12.6327 29.2167,12.5677 L28.5527,11.7517 L28.5817,11.7277 L30.5817,10.0977 C30.6557,10.0377 30.6957,9.9577 30.7017,9.8587 C30.7077,9.7587 30.6777,9.6687 30.6147,9.5907" id="Fill-44" fill="#231F20"></path>
                <path d="M24.8857,9.4164 C24.9437,9.4964 25.0227,9.5504 25.1197,9.5764 C25.2147,9.5984 25.3027,9.5854 25.3797,9.5384 L25.8387,9.2374 L25.8607,9.2534 L26.9357,10.0464 L26.7867,10.5714 C26.7637,10.6584 26.7777,10.7464 26.8307,10.8314 C26.8817,10.9154 26.9567,10.9744 27.0517,11.0044 C27.0857,11.0164 27.1197,11.0214 27.1557,11.0214 L27.1557,11.0594 L27.1587,11.0214 C27.2137,11.0204 27.2707,11.0044 27.3267,10.9744 C27.4197,10.9224 27.4797,10.8524 27.5077,10.7634 L28.3277,7.8844 C28.3937,7.6454 28.3247,7.4484 28.1237,7.3004 L28.0977,7.2824 C27.8977,7.1354 27.6897,7.1284 27.4797,7.2634 L24.9787,8.9094 C24.9027,8.9614 24.8537,9.0404 24.8327,9.1444 C24.8127,9.2464 24.8307,9.3384 24.8857,9.4164 L24.8857,9.4164 Z M26.4087,8.8334 L27.6237,7.9554 L27.1337,9.4274 L26.3667,8.8634 L26.4087,8.8334 Z" id="Fill-46" fill="#231F20"></path>
                <path d="M10.9916,6.809 C10.8886,6.735 10.7836,6.698 10.6776,6.698 C10.5766,6.698 10.4746,6.732 10.3736,6.799 L10.3466,6.816 C10.1386,6.954 10.0616,7.147 10.1166,7.39 L10.7976,10.307 C10.8196,10.394 10.8766,10.469 10.9666,10.523 C11.0266,10.561 11.0906,10.58 11.1546,10.58 L11.1546,10.619 L11.1596,10.58 C11.1866,10.58 11.2136,10.576 11.2396,10.568 C11.3366,10.541 11.4136,10.486 11.4696,10.404 C11.5246,10.323 11.5436,10.236 11.5256,10.147 L11.4016,9.613 L11.4236,9.599 L12.5366,8.861 L12.9816,9.184 C13.0346,9.22 13.0956,9.24 13.1636,9.24 C13.1886,9.24 13.2136,9.237 13.2406,9.232 C13.3356,9.214 13.4176,9.163 13.4806,9.086 C13.5396,9.01 13.5616,8.919 13.5456,8.814 C13.5296,8.711 13.4856,8.63 13.4096,8.574 L10.9916,6.809 Z M11.2336,8.987 L10.8156,7.493 L12.0276,8.461 L11.2336,8.987 Z" id="Fill-48" fill="#231F20"></path>
                <path d="M101.1669,2.0604 L24.8449,2.0604 C32.2379,4.5644 37.5759,11.5644 37.5759,19.7914 C37.5759,27.9574 32.3179,34.9154 25.0119,37.4664 L101.1669,37.4664 C110.9429,37.4664 118.8699,29.5404 118.8699,19.7644 C118.8699,9.9864 110.9429,2.0604 101.1669,2.0604" id="Fill-50" fill="#FADA19"></path>
                <path d="M47.8632,18.6571 L43.7932,18.6571 C43.4142,18.6571 43.0922,18.5231 42.8222,18.2551 C42.5542,17.9871 42.4212,17.6631 42.4212,17.2851 L42.4212,8.7991 C42.4212,8.4201 42.5542,8.0961 42.8222,7.8281 C43.0922,7.5591 43.4142,7.4261 43.7932,7.4261 C44.1722,7.4261 44.4942,7.5591 44.7652,7.8281 C45.0322,8.0961 45.1662,8.4201 45.1662,8.7991 L45.1662,16.1961 L47.8632,16.1961 C48.2102,16.1961 48.4992,16.3141 48.7302,16.5531 C48.9612,16.7891 49.0772,17.0841 49.0772,17.4421 C49.0772,17.7891 48.9612,18.0791 48.7302,18.3101 C48.4992,18.5421 48.2102,18.6571 47.8632,18.6571" id="Fill-52" fill="#231F20"></path>
                <path d="M58.9687,9.0668 C60.1357,10.1498 60.7197,11.5068 60.7197,13.1368 C60.7197,14.7668 60.1377,16.1258 58.9777,17.2138 C57.8137,18.3028 56.4237,18.8468 54.8047,18.8468 C53.1837,18.8468 51.7927,18.3028 50.6317,17.2138 C49.4697,16.1258 48.8897,14.7668 48.8897,13.1368 C48.8897,11.5068 49.4697,10.1478 50.6317,9.0578 C51.7927,7.9698 53.1837,7.4258 54.8047,7.4258 C56.4237,7.4258 57.8117,7.9738 58.9687,9.0668 M52.5487,10.8338 C51.9387,11.4538 51.6327,12.2208 51.6327,13.1368 C51.6327,14.0518 51.9407,14.8218 52.5567,15.4478 C53.1707,16.0728 53.9227,16.3848 54.8047,16.3848 C55.6867,16.3848 56.4357,16.0728 57.0527,15.4478 C57.6667,14.8218 57.9747,14.0518 57.9747,13.1368 C57.9747,12.2208 57.6667,11.4518 57.0527,10.8258 C56.4357,10.1998 55.6867,9.8878 54.8047,9.8878 C53.9227,9.8878 53.1697,10.2018 52.5487,10.8338" id="Fill-54" fill="#231F20"></path>
                <path d="M75.8153,7.9701 C75.5853,7.7341 75.2943,7.6161 74.9493,7.6161 L67.5023,7.6161 L65.3983,7.6161 L61.9813,7.6161 C61.6353,7.6161 61.3443,7.7341 61.1143,7.9701 C60.8823,8.2071 60.7673,8.5041 60.7673,8.8631 C60.7673,9.2081 60.8823,9.4981 61.1143,9.7291 C61.3443,9.9611 61.6353,10.0761 61.9813,10.0761 L63.3693,10.0761 L63.3693,17.4751 C63.3693,17.8531 63.5023,18.1761 63.7713,18.4451 C64.0393,18.7121 64.3643,18.8461 64.7413,18.8461 C65.1213,18.8461 65.4423,18.7121 65.7123,18.4451 C65.9793,18.1761 66.1143,17.8531 66.1143,17.4751 L66.1143,10.0761 L67.5023,10.0761 L70.8153,10.0761 L70.8153,17.4751 C70.8153,17.8531 70.9483,18.1761 71.2163,18.4451 C71.4863,18.7121 71.8083,18.8461 72.1863,18.8461 C72.5653,18.8461 72.8893,18.7121 73.1583,18.4451 C73.4253,18.1761 73.5583,17.8531 73.5583,17.4751 L73.5583,10.0761 L74.9493,10.0761 C75.2943,10.0761 75.5853,9.9611 75.8153,9.7291 C76.0463,9.4981 76.1623,9.2081 76.1623,8.8631 C76.1623,8.5041 76.0463,8.2071 75.8153,7.9701" id="Fill-56" fill="#231F20"></path>
                <path d="M85.9745,9.0668 C87.1425,10.1498 87.7255,11.5068 87.7255,13.1368 C87.7255,14.7668 87.1445,16.1258 85.9825,17.2138 C84.8195,18.3028 83.4295,18.8468 81.8105,18.8468 C80.1905,18.8468 78.7985,18.3028 77.6365,17.2138 C76.4755,16.1258 75.8945,14.7668 75.8945,13.1368 C75.8945,11.5068 76.4755,10.1478 77.6365,9.0578 C78.7985,7.9698 80.1905,7.4258 81.8105,7.4258 C83.4295,7.4258 84.8175,7.9738 85.9745,9.0668 M79.5525,10.8338 C78.9445,11.4538 78.6395,12.2208 78.6395,13.1368 C78.6395,14.0518 78.9465,14.8218 79.5625,15.4478 C80.1775,16.0728 80.9255,16.3848 81.8105,16.3848 C82.6925,16.3848 83.4435,16.0728 84.0585,15.4478 C84.6725,14.8218 84.9795,14.0518 84.9795,13.1368 C84.9795,12.2208 84.6725,11.4518 84.0585,10.8258 C83.4435,10.1998 82.6925,9.8878 81.8105,9.8878 C80.9255,9.8878 80.1745,10.2018 79.5525,10.8338" id="Fill-58" fill="#231F20"></path>
                <path d="M47.8085,17.3061 L43.9245,17.3061 L43.9245,8.8531 C43.9245,8.7781 43.8655,8.7191 43.7905,8.7191 C43.7155,8.7191 43.6545,8.7781 43.6545,8.8531 L43.6545,17.4411 C43.6545,17.5161 43.7155,17.5771 43.7905,17.5771 L47.8085,17.5771 C47.8835,17.5771 47.9435,17.5161 47.9435,17.4411 C47.9435,17.3671 47.8835,17.3061 47.8085,17.3061" id="Fill-60" fill="#FFFFFF"></path>
                <path d="M75.1884,8.7187 L67.6934,8.7187 L67.2314,8.7187 L61.8984,8.7187 C61.8234,8.7187 61.7624,8.7787 61.7624,8.8537 C61.7624,8.9277 61.8234,8.9897 61.8984,8.9897 L64.5544,8.9897 L64.5544,17.4427 C64.5544,17.5167 64.6164,17.5767 64.6904,17.5767 C64.7644,17.5767 64.8254,17.5167 64.8254,17.4427 L64.8254,8.9897 L67.2314,8.9897 L67.6934,8.9897 L72.0484,8.9897 L72.0484,17.4427 C72.0484,17.5167 72.1114,17.5767 72.1844,17.5767 C72.2594,17.5767 72.3204,17.5167 72.3204,17.4427 L72.3204,8.9897 L75.1884,8.9897 C75.2644,8.9897 75.3244,8.9277 75.3244,8.8537 C75.3244,8.7787 75.2644,8.7187 75.1884,8.7187" id="Fill-62" fill="#FFFFFF"></path>
                <path d="M54.8095,8.5487 C52.2285,8.5487 50.1285,10.6497 50.1285,13.2307 C50.1285,15.8137 52.2285,17.9137 54.8095,17.9137 C57.3925,17.9137 59.4945,15.8137 59.4945,13.2307 C59.4945,10.6497 57.3925,8.5487 54.8095,8.5487 M54.8095,17.6447 C52.3775,17.6447 50.3975,15.6637 50.3975,13.2307 C50.3975,10.7977 52.3775,8.8187 54.8095,8.8187 C57.2445,8.8187 59.2245,10.7977 59.2245,13.2307 C59.2245,15.6637 57.2445,17.6447 54.8095,17.6447" id="Fill-64" fill="#FFFFFF"></path>
                <path d="M81.8105,8.5487 C79.2275,8.5487 77.1265,10.6497 77.1265,13.2307 C77.1265,15.8137 79.2275,17.9137 81.8105,17.9137 C84.3915,17.9137 86.4925,15.8137 86.4925,13.2307 C86.4925,10.6497 84.3915,8.5487 81.8105,8.5487 M81.8105,17.6447 C79.3765,17.6447 77.3965,15.6637 77.3965,13.2307 C77.3965,10.7977 79.3765,8.8187 81.8105,8.8187 C84.2435,8.8187 86.2225,10.7977 86.2225,13.2307 C86.2225,15.6637 84.2435,17.6447 81.8105,17.6447" id="Fill-66" fill="#FFFFFF"></path>
                <path d="M42.4208,21.9442 C42.4208,21.2472 42.9718,20.6962 43.6688,20.6962 L47.0568,20.6962 C49.7658,20.6962 51.4028,22.3002 51.4028,24.6202 L51.4028,24.6522 C51.4028,27.2782 49.3598,28.6412 46.8158,28.6412 L44.9178,28.6412 L44.9178,30.8942 C44.9178,31.5922 44.3658,32.1432 43.6688,32.1432 C42.9718,32.1432 42.4208,31.5922 42.4208,30.8942 L42.4208,21.9442 Z M46.8958,26.4192 C48.1448,26.4192 48.8748,25.6732 48.8748,24.7002 L48.8748,24.6682 C48.8748,23.5492 48.0958,22.9492 46.8468,22.9492 L44.9178,22.9492 L44.9178,26.4192 L46.8958,26.4192 Z" id="Fill-68" fill="#231F20"></path>
                <path d="M53.6576,21.8466 C53.6576,21.1496 54.2076,20.5986 54.9056,20.5986 C55.6026,20.5986 56.1536,21.1496 56.1536,21.8466 L56.1536,29.7756 L60.7756,29.7756 C61.4076,29.7756 61.9096,30.2786 61.9096,30.9096 C61.9096,31.5426 61.4076,32.0466 60.7756,32.0466 L54.9056,32.0466 C54.2076,32.0466 53.6576,31.4946 53.6576,30.7966 L53.6576,21.8466 Z" id="Fill-70" fill="#231F20"></path>
                <path d="M63.5976,27.1815 L63.5976,21.8465 C63.5976,21.1495 64.1486,20.5985 64.8446,20.5985 C65.5416,20.5985 66.0936,21.1495 66.0936,21.8465 L66.0936,27.1175 C66.0936,28.9645 67.0186,29.9215 68.5416,29.9215 C70.0656,29.9215 70.9916,28.9975 70.9916,27.1965 L70.9916,21.8465 C70.9916,21.1495 71.5416,20.5985 72.2396,20.5985 C72.9366,20.5985 73.4886,21.1495 73.4886,21.8465 L73.4886,27.1005 C73.4886,30.5375 71.5576,32.2235 68.5096,32.2235 C65.4626,32.2235 63.5976,30.5215 63.5976,27.1815" id="Fill-72" fill="#231F20"></path>
                <path d="M77.1855,30.8456 C76.9095,30.6506 76.7145,30.2956 76.7145,29.9056 C76.7145,29.2576 77.2345,28.7546 77.8825,28.7546 C78.2075,28.7546 78.4335,28.8676 78.5965,28.9806 C79.4555,29.6136 80.3955,30.0026 81.4985,30.0026 C82.5195,30.0026 83.1355,29.5966 83.1355,28.9326 L83.1355,28.9006 C83.1355,28.2666 82.7475,27.9436 80.8495,27.4566 C78.5635,26.8736 77.0875,26.2406 77.0875,23.9886 L77.0875,23.9546 C77.0875,21.8956 78.7415,20.5336 81.0615,20.5336 C82.4385,20.5336 83.6395,20.8906 84.6605,21.5386 C84.9355,21.7006 85.2105,22.0416 85.2105,22.5276 C85.2105,23.1776 84.6915,23.6786 84.0435,23.6786 C83.8015,23.6786 83.6075,23.6146 83.4125,23.5006 C82.5845,23.0146 81.8055,22.7386 81.0275,22.7386 C80.0715,22.7386 79.5705,23.1776 79.5705,23.7276 L79.5705,23.7596 C79.5705,24.5066 80.0545,24.7486 82.0175,25.2526 C84.3205,25.8506 85.6175,26.6786 85.6175,28.6566 L85.6175,28.6896 C85.6175,30.9426 83.8975,32.2086 81.4505,32.2086 C79.9575,32.2086 78.4495,31.7536 77.1855,30.8456" id="Fill-74" fill="#231F20"></path>
                <path d="M109.1513,28.4408 C109.1513,26.4728 107.5373,26.2538 106.1763,26.2978 C104.1943,26.3628 102.2083,26.3148 99.9463,26.3148 C100.7043,25.6018 105.6593,21.0038 107.3693,19.0438 C110.5413,15.4118 108.8163,10.5398 104.3183,8.8148 C100.9573,7.5248 96.8583,8.2258 94.3913,10.9828 C93.6793,11.7778 92.8253,13.3658 94.1583,14.7058 C95.2233,15.7768 97.2353,14.8048 98.0943,13.9878 C99.0573,13.0728 99.9473,12.5448 101.2383,12.7188 C102.3273,12.8658 102.9433,13.5898 103.2493,14.5398 C103.6543,15.7998 103.1643,16.9468 102.3243,17.8238 C100.8703,19.3398 95.1113,24.5428 93.8713,25.8068 C91.9533,27.7648 92.9023,30.8308 94.8603,30.8308 L106.2983,30.8308 C107.2293,30.8308 109.1513,30.4648 109.1513,28.4408" id="Fill-76" fill="#000000"></path>
            </g>
        </g>
    </g>
</svg>