<svg xmlns="http://www.w3.org/2000/svg" viewBox="0 0 39 33">
    <g fill="none" fill-rule="evenodd" stroke="#BBB">
        <path d="M12.833 30.727s11.643.387 11.83-5.937c.188-6.324-8.061-18.59-8.061-18.59-.094-1.226 2.906-5.2 2.906-5.2H6.158s3 3.974 2.907 5.2c0 0-8.25 12.247-8.062 18.571.188 6.324 11.83 5.956 11.83 5.956z"/>
        <path d="M2.895 8.893s1.289 1.29 2.976-.516C7.558 6.57 7.183 6.27 9.527 6.312h7.537s2.712-.573 3.65 1.105c.937 1.677.593 2.968 1.905 3.71M10.474 4.26h4.268M10.474 8.174h4.268M10.474 22.519c.777.698 1.974 1.223 2.839 1.223 1.383 0 2.505-1.013 2.505-2.262s-1.197-1.867-2.505-2.261c-1.355-.439-2.505-1.013-2.505-2.262s1.122-2.261 2.505-2.261c.932 0 1.744.459 2.176 1.14M13.632 13.391v12.41"/>
        <g>
            <g transform="translate(17 13)">
                <path fill="#FFF" d="M17.476 13.37l-.85 5.21L0 15.74 1.675 5.485l7.728 1.436s1.314 1.745 3.876 1.186c-.718 2.515.545 4.225 1.917 4.864 1.112.519 2.28.398 2.28.398z"/>
                <path d="M.466 13.107c1.49.255 2.496 1.697 2.247 3.221M13.505 18.323c.276-1.511 1.653-2.605 3.307-2.31M4.08 5.962c-.248 1.525-1.658 2.554-3.149 2.3M13.14 8.043a4.107 4.107 0 0 1-.898.099c-2.132 0-3.86-1.768-3.86-3.948 0-2.18 1.728-3.947 3.86-3.947 2.131 0 3.86 1.767 3.86 3.947 0 .409-.061.862-.174 1.233"/>
                <ellipse cx="16.899" cy="9.433" rx="3.859" ry="3.947"/>
                <path d="M6.985 13.914c.371.48 1 .91 1.494 1.004.79.153 1.536-.296 1.666-1.003.13-.706-.489-1.187-1.194-1.555-.728-.397-1.325-.848-1.194-1.555.13-.706.876-1.155 1.666-1.003.532.103.948.452 1.123.885M9.677 8.82l-1.295 7.018M15.833 10.756c.338.3.858.526 1.233.526.601 0 1.088-.435 1.088-.973 0-.537-.52-.803-1.088-.972-.588-.189-1.087-.436-1.087-.973 0-.537.487-.973 1.087-.973.405 0 .758.198.945.49M17.77 6.609v.46M17.77 11.565v.461M11.177 5.517c.337.3.857.526 1.232.526.601 0 1.088-.436 1.088-.973 0-.537-.52-.803-1.088-.973-.588-.188-1.087-.435-1.087-.972 0-.537.487-.973 1.087-.973.405 0 .758.198.945.49M12.115 1.652v.461M12.115 6.609v.254"/>
            </g>
        </g>
    </g>
</svg>
