<?xml version="1.0" encoding="UTF-8"?>
<svg viewBox="0 0 33 26" version="1.1" xmlns="http://www.w3.org/2000/svg" xmlns:xlink="http://www.w3.org/1999/xlink">
    <!-- Generator: Sketch 49.3 (51167) - http://www.bohemiancoding.com/sketch -->
    <title>money_cash</title>
    <desc>Created with Sketch.</desc>
    <defs></defs>
    <g id="Page-1" stroke="none" stroke-width="1" fill="none" fill-rule="evenodd">
        <g id="1440---Building_Loan---Stepper_Intro" transform="translate(-458.000000, -456.000000)" stroke="#BBBBBB">
            <g id="money_cash" transform="translate(458.000000, 457.000000)">
                <g id="Group" transform="translate(0.370909, 0.082424)">
                    <polyline id="Shape" points="17.8658749 14.9120941 10.2011045 18.1211501 -1.26565425e-14 13"></polyline>
                    <path d="M31.7587467,9 L25,11.811392" id="Shape"></path>
                    <polyline id="Shape" points="31.665152 5.14889406 21.3207035 0 -1.26565425e-14 8.95024242"></polyline>
                    <path d="M25,7.85146667 L31.7587467,5" id="Shape"></path>
                    <polyline id="Shape" points="-1.26565425e-14 9 10.2011045 14.1211501 17.8654545 10.9349338"></polyline>
                    <polyline id="Shape" points="17.8654545 17.9423602 10.2011045 21.1211501 -1.26565425e-14 16"></polyline>
                    <path d="M31.7587467,12 L25,14.831009" id="Shape"></path>
                    <polyline id="Shape" points="31.665152 15 10.2011045 23.9224984 -1.26565425e-14 18.8013484"></polyline>
                    <polyline id="Shape" points="18.2942851 21.0714376 18.2942851 11.1134434 8 6"></polyline>
                    <polyline id="Shape" points="15 3 25.0920902 8.2686977 25.0920902 18.1847956"></polyline>
                    <path d="M17.9630335,9.14566077 C18.4465918,9.33230222 19.1478985,9.07630077 19.2990893,8.56611944 C19.4469172,8.0671478 19.3604624,7.56159047 18.7942326,7.2784055 C18.2280027,6.99522053 17.5657899,7.14907362 17.1668648,7.49951677 C16.7400556,7.85598513 16.1181977,8.01264065 15.5519678,7.72945568 C14.985738,7.44627071 14.8835897,6.93931216 15.1164711,6.4738295 C15.2732667,6.16037834 15.618105,5.99111192 15.9996551,6.00035992" id="Shape"></path>
                    <path d="M14,6 L15.0852371,6.56616585" id="Shape"></path>
                    <path d="M18.9966681,8.47446543 L20.3270823,9.0991982" id="Shape-Copy-2"></path>
                </g>
            </g>
        </g>
    </g>
</svg>