<?xml version="1.0" encoding="UTF-8"?>
<svg width="58px" height="52px" viewBox="0 0 58 52" version="1.1" xmlns="http://www.w3.org/2000/svg" xmlns:xlink="http://www.w3.org/1999/xlink">
    <!-- Generator: Sketch 51.1 (57501) - http://www.bohemiancoding.com/sketch -->
    <title>Group</title>
    <desc>Created with Sketch.</desc>
    <defs></defs>
    <g id="1440-Web" stroke="none" stroke-width="1" fill="none" fill-rule="evenodd">
        <g id="1440---You're-done" transform="translate(-696.000000, -353.000000)">
            <g id="Group" transform="translate(697.000000, 354.000000)">
                <path d="M9.90250435,35.7070609 C16.5842783,34.6211478 23.3588174,35.0428522 25.4931478,35.6690783 L38.9584696,39.620487 C42.7988522,40.7470609 41.0981565,46.5766609 37.2589913,45.449113 L23.1121739,41.2975652" id="Shape" stroke="#BBBBBB" stroke-width="1.5"></path>
                <path d="M40.8814609,41.3185043 L51.3729391,36.5358609 C55.1797217,34.8005913 57.5750609,40.3794087 53.9708522,42.0221565 L39.7242087,48.5164522 C37.2891826,49.6264696 27.6165217,50.4323826 16.8803478,45.6329391 C15.035513,44.8085217 11.9019478,45.8793391 9.90250435,46.3923478" id="Shape" stroke="#BBBBBB" stroke-width="1.5"></path>
                <rect id="Rectangle-path" stroke="#BBBBBB" stroke-width="1.5" x="0.118086957" y="32.8768696" width="9.73913043" height="17.0434783"></rect>
                <path d="M48.6920909,26.3008651 C48.9042215,19.3092678 39.5690451,5.74858265 39.5690451,5.74858265 C39.4629798,4.39309094 42.8576414,-3.55271368e-15 42.8576414,-3.55271368e-15 L27.7510543,-3.55271368e-15 C27.7510543,-3.55271368e-15 31.1457159,4.39309094 31.0396506,5.74858265 C31.0396506,5.74858265 21.7044742,19.288647 21.9166048,26.2802444 C22.1287354,33.2719859 35.3042764,32.8644732 35.3042764,32.8644732 C35.3042764,32.8644732 48.4799603,33.2924625 48.6920909,26.3008651 Z" id="Shape" stroke="#BBBBBB" stroke-width="1.5"></path>
                <path d="M20.9325549,9.10098309 C21.2168051,9.29245271 23.725611,10.9957379 25.7042754,8.7555702 C27.6829397,6.51540246 28.1596016,6.1528053 30.9077794,6.20406735 L39.7464454,6.20406735 C39.7464454,6.20406735 42.9264099,5.49335219 44.0256514,7.5735888 C45.1248929,9.6536637 46.9461563,10.5040543 48.4851832,11.4241839" id="Shape" stroke="#BBBBBB" stroke-width="1.5"></path>
                <path d="M31.4000015,14.7999992 L36.0080023,14.7999992 C38.5840027,14.7999992 39.9760029,15.9519994 39.9760029,18.0399998 C39.9760029,19.9440001 38.5200027,21.2080003 36.2400023,21.2880003 L39.9280029,26.0000011 L37.6880026,26.0000011 L34.120002,21.2880003 L33.2080018,21.2880003 L33.2080018,26.0000011 L31.4000015,26.0000011 L31.4000015,14.7999992 Z M35.9600023,16.4959995 L33.2080018,16.4959995 L33.2080018,19.648 L35.9600023,19.648 C37.4160025,19.648 38.0960026,19.1199999 38.0960026,18.0399998 C38.0960026,16.9759996 37.3760025,16.4959995 35.9600023,16.4959995 Z" id="R" fill="#BBBBBB"></path>
                <path d="M35.4000015,9.01426765 L35.4000015,3.4" id="Shape" stroke="#BBBBBB" stroke-width="1.5"></path>
            </g>
        </g>
    </g>
</svg>