<?xml version="1.0" encoding="UTF-8"?>
<svg viewBox="0 0 168 69" version="1.1" xmlns="http://www.w3.org/2000/svg" xmlns:xlink="http://www.w3.org/1999/xlink">
    <!-- Generator: Sketch 46.2 (44496) - http://www.bohemiancoding.com/sketch -->
    <title>NedbankLogo</title>
    <desc>Created with Sketch.</desc>
    <defs></defs>
    <g id="Symbols" stroke="none" stroke-width="1" fill="none" fill-rule="evenodd">
        <g id="Web-modal-header" transform="translate(0.000000, 6.000000)" fill-rule="nonzero">
            <g id="NedbankLogo" transform="translate(0.000000, -6.000000)">
                <polygon id="Shape" fill="#FFFFFF" points="49.5005313 0 33.9638682 10.3716075 18.4272051 0 0 12.388309 0 56.6837161 18.4272051 69 33.9638682 58.6283925 49.5005313 69 68 56.6837161 68 12.3162839"></polygon>
                <path d="M17.7700348,44.2372093 L30.0836237,52.744186 L17.7700348,61.2511628 L17.7700348,44.2372093 Z M64,13.3813953 L48.5900116,3 L33.1800232,13.3813953 L17.7700348,3 L2,13.3813953 L2,54.6186047 L17.7700348,65 L33.1800232,54.6186047 L48.5900116,65 L64,54.6186047 L64,13.3813953 Z M48.5900116,27.655814 L48.5900116,6.82093023 L60.543554,14.8953488 L60.543554,52.3116279 L5.09639954,15.327907 L17.7700348,6.82093023 L48.5900116,27.655814 Z" id="Shape" fill="#00643C"></path>
                <polygon id="Shape" fill="#00643C" points="100 37.4850299 93.2835821 37.4850299 93.2835821 35.257485 98.880597 35.257485 98.880597 32.742515 93.2835821 32.742515 93.2835821 30.5868263 100 30.5868263 100 28 90 28 90 40 100 40"></polygon>
                <g id="Group" transform="translate(102.000000, 28.000000)" fill="#00643C">
                    <path d="M5.64285714,9.52941176 L3.21428571,9.52941176 L3.21428571,2.68235294 L5.64285714,2.68235294 C7.14285714,2.68235294 8.35714286,3.38823529 8.35714286,6.07058824 C8.42857143,8.82352941 7.21428571,9.52941176 5.64285714,9.52941176 M5.92857143,0.211764706 L0.0714285714,0.211764706 L0.0714285714,12 L5.92857143,12 C9.92857143,12 11.8571429,10.2352941 11.8571429,6.07058824 C11.8571429,1.90588235 9.85714286,0.211764706 5.92857143,0.211764706" id="Shape"></path>
                    <path d="M19.5714286,9.52941176 L16.5714286,9.52941176 L16.5714286,7.27058824 L19.5714286,7.27058824 C20.5714286,7.27058824 20.8571429,7.76470588 20.8571429,8.4 C20.9285714,9.10588235 20.7142857,9.52941176 19.5714286,9.52941176 L19.5714286,9.52941176 Z M16.6428571,2.75294118 L19.2857143,2.75294118 C20.3571429,2.75294118 20.5714286,3.24705882 20.5714286,3.81176471 C20.5714286,4.44705882 20.3571429,4.87058824 19.2857143,4.87058824 L16.6428571,4.87058824 L16.6428571,2.75294118 Z M21.7857143,5.85882353 C23.0714286,5.71764706 24,4.8 24,3.45882353 C24,1.2 22.6428571,0.282352941 19.9285714,0.282352941 L13.5,0.282352941 L13.5,12 L20.2142857,12 C23.0714286,12 24.4285714,11.1529412 24.4285714,8.82352941 C24.3571429,6.77647059 23.2142857,6 21.7857143,5.85882353 L21.7857143,5.85882353 Z" id="Shape"></path>
                </g>
                <polygon id="Shape" fill="#00643C" points="84.7607362 28 84.7607362 35.3293413 79.8282209 28 76 28 76 40 79.2392638 40 79.2392638 32.8143713 84.0981595 40 88 40 88 28"></polygon>
                <polygon id="Shape" fill="#00643C" points="167.627329 28 163.453416 28 159.279503 32.8862275 159.279503 28 156 28 156 40 159.279503 40 159.279503 34.5389222 163.751553 40 168 40 162.708075 33.6047904"></polygon>
                <path d="M131.848649,35.257485 L133.394595,31.0898204 L133.535135,31.0898204 L135.081081,35.257485 L131.848649,35.257485 Z M135.643243,28 L131.356757,28 L127,40 L130.091892,40 L130.935135,37.6287425 L135.924324,37.6287425 L136.767568,40 L140,40 L135.643243,28 Z" id="Shape" fill="#00643C"></path>
                <polygon id="Shape" fill="#00643C" points="150.780488 28 150.780488 35.3293413 145.878049 28 142 28 142 40 145.219512 40 145.219512 32.8143713 150.121951 40 154 40 154 28"></polygon>
            </g>
        </g>
    </g>
</svg>
