<svg xmlns="http://www.w3.org/2000/svg" viewBox="0 0 32 32">
    <g fill="none" fill-rule="evenodd">
        <ellipse cx="15.875" cy="16" fill="#006341" rx="15.875" ry="16"/>
        <path fill="#006341" d="M6.828 10.035v11.583l4.688 3.076 4.265-2.82 4.268 2.82 4.542-3.076V10.032L20.05 6.993 15.78 9.758l-4.265-2.765z"/>
        <g fill="#FFF">
            <path d="M19.95 6.53l5.037 3.336v11.98l-5.037 3.337-4.248-2.81-4.225 2.81-5.04-3.336V9.875l5.039-3.345 4.226 2.81 4.248-2.81zm4.247 3.724l-4.215-2.812-4.215 2.812-4.215-2.812-4.32 2.812v11.143l4.32 2.811 4.215-2.811 4.215 2.811 4.215-2.811V10.254z"/>
            <path d="M11.552 18.585l3.372 2.29-3.372 2.292v-4.582zm8.43-4.478V8.483l3.266 2.187v10.102L8.075 10.774l3.477-2.29 8.43 5.623z"/>
        </g>
    </g>
</svg>
