<?xml version="1.0" encoding="utf-8"?>
<!-- Generator: Adobe Illustrator 22.0.1, SVG Export Plug-In . SVG Version: 6.00 Build 0)  -->
<svg version="1.1" id="Capa_1" width="35px" height="50px" xmlns="http://www.w3.org/2000/svg" xmlns:xlink="http://www.w3.org/1999/xlink" x="0px" y="0px"
	 viewBox="0 0 52 70" style="enable-background:new 0 0 52 70;" xml:space="preserve">
<style type="text/css">
	.st0{fill:#9FB199;}
	.st1{fill:#026342;}
	.st2{fill:#006341;}
	.st3{fill:#FFFFFF;}
</style>
<g>
	<ellipse class="st0" cx="26" cy="66.7" rx="9.2" ry="2.3"/>
	<path class="st1" d="M1,28c0,13.8,13.3,28.7,25.1,40.3C38.3,55.5,51,39.6,51,28C51,13.1,39.8,1,26,1S1,13.1,1,28z"/>
	<g id="Symbols">
		<g id="Nedbank-logo_x2F_80px">
			<g id="Group" transform="translate(22.000000, 22.000000)">
				<polygon id="Path-2" class="st2" points="-9.4,-4.2 -9.4,13.1 -2.3,17.7 4.1,13.4 10.5,17.7 17.4,13.1 17.4,-4.2 10.5,-8.8 
					4.1,-4.7 -2.3,-8.8 				"/>
				<g id="Nedbank-logo-new-Copy-10" transform="translate(0.857143, 0.857143)">
					<path id="Combined-Shape" class="st3" d="M9.5-10.3l7.7,5v18l-7.7,5L3,13.4l-6.3,4.3l-7.7-5v-18l7.7-5L3.1-6L9.5-10.3z
						 M15.9-4.9L9.5-9.1L3.2-4.9l-6.3-4.3l-6.5,4.3v16.6l6.5,4.3l6.3-4.3L9.5,16l6.3-4.3L15.9-4.9L15.9-4.9z"/>
					<path id="Fill-14" class="st3" d="M-3.1,7.7L2,11l-5.2,3.4L-3.1,7.7L-3.1,7.7z M9.5,1v-8.4l4.9,3.2V11L-8.4-4l5.3-3.4L9.5,1z"
						/>
				</g>
			</g>
		</g>
	</g>
</g>
</svg>
