<?xml version="1.0" encoding="UTF-8"?>
<svg viewBox="0 0 21 21" version="1.1" xmlns="http://www.w3.org/2000/svg" xmlns:xlink="http://www.w3.org/1999/xlink">
    <!-- Generator: Sketch 46.2 (44496) - http://www.bohemiancoding.com/sketch -->
    <title>Icons/NedbankLogoSmall</title>
    <desc>Created with Sketch.</desc>
    <defs></defs>
    <g id="Symbols" stroke="none" stroke-width="1" fill="none" fill-rule="evenodd">
        <g id="Icons/NedbankLogoSmall" fill="#FFFFFF">
            <g id="Nedbank-Logo-Small">
                <path d="M15.2974084,0.0679339806 L20.992255,3.80889029 L20.992255,17.2486864 L15.2974084,20.990866 L10.4949579,17.8380117 L5.71756188,20.9916816 L0.0194925743,17.2487883 L0.0194925743,3.81928835 L5.71662624,0.0667106796 L10.4949579,3.21966699 L15.2974084,0.0679339806 Z M20.0991104,4.24414078 L15.3337738,1.08996117 L10.5684371,4.24414078 L5.80320446,1.08996117 L0.918833168,4.24414078 L0.918833168,16.7437282 L5.80320446,19.8978058 L10.5684371,16.7437282 L15.3337738,19.8978058 L20.0991104,16.7437282 L20.0991104,4.24414078 Z" id="Combined-Shape"></path>
                <path d="M5.80320446,13.5896505 L9.61543218,16.1596019 L5.80320446,18.7296553 L5.80320446,13.5896505 Z M15.3337738,8.56636893 L15.3337738,2.25821359 L19.0268629,4.71133981 L19.0268629,16.0427767 L1.87183812,4.82816505 L5.80320446,2.25821359 L15.3337738,8.56636893 Z" id="Fill-14"></path>
            </g>
        </g>
    </g>
</svg>