<?xml version="1.0" encoding="UTF-8"?>
<svg  viewBox="0 0 19 21" version="1.1" xmlns="http://www.w3.org/2000/svg" xmlns:xlink="http://www.w3.org/1999/xlink">
    <!-- Generator: Sketch 47 (45396) - http://www.bohemiancoding.com/sketch -->
    <title>New recipient</title>
    <desc>Created with Sketch.</desc>
    <defs></defs>
    <g id="Components" stroke="none" stroke-width="1" fill="none" fill-rule="evenodd">
        <g id="Components---Navigation/page-header" transform="translate(-1229.000000, -880.000000)" stroke="#808080">
            <g id="Group" transform="translate(1208.000000, 853.000000)">
                <g id="New-recipient" transform="translate(22.000000, 28.000000)">
                    <path d="M8.16326531,11.2999992 C5.60181406,11.2999992 3.32970522,11.878684 1.83673469,12.3820854 C0.734693878,12.7548745 0,13.7934233 0,14.9571421 L0,18.5562351 L7.25623583,18.5562351" id="Shape"></path>
                    <path d="M14.6304284,11.2999992 C12.0689771,11.2999992 9.7968683,11.878684 8.30389778,12.3820854 C7.20185696,12.7548745 6.46716309,13.7934233 6.46716309,14.9571421 L6.46716309,18.5562351 L17.1632653,18.5562351" id="Shape-Copy" transform="translate(11.815214, 14.928117) scale(-1, 1) translate(-11.815214, -14.928117) "></path>
                    <path d="M8.61678005,11.3378685 L8.61678005,11.3378685 C6.11247166,11.3378685 4.08163265,8.4 4.08163265,5.89569161 L4.08163265,4.98866213 C4.08163265,2.48435374 6.11247166,0.453514739 8.61678005,0.453514739 L8.61678005,0.453514739 C11.1210884,0.453514739 13.1519274,2.48435374 13.1519274,4.98866213 L13.1519274,5.89569161 C13.1519274,8.4 11.1210884,11.3378685 8.61678005,11.3378685 Z" id="Shape" stroke-linecap="square"></path>
                </g>
            </g>
        </g>
    </g>
</svg>