<?xml version="1.0" encoding="UTF-8"?>
<svg width="140px" height="137px" viewBox="0 0 140 137" version="1.1" xmlns="http://www.w3.org/2000/svg" xmlns:xlink="http://www.w3.org/1999/xlink">
    <!-- Generator: Sketch 47.1 (45422) - http://www.bohemiancoding.com/sketch -->
    <title>Fill 1</title>
    <desc>Created with Sketch.</desc>
    <defs></defs>
    <g id="Enrolment---Nedbank-ID-federated" stroke="none" stroke-width="1" fill="none" fill-rule="evenodd">
        <g id="1440-ID-Register-with-PPP-Create-Approve-it-Reject" transform="translate(-650.000000, -210.000000)" fill="#BFBFBF">
            <path d="M720,331.777778 C708.488889,331.777778 696.977778,328.276667 687.333333,321.122222 L763.555556,246.533333 C779.577778,267.387778 777.866667,297.071111 758.422222,316.098889 C747.844444,326.602222 734,331.777778 720,331.777778 L720,331.777778 Z M676.444444,310.466667 C660.422222,289.612222 662.133333,259.928889 681.577778,240.901111 C692.155556,230.397778 706,225.222222 720,225.222222 C731.511111,225.222222 743.022222,228.723333 752.666667,235.877778 L676.444444,310.466667 Z M720,210 C702.111111,210 684.222222,216.697778 670.533333,230.093333 C643.155556,256.884444 643.155556,300.267778 670.533333,326.906667 C684.222222,340.302222 702.111111,347 720,347 C737.888889,347 755.777778,340.302222 769.466667,326.906667 C796.844444,300.115556 796.844444,256.732222 769.466667,230.093333 C755.777778,216.697778 737.888889,210 720,210 L720,210 Z M720,334.822222 C735.4,334.822222 749.866667,329.037778 760.755556,318.382222 C780.822222,298.745556 783.155556,267.083333 766.2,244.858889 L763.866667,241.966667 L761.377778,244.402222 L685.155556,318.991111 L682.666667,321.426667 L685.466667,323.557778 C695.577778,330.864444 707.4,334.822222 720,334.822222 L720,334.822222 Z M676.133333,315.033333 L678.622222,312.597778 L754.844444,238.008889 L757.333333,235.573333 L754.533333,233.442222 C744.422222,226.135556 732.6,222.177778 720,222.177778 C704.6,222.177778 690.133333,227.962222 679.244444,238.617778 C659.177778,258.406667 656.844444,289.916667 673.955556,312.293333 L676.133333,315.033333 L676.133333,315.033333 Z M720,213.044444 C737.888889,213.044444 754.688889,219.894444 767.288889,232.224444 C779.888889,244.554444 786.888889,260.994444 786.888889,278.5 C786.888889,296.005556 779.888889,312.445556 767.288889,324.775556 C754.688889,337.105556 737.888889,343.955556 720,343.955556 C702.111111,343.955556 685.311111,337.105556 672.711111,324.775556 C660.111111,312.445556 653.111111,296.005556 653.111111,278.5 C653.111111,260.994444 660.111111,244.554444 672.711111,232.224444 C685.311111,219.894444 702.111111,213.044444 720,213.044444 L720,213.044444 Z" id="Fill-1"></path>
        </g>
    </g>
</svg>