<?xml version="1.0" encoding="UTF-8"?>
<svg  viewBox="0 0 84 70" version="1.1" xmlns="http://www.w3.org/2000/svg" xmlns:xlink="http://www.w3.org/1999/xlink">
    <!-- Generator: Sketch 47.1 (45422) - http://www.bohemiancoding.com/sketch -->
    <title>Windowalertnotificationwarningerror</title>
    <desc>Created with Sketch.</desc>
    <defs></defs>
    <g id="Recipients-management---ideal-flow" stroke="none" stroke-width="1" fill="none" fill-rule="evenodd">
        <g id="1440-Delete-recipient-OTP-1" transform="translate(-678.000000, -326.000000)">
            <g id="Windowalertnotificationwarningerror" transform="translate(677.000000, 319.000000)">
                <g id="Group" transform="translate(2.000000, 8.000000)" stroke-width="2" stroke="#009639">
                    <g>
                        <rect id="Rectangle-path" x="0.75" y="0.75" width="80.5" height="66.5"></rect>
                        <path d="M81.1583,18.2535 L0.918,18.2535" id="Shape"></path>
                        <path d="M11.2087,18.2535 L30.64525,0.94215" id="Shape"></path>
                        <path d="M0.918,14.5806 L16.9242,0.94215" id="Shape"></path>
                        <path d="M24.9294,18.2535 L44.36595,0.94215" id="Shape"></path>
                        <path d="M38.6501,18.2535 L58.087,0.94215" id="Shape"></path>
                        <path d="M52.37115,18.2535 L71.8077,0.94215" id="Shape"></path>
                        <path d="M66.09185,18.2535 L81.1583,5.87925" id="Shape"></path>
                    </g>
                    <path d="M55.96705,51.74185 L43.84375,30.38345 C42.57115,28.14065 39.33435,28.14065 38.06175,30.38345 L25.93915,51.74185 C24.68335,53.9528 26.2874,56.7073 28.83015,56.7073 L53.07535,56.7073 C55.6195,56.70765 57.2225,53.9549 55.96705,51.74185 L55.96705,51.74185 Z" id="Shape"></path>
                    <path d="M40.95345,36.98095 L40.95345,46.08935" id="Shape"></path>
                    <path d="M40.95345,47.98095 L40.95345,49.98095" id="Shape"></path>
                </g>
                <rect id="Rectangle-path" x="0" y="0" width="84" height="84"></rect>
            </g>
        </g>
    </g>
</svg>