<svg xmlns="http://www.w3.org/2000/svg" viewBox="0 0 72 69">
    <g fill="none" fill-rule="evenodd" stroke="#009639" stroke-width="2">
        <path d="M1.932 37.795a.708.708 0 0 1-.486-.61.698.698 0 0 1 .38-.682L69.758 1.74a.7.7 0 0 1 .998.79L58.14 54.577a.708.708 0 0 1-.681.535.735.735 0 0 1-.203-.03L1.932 37.795z"/>
        <path d="M31.069 46.666l.01 19.995c0 .322-.082.604.229.695.064.017-.015.029.053.029.243 0 .4-.126.536-.337l11.441-16.22M55.953 18.887L31.07 46.666"/>
    </g>
</svg>
