<?xml version="1.0" encoding="UTF-8"?>
<svg viewBox="0 0 62 63" version="1.1" xmlns="http://www.w3.org/2000/svg" xmlns:xlink="http://www.w3.org/1999/xlink">
    <!-- Generator: Sketch 51.3 (57544) - http://www.bohemiancoding.com/sketch -->
    <title>Group 10</title>
    <desc>Created with Sketch.</desc>
    <defs></defs>
    <g id="Open-new-account" stroke="none" stroke-width="1" fill="none" fill-rule="evenodd">
        <g id="Sprint7_ONIA_03_1440" transform="translate(-712.000000, -397.000000)">
            <g id="Group-10" transform="translate(711.000000, 396.000000)">
                <g id="Group-5">
                    <g id="Group-6">
                        <ellipse id="Oval" stroke="#666666" stroke-width="2" cx="41.2541115" cy="29.7899255" rx="10.4181212" ry="10.5962814"></ellipse>
                        <path d="M12.7490466,46.7749076 C19.8945155,45.5937766 27.1391872,46.0524579 29.4216338,46.7335945 L43.8214082,51.0314814 C47.9283018,52.2568386 46.109583,58.5976055 42.0039913,57.371189 L26.8754274,52.8556138" id="Shape" stroke="#666666" stroke-width="2"></path>
                        <path d="M45.8781097,52.878389 L57.0976649,47.6763807 C61.1686267,45.7889545 63.7301952,51.856949 59.8758652,53.6437407 L44.6405477,60.7074869 C42.0365381,61.9148359 31.6926238,62.7914152 20.2113918,57.5711338 C18.238531,56.6744276 14.8875058,57.8391393 12.749307,58.397131" id="Shape" stroke="#666666" stroke-width="2"></path>
                        <rect id="Rectangle-path" stroke="#666666" stroke-width="2" x="2.2856202" y="43.6965517" width="10.4149967" height="18.537931"></rect>
                        <rect id="Rectangle-path" x="0.849912909" y="0" width="62.4899802" height="63.5586207"></rect>
                        <g id="Group" transform="translate(1.970219, 1.103448)">
                            <path d="M31.1510816,22.0641986 C25.7082043,21.7143614 21.2857363,17.1135117 21.2857363,11.4893683 C21.2857363,5.63720828 25.9500926,0.893086897 31.7038575,0.893086897 C37.4576224,0.893086897 42.1219787,5.63720828 42.1219787,11.4893683 C42.1219787,13.927371 41.3124731,16.3224717 39.9520142,18.112971" id="Shape" stroke="#666666" stroke-width="2"></path>
                            <g transform="translate(-0.000000, 42.372414)"></g>
                            <path d="M35.6045342,32.7804469 C36.592657,33.6551724 38.1166314,34.3122097 39.216455,34.3122097 C40.9763291,34.3122097 42.4031836,33.0434207 42.4031836,31.4785545 C42.4031836,29.9134234 40.87973,29.1393324 39.216455,28.6448993 C37.4925127,28.0953821 36.0297264,27.3761103 36.0297264,25.8112441 C36.0297264,24.2463779 37.4563206,22.977589 39.216455,22.977589 C40.4014213,22.977589 41.4353701,23.5527945 41.9845008,24.4063338" id="Shape" stroke="#666666" stroke-width="2"></path>
                            <path d="M39.216455,21.4286124 L39.216455,22.9770593" id="Shape" stroke="#666666" stroke-width="2"></path>
                            <path d="M39.216455,34.3122097 L39.216455,35.8606566" id="Shape" stroke="#666666" stroke-width="2"></path>
                            <path d="M28.7256892,15.036469 C29.5729492,15.7864607 30.8792502,16.349749 31.8223281,16.349749 C33.3312008,16.349749 34.5541817,15.2621021 34.5541817,13.9202207 C34.5541817,12.5783393 33.2481412,11.9146814 31.8223281,11.4906924 C30.3444401,11.0195641 29.0904745,10.4030455 29.0904745,9.06116414 C29.0904745,7.71928276 30.3137158,6.63163586 31.8223281,6.63163586 C32.838311,6.63163586 33.7246273,7.12474483 34.1953851,7.85646345" id="Shape" stroke="#666666" stroke-width="2"></path>
                            <path d="M31.8220677,5.30458483 L31.8220677,6.63216552" id="Shape" stroke="#666666" stroke-width="2"></path>
                            <path d="M31.8220677,16.349749 L31.8220677,17.6773297" id="Shape" stroke="#666666" stroke-width="2"></path>
                        </g>
                    </g>
                </g>
            </g>
        </g>
    </g>
</svg>