<?xml version="1.0" encoding="UTF-8"?>
<svg viewBox="0 0 22 21" version="1.1" xmlns="http://www.w3.org/2000/svg" xmlns:xlink="http://www.w3.org/1999/xlink">
    <!-- Generator: Sketch 48.2 (47327) - http://www.bohemiancoding.com/sketch -->
    <title>icons/phone-inactive</title>
    <desc>Created with Sketch.</desc>
    <defs></defs>
    <g id="1440---Loan-Restructure-Quicker---Done" stroke="none" stroke-width="1" fill="none" fill-rule="evenodd" transform="translate(-89.000000, -1285.000000)">
        <g id="icons/phone-inactive" transform="translate(90.000000, 1286.000000)">
            <g id="Group">
                <path d="M14.2803151,11.253476 C14.2803151,11.253476 12.8867766,12.566334 12.7945196,12.6484797 C12.7716847,12.6702674 12.7465052,12.6874424 12.7178597,12.7013787 C11.2686612,13.4080078 6.03784549,8.01652567 7.03574958,7.00270915 L8.52684603,5.59602646 C8.72002492,5.41298988 8.72084046,5.11394836 8.53357416,4.93159878 L3.65343681,0.140751386 C3.56311675,0.0516376003 3.4390541,0.000995845593 3.3096905,1.44162382e-05 C3.17981719,-0.000967013117 3.05626425,0.0482025976 2.96308984,0.135059096 C0.519351271,2.4446568 -3.39815371,4.76730751 5.75383683,13.754158 C14.7861482,22.6222555 17.375561,19.2613507 19.8685372,16.6802896 C20.0476482,16.4956827 20.042755,16.2086146 19.8598722,16.0290131 L14.9613854,11.2654494 C14.7758521,11.0846701 14.4755328,11.0793704 14.2803151,11.253476 Z" id="Shape" stroke="#808080"></path>
                <rect id="Rectangle-path" x="0" y="-4.88498131e-15" width="20" height="19.5121951"></rect>
            </g>
        </g>
    </g>
</svg>