<?xml version="1.0" encoding="UTF-8"?>
<svg width="120px" height="38px" viewBox="0 0 120 38" version="1.1" xmlns="http://www.w3.org/2000/svg" xmlns:xlink="http://www.w3.org/1999/xlink">
    <!-- Generator: Sketch 47.1 (45422) - http://www.bohemiancoding.com/sketch -->
    <title>PowerballPlus</title>
    <desc>Created with Sketch.</desc>
    <defs></defs>
    <g id="Powerball" stroke="none" stroke-width="1" fill="none" fill-rule="evenodd">
        <g id="1440-Powerball-1" transform="translate(-473.000000, -533.000000)">
            <g id="PowerballPlus" transform="translate(473.000000, 532.000000)">
                <g id="Group-3" transform="translate(0.000000, 0.528400)" fill="#FFFFFF">
                    <path d="M101.2679,0.4759 C101.2679,0.4759 18.8179,0.4719 18.7639,0.4719 C8.4179,0.4719 -0.0001,8.8899 -0.0001,19.2359 C-0.0001,29.5829 8.4179,37.9999 18.7639,37.9999 C19.2469,37.9999 101.2679,37.9389 101.2679,37.9389 C111.5949,37.9389 119.9999,29.5369 119.9999,19.2079 C119.9999,8.8799 111.5949,0.4759 101.2679,0.4759" id="Fill-1"></path>
                </g>
                <path d="M18.7981,2.0204 C28.5981,2.0204 36.5431,9.9644 36.5431,19.7654 C36.5431,29.5644 28.5981,37.5094 18.7981,37.5094 C8.9981,37.5094 1.0531,29.5644 1.0531,19.7654 C1.0531,9.9644 8.9981,2.0204 18.7981,2.0204" id="Fill-4" fill="#FFFFFF"></path>
                <path d="M36.5423,19.7655 C36.5423,9.9655 28.5993,2.0205 18.7973,2.0205 C8.9983,2.0205 1.0533,9.9655 1.0533,19.7655 C1.0533,29.5655 8.9983,37.5105 18.7973,37.5105 C28.5993,37.5105 36.5423,29.5655 36.5423,19.7655" id="Fill-6" fill="#FADA19"></path>
                <path d="M20.0335,24.8832 C19.7025,24.5532 19.2645,24.3722 18.7985,24.3722 C18.3315,24.3722 17.8935,24.5532 17.5625,24.8832 L14.5525,27.8932 C14.5005,27.9462 14.4425,27.9982 14.3825,28.0482 C15.6985,28.7512 17.2005,29.1542 18.7985,29.1542 C20.3935,29.1542 21.8985,28.7512 23.2145,28.0482 C23.1545,27.9982 23.0965,27.9462 23.0445,27.8942 L20.0335,24.8832 Z" id="Fill-8" fill="#009DDA"></path>
                <path d="M23.9163,18.5297 C23.2343,19.2117 23.2343,20.3197 23.9163,21.0007 L26.9273,24.0107 C26.9793,24.0627 27.0303,24.1207 27.0813,24.1807 C27.7853,22.8637 28.1873,21.3627 28.1873,19.7647 C28.1873,18.1687 27.7853,16.6657 27.0813,15.3487 C27.0303,15.4097 26.9793,15.4667 26.9273,15.5197 L23.9163,18.5297 Z" id="Fill-10" fill="#00A66A"></path>
                <path d="M13.68,21.0009 C14.361,20.3189 14.361,19.2109 13.68,18.5299 L10.669,15.5199 C10.617,15.4669 10.566,15.4099 10.515,15.3499 C9.811,16.6659 9.409,18.1679 9.409,19.7659 C9.409,21.3619 9.811,22.8649 10.515,24.1819 C10.566,24.1209 10.617,24.0629 10.669,24.0109 L13.68,21.0009 Z" id="Fill-12" fill="#ED3342"></path>
                <path d="M24.9856,27.4398 C24.6056,27.4398 24.2226,27.2948 23.9336,27.0028 L18.7976,21.8678 L13.6626,27.0028 C13.0816,27.5848 12.1396,27.5848 11.5586,27.0028 C10.9776,26.4228 10.9776,25.4818 11.5586,24.8998 L16.6946,19.7658 L11.5586,14.6298 C10.9776,14.0488 10.9776,13.1068 11.5586,12.5258 C12.1396,11.9458 13.0816,11.9458 13.6626,12.5258 L18.7976,17.6618 L23.9336,12.5258 C24.5146,11.9458 25.4556,11.9458 26.0356,12.5258 C26.6186,13.1068 26.6186,14.0488 26.0356,14.6298 L20.9016,19.7658 L26.0356,24.8998 C26.6186,25.4818 26.6186,26.4228 26.0356,27.0028 C25.7466,27.2948 25.3656,27.4398 24.9856,27.4398" id="Fill-14" fill="#231F20"></path>
                <path d="M20.95,12.6454 C20.95,11.4774 20.003,10.5294 18.834,10.5294 C17.665,10.5294 16.718,11.4774 16.718,12.6454 C16.718,13.8134 17.665,14.7614 18.834,14.7614 C20.003,14.7614 20.95,13.8134 20.95,12.6454" id="Fill-16" fill="#231F20"></path>
                <path d="M7.7747,29.8046 L7.8017,29.7796 L9.6917,28.0256 C9.7607,27.9596 9.7977,27.8776 9.7977,27.7786 C9.7977,27.6796 9.7627,27.5906 9.6917,27.5156 C9.6287,27.4456 9.5447,27.4076 9.4427,27.4006 C9.3427,27.3916 9.2537,27.4206 9.1847,27.4796 L7.0197,29.4866 C6.9527,29.5496 6.9157,29.6206 6.9067,29.6996 C6.8997,29.7776 6.9267,29.8506 6.9887,29.9176 L8.0117,31.0196 C8.0597,31.0676 8.1097,31.0896 8.1897,31.1036 C8.3137,31.1186 8.4067,31.0696 8.4567,31.0216 C8.5207,30.9616 8.5577,30.8876 8.5647,30.8006 C8.5717,30.7126 8.5457,30.6376 8.4887,30.5756 L7.7747,29.8046 Z" id="Fill-18" fill="#231F20"></path>
                <path d="M12.1482,31.8803 C11.9822,32.1353 11.7512,32.2983 11.4612,32.3663 C11.3782,32.3853 11.2962,32.3963 11.2142,32.3963 C11.0142,32.3963 10.8202,32.3343 10.6402,32.2163 C10.3852,32.0493 10.2292,31.8163 10.1772,31.5243 C10.1262,31.2333 10.1832,30.9563 10.3512,30.7003 C10.5202,30.4433 10.7522,30.2763 11.0422,30.2063 C11.1272,30.1863 11.2112,30.1753 11.2942,30.1753 L11.3122,30.1753 C11.5022,30.1793 11.6872,30.2393 11.8622,30.3533 C12.1182,30.5213 12.2712,30.7553 12.3242,31.0503 C12.3762,31.3463 12.3152,31.6253 12.1482,31.8803 M12.2592,29.7473 C11.9562,29.5473 11.6272,29.4453 11.2852,29.4453 C11.1552,29.4453 11.0202,29.4603 10.8862,29.4903 C10.3972,29.5973 10.0072,29.8673 9.7292,30.2923 C9.4512,30.7133 9.3602,31.1763 9.4582,31.6663 C9.5562,32.1563 9.8202,32.5463 10.2422,32.8223 C10.5392,33.0173 10.8592,33.1193 11.1892,33.1253 L11.2202,33.1253 C11.3502,33.1253 11.4832,33.1113 11.6172,33.0833 C12.1062,32.9783 12.4962,32.7113 12.7722,32.2903 C13.0512,31.8643 13.1442,31.4003 13.0472,30.9083 C12.9492,30.4163 12.6852,30.0263 12.2592,29.7473" id="Fill-20" fill="#231F20"></path>
                <path d="M16.264,31.5233 L14.214,30.8873 C14.184,30.8783 14.155,30.8733 14.127,30.8733 C14.076,30.8733 14.027,30.8873 13.979,30.9153 C13.905,30.9583 13.851,31.0243 13.826,31.1103 C13.8,31.1903 13.807,31.2723 13.848,31.3533 C13.889,31.4343 13.947,31.4873 14.021,31.5103 L14.69,31.7173 L14.678,31.7533 L13.915,34.2113 C13.889,34.2983 13.9,34.3873 13.951,34.4753 C14.001,34.5643 14.073,34.6243 14.168,34.6543 C14.204,34.6653 14.242,34.6713 14.281,34.6723 L14.286,34.7093 L14.286,34.6723 C14.343,34.6723 14.397,34.6593 14.449,34.6333 C14.54,34.5913 14.599,34.5233 14.628,34.4333 L15.402,31.9383 L16.071,32.1463 C16.144,32.1683 16.222,32.1573 16.301,32.1153 C16.381,32.0713 16.433,32.0083 16.458,31.9283 C16.485,31.8403 16.479,31.7573 16.442,31.6793 C16.404,31.6003 16.346,31.5483 16.264,31.5233" id="Fill-22" fill="#231F20"></path>
                <path d="M19.4397,31.7738 L17.2857,31.6968 C17.2027,31.6968 17.1337,31.7268 17.0747,31.7848 C17.0137,31.8468 16.9817,31.9238 16.9777,32.0158 C16.9737,32.0978 17.0037,32.1738 17.0647,32.2428 C17.1247,32.3108 17.1937,32.3448 17.2707,32.3478 L17.9707,32.3738 L17.9687,32.4118 L17.8777,34.9838 C17.8727,35.0748 17.9087,35.1578 17.9807,35.2288 C18.0527,35.3008 18.1397,35.3398 18.2377,35.3428 L18.2547,35.3808 L18.2557,35.3808 L18.2557,35.3428 C18.3487,35.3428 18.4337,35.3128 18.5047,35.2508 C18.5807,35.1858 18.6197,35.1048 18.6237,35.0098 L18.7157,32.3998 L18.7547,32.4008 L19.4227,32.4248 L19.4237,32.4248 C19.4997,32.4248 19.5677,32.3948 19.6307,32.3338 C19.6947,32.2708 19.7297,32.1958 19.7317,32.1118 C19.7347,32.0218 19.7087,31.9418 19.6517,31.8768 C19.5947,31.8108 19.5227,31.7768 19.4397,31.7738" id="Fill-24" fill="#231F20"></path>
                <path d="M23.2596,34.1449 C23.1876,34.0949 23.1086,34.0799 23.0286,34.0979 L21.7986,34.3769 L21.6226,33.6029 L22.6476,33.3709 C22.7266,33.3529 22.7896,33.3049 22.8346,33.2289 C22.8806,33.1539 22.8936,33.0729 22.8746,32.9899 C22.8556,32.9049 22.8086,32.8369 22.7366,32.7899 C22.6646,32.7419 22.5866,32.7269 22.5066,32.7459 L21.4806,32.9779 L21.2946,32.1519 L22.4776,31.8839 C22.5556,31.8659 22.6196,31.8179 22.6636,31.7409 C22.7076,31.6649 22.7216,31.5829 22.7036,31.5019 C22.6846,31.4129 22.6376,31.3439 22.5656,31.2939 C22.5126,31.2589 22.4586,31.2409 22.4016,31.2409 C22.3796,31.2409 22.3556,31.2439 22.3346,31.2489 L20.7096,31.6169 C20.6216,31.6369 20.5566,31.6819 20.5216,31.7499 C20.4846,31.8199 20.4746,31.8999 20.4926,31.9899 L21.1456,34.8709 C21.1676,34.9579 21.2126,35.0259 21.2746,35.0729 C21.3166,35.1049 21.3646,35.1199 21.4186,35.1209 L21.4236,35.1589 L21.4236,35.1579 L21.4236,35.1209 C21.4486,35.1209 21.4736,35.1189 21.5016,35.1119 L23.1716,34.7329 C23.2486,34.7159 23.3126,34.6679 23.3576,34.5899 C23.4016,34.5119 23.4156,34.4309 23.3976,34.3489 C23.3776,34.2639 23.3316,34.1949 23.2596,34.1449" id="Fill-26" fill="#231F20"></path>
                <path d="M25.7088,31.3803 C25.6868,31.5143 25.6148,31.6143 25.4878,31.6833 L24.8768,32.0153 L24.3838,31.1053 L25.0128,30.7633 C25.1308,30.7003 25.2538,30.6963 25.3758,30.7543 C25.4968,30.8103 25.5888,30.8953 25.6488,31.0073 C25.7118,31.1233 25.7318,31.2493 25.7088,31.3803 M27.0168,32.4333 L26.0898,31.9663 L26.1248,31.9293 C26.2928,31.7503 26.3938,31.5443 26.4198,31.3193 C26.4478,31.0823 26.4058,30.8533 26.2948,30.6343 C26.1398,30.3603 25.9158,30.1713 25.6298,30.0713 C25.5288,30.0363 25.4228,30.0183 25.3158,30.0183 C25.1208,30.0183 24.9138,30.0773 24.7018,30.1923 L23.7308,30.7183 C23.6348,30.7713 23.5768,30.8433 23.5568,30.9373 C23.5368,31.0313 23.5508,31.1293 23.5998,31.2273 L24.9728,33.7573 C25.0168,33.8383 25.0898,33.8913 25.1878,33.9163 C25.2228,33.9253 25.2538,33.9293 25.2848,33.9303 L25.2888,33.9673 L25.2898,33.9673 L25.2898,33.9303 C25.3508,33.9303 25.4108,33.9143 25.4668,33.8843 C25.5558,33.8353 25.6178,33.7643 25.6488,33.6693 C25.6818,33.5743 25.6748,33.4843 25.6288,33.4013 L25.1748,32.5653 L25.4958,32.3913 L26.6538,33.0673 C26.6988,33.0923 26.7478,33.1063 26.8018,33.1063 C26.8348,33.1063 26.8738,33.1003 26.9108,33.0883 C27.0058,33.0603 27.0788,33.0053 27.1268,32.9233 C27.1798,32.8383 27.1968,32.7453 27.1738,32.6463 C27.1518,32.5493 27.0988,32.4773 27.0168,32.4333" id="Fill-28" fill="#231F20"></path>
                <path d="M28.7854,29.5053 L28.7834,29.4933 L28.5164,27.7493 C28.5004,27.6643 28.4504,27.5913 28.3674,27.5373 C28.2834,27.4813 28.1994,27.4603 28.1054,27.4733 C28.0134,27.4883 27.9334,27.5353 27.8704,27.6123 C27.8074,27.6893 27.7864,27.7693 27.8034,27.8563 L28.0904,29.3233 L26.6404,28.9823 C26.6214,28.9773 26.6004,28.9763 26.5804,28.9763 C26.5144,28.9763 26.4514,28.9993 26.3934,29.0423 C26.3144,29.1023 26.2654,29.1783 26.2474,29.2733 C26.2324,29.3623 26.2514,29.4513 26.3034,29.5353 C26.3564,29.6193 26.4264,29.6713 26.5134,29.6923 L28.2424,30.0163 L28.2504,30.0253 L29.1514,30.9563 C29.2104,31.0173 29.2884,31.0493 29.3824,31.0513 L29.4004,31.0513 C29.5024,31.0493 29.5904,31.0133 29.6604,30.9443 C29.7334,30.8743 29.7724,30.7893 29.7784,30.6883 C29.7834,30.5903 29.7524,30.5053 29.6854,30.4373 L28.7854,29.5053 Z" id="Fill-30" fill="#231F20"></path>
                <path d="M8.7986,12.9008 L8.7986,12.9378 L8.8076,12.9008 C8.8216,12.9008 8.8346,12.8998 8.8486,12.8988 C8.9516,12.8868 9.0356,12.8428 9.0996,12.7668 C9.1656,12.6898 9.1986,12.6008 9.1936,12.4998 C9.1886,12.4008 9.1506,12.3188 9.0776,12.2578 L7.6386,11.0288 L9.8866,11.4488 C10.0806,11.4828 10.2346,11.4378 10.3436,11.3108 L10.3876,11.2588 C10.4476,11.1898 10.4696,11.1058 10.4556,11.0088 C10.4426,10.9128 10.3966,10.8298 10.3196,10.7638 L8.0926,8.8618 C8.0196,8.7998 7.9336,8.7728 7.8346,8.7868 C7.7356,8.7978 7.6516,8.8428 7.5846,8.9208 C7.5206,8.9948 7.4896,9.0848 7.4936,9.1878 C7.4996,9.2898 7.5356,9.3708 7.6066,9.4308 L9.0256,10.6428 L6.8186,10.2228 C6.7746,10.2148 6.7326,10.2108 6.6936,10.2108 C6.5536,10.2108 6.4376,10.2648 6.3466,10.3698 L6.3016,10.4218 C6.2436,10.4898 6.2196,10.5768 6.2336,10.6758 C6.2456,10.7768 6.2936,10.8628 6.3726,10.9318 L8.5926,12.8268 C8.6506,12.8758 8.7206,12.9008 8.7986,12.9008" id="Fill-32" fill="#231F20"></path>
                <path d="M12.4798,6.1142 C12.5608,6.1542 12.6398,6.1602 12.7108,6.1352 L13.3728,5.8962 L14.2648,8.3572 C14.2948,8.4432 14.3588,8.5052 14.4538,8.5462 C14.5038,8.5682 14.5558,8.5782 14.6068,8.5782 L14.6068,8.6152 L14.6068,8.6152 L14.6118,8.5782 C14.6538,8.5782 14.6948,8.5712 14.7348,8.5562 C14.8298,8.5212 14.9018,8.4582 14.9468,8.3702 C14.9928,8.2812 14.9998,8.1922 14.9668,8.1022 L14.0738,5.6412 L14.7358,5.4012 C14.8078,5.3742 14.8638,5.3202 14.9008,5.2362 C14.9368,5.1542 14.9398,5.0712 14.9118,4.9922 C14.8808,4.9072 14.8258,4.8442 14.7498,4.8032 C14.6708,4.7632 14.5908,4.7592 14.5128,4.7872 L12.4888,5.5212 C12.4098,5.5502 12.3528,5.6052 12.3178,5.6842 C12.2848,5.7642 12.2828,5.8482 12.3148,5.9342 C12.3418,6.0132 12.3988,6.0732 12.4798,6.1142" id="Fill-34" fill="#231F20"></path>
                <path d="M16.6097,4.6947 C16.5937,4.6007 16.5437,4.5267 16.4607,4.4717 C16.3977,4.4307 16.3267,4.4087 16.2527,4.4087 C16.2307,4.4087 16.2077,4.4107 16.1827,4.4157 C16.0897,4.4307 16.0107,4.4797 15.9487,4.5607 C15.8857,4.6417 15.8607,4.7297 15.8727,4.8217 L16.3637,7.7337 C16.3807,7.8227 16.4317,7.8977 16.5157,7.9537 C16.5827,7.9967 16.6537,8.0187 16.7267,8.0187 L16.7267,8.0567 L16.7277,8.0567 L16.7337,8.0187 C16.7527,8.0187 16.7727,8.0177 16.7937,8.0147 C16.8927,7.9967 16.9747,7.9477 17.0347,7.8677 C17.0967,7.7897 17.1177,7.7027 17.1027,7.6087 L16.6097,4.6947 Z" id="Fill-36" fill="#231F20"></path>
                <path d="M18.9031,5.2143 C19.0951,5.0303 19.3291,4.9353 19.5951,4.9303 L19.6171,4.9303 C19.6401,4.9303 19.6641,4.9313 19.6891,4.9323 C19.9951,4.9513 20.2471,5.0773 20.4381,5.3083 C20.6301,5.5403 20.7181,5.8113 20.7001,6.1173 C20.6821,6.4223 20.5631,6.6793 20.3451,6.8823 C20.1451,7.0693 19.9051,7.1643 19.6321,7.1643 C19.6081,7.1643 19.5821,7.1633 19.5561,7.1623 C19.2521,7.1443 19.0001,7.0203 18.8101,6.7923 C18.6171,6.5643 18.5311,6.2943 18.5501,5.9893 C18.5681,5.6803 18.6871,5.4193 18.9031,5.2143 M19.5131,7.8873 C19.5581,7.8893 19.6031,7.8913 19.6471,7.8913 L19.6731,7.8913 C20.1111,7.8833 20.5041,7.7273 20.8391,7.4263 C21.2131,7.0913 21.4181,6.6653 21.4471,6.1603 C21.4761,5.6523 21.3241,5.2023 20.9961,4.8233 C20.6661,4.4433 20.2391,4.2363 19.7321,4.2073 C19.6921,4.2043 19.6511,4.2033 19.6111,4.2033 C19.1561,4.2033 18.7521,4.3603 18.4091,4.6703 C18.0371,5.0073 17.8341,5.4363 17.8031,5.9443 C17.7731,6.4493 17.9241,6.8973 18.2551,7.2743 C18.5851,7.6513 19.0071,7.8573 19.5131,7.8873" id="Fill-38" fill="#231F20"></path>
                <path d="M21.9983,8.2377 C22.0433,8.2547 22.0893,8.2627 22.1343,8.2627 C22.1833,8.2627 22.2323,8.2527 22.2813,8.2327 C22.3733,8.1947 22.4353,8.1297 22.4683,8.0407 L23.1223,6.2637 L23.5083,8.5187 C23.5423,8.7137 23.6393,8.8417 23.7963,8.8997 L23.8593,8.9227 C23.8943,8.9357 23.9303,8.9417 23.9663,8.9417 L23.9663,8.9787 L23.9663,8.9797 L23.9703,8.9417 C24.0193,8.9417 24.0683,8.9267 24.1183,8.9007 C24.2043,8.8547 24.2653,8.7817 24.3013,8.6857 L25.3113,5.9377 C25.3433,5.8477 25.3373,5.7587 25.2923,5.6697 C25.2473,5.5807 25.1753,5.5177 25.0813,5.4817 C24.9873,5.4477 24.8923,5.4497 24.7983,5.4907 C24.7053,5.5297 24.6413,5.5937 24.6083,5.6787 L23.9653,7.4317 L23.5923,5.2157 C23.5593,5.0177 23.4573,4.8857 23.2913,4.8247 L23.2273,4.8017 C23.1433,4.7697 23.0523,4.7767 22.9633,4.8237 C22.8743,4.8707 22.8103,4.9447 22.7733,5.0437 L21.7673,7.7827 C21.7353,7.8687 21.7433,7.9587 21.7893,8.0497 C21.8343,8.1407 21.9043,8.2037 21.9983,8.2377" id="Fill-40" fill="#231F20"></path>
                <path d="M30.5501,9.5394 C30.4901,9.4644 30.4091,9.4204 30.3071,9.4064 C30.2861,9.4044 30.2661,9.4024 30.2461,9.4024 C30.1711,9.4024 30.1031,9.4244 30.0431,9.4694 L27.7501,11.3394 C27.6801,11.3964 27.6371,11.4664 27.6241,11.5434 C27.6121,11.6224 27.6341,11.6974 27.6921,11.7674 L28.6441,12.9364 C28.6971,12.9954 28.7681,13.0304 28.8591,13.0364 C28.8701,13.0374 28.8831,13.0344 28.8931,13.0374 C28.9671,13.0354 29.0331,13.0124 29.0891,12.9664 C29.1571,12.9104 29.1981,12.8384 29.2121,12.7514 C29.2231,12.6644 29.2031,12.5874 29.1501,12.5224 L28.4831,11.7064 L28.5131,11.6814 L30.5181,10.0484 C30.5911,9.9874 30.6321,9.9074 30.6381,9.8084 C30.6441,9.7084 30.6151,9.6174 30.5501,9.5394" id="Fill-42" fill="#231F20"></path>
                <path d="M26.3353,8.7797 L27.5533,7.9007 L27.0633,9.3757 L26.2933,8.8097 L26.3353,8.7797 Z M24.8083,9.3647 C24.8673,9.4457 24.9453,9.4987 25.0433,9.5237 C25.1373,9.5477 25.2273,9.5347 25.3033,9.4867 L25.7633,9.1857 L25.7853,9.2007 L26.8633,9.9957 L26.7143,10.5227 C26.6903,10.6097 26.7053,10.6977 26.7573,10.7827 C26.8093,10.8667 26.8833,10.9257 26.9793,10.9577 C27.0133,10.9687 27.0483,10.9737 27.0823,10.9737 L27.0823,11.0117 L27.0863,10.9737 C27.1413,10.9727 27.1993,10.9567 27.2553,10.9257 C27.3483,10.8747 27.4093,10.8037 27.4363,10.7147 L28.2583,7.8297 C28.3243,7.5897 28.2563,7.3917 28.0533,7.2437 L28.0283,7.2257 C27.8273,7.0777 27.6183,7.0717 27.4093,7.2067 L24.9013,8.8567 C24.8253,8.9087 24.7753,8.9877 24.7553,9.0907 C24.7343,9.1937 24.7533,9.2857 24.8083,9.3647 L24.8083,9.3647 Z" id="Fill-44" fill="#231F20"></path>
                <path d="M11.1243,8.9345 L10.7053,7.4365 L11.9193,8.4075 L11.1243,8.9345 Z M10.8823,6.7515 C10.7793,6.6775 10.6733,6.6405 10.5673,6.6405 C10.4663,6.6405 10.3633,6.6745 10.2613,6.7405 L10.2353,6.7585 C10.0273,6.8965 9.9503,7.0905 10.0043,7.3335 L10.6873,10.2565 C10.7093,10.3465 10.7673,10.4195 10.8563,10.4745 C10.9173,10.5125 10.9813,10.5315 11.0443,10.5315 L11.0443,10.5695 L11.0503,10.5315 C11.0773,10.5305 11.1043,10.5265 11.1303,10.5195 C11.2283,10.4925 11.3053,10.4365 11.3613,10.3545 C11.4163,10.2725 11.4353,10.1865 11.4173,10.0975 L11.2923,9.5615 L11.3153,9.5475 L12.4303,8.8085 L12.8763,9.1315 C12.9293,9.1685 12.9923,9.1875 13.0593,9.1875 C13.0833,9.1875 13.1093,9.1855 13.1353,9.1815 C13.2303,9.1615 13.3133,9.1115 13.3763,9.0335 C13.4363,8.9565 13.4573,8.8665 13.4413,8.7615 C13.4253,8.6585 13.3803,8.5765 13.3053,8.5195 L10.8823,6.7515 Z" id="Fill-46" fill="#231F20"></path>
                <path d="M101.2679,1.9916 L24.7679,1.9916 C32.1779,4.5016 37.5289,11.5176 37.5289,19.7646 C37.5289,27.9496 32.2579,34.9226 24.9339,37.4816 L101.2679,37.4816 C111.0669,37.4816 119.0129,29.5366 119.0129,19.7366 C119.0129,9.9356 111.0669,1.9916 101.2679,1.9916" id="Fill-48" fill="#009DDA"></path>
                <path d="M46.1868,19.9384 C45.7238,19.9384 45.3078,19.7654 44.9808,19.4384 C44.6538,19.1104 44.4808,18.6934 44.4808,18.2324 L44.4808,10.0774 C44.4808,9.6334 44.6458,9.2334 44.9598,8.9184 C45.2728,8.6044 45.6748,8.4384 46.1188,8.4384 L47.7748,8.4384 C49.0188,8.4384 50.0418,8.8134 50.8178,9.5544 C51.6058,10.3074 52.0048,11.2464 52.0048,12.3434 C52.0048,13.4414 51.6048,14.3804 50.8178,15.1314 C50.0668,15.8484 49.0828,16.2234 47.8928,16.2464 L47.8928,18.2324 C47.8928,18.6934 47.7208,19.1094 47.3938,19.4384 C47.0648,19.7654 46.6478,19.9384 46.1868,19.9384" id="Fill-50" fill="#3E4DA0"></path>
                <path d="M55.4646,19.9384 C54.2456,19.9384 53.2016,19.5284 52.3586,18.7194 C51.5056,17.9004 51.0716,16.8774 51.0716,15.6814 C51.0716,14.4844 51.5056,13.4624 52.3586,12.6434 C53.2026,11.8344 54.2466,11.4234 55.4646,11.4234 C56.6826,11.4234 57.7266,11.8344 58.5696,12.6434 C59.4236,13.4624 59.8576,14.4854 59.8576,15.6814 C59.8576,16.8774 59.4236,17.8994 58.5696,18.7194 C57.7266,19.5284 56.6826,19.9384 55.4646,19.9384" id="Fill-52" fill="#3E4DA0"></path>
                <path d="M66.7483,19.9384 C66.1873,19.9384 65.7263,19.6214 65.5143,19.0884 L64.7393,17.1704 L63.9633,19.0924 C63.7503,19.6214 63.2893,19.9384 62.7313,19.9384 C62.2233,19.9384 61.7793,19.6574 61.5423,19.1874 L59.0703,13.6694 C58.9863,13.5014 58.9353,13.2724 58.9353,13.0214 C58.9353,12.5924 59.0903,12.2054 59.3833,11.9014 C59.6843,11.5894 60.0773,11.4234 60.5193,11.4234 C61.2023,11.4234 61.7393,11.7744 61.9933,12.3854 L62.7293,14.1754 L63.5093,12.2784 C63.7093,11.7514 64.1733,11.4234 64.7393,11.4234 C65.3063,11.4234 65.7693,11.7514 65.9783,12.3014 L66.7493,14.1754 L67.4853,12.3864 C67.7393,11.7744 68.2753,11.4234 68.9593,11.4234 C69.3993,11.4234 69.7923,11.5894 70.0943,11.8994 C70.3883,12.2054 70.5443,12.5924 70.5443,13.0214 C70.5443,13.2724 70.4923,13.5014 70.3943,13.7024 L67.9523,19.1514 C67.6993,19.6574 67.2563,19.9384 66.7483,19.9384" id="Fill-54" fill="#3E4DA0"></path>
                <path d="M74.0276,19.9384 C72.8116,19.9384 71.7656,19.5314 70.9196,18.7304 C70.0566,17.9154 69.6216,16.8904 69.6216,15.6814 C69.6216,14.4974 70.0476,13.4804 70.8866,12.6574 C71.7226,11.8384 72.7426,11.4234 73.9196,11.4234 C75.0606,11.4234 76.0556,11.8164 76.8766,12.5914 C77.6956,13.3634 78.1466,14.3304 78.2146,15.4624 C78.2396,15.8354 78.1096,16.2054 77.8506,16.5004 C77.7966,16.5624 77.7366,16.6184 77.6736,16.6694 C77.7626,16.8754 77.8096,17.0994 77.8096,17.3374 C77.8096,17.7304 77.6716,18.0984 77.4086,18.4004 C76.5106,19.4224 75.3746,19.9384 74.0276,19.9384" id="Fill-56" fill="#3E4DA0"></path>
                <path d="M79.7132,19.9384 C79.2692,19.9384 78.8682,19.7734 78.5552,19.4594 C78.2402,19.1464 78.0742,18.7454 78.0742,18.3004 L78.0742,13.0634 C78.0742,12.6184 78.2402,12.2174 78.5552,11.9034 C78.8692,11.5894 79.2692,11.4234 79.7132,11.4234 C80.0872,11.4234 80.4312,11.5424 80.7192,11.7684 C81.1382,11.5404 81.6052,11.4234 82.1022,11.4234 C82.3592,11.4234 82.5842,11.4424 82.7872,11.4814 C83.1732,11.5664 83.4842,11.7504 83.7122,12.0214 C83.9512,12.3054 84.0782,12.6504 84.0782,13.0214 C84.0782,13.4464 83.9212,13.8314 83.6202,14.1304 C83.3182,14.4334 82.9352,14.5914 82.5082,14.5914 C82.4182,14.5914 82.3102,14.5814 82.0682,14.5334 C81.8862,14.4994 81.7092,14.4484 81.5422,14.6574 C81.4122,14.8184 81.3512,15.0094 81.3512,15.2604 L81.3512,18.3004 C81.3512,18.7454 81.1852,19.1464 80.8712,19.4594 C80.5572,19.7734 80.1562,19.9384 79.7132,19.9384" id="Fill-58" fill="#3E4DA0"></path>
                <path d="M87.2601,19.7763 L85.2801,19.7763 C84.8451,19.7763 84.4531,19.6153 84.1491,19.3103 C83.8431,19.0053 83.6811,18.6143 83.6811,18.1783 L83.6811,10.0363 C83.6811,9.6063 83.8371,9.2183 84.1301,8.9153 C84.4331,8.6033 84.8251,8.4393 85.2651,8.4393 L86.8941,8.4393 C88.0671,8.4393 89.0181,8.7333 89.7231,9.3133 C90.4711,9.9293 90.8651,10.7523 90.8651,11.6923 C90.8651,12.3633 90.6901,12.9663 90.3441,13.4843 C90.3171,13.5263 90.2871,13.5683 90.2571,13.6093 C90.4281,13.7513 90.5821,13.9093 90.7181,14.0843 C91.1861,14.6813 91.4231,15.3973 91.4231,16.2103 C91.4231,17.2513 91.0131,18.1513 90.2391,18.8153 C89.4971,19.4523 88.4941,19.7763 87.2601,19.7763" id="Fill-60" fill="#3E4DA0"></path>
                <path d="M98.2952,19.9384 C97.8622,19.9384 97.4712,19.7814 97.1612,19.4844 C96.5982,19.7864 95.9472,19.9384 95.2142,19.9384 C94.0582,19.9384 93.0622,19.5214 92.2522,18.7004 C91.4472,17.8834 91.0382,16.8684 91.0382,15.6814 C91.0382,14.4954 91.4472,13.4794 92.2522,12.6624 C93.0622,11.8404 94.0582,11.4234 95.2142,11.4234 C95.9472,11.4234 96.5992,11.5764 97.1622,11.8784 C97.7872,11.2754 98.8342,11.2844 99.4522,11.9034 C99.7672,12.2164 99.9332,12.6174 99.9332,13.0634 L99.9332,18.3004 C99.9332,18.7454 99.7672,19.1464 99.4522,19.4594 C99.1402,19.7724 98.7382,19.9384 98.2952,19.9384" id="Fill-62" fill="#3E4DA0"></path>
                <path d="M101.9251,19.9384 C101.4821,19.9384 101.0801,19.7734 100.7671,19.4594 C100.4511,19.1464 100.2861,18.7454 100.2861,18.3004 L100.2861,9.2354 C100.2861,8.7924 100.4511,8.3924 100.7651,8.0784 C101.3961,7.4484 102.4541,7.4494 103.0821,8.0754 C103.3971,8.3924 103.5621,8.7924 103.5621,9.2354 L103.5621,18.3004 C103.5621,18.7454 103.3971,19.1464 103.0821,19.4594 C102.7681,19.7734 102.3681,19.9384 101.9251,19.9384" id="Fill-64" fill="#3E4DA0"></path>
                <path d="M105.5823,19.9384 C105.1393,19.9384 104.7383,19.7734 104.4243,19.4594 C104.1083,19.1464 103.9433,18.7454 103.9433,18.3004 L103.9433,9.2354 C103.9433,8.7924 104.1083,8.3924 104.4223,8.0784 C105.0533,7.4484 106.1113,7.4494 106.7393,8.0754 C107.0543,8.3924 107.2203,8.7924 107.2203,9.2354 L107.2203,18.3004 C107.2203,18.7454 107.0543,19.1464 106.7393,19.4594 C106.4253,19.7734 106.0253,19.9384 105.5823,19.9384" id="Fill-66" fill="#3E4DA0"></path>
                <path d="M46.9739,10.7968 L46.9739,13.8908 L47.7339,13.8908 C48.2589,13.8908 48.6849,13.7528 49.0159,13.4768 C49.3469,13.1998 49.5119,12.8228 49.5119,12.3428 C49.5119,11.8638 49.3469,11.4868 49.0159,11.2108 C48.6849,10.9338 48.2589,10.7968 47.7339,10.7968 L46.9739,10.7968 Z M45.3999,18.2328 L45.3999,10.0778 C45.3999,9.8788 45.4699,9.7088 45.6099,9.5678 C45.7499,9.4278 45.9199,9.3578 46.1189,9.3578 L47.7739,9.3578 C48.7789,9.3578 49.5809,9.6458 50.1829,10.2188 C50.7849,10.7948 51.0849,11.5018 51.0849,12.3428 C51.0849,13.1848 50.7849,13.8928 50.1829,14.4668 C49.5809,15.0408 48.7789,15.3288 47.7739,15.3288 L46.9739,15.3288 L46.9739,18.2328 C46.9739,18.4498 46.8969,18.6348 46.7439,18.7888 C46.5889,18.9428 46.4039,19.0198 46.1869,19.0198 C45.9709,19.0198 45.7839,18.9428 45.6299,18.7888 C45.4759,18.6348 45.3999,18.4498 45.3999,18.2328 L45.3999,18.2328 Z" id="Fill-68" fill="#FFFFFF"></path>
                <path d="M54.012,14.2426 C53.623,14.6236 53.428,15.1026 53.428,15.6816 C53.428,16.2616 53.623,16.7396 54.012,17.1196 C54.402,17.4996 54.886,17.6896 55.465,17.6896 C56.043,17.6896 56.527,17.4996 56.916,17.1196 C57.305,16.7396 57.5,16.2616 57.5,15.6816 C57.5,15.1026 57.305,14.6236 56.916,14.2426 C56.527,13.8636 56.043,13.6726 55.465,13.6726 C54.886,13.6726 54.402,13.8636 54.012,14.2426 M52.994,18.0556 C52.325,17.4136 51.99,16.6226 51.99,15.6816 C51.99,14.7406 52.325,13.9496 52.994,13.3056 C53.663,12.6636 54.488,12.3436 55.465,12.3436 C56.442,12.3436 57.264,12.6636 57.934,13.3056 C58.603,13.9496 58.937,14.7406 58.937,15.6816 C58.937,16.6226 58.603,17.4136 57.934,18.0556 C57.264,18.6986 56.442,19.0186 55.465,19.0186 C54.488,19.0186 53.663,18.6986 52.994,18.0556" id="Fill-70" fill="#FFFFFF"></path>
                <path d="M64.7395,14.7177 L63.1105,18.7487 C63.0385,18.9287 62.9115,19.0197 62.7305,19.0197 C62.5675,19.0197 62.4465,18.9387 62.3645,18.7757 L59.9075,13.2937 C59.8725,13.2207 59.8545,13.1297 59.8545,13.0217 C59.8545,12.8317 59.9175,12.6717 60.0445,12.5397 C60.1705,12.4087 60.3295,12.3427 60.5185,12.3427 C60.8265,12.3427 61.0355,12.4747 61.1435,12.7377 L62.7305,16.5907 L64.3595,12.6287 C64.4315,12.4377 64.5575,12.3427 64.7395,12.3427 C64.9205,12.3427 65.0475,12.4377 65.1195,12.6287 L66.7485,16.5907 L68.3345,12.7377 C68.4435,12.4747 68.6515,12.3427 68.9605,12.3427 C69.1495,12.3427 69.3075,12.4087 69.4345,12.5397 C69.5615,12.6717 69.6245,12.8317 69.6245,13.0217 C69.6245,13.1297 69.6055,13.2207 69.5705,13.2937 L67.1145,18.7757 C67.0325,18.9387 66.9105,19.0197 66.7485,19.0197 C66.5675,19.0197 66.4395,18.9287 66.3685,18.7487 L64.7395,14.7177 Z" id="Fill-72" fill="#FFFFFF"></path>
                <path d="M72.0872,15.0033 L75.8322,15.0033 C75.7332,14.5683 75.5102,14.2383 75.1672,14.0123 C74.8232,13.7863 74.4112,13.6723 73.9322,13.6723 C73.5432,13.6723 73.1722,13.7933 72.8192,14.0323 C72.4672,14.2723 72.2222,14.5963 72.0872,15.0033 M74.0272,19.0193 C73.0502,19.0193 72.2242,18.7013 71.5502,18.0623 C70.8772,17.4253 70.5402,16.6303 70.5402,15.6813 C70.5402,14.7493 70.8702,13.9603 71.5292,13.3143 C72.1912,12.6673 72.9862,12.3423 73.9192,12.3423 C74.8232,12.3423 75.5992,12.6483 76.2462,13.2593 C76.8932,13.8693 77.2422,14.6233 77.2972,15.5193 C77.3062,15.6533 77.2622,15.7793 77.1622,15.8923 C77.0622,16.0053 76.9312,16.0623 76.7682,16.0623 L72.0052,16.0623 C72.0872,16.5773 72.3242,16.9773 72.7182,17.2623 C73.1112,17.5473 73.5572,17.6893 74.0552,17.6893 C74.6962,17.6893 75.2302,17.4313 75.6552,16.9163 C75.7912,16.7353 75.9722,16.6453 76.1982,16.6453 C76.3972,16.6453 76.5632,16.7103 76.6932,16.8413 C76.8242,16.9733 76.8912,17.1383 76.8912,17.3373 C76.8912,17.5083 76.8312,17.6633 76.7142,17.7973 C76.0002,18.6123 75.1042,19.0193 74.0272,19.0193" id="Fill-74" fill="#FFFFFF"></path>
                <path d="M80.4319,13.0624 L80.4319,13.1974 C80.8849,12.6284 81.4409,12.3434 82.1009,12.3434 C82.2999,12.3434 82.4729,12.3574 82.6169,12.3844 C82.7809,12.4204 82.9109,12.4974 83.0099,12.6144 C83.1099,12.7324 83.1599,12.8684 83.1599,13.0214 C83.1599,13.2034 83.0959,13.3554 82.9699,13.4834 C82.8429,13.6094 82.6899,13.6724 82.5079,13.6724 C82.4729,13.6724 82.3859,13.6594 82.2499,13.6324 C82.1059,13.6054 81.9649,13.5914 81.8289,13.5914 C81.4219,13.5914 81.0869,13.7544 80.8269,14.0804 C80.5629,14.4064 80.4319,14.7994 80.4319,15.2604 L80.4319,18.3004 C80.4319,18.4994 80.3619,18.6694 80.2219,18.8094 C80.0809,18.9494 79.9109,19.0194 79.7129,19.0194 C79.5129,19.0194 79.3439,18.9494 79.2029,18.8094 C79.0639,18.6694 78.9939,18.4994 78.9939,18.3004 L78.9939,13.0624 C78.9939,12.8634 79.0639,12.6934 79.2029,12.5544 C79.3439,12.4144 79.5129,12.3434 79.7129,12.3434 C79.9109,12.3434 80.0809,12.4144 80.2219,12.5544 C80.3619,12.6934 80.4319,12.8634 80.4319,13.0624" id="Fill-76" fill="#FFFFFF"></path>
                <path d="M86.1741,14.4877 L86.1741,17.4997 L87.0981,17.4997 C87.6661,17.4997 88.1151,17.3617 88.4411,17.0857 C88.7671,16.8097 88.9291,16.4457 88.9291,15.9937 C88.9291,15.5417 88.7671,15.1767 88.4411,14.9017 C88.1151,14.6257 87.6661,14.4877 87.0981,14.4877 L86.1741,14.4877 Z M86.1741,10.7147 L86.1741,13.1297 L86.9061,13.1297 C87.4031,13.1297 87.7781,13.0187 88.0271,12.7987 C88.2761,12.5757 88.4001,12.2847 88.4001,11.9227 C88.4001,11.5607 88.2761,11.2687 88.0271,11.0467 C87.7781,10.8257 87.4031,10.7147 86.9061,10.7147 L86.1741,10.7147 Z M84.6011,18.1777 L84.6011,10.0367 C84.6011,9.8457 84.6631,9.6857 84.7901,9.5547 C84.9161,9.4237 85.0751,9.3577 85.2651,9.3577 L86.8941,9.3577 C87.8521,9.3577 88.6011,9.5797 89.1391,10.0237 C89.6771,10.4667 89.9461,11.0227 89.9461,11.6917 C89.9461,12.1797 89.8251,12.6077 89.5801,12.9737 C89.3361,13.3407 88.9791,13.6047 88.5081,13.7677 C89.1591,13.9227 89.6541,14.2157 89.9941,14.6507 C90.3331,15.0847 90.5021,15.6047 90.5021,16.2107 C90.5021,16.9887 90.2161,17.6247 89.6411,18.1177 C89.0681,18.6107 88.2731,18.8577 87.2601,18.8577 L85.2791,18.8577 C85.0881,18.8577 84.9291,18.7907 84.7961,18.6607 C84.6661,18.5297 84.6011,18.3677 84.6011,18.1777 L84.6011,18.1777 Z" id="Fill-78" fill="#FFFFFF"></path>
                <path d="M96.9241,17.1605 C97.3301,16.7535 97.5351,16.2605 97.5351,15.6815 C97.5351,15.1025 97.3301,14.6115 96.9241,14.2095 C96.5171,13.8065 96.0281,13.6055 95.4581,13.6055 C94.8891,13.6055 94.4001,13.8065 93.9931,14.2095 C93.5861,14.6115 93.3821,15.1025 93.3821,15.6815 C93.3821,16.2605 93.5861,16.7515 93.9931,17.1535 C94.4001,17.5565 94.8891,17.7575 95.4581,17.7575 C96.0281,17.7575 96.5171,17.5585 96.9241,17.1605 M97.5751,13.4015 L97.5751,13.0625 C97.5751,12.8635 97.6461,12.6935 97.7851,12.5535 C97.9251,12.4135 98.0961,12.3435 98.2951,12.3435 C98.4941,12.3435 98.6631,12.4135 98.8031,12.5535 C98.9451,12.6935 99.0141,12.8635 99.0141,13.0625 L99.0141,18.3005 C99.0141,18.4995 98.9451,18.6695 98.8031,18.8085 C98.6631,18.9495 98.4941,19.0185 98.2951,19.0185 C98.0961,19.0185 97.9251,18.9495 97.7851,18.8085 C97.6461,18.6695 97.5751,18.4995 97.5751,18.3005 L97.5751,17.9605 C97.0051,18.6665 96.2181,19.0185 95.2151,19.0185 C94.3101,19.0185 93.5401,18.6985 92.9071,18.0555 C92.2751,17.4135 91.9581,16.6215 91.9581,15.6815 C91.9581,14.7405 92.2751,13.9495 92.9071,13.3065 C93.5401,12.6645 94.3101,12.3435 95.2151,12.3435 C96.2181,12.3435 97.0051,12.6965 97.5751,13.4015" id="Fill-80" fill="#FFFFFF"></path>
                <path d="M101.2054,18.2997 L101.2054,9.2367 C101.2054,9.0367 101.2754,8.8677 101.4154,8.7267 C101.5564,8.5877 101.7254,8.5167 101.9254,8.5167 C102.1244,8.5167 102.2934,8.5877 102.4334,8.7267 C102.5734,8.8677 102.6434,9.0367 102.6434,9.2367 L102.6434,18.2997 C102.6434,18.4997 102.5734,18.6697 102.4334,18.8087 C102.2934,18.9487 102.1244,19.0197 101.9254,19.0197 C101.7254,19.0197 101.5564,18.9487 101.4154,18.8087 C101.2754,18.6697 101.2054,18.4997 101.2054,18.2997" id="Fill-82" fill="#FFFFFF"></path>
                <path d="M104.8626,18.2997 L104.8626,9.2367 C104.8626,9.0367 104.9326,8.8677 105.0726,8.7267 C105.2136,8.5877 105.3826,8.5167 105.5826,8.5167 C105.7816,8.5167 105.9506,8.5877 106.0906,8.7267 C106.2306,8.8677 106.3006,9.0367 106.3006,9.2367 L106.3006,18.2997 C106.3006,18.4997 106.2306,18.6697 106.0906,18.8087 C105.9506,18.9487 105.7816,19.0197 105.5826,19.0197 C105.3826,19.0197 105.2136,18.9487 105.0726,18.8087 C104.9326,18.6697 104.8626,18.4997 104.8626,18.2997" id="Fill-84" fill="#FFFFFF"></path>
                <path d="M46.9739,23.8617 L46.9739,26.9557 L47.7339,26.9557 C48.2589,26.9557 48.6849,26.8187 49.0159,26.5427 C49.3469,26.2647 49.5119,25.8887 49.5119,25.4087 C49.5119,24.9287 49.3469,24.5517 49.0159,24.2747 C48.6849,23.9997 48.2589,23.8617 47.7339,23.8617 L46.9739,23.8617 Z M45.3999,31.2987 L45.3999,23.1427 C45.3999,22.9437 45.4699,22.7747 45.6099,22.6337 C45.7499,22.4937 45.9199,22.4237 46.1189,22.4237 L47.7739,22.4237 C48.7789,22.4237 49.5809,22.7117 50.1829,23.2847 C50.7849,23.8597 51.0849,24.5677 51.0849,25.4087 C51.0849,26.2497 50.7849,26.9587 50.1829,27.5317 C49.5809,28.1067 48.7789,28.3947 47.7739,28.3947 L46.9739,28.3947 L46.9739,31.2987 C46.9739,31.5147 46.8969,31.7007 46.7439,31.8537 C46.5889,32.0077 46.4039,32.0857 46.1869,32.0857 C45.9709,32.0857 45.7839,32.0077 45.6299,31.8537 C45.4759,31.7007 45.3999,31.5147 45.3999,31.2987 L45.3999,31.2987 Z" id="Fill-86" fill="#FFFFFF"></path>
                <path d="M53.8313,31.1347 L53.8313,23.0487 C53.8313,22.8307 53.9073,22.6457 54.0603,22.4907 C54.2143,22.3377 54.4013,22.2607 54.6183,22.2607 C54.8353,22.2607 55.0193,22.3377 55.1743,22.4907 C55.3273,22.6457 55.4043,22.8307 55.4043,23.0487 L55.4043,30.4297 L58.3353,30.4297 C58.5353,30.4297 58.7093,30.5017 58.8583,30.6467 C59.0073,30.7917 59.0813,30.9677 59.0813,31.1757 C59.0813,31.3847 59.0073,31.5607 58.8583,31.7047 C58.7093,31.8497 58.5353,31.9227 58.3353,31.9227 L54.6183,31.9227 C54.4013,31.9227 54.2143,31.8447 54.0603,31.6917 C53.9073,31.5367 53.8313,31.3517 53.8313,31.1347" id="Fill-88" fill="#FFFFFF"></path>
                <path d="M66.5208,28.557 L66.5208,23.048 C66.5208,22.831 66.5968,22.645 66.7508,22.491 C66.9058,22.337 67.0908,22.261 67.3078,22.261 C67.5258,22.261 67.7098,22.337 67.8638,22.491 C68.0178,22.645 68.0948,22.831 68.0948,23.048 L68.0948,28.557 C68.0948,29.633 67.7628,30.491 67.0968,31.128 C66.4328,31.766 65.6338,32.085 64.7028,32.085 C63.7708,32.085 62.9728,31.766 62.3088,31.128 C61.6418,30.491 61.3098,29.633 61.3098,28.557 L61.3098,23.048 C61.3098,22.831 61.3868,22.645 61.5408,22.491 C61.6948,22.337 61.8788,22.261 62.0968,22.261 C62.3138,22.261 62.4998,22.337 62.6548,22.491 C62.8078,22.645 62.8848,22.831 62.8848,23.048 L62.8848,28.557 C62.8848,29.217 63.0488,29.722 63.3798,30.069 C63.7088,30.418 64.1508,30.592 64.7028,30.592 C65.2538,30.592 65.6948,30.418 66.0258,30.069 C66.3558,29.722 66.5208,29.217 66.5208,28.557" id="Fill-90" fill="#FFFFFF"></path>
                <path d="M74.6429,26.0731 C75.4949,26.4271 76.1169,26.8591 76.5099,27.3691 C76.9039,27.8811 77.0999,28.5081 77.0999,29.2491 C77.0999,30.0451 76.8309,30.7161 76.2929,31.2631 C75.7539,31.8111 75.0049,32.0851 74.0469,32.0851 C73.4409,32.0851 72.8729,31.9381 72.3429,31.6441 C71.8149,31.3491 71.3859,30.9501 71.0609,30.4431 C70.9799,30.3161 70.9389,30.1851 70.9389,30.0491 C70.9389,29.8601 71.0089,29.6941 71.1489,29.5541 C71.2889,29.4141 71.4549,29.3441 71.6459,29.3441 C71.8889,29.3441 72.0829,29.4471 72.2289,29.6551 C72.6889,30.2811 73.3049,30.5921 74.0739,30.5921 C74.4809,30.5921 74.8249,30.4521 75.1059,30.1721 C75.3859,29.8911 75.5259,29.5651 75.5259,29.1951 C75.5259,28.7871 75.3969,28.4411 75.1389,28.1561 C74.8809,27.8721 74.4159,27.5851 73.7469,27.2951 C73.0059,26.9691 72.4539,26.5921 72.0929,26.1611 C71.7319,25.7331 71.5499,25.2001 71.5499,24.5681 C71.5499,23.9251 71.7859,23.3791 72.2539,22.9321 C72.7259,22.4851 73.3319,22.2601 74.0739,22.2601 C74.9329,22.2601 75.6389,22.5991 76.1909,23.2781 C76.3349,23.4601 76.4079,23.6261 76.4079,23.7811 C76.4079,23.9611 76.3399,24.1161 76.2049,24.2481 C76.0689,24.3801 75.9099,24.4451 75.7299,24.4451 C75.5299,24.4451 75.3529,24.3601 75.1999,24.1871 C74.9369,23.8981 74.5929,23.7531 74.1679,23.7531 C73.8419,23.7531 73.5869,23.8341 73.4019,23.9971 C73.2169,24.1591 73.1229,24.3731 73.1229,24.6351 C73.1229,24.9431 73.2319,25.2001 73.4499,25.4091 C73.6659,25.6161 74.0649,25.8391 74.6429,26.0731" id="Fill-92" fill="#FFFFFF"></path>
                <path d="M95.4769,14.7924 C94.9769,14.7924 94.5709,15.1974 94.5709,15.6974 C94.5709,16.1974 94.9769,16.6034 95.4769,16.6034 C95.9759,16.6034 96.3809,16.1974 96.3809,15.6974 C96.3809,15.1974 95.9759,14.7924 95.4769,14.7924" id="Fill-94" fill="#FFFFFF"></path>
                <path d="M55.4637,14.7753 C54.9637,14.7753 54.5587,15.1813 54.5587,15.6803 C54.5587,16.1803 54.9637,16.5873 55.4637,16.5873 C55.9637,16.5873 56.3697,16.1803 56.3697,15.6803 C56.3697,15.1813 55.9637,14.7753 55.4637,14.7753" id="Fill-96" fill="#FFFFFF"></path>
            </g>
        </g>
    </g>
</svg>