<?xml version="1.0" encoding="UTF-8"?>
<svg width="120px" height="38px" viewBox="0 0 120 38" version="1.1" xmlns="http://www.w3.org/2000/svg" xmlns:xlink="http://www.w3.org/1999/xlink">
    <!-- Generator: Sketch 47.1 (45422) - http://www.bohemiancoding.com/sketch -->
    <title>Powerball</title>
    <desc>Created with Sketch.</desc>
    <defs></defs>
    <g id="Powerball" stroke="none" stroke-width="1" fill="none" fill-rule="evenodd">
        <g id="1440-Powerball-1" transform="translate(-472.000000, -456.000000)">
            <g id="Powerball" transform="translate(472.000000, 456.000000)">
                <path d="M101.2672,0.0044 C101.2672,0.0044 18.8172,0.0004 18.7642,0.0004 C8.4172,0.0004 0.0002,8.4184 0.0002,18.7634 C0.0002,29.1114 8.4172,37.5284 18.7642,37.5284 C19.2472,37.5284 101.2672,37.4674 101.2672,37.4674 C111.5962,37.4674 119.9992,29.0654 119.9992,18.7364 C119.9992,8.4074 111.5962,0.0044 101.2672,0.0044" id="Fill-1" fill="#FFFFFF"></path>
                <path d="M18.7984,1.02 C28.5984,1.02 36.5434,8.964 36.5434,18.765 C36.5434,28.565 28.5984,36.51 18.7984,36.51 C8.9984,36.51 1.0534,28.565 1.0534,18.765 C1.0534,8.964 8.9984,1.02 18.7984,1.02" id="Fill-3" fill="#FFFFFF"></path>
                <path d="M36.5435,18.7651 C36.5435,8.9651 28.5985,1.0201 18.7985,1.0201 C8.9985,1.0201 1.0535,8.9651 1.0535,18.7651 C1.0535,28.5651 8.9985,36.5101 18.7985,36.5101 C28.5985,36.5101 36.5435,28.5651 36.5435,18.7651" id="Fill-5" fill="#FADA19"></path>
                <path d="M20.0338,23.8833 C19.7028,23.5533 19.2648,23.3723 18.7988,23.3723 C18.3318,23.3723 17.8928,23.5533 17.5628,23.8833 L14.5518,26.8933 C14.5008,26.9463 14.4418,26.9983 14.3828,27.0483 C15.6988,27.7513 17.2008,28.1543 18.7988,28.1543 C20.3948,28.1543 21.8978,27.7513 23.2148,27.0483 C23.1538,26.9983 23.0968,26.9463 23.0448,26.8943 L20.0338,23.8833 Z" id="Fill-7" fill="#009DDA"></path>
                <path d="M23.9166,17.5293 C23.2346,18.2113 23.2346,19.3193 23.9166,20.0013 L26.9266,23.0103 C26.9796,23.0633 27.0306,23.1203 27.0816,23.1813 C27.7846,21.8643 28.1876,20.3623 28.1876,18.7643 C28.1876,17.1683 27.7846,15.6653 27.0816,14.3483 C27.0306,14.4093 26.9796,14.4663 26.9266,14.5193 L23.9166,17.5293 Z" id="Fill-9" fill="#00A66A"></path>
                <path d="M13.6803,20.0004 C14.3613,19.3184 14.3613,18.2114 13.6803,17.5294 L10.6693,14.5194 C10.6173,14.4664 10.5663,14.4094 10.5143,14.3494 C9.8123,15.6654 9.4093,17.1674 9.4093,18.7654 C9.4093,20.3614 9.8123,21.8644 10.5143,23.1814 C10.5663,23.1204 10.6173,23.0634 10.6693,23.0114 L13.6803,20.0004 Z" id="Fill-11" fill="#ED3342"></path>
                <path d="M24.9859,26.4399 C24.6049,26.4399 24.2239,26.2949 23.9339,26.0029 L18.7989,20.8679 L13.6629,26.0029 C13.0819,26.5849 12.1399,26.5849 11.5589,26.0029 C10.9779,25.4229 10.9779,24.4819 11.5589,23.8999 L16.6949,18.7649 L11.5589,13.6289 C10.9779,13.0489 10.9779,12.1069 11.5589,11.5259 C12.1399,10.9449 13.0819,10.9449 13.6629,11.5259 L18.7989,16.6619 L23.9339,11.5259 C24.5149,10.9449 25.4559,10.9449 26.0359,11.5259 C26.6189,12.1069 26.6189,13.0489 26.0359,13.6289 L20.9019,18.7649 L26.0359,23.8999 C26.6189,24.4819 26.6189,25.4229 26.0359,26.0029 C25.7469,26.2949 25.3659,26.4399 24.9859,26.4399" id="Fill-13" fill="#231F20"></path>
                <path d="M20.9503,11.645 C20.9503,10.477 20.0033,9.529 18.8333,9.529 C17.6653,9.529 16.7183,10.477 16.7183,11.645 C16.7183,12.813 17.6653,13.761 18.8333,13.761 C20.0033,13.761 20.9503,12.813 20.9503,11.645" id="Fill-15" fill="#231F20"></path>
                <path d="M7.7745,28.8046 L7.8015,28.7796 L9.6925,27.0256 C9.7625,26.9596 9.7975,26.8776 9.7975,26.7786 C9.7975,26.6796 9.7625,26.5906 9.6925,26.5156 C9.6285,26.4456 9.5445,26.4076 9.4425,26.3996 C9.3435,26.3916 9.2535,26.4206 9.1845,26.4796 L7.0195,28.4866 C6.9525,28.5486 6.9155,28.6206 6.9065,28.6996 C6.8995,28.7776 6.9275,28.8506 6.9885,28.9176 L8.0115,30.0196 C8.0595,30.0676 8.1095,30.0896 8.1895,30.1036 C8.3135,30.1186 8.4065,30.0686 8.4565,30.0216 C8.5205,29.9616 8.5575,29.8876 8.5645,29.8006 C8.5715,29.7126 8.5455,29.6376 8.4885,29.5756 L7.7745,28.8046 Z" id="Fill-17" fill="#231F20"></path>
                <path d="M12.149,30.8803 C11.983,31.1353 11.751,31.2983 11.462,31.3663 C11.378,31.3853 11.296,31.3963 11.214,31.3963 C11.015,31.3963 10.82,31.3343 10.64,31.2163 C10.385,31.0493 10.23,30.8163 10.178,30.5243 C10.127,30.2333 10.184,29.9563 10.352,29.7003 C10.52,29.4433 10.753,29.2773 11.042,29.2063 C11.127,29.1863 11.212,29.1753 11.295,29.1753 L11.313,29.1753 C11.503,29.1793 11.688,29.2383 11.862,29.3533 C12.118,29.5213 12.272,29.7553 12.323,30.0503 C12.376,30.3463 12.316,30.6253 12.149,30.8803 M12.26,28.7473 C11.957,28.5473 11.628,28.4453 11.286,28.4453 C11.156,28.4453 11.021,28.4603 10.886,28.4903 C10.397,28.5973 10.007,28.8663 9.729,29.2923 C9.452,29.7133 9.361,30.1763 9.458,30.6663 C9.556,31.1563 9.82,31.5463 10.242,31.8223 C10.539,32.0173 10.858,32.1193 11.19,32.1253 L11.221,32.1253 C11.351,32.1253 11.483,32.1113 11.617,32.0833 C12.107,31.9783 12.496,31.7113 12.773,31.2903 C13.051,30.8643 13.144,30.4003 13.047,29.9083 C12.949,29.4163 12.685,29.0263 12.26,28.7473" id="Fill-19" fill="#231F20"></path>
                <path d="M16.2643,30.5234 L14.2143,29.8874 C14.1843,29.8784 14.1543,29.8734 14.1263,29.8734 C14.0763,29.8734 14.0263,29.8874 13.9793,29.9154 C13.9043,29.9584 13.8523,30.0244 13.8253,30.1104 C13.8003,30.1904 13.8073,30.2724 13.8483,30.3534 C13.8893,30.4344 13.9473,30.4874 14.0203,30.5104 L14.6903,30.7174 L14.6773,30.7534 L13.9143,33.2114 C13.8883,33.2984 13.8993,33.3874 13.9513,33.4754 C14.0013,33.5644 14.0743,33.6244 14.1683,33.6544 C14.2043,33.6654 14.2423,33.6714 14.2813,33.6724 L14.2853,33.7094 L14.2853,33.6724 C14.3423,33.6724 14.3973,33.6594 14.4493,33.6334 C14.5393,33.5914 14.5983,33.5234 14.6283,33.4334 L15.4023,30.9384 L16.0713,31.1464 C16.1433,31.1684 16.2223,31.1574 16.3013,31.1154 C16.3813,31.0714 16.4333,31.0084 16.4583,30.9284 C16.4853,30.8404 16.4793,30.7574 16.4423,30.6794 C16.4043,30.6004 16.3463,30.5484 16.2643,30.5234" id="Fill-21" fill="#231F20"></path>
                <path d="M19.4395,30.7739 L17.2855,30.6969 C17.2025,30.6969 17.1335,30.7259 17.0745,30.7849 C17.0135,30.8469 16.9815,30.9239 16.9775,31.0159 C16.9745,31.0979 17.0035,31.1739 17.0645,31.2419 C17.1245,31.3109 17.1935,31.3449 17.2705,31.3479 L17.9705,31.3739 L17.9695,31.4119 L17.8775,33.9839 C17.8735,34.0739 17.9095,34.1579 17.9805,34.2289 C18.0535,34.3009 18.1395,34.3399 18.2375,34.3429 L18.2545,34.3809 L18.2555,34.3809 L18.2555,34.3429 C18.3495,34.3429 18.4335,34.3119 18.5045,34.2509 C18.5805,34.1859 18.6205,34.1049 18.6235,34.0099 L18.7155,31.3999 L18.7545,31.4009 L19.4225,31.4249 L19.4235,31.4249 C19.5005,31.4249 19.5685,31.3949 19.6305,31.3339 C19.6955,31.2699 19.7295,31.1949 19.7315,31.1119 C19.7345,31.0219 19.7085,30.9419 19.6515,30.8769 C19.5945,30.8109 19.5225,30.7769 19.4395,30.7739" id="Fill-23" fill="#231F20"></path>
                <path d="M23.2594,33.145 C23.1874,33.095 23.1084,33.08 23.0284,33.098 L21.7984,33.377 L21.6234,32.603 L22.6484,32.371 C22.7264,32.353 22.7894,32.305 22.8344,32.228 C22.8804,32.154 22.8934,32.074 22.8744,31.99 C22.8564,31.905 22.8084,31.837 22.7364,31.79 C22.6644,31.742 22.5864,31.727 22.5074,31.746 L21.4804,31.978 L21.2944,31.152 L22.4774,30.884 C22.5554,30.866 22.6194,30.818 22.6634,30.741 C22.7074,30.665 22.7214,30.583 22.7034,30.502 C22.6844,30.413 22.6374,30.344 22.5654,30.294 C22.5124,30.259 22.4584,30.241 22.4014,30.241 C22.3794,30.241 22.3564,30.244 22.3344,30.249 L20.7104,30.617 C20.6214,30.637 20.5574,30.682 20.5214,30.749 C20.4854,30.819 20.4754,30.9 20.4924,30.99 L21.1454,33.871 C21.1684,33.958 21.2124,34.026 21.2744,34.073 C21.3164,34.105 21.3654,34.12 21.4194,34.121 L21.4234,34.159 L21.4234,34.158 L21.4234,34.121 C21.4484,34.121 21.4734,34.119 21.5014,34.112 L23.1714,33.733 C23.2494,33.716 23.3134,33.667 23.3574,33.59 C23.4024,33.512 23.4154,33.431 23.3974,33.349 C23.3774,33.264 23.3314,33.195 23.2594,33.145" id="Fill-25" fill="#231F20"></path>
                <path d="M25.7086,30.3803 C25.6866,30.5143 25.6146,30.6143 25.4886,30.6833 L24.8766,31.0153 L24.3836,30.1053 L25.0126,29.7633 C25.1306,29.7003 25.2536,29.6963 25.3756,29.7543 C25.4976,29.8103 25.5886,29.8953 25.6496,30.0073 C25.7116,30.1233 25.7316,30.2493 25.7086,30.3803 M27.0176,31.4333 L26.0896,30.9663 L26.1256,30.9293 C26.2926,30.7503 26.3936,30.5443 26.4206,30.3193 C26.4486,30.0823 26.4066,29.8533 26.2956,29.6343 C26.1396,29.3603 25.9156,29.1723 25.6296,29.0713 C25.5286,29.0363 25.4236,29.0183 25.3156,29.0183 C25.1206,29.0183 24.9146,29.0763 24.7026,29.1923 L23.7306,29.7183 C23.6356,29.7713 23.5766,29.8433 23.5566,29.9373 C23.5366,30.0313 23.5506,30.1293 23.6006,30.2273 L24.9726,32.7573 C25.0166,32.8383 25.0896,32.8913 25.1876,32.9163 C25.2226,32.9253 25.2536,32.9293 25.2846,32.9303 L25.2896,32.9673 L25.2896,32.9673 L25.2896,32.9303 C25.3506,32.9303 25.4106,32.9143 25.4666,32.8843 C25.5556,32.8353 25.6186,32.7633 25.6496,32.6693 C25.6816,32.5743 25.6746,32.4843 25.6286,32.4013 L25.1756,31.5653 L25.4966,31.3913 L26.6536,32.0673 C26.6986,32.0923 26.7476,32.1063 26.8016,32.1063 C26.8356,32.1063 26.8736,32.1003 26.9106,32.0883 C27.0066,32.0603 27.0786,32.0053 27.1266,31.9233 C27.1796,31.8383 27.1966,31.7453 27.1746,31.6463 C27.1516,31.5493 27.0996,31.4763 27.0176,31.4333" id="Fill-27" fill="#231F20"></path>
                <path d="M28.7852,28.5053 L28.7832,28.4933 L28.5162,26.7493 C28.5002,26.6643 28.4502,26.5913 28.3672,26.5373 C28.2842,26.4803 28.2002,26.4603 28.1052,26.4733 C28.0142,26.4883 27.9332,26.5353 27.8712,26.6123 C27.8082,26.6893 27.7862,26.7693 27.8042,26.8563 L28.0902,28.3233 L26.6402,27.9823 C26.6212,27.9773 26.6002,27.9763 26.5802,27.9763 C26.5142,27.9763 26.4522,27.9983 26.3932,28.0423 C26.3142,28.1023 26.2652,28.1783 26.2472,28.2733 C26.2322,28.3623 26.2512,28.4513 26.3042,28.5353 C26.3562,28.6193 26.4262,28.6713 26.5132,28.6923 L28.2422,29.0163 L28.2512,29.0253 L29.1512,29.9563 C29.2102,30.0173 29.2882,30.0493 29.3832,30.0503 L29.4002,30.0503 C29.5032,30.0493 29.5902,30.0133 29.6602,29.9443 C29.7332,29.8743 29.7732,29.7893 29.7782,29.6883 C29.7842,29.5893 29.7522,29.5053 29.6862,29.4363 L28.7852,28.5053 Z" id="Fill-29" fill="#231F20"></path>
                <path d="M8.7994,11.9008 L8.7994,11.9368 L8.8074,11.9008 C8.8214,11.9008 8.8354,11.8998 8.8494,11.8978 C8.9514,11.8868 9.0354,11.8428 9.0994,11.7668 C9.1654,11.6898 9.1984,11.6008 9.1934,11.4998 C9.1894,11.4008 9.1504,11.3188 9.0784,11.2578 L7.6384,10.0278 L9.8874,10.4488 C10.0804,10.4828 10.2354,10.4378 10.3444,10.3098 L10.3884,10.2578 C10.4474,10.1888 10.4704,10.1048 10.4564,10.0088 C10.4434,9.9118 10.3964,9.8298 10.3194,9.7628 L8.0914,7.8618 C8.0194,7.7988 7.9344,7.7728 7.8344,7.7858 C7.7354,7.7968 7.6514,7.8428 7.5854,7.9208 C7.5204,7.9938 7.4894,8.0848 7.4934,8.1878 C7.4994,8.2888 7.5364,8.3708 7.6064,8.4308 L9.0264,9.6418 L6.8184,9.2218 C6.7754,9.2148 6.7334,9.2098 6.6934,9.2098 C6.5534,9.2098 6.4374,9.2638 6.3464,9.3698 L6.3024,9.4218 C6.2444,9.4898 6.2194,9.5758 6.2334,9.6758 C6.2454,9.7758 6.2924,9.8628 6.3724,9.9318 L8.5924,11.8268 C8.6504,11.8748 8.7204,11.9008 8.7994,11.9008" id="Fill-31" fill="#231F20"></path>
                <path d="M12.4801,5.1132 C12.5611,5.1542 12.6391,5.1602 12.7121,5.1342 L13.3731,4.8952 L14.2651,7.3562 C14.2951,7.4422 14.3581,7.5052 14.4531,7.5462 C14.5041,7.5672 14.5561,7.5792 14.6061,7.5792 L14.6061,7.6152 L14.6071,7.6152 L14.6121,7.5792 C14.6531,7.5772 14.6941,7.5702 14.7341,7.5562 C14.8301,7.5212 14.9021,7.4582 14.9471,7.3702 C14.9931,7.2812 15.0001,7.1912 14.9671,7.1022 L14.0741,4.6402 L14.7361,4.4012 C14.8081,4.3732 14.8641,4.3192 14.9001,4.2362 C14.9371,4.1532 14.9401,4.0712 14.9121,3.9922 C14.8811,3.9072 14.8271,3.8432 14.7491,3.8032 C14.6711,3.7632 14.5901,3.7592 14.5131,3.7872 L12.4891,4.5212 C12.4101,4.5492 12.3531,4.6042 12.3171,4.6842 C12.2851,4.7642 12.2831,4.8482 12.3141,4.9332 C12.3421,5.0132 12.3981,5.0732 12.4801,5.1132" id="Fill-33" fill="#231F20"></path>
                <path d="M16.61,3.6943 C16.594,3.6003 16.544,3.5263 16.461,3.4713 C16.397,3.4303 16.327,3.4093 16.254,3.4093 C16.231,3.4093 16.207,3.4113 16.183,3.4153 C16.089,3.4303 16.01,3.4793 15.949,3.5613 C15.885,3.6423 15.861,3.7293 15.873,3.8213 L16.365,6.7333 C16.381,6.8223 16.431,6.8973 16.516,6.9533 C16.583,6.9973 16.653,7.0183 16.727,7.0183 L16.727,7.0563 L16.728,7.0563 L16.733,7.0183 C16.753,7.0183 16.773,7.0173 16.793,7.0143 C16.893,6.9963 16.974,6.9473 17.035,6.8683 C17.096,6.7893 17.119,6.7023 17.103,6.6093 L16.61,3.6943 Z" id="Fill-35" fill="#231F20"></path>
                <path d="M18.9029,4.2138 C19.0969,4.0308 19.3299,3.9348 19.5949,3.9308 L19.6169,3.9308 C19.6409,3.9308 19.6649,3.9308 19.6889,3.9318 C19.9949,3.9508 20.2469,4.0768 20.4389,4.3078 C20.6299,4.5398 20.7179,4.8108 20.7009,5.1168 C20.6819,5.4208 20.5629,5.6788 20.3459,5.8818 C20.1449,6.0688 19.9049,6.1638 19.6319,6.1638 C19.6079,6.1638 19.5829,6.1628 19.5569,6.1618 C19.2519,6.1438 18.9999,6.0188 18.8099,5.7918 C18.6179,5.5638 18.5309,5.2938 18.5499,4.9888 C18.5679,4.6788 18.6869,4.4198 18.9029,4.2138 M19.5139,6.8868 C19.5579,6.8898 19.6029,6.8908 19.6469,6.8908 L19.6729,6.8908 C20.1109,6.8828 20.5049,6.7278 20.8389,6.4268 C21.2129,6.0908 21.4179,5.6648 21.4469,5.1598 C21.4759,4.6508 21.3249,4.2018 20.9959,3.8228 C20.6659,3.4428 20.2399,3.2368 19.7319,3.2068 C19.6919,3.2038 19.6519,3.2028 19.6109,3.2028 C19.1559,3.2028 18.7519,3.3598 18.4099,3.6698 C18.0369,4.0078 17.8339,4.4358 17.8029,4.9438 C17.7729,5.4488 17.9249,5.8968 18.2559,6.2738 C18.5849,6.6518 19.0079,6.8568 19.5139,6.8868" id="Fill-37" fill="#231F20"></path>
                <path d="M21.9981,7.2378 C22.0431,7.2538 22.0891,7.2628 22.1341,7.2628 C22.1831,7.2628 22.2321,7.2528 22.2811,7.2328 C22.3731,7.1948 22.4351,7.1298 22.4691,7.0398 L23.1221,5.2638 L23.5081,7.5188 C23.5421,7.7138 23.6391,7.8418 23.7961,7.8998 L23.8601,7.9228 C23.8941,7.9348 23.9311,7.9418 23.9661,7.9418 L23.9661,7.9788 L23.9661,7.9798 L23.9701,7.9418 C24.0191,7.9418 24.0681,7.9268 24.1181,7.9008 C24.2041,7.8538 24.2661,7.7818 24.3011,7.6858 L25.3121,4.9368 C25.3431,4.8478 25.3381,4.7588 25.2921,4.6688 C25.2471,4.5798 25.1751,4.5168 25.0811,4.4818 C24.9881,4.4478 24.8931,4.4498 24.7981,4.4908 C24.7051,4.5288 24.6411,4.5928 24.6091,4.6788 L23.9651,6.4308 L23.5921,4.2148 C23.5601,4.0168 23.4581,3.8858 23.2911,3.8248 L23.2271,3.8008 C23.1431,3.7688 23.0531,3.7768 22.9631,3.8238 C22.8741,3.8698 22.8101,3.9448 22.7741,4.0438 L21.7671,6.7818 C21.7351,6.8688 21.7431,6.9578 21.7891,7.0498 C21.8351,7.1408 21.9051,7.2038 21.9981,7.2378" id="Fill-39" fill="#231F20"></path>
                <path d="M30.5509,8.5395 C30.4899,8.4635 30.4089,8.4195 30.3069,8.4065 C30.2849,8.4035 30.2659,8.4025 30.2459,8.4025 C30.1719,8.4025 30.1039,8.4245 30.0429,8.4695 L27.7499,10.3395 C27.6799,10.3965 27.6369,10.4665 27.6229,10.5435 C27.6119,10.6215 27.6339,10.6975 27.6919,10.7675 L28.6439,11.9355 C28.6969,11.9955 28.7679,12.0295 28.8589,12.0365 C28.8699,12.0375 28.8819,12.0345 28.8929,12.0375 C28.9679,12.0355 29.0329,12.0125 29.0899,11.9655 C29.1569,11.9095 29.1989,11.8375 29.2119,11.7515 C29.2239,11.6645 29.2029,11.5875 29.1499,11.5225 L28.4839,10.7055 L28.5139,10.6815 L30.5179,9.0475 C30.5919,8.9875 30.6319,8.9065 30.6379,8.8075 C30.6439,8.7075 30.6139,8.6175 30.5509,8.5395" id="Fill-41" fill="#231F20"></path>
                <path d="M26.3355,7.7797 L27.5535,6.9007 L27.0625,8.3757 L26.2935,7.8097 L26.3355,7.7797 Z M24.8085,8.3647 C24.8665,8.4457 24.9455,8.4987 25.0435,8.5237 C25.1375,8.5467 25.2275,8.5337 25.3035,8.4867 L25.7635,8.1857 L25.7855,8.2007 L26.8625,8.9957 L26.7135,9.5227 C26.6905,9.6097 26.7055,9.6977 26.7575,9.7827 C26.8095,9.8667 26.8845,9.9257 26.9795,9.9567 C27.0135,9.9677 27.0475,9.9727 27.0835,9.9727 L27.0835,10.0117 L27.0865,9.9727 C27.1415,9.9727 27.1995,9.9567 27.2555,9.9257 C27.3485,9.8747 27.4085,9.8037 27.4365,9.7147 L28.2585,6.8287 C28.3245,6.5887 28.2555,6.3917 28.0535,6.2437 L28.0275,6.2257 C27.8275,6.0777 27.6185,6.0717 27.4085,6.2057 L24.9015,7.8557 C24.8255,7.9077 24.7765,7.9877 24.7545,8.0907 C24.7345,8.1937 24.7535,8.2857 24.8085,8.3647 L24.8085,8.3647 Z" id="Fill-43" fill="#231F20"></path>
                <path d="M11.1246,7.9336 L10.7056,6.4366 L11.9196,7.4076 L11.1246,7.9336 Z M10.8816,5.7516 C10.7796,5.6776 10.6726,5.6396 10.5676,5.6396 C10.4656,5.6396 10.3636,5.6736 10.2626,5.7406 L10.2356,5.7586 C10.0266,5.8966 9.9496,6.0906 10.0046,6.3336 L10.6876,9.2566 C10.7096,9.3466 10.7666,9.4196 10.8566,9.4736 C10.9176,9.5126 10.9806,9.5316 11.0446,9.5316 L11.0446,9.5686 L11.0506,9.5316 C11.0766,9.5306 11.1046,9.5266 11.1306,9.5196 C11.2286,9.4926 11.3056,9.4366 11.3616,9.3546 C11.4166,9.2726 11.4356,9.1866 11.4176,9.0966 L11.2926,8.5616 L11.3146,8.5476 L12.4306,7.8086 L12.8766,8.1316 C12.9296,8.1676 12.9916,8.1876 13.0586,8.1876 C13.0836,8.1876 13.1096,8.1866 13.1356,8.1806 C13.2306,8.1616 13.3126,8.1116 13.3756,8.0326 C13.4356,7.9566 13.4576,7.8656 13.4416,7.7616 C13.4256,7.6586 13.3806,7.5766 13.3056,7.5196 L10.8816,5.7516 Z" id="Fill-45" fill="#231F20"></path>
                <path d="M101.2672,0.9917 L24.7682,0.9917 C32.1782,3.5017 37.5282,10.5177 37.5282,18.7637 C37.5282,26.9497 32.2582,33.9227 24.9342,36.4817 L101.2672,36.4817 C111.0672,36.4817 119.0122,28.5367 119.0122,18.7367 C119.0122,8.9357 111.0672,0.9917 101.2672,0.9917" id="Fill-47" fill="#009DDA"></path>
                <path d="M44.6935,25.3759 C44.1915,25.3759 43.7395,25.1879 43.3855,24.8319 C43.0355,24.4819 42.8475,24.0309 42.8475,23.5299 L42.8475,14.7089 C42.8475,14.2289 43.0265,13.7949 43.3645,13.4569 C43.7075,13.1149 44.1405,12.9369 44.6195,12.9369 L46.4105,12.9369 C47.7565,12.9369 48.8625,13.3429 49.7025,14.1439 C50.5535,14.9569 50.9855,15.9719 50.9855,17.1599 C50.9855,18.3489 50.5535,19.3629 49.7025,20.1759 C48.8905,20.9509 47.8275,21.3569 46.5395,21.3819 L46.5395,23.5299 C46.5395,24.0299 46.3515,24.4809 45.9985,24.8349 C45.6435,25.1889 45.1925,25.3759 44.6935,25.3759" id="Fill-49" fill="#3E4DA0"></path>
                <path d="M54.7291,25.3759 C53.4111,25.3759 52.2811,24.9319 51.3681,24.0569 C50.4461,23.1699 49.9771,22.0649 49.9771,20.7709 C49.9771,19.4759 50.4461,18.3709 51.3681,17.4849 C52.2811,16.6099 53.4111,16.1659 54.7291,16.1659 C56.0441,16.1659 57.1751,16.6099 58.0871,17.4839 C59.0111,18.3709 59.4791,19.4769 59.4791,20.7709 C59.4791,22.0649 59.0111,23.1699 58.0881,24.0569 C57.1751,24.9329 56.0441,25.3759 54.7291,25.3759" id="Fill-51" fill="#3E4DA0"></path>
                <path d="M66.9342,25.3759 C66.3272,25.3759 65.8282,25.0319 65.5992,24.4549 L64.7602,22.3809 L63.9212,24.4599 C63.6912,25.0329 63.1932,25.3759 62.5882,25.3759 C62.0382,25.3759 61.5582,25.0719 61.3032,24.5629 L58.6292,18.5939 C58.5382,18.4119 58.4822,18.1639 58.4822,17.8939 C58.4822,17.4299 58.6512,17.0109 58.9662,16.6829 C59.2932,16.3449 59.7182,16.1659 60.1962,16.1659 C60.9362,16.1659 61.5172,16.5449 61.7902,17.2069 L62.5872,19.1419 L63.4312,17.0899 C63.6492,16.5199 64.1502,16.1659 64.7602,16.1659 C65.3722,16.1659 65.8742,16.5199 66.1002,17.1139 L66.9342,19.1419 L67.7322,17.2079 C68.0052,16.5449 68.5862,16.1659 69.3262,16.1659 C69.8022,16.1659 70.2282,16.3439 70.5542,16.6819 C70.8722,17.0109 71.0392,17.4299 71.0392,17.8939 C71.0392,18.1639 70.9862,18.4119 70.8782,18.6269 L68.2382,24.5229 C67.9632,25.0719 67.4842,25.3759 66.9342,25.3759" id="Fill-53" fill="#3E4DA0"></path>
                <path d="M74.8072,25.3759 C73.4942,25.3759 72.3622,24.9359 71.4452,24.0679 C70.5142,23.1869 70.0422,22.0779 70.0422,20.7709 C70.0422,19.4899 70.5032,18.3889 71.4112,17.4999 C72.3162,16.6149 73.4182,16.1659 74.6902,16.1659 C75.9272,16.1659 77.0042,16.5909 77.8912,17.4289 C78.7772,18.2649 79.2632,19.3099 79.3372,20.5349 C79.3652,20.9399 79.2302,21.3309 78.9452,21.6549 C78.8852,21.7229 78.8212,21.7849 78.7502,21.8399 C78.8492,22.0609 78.9002,22.3039 78.9002,22.5619 C78.9002,22.9879 78.7482,23.3859 78.4632,23.7139 C77.4952,24.8169 76.2652,25.3759 74.8072,25.3759" id="Fill-55" fill="#3E4DA0"></path>
                <path d="M80.9586,25.3759 C80.4796,25.3759 80.0456,25.1969 79.7056,24.8579 C79.3656,24.5179 79.1866,24.0849 79.1866,23.6039 L79.1866,17.9379 C79.1866,17.4589 79.3656,17.0259 79.7036,16.6869 C80.0456,16.3449 80.4796,16.1659 80.9586,16.1659 C81.3626,16.1659 81.7356,16.2929 82.0456,16.5379 C82.5006,16.2919 83.0046,16.1659 83.5426,16.1659 C83.8216,16.1659 84.0636,16.1859 84.2826,16.2269 C84.7006,16.3189 85.0356,16.5189 85.2826,16.8109 C85.5446,17.1199 85.6816,17.4939 85.6816,17.8939 C85.6816,18.3529 85.5096,18.7689 85.1856,19.0939 C84.8586,19.4209 84.4436,19.5929 83.9806,19.5929 C83.8676,19.5929 83.7386,19.5759 83.5076,19.5289 C83.3076,19.4929 83.1186,19.4349 82.9366,19.6639 C82.7946,19.8359 82.7296,20.0439 82.7296,20.3159 L82.7296,23.6039 C82.7296,24.0859 82.5496,24.5199 82.2106,24.8579 C81.8716,25.1959 81.4376,25.3759 80.9586,25.3759" id="Fill-57" fill="#3E4DA0"></path>
                <path d="M89.1227,25.2002 L86.9787,25.2002 C86.5087,25.2002 86.0847,25.0252 85.7557,24.6962 C85.4257,24.3672 85.2517,23.9432 85.2517,23.4722 L85.2517,14.6652 C85.2517,14.2002 85.4187,13.7832 85.7347,13.4542 C86.0597,13.1152 86.4867,12.9372 86.9647,12.9372 L88.7257,12.9372 C89.9947,12.9372 91.0237,13.2552 91.7867,13.8832 C92.5967,14.5502 93.0227,15.4392 93.0227,16.4552 C93.0227,17.1812 92.8337,17.8332 92.4597,18.3932 C92.4287,18.4392 92.3957,18.4852 92.3637,18.5292 C92.5497,18.6822 92.7157,18.8542 92.8627,19.0432 C93.3687,19.6902 93.6247,20.4632 93.6247,21.3432 C93.6247,22.4692 93.1807,23.4432 92.3447,24.1602 C91.5427,24.8492 90.4577,25.2002 89.1227,25.2002" id="Fill-59" fill="#3E4DA0"></path>
                <path d="M101.0582,25.3759 C100.5892,25.3759 100.1632,25.2049 99.8292,24.8809 C99.2162,25.2069 98.5082,25.3759 97.7272,25.3759 C96.4762,25.3759 95.3992,24.9259 94.5232,24.0369 C93.6512,23.1539 93.2092,22.0539 93.2092,20.7709 C93.2092,19.4869 93.6512,18.3879 94.5232,17.5049 C95.3992,16.6159 96.4762,16.1659 97.7272,16.1659 C98.5082,16.1659 99.2162,16.3339 99.8292,16.6619 C100.1632,16.3369 100.5892,16.1659 101.0582,16.1659 C101.5382,16.1659 101.9712,16.3449 102.3112,16.6849 C102.6502,17.0229 102.8302,17.4569 102.8302,17.9379 L102.8302,23.6039 C102.8302,24.0869 102.6492,24.5209 102.3092,24.8589 C101.9712,25.1959 101.5382,25.3759 101.0582,25.3759" id="Fill-61" fill="#3E4DA0"></path>
                <path d="M104.985,25.3759 C104.504,25.3759 104.07,25.1959 103.731,24.8569 C103.393,24.5199 103.213,24.0859 103.213,23.6039 L103.213,13.7989 C103.213,13.3189 103.392,12.8859 103.73,12.5459 C104.413,11.8659 105.555,11.8669 106.235,12.5429 C106.578,12.8869 106.757,13.3199 106.757,13.7989 L106.757,23.6039 C106.757,24.0849 106.577,24.5179 106.239,24.8569 C105.896,25.1969 105.464,25.3759 104.985,25.3759" id="Fill-63" fill="#3E4DA0"></path>
                <path d="M108.941,25.3759 C108.462,25.3759 108.028,25.1969 107.688,24.8579 C107.349,24.5199 107.169,24.0859 107.169,23.6039 L107.169,13.7989 C107.169,13.3189 107.348,12.8859 107.686,12.5459 C108.029,12.2049 108.462,12.0259 108.941,12.0259 C109.42,12.0259 109.852,12.2049 110.192,12.5429 C110.534,12.8859 110.712,13.3189 110.712,13.7989 L110.712,23.6039 C110.712,24.0859 110.532,24.5199 110.193,24.8579 C109.853,25.1969 109.42,25.3759 108.941,25.3759" id="Fill-65" fill="#3E4DA0"></path>
                <path d="M45.544,15.4868 L45.544,18.8338 L46.366,18.8338 C46.934,18.8338 47.396,18.6838 47.753,18.3858 C48.11,18.0868 48.29,17.6778 48.29,17.1598 C48.29,16.6418 48.11,16.2328 47.753,15.9338 C47.396,15.6358 46.934,15.4868 46.366,15.4868 L45.544,15.4868 Z M43.842,23.5298 L43.842,14.7088 C43.842,14.4938 43.918,14.3098 44.069,14.1578 C44.221,14.0068 44.404,13.9308 44.619,13.9308 L46.41,13.9308 C47.496,13.9308 48.365,14.2418 49.016,14.8628 C49.667,15.4848 49.992,16.2498 49.992,17.1598 C49.992,18.0698 49.667,18.8358 49.016,19.4568 C48.365,20.0788 47.496,20.3888 46.41,20.3888 L45.544,20.3888 L45.544,23.5298 C45.544,23.7658 45.461,23.9658 45.295,24.1318 C45.128,24.2988 44.928,24.3828 44.693,24.3828 C44.459,24.3828 44.257,24.2988 44.091,24.1318 C43.925,23.9658 43.842,23.7658 43.842,23.5298 L43.842,23.5298 Z" id="Fill-67" fill="#FFFFFF"></path>
                <path d="M53.1573,19.2158 C52.7373,19.6268 52.5253,20.1448 52.5253,20.7708 C52.5253,21.3978 52.7373,21.9158 53.1573,22.3268 C53.5783,22.7378 54.1023,22.9438 54.7293,22.9438 C55.3553,22.9438 55.8773,22.7378 56.2983,22.3268 C56.7203,21.9158 56.9293,21.3978 56.9293,20.7708 C56.9293,20.1448 56.7203,19.6268 56.2983,19.2158 C55.8773,18.8048 55.3553,18.5988 54.7293,18.5988 C54.1023,18.5988 53.5783,18.8048 53.1573,19.2158 M52.0563,23.3398 C51.3323,22.6448 50.9713,21.7888 50.9713,20.7708 C50.9713,19.7528 51.3323,18.8968 52.0563,18.2018 C52.7813,17.5068 53.6713,17.1598 54.7293,17.1598 C55.7853,17.1598 56.6753,17.5068 57.3993,18.2018 C58.1243,18.8968 58.4863,19.7528 58.4863,20.7708 C58.4863,21.7888 58.1243,22.6448 57.3993,23.3398 C56.6753,24.0348 55.7853,24.3828 54.7293,24.3828 C53.6713,24.3828 52.7813,24.0348 52.0563,23.3398" id="Fill-69" fill="#FFFFFF"></path>
                <path d="M64.7613,19.729 L62.9983,24.088 C62.9213,24.285 62.7833,24.382 62.5883,24.382 C62.4123,24.382 62.2823,24.294 62.1933,24.118 L59.5343,18.187 C59.4963,18.11 59.4763,18.011 59.4763,17.894 C59.4763,17.688 59.5453,17.515 59.6833,17.373 C59.8193,17.231 59.9903,17.16 60.1963,17.16 C60.5293,17.16 60.7533,17.302 60.8713,17.586 L62.5883,21.754 L64.3503,17.468 C64.4283,17.263 64.5663,17.16 64.7613,17.16 C64.9573,17.16 65.0943,17.263 65.1723,17.468 L66.9343,21.754 L68.6503,17.586 C68.7683,17.302 68.9923,17.16 69.3253,17.16 C69.5323,17.16 69.7023,17.231 69.8393,17.373 C69.9773,17.515 70.0453,17.688 70.0453,17.894 C70.0453,18.011 70.0263,18.11 69.9883,18.187 L67.3293,24.118 C67.2403,24.294 67.1103,24.382 66.9343,24.382 C66.7393,24.382 66.6013,24.285 66.5243,24.088 L64.7613,19.729 Z" id="Fill-71" fill="#FFFFFF"></path>
                <path d="M72.7096,20.0376 L76.7606,20.0376 C76.6526,19.5666 76.4126,19.2106 76.0416,18.9656 C75.6696,18.7226 75.2236,18.5986 74.7056,18.5986 C74.2836,18.5986 73.8836,18.7276 73.5016,18.9876 C73.1206,19.2466 72.8566,19.5966 72.7096,20.0376 M74.8076,24.3816 C73.7516,24.3816 72.8586,24.0376 72.1296,23.3466 C71.3996,22.6576 71.0356,21.7976 71.0356,20.7706 C71.0356,19.7636 71.3936,18.9086 72.1076,18.2096 C72.8216,17.5106 73.6826,17.1606 74.6896,17.1606 C75.6696,17.1606 76.5086,17.4896 77.2076,18.1516 C77.9076,18.8106 78.2866,19.6266 78.3456,20.5956 C78.3556,20.7416 78.3066,20.8756 78.1986,20.9986 C78.0906,21.1206 77.9496,21.1826 77.7726,21.1826 L72.6216,21.1826 C72.7096,21.7396 72.9666,22.1726 73.3916,22.4806 C73.8176,22.7886 74.2986,22.9426 74.8386,22.9426 C75.5326,22.9426 76.1086,22.6636 76.5706,22.1066 C76.7166,21.9106 76.9126,21.8126 77.1566,21.8126 C77.3716,21.8126 77.5506,21.8836 77.6926,22.0256 C77.8336,22.1676 77.9056,22.3466 77.9056,22.5616 C77.9056,22.7476 77.8426,22.9146 77.7156,23.0606 C76.9406,23.9406 75.9736,24.3816 74.8076,24.3816" id="Fill-73" fill="#FFFFFF"></path>
                <path d="M81.7359,17.9379 L81.7359,18.0849 C82.2249,17.4689 82.8279,17.1599 83.5429,17.1599 C83.7569,17.1599 83.9429,17.1739 84.0999,17.2039 C84.2759,17.2429 84.4179,17.3259 84.5239,17.4529 C84.6319,17.5819 84.6869,17.7279 84.6869,17.8939 C84.6869,18.0899 84.6179,18.2559 84.4809,18.3929 C84.3429,18.5299 84.1769,18.5979 83.9819,18.5979 C83.9429,18.5979 83.8489,18.5839 83.7029,18.5549 C83.5459,18.5249 83.3939,18.5099 83.2489,18.5099 C82.8069,18.5099 82.4459,18.6869 82.1619,19.0389 C81.8779,19.3909 81.7359,19.8169 81.7359,20.3159 L81.7359,23.6039 C81.7359,23.8189 81.6599,24.0029 81.5079,24.1539 C81.3569,24.3059 81.1739,24.3819 80.9589,24.3819 C80.7429,24.3819 80.5589,24.3059 80.4069,24.1539 C80.2559,24.0029 80.1799,23.8189 80.1799,23.6039 L80.1799,17.9379 C80.1799,17.7229 80.2559,17.5389 80.4069,17.3879 C80.5589,17.2359 80.7429,17.1599 80.9589,17.1599 C81.1739,17.1599 81.3569,17.2359 81.5079,17.3879 C81.6599,17.5389 81.7359,17.7229 81.7359,17.9379" id="Fill-75" fill="#FFFFFF"></path>
                <path d="M87.9478,19.479 L87.9478,22.738 L88.9458,22.738 C89.5618,22.738 90.0458,22.589 90.3988,22.291 C90.7508,21.992 90.9278,21.599 90.9278,21.108 C90.9278,20.62 90.7508,20.226 90.3988,19.927 C90.0458,19.628 89.5618,19.479 88.9458,19.479 L87.9478,19.479 Z M87.9478,15.399 L87.9478,18.011 L88.7398,18.011 C89.2788,18.011 89.6808,17.892 89.9518,17.652 C90.2188,17.412 90.3548,17.097 90.3548,16.705 C90.3548,16.314 90.2188,15.998 89.9518,15.758 C89.6808,15.519 89.2788,15.399 88.7398,15.399 L87.9478,15.399 Z M86.2458,23.472 L86.2458,14.665 C86.2458,14.459 86.3128,14.286 86.4508,14.144 C86.5868,14.002 86.7588,13.931 86.9648,13.931 L88.7248,13.931 C89.7618,13.931 90.5728,14.171 91.1558,14.65 C91.7358,15.129 92.0278,15.731 92.0278,16.455 C92.0278,16.983 91.8958,17.446 91.6328,17.843 C91.3678,18.239 90.9808,18.525 90.4728,18.701 C91.1768,18.867 91.7128,19.186 92.0798,19.656 C92.4458,20.125 92.6298,20.688 92.6298,21.343 C92.6298,22.185 92.3188,22.873 91.6978,23.405 C91.0768,23.939 90.2178,24.206 89.1228,24.206 L86.9788,24.206 C86.7738,24.206 86.5998,24.135 86.4568,23.993 C86.3168,23.851 86.2458,23.678 86.2458,23.472 L86.2458,23.472 Z" id="Fill-77" fill="#FFFFFF"></path>
                <path d="M99.5758,22.3706 C100.0158,21.9306 100.2358,21.3976 100.2358,20.7706 C100.2358,20.1446 100.0158,19.6146 99.5758,19.1786 C99.1358,18.7426 98.6068,18.5256 97.9908,18.5256 C97.3748,18.5256 96.8468,18.7426 96.4048,19.1786 C95.9658,19.6146 95.7448,20.1446 95.7448,20.7706 C95.7448,21.3976 95.9658,21.9286 96.4048,22.3636 C96.8468,22.7986 97.3748,23.0166 97.9908,23.0166 C98.6068,23.0166 99.1358,22.8016 99.5758,22.3706 M100.2798,18.3046 L100.2798,17.9386 C100.2798,17.7236 100.3558,17.5386 100.5078,17.3876 C100.6588,17.2356 100.8438,17.1596 101.0578,17.1596 C101.2728,17.1596 101.4578,17.2356 101.6088,17.3876 C101.7618,17.5386 101.8368,17.7236 101.8368,17.9386 L101.8368,23.6036 C101.8368,23.8196 101.7618,24.0026 101.6088,24.1546 C101.4578,24.3056 101.2728,24.3816 101.0578,24.3816 C100.8438,24.3816 100.6588,24.3056 100.5078,24.1546 C100.3558,24.0026 100.2798,23.8196 100.2798,23.6036 L100.2798,23.2366 C99.6638,23.9996 98.8118,24.3816 97.7258,24.3816 C96.7478,24.3816 95.9158,24.0346 95.2308,23.3396 C94.5468,22.6436 94.2048,21.7886 94.2048,20.7706 C94.2048,19.7536 94.5468,18.8966 95.2308,18.2026 C95.9158,17.5076 96.7478,17.1596 97.7258,17.1596 C98.8118,17.1596 99.6638,17.5406 100.2798,18.3046" id="Fill-79" fill="#FFFFFF"></path>
                <path d="M104.2066,23.6035 L104.2066,13.7985 C104.2066,13.5835 104.2826,13.3995 104.4336,13.2485 C104.5856,13.0965 104.7696,13.0205 104.9836,13.0205 C105.1996,13.0205 105.3836,13.0965 105.5356,13.2485 C105.6866,13.3995 105.7636,13.5835 105.7636,13.7985 L105.7636,23.6035 C105.7636,23.8195 105.6866,24.0035 105.5356,24.1545 C105.3836,24.3065 105.1996,24.3815 104.9836,24.3815 C104.7696,24.3815 104.5856,24.3065 104.4336,24.1545 C104.2826,24.0035 104.2066,23.8195 104.2066,23.6035" id="Fill-81" fill="#FFFFFF"></path>
                <path d="M108.1637,23.6035 L108.1637,13.7985 C108.1637,13.5835 108.2387,13.3995 108.3907,13.2485 C108.5417,13.0965 108.7257,13.0205 108.9407,13.0205 C109.1557,13.0205 109.3397,13.0965 109.4917,13.2485 C109.6427,13.3995 109.7187,13.5835 109.7187,13.7985 L109.7187,23.6035 C109.7187,23.8195 109.6427,24.0035 109.4917,24.1545 C109.3397,24.3065 109.1557,24.3815 108.9407,24.3815 C108.7257,24.3815 108.5417,24.3065 108.3907,24.1545 C108.2387,24.0035 108.1637,23.8195 108.1637,23.6035" id="Fill-83" fill="#FFFFFF"></path>
                <path d="M98.0094,19.7876 C97.4584,19.7876 97.0084,20.2366 97.0084,20.7886 C97.0084,21.3406 97.4584,21.7896 98.0094,21.7896 C98.5614,21.7896 99.0104,21.3406 99.0104,20.7886 C99.0104,20.2366 98.5614,19.7876 98.0094,19.7876" id="Fill-85" fill="#FFFFFF"></path>
                <path d="M54.7286,19.77 C54.1766,19.77 53.7276,20.219 53.7276,20.771 C53.7276,21.323 54.1766,21.771 54.7286,21.771 C55.2796,21.771 55.7296,21.323 55.7296,20.771 C55.7296,20.219 55.2796,19.77 54.7286,19.77" id="Fill-87" fill="#FFFFFF"></path>
            </g>
        </g>
    </g>
</svg>