<?xml version="1.0" encoding="UTF-8"?>
<svg width="48px" height="48px" viewBox="0 0 48 48" version="1.1" xmlns="http://www.w3.org/2000/svg" xmlns:xlink="http://www.w3.org/1999/xlink">
    <!-- Generator: Sketch 46.2 (44496) - http://www.bohemiancoding.com/sketch -->
    <title>icons/PPP</title>
    <desc>Created with Sketch.</desc>
    <defs></defs>
    <g id="Page-1" stroke="none" stroke-width="1" fill="none" fill-rule="evenodd">
        <g id="001-Desktop-HD-NB-ID-Copy-23" transform="translate(-738.000000, -655.000000)" stroke="#4A4A4A">
            <g id="Register-options" transform="translate(729.000000, 514.000000)">
                <g id="icons/BankingProfile_unselected" transform="translate(9.000000, 141.000000)">
                    <!-- <g id="Circle">
                        <circle cx="24" cy="24" r="23.5"></circle>
                    </g> -->
                    <g id="New-recipient" transform="translate(13.800000, 12.000000)">
                        <path d="M9.79591837,13.5599991 C6.72217687,13.5599991 3.99564626,14.2544209 2.20408163,14.8585025 C0.881632653,15.3058494 0,16.5521079 0,17.9485705 L0,22.2674821 L8.70748299,22.2674821" id="Shape"></path>
                        <path d="M17.5565141,13.5599991 C14.4827726,13.5599991 11.756242,14.2544209 9.96467734,14.8585025 C8.64222836,15.3058494 7.7605957,16.5521079 7.7605957,17.9485705 L7.7605957,22.2674821 L20.5959184,22.2674821" id="Shape-Copy" transform="translate(14.178257, 17.913741) scale(-1, 1) translate(-14.178257, -17.913741) "></path>
                        <path d="M10.3401361,13.6054422 L10.3401361,13.6054422 C7.33496599,13.6054422 4.89795918,10.08 4.89795918,7.07482993 L4.89795918,5.98639456 C4.89795918,2.98122449 7.33496599,0.544217687 10.3401361,0.544217687 L10.3401361,0.544217687 C13.3453061,0.544217687 15.7823129,2.98122449 15.7823129,5.98639456 L15.7823129,7.07482993 C15.7823129,10.08 13.3453061,13.6054422 10.3401361,13.6054422 Z" id="Shape" stroke-linecap="square"></path>
                    </g>
                </g>
            </g>
        </g>
    </g>
</svg>