<?xml version="1.0" encoding="UTF-8"?>
<svg width="65px" height="65px" viewBox="0 0 65 65" version="1.1" xmlns="http://www.w3.org/2000/svg" xmlns:xlink="http://www.w3.org/1999/xlink">
    <!-- Generator: Sketch 47.1 (45422) - http://www.bohemiancoding.com/sketch -->
    <title>Query</title>
    <desc>Created with Sketch.</desc>
    <defs>
        <path d="M15.4146087,31.9482353 C15.4146087,33.8272269 16.9429565,35.3511765 18.8285217,35.3511765 C20.7129565,35.3511765 22.2418696,33.8272269 22.2418696,31.9482353 C22.2418696,30.0686975 20.7129565,28.5447479 18.8285217,28.5447479 C16.9429565,28.5447479 15.4146087,30.0686975 15.4146087,31.9482353 Z" id="path-1"></path>
    </defs>
    <g id="Feedback" stroke="none" stroke-width="1" fill="none" fill-rule="evenodd">
        <g id="Artboard" transform="translate(-72.000000, -260.000000)">
            <g id="Query" transform="translate(72.000000, 260.000000)">
                <path d="M64.6677087,32.4338529 C64.6677087,50.2378445 50.1919261,64.6683908 32.3338826,64.6683908 C14.4758391,64.6683908 5.65217391e-05,50.2378445 5.65217391e-05,32.4338529 C5.65217391e-05,14.6298613 14.4758391,0.198222689 32.3338826,0.198222689 C50.1919261,0.198222689 64.6677087,14.6298613 64.6677087,32.4338529" id="Fill-1" fill="#FFCE00"></path>
                <path d="M17.5782609,43.2813025 C16.705,43.2813025 15.997913,43.987563 15.997913,44.8576891 C15.997913,45.7289076 16.705,46.4346218 17.5782609,46.4346218 L47.0882609,46.4346218 C47.962087,46.4346218 48.6691739,45.7289076 48.6691739,44.8576891 C48.6691739,43.987563 47.962087,43.2813025 47.0882609,43.2813025 L17.5782609,43.2813025 Z" id="Clip-8" fill="#000000"></path>
                <path d="M42.424087,31.9482353 C42.424087,33.8272269 43.9535652,35.3511765 45.838,35.3511765 C47.7235652,35.3511765 49.251913,33.8272269 49.251913,31.9482353 C49.251913,30.0686975 47.7235652,28.5447479 45.838,28.5447479 C43.9535652,28.5447479 42.424087,30.0686975 42.424087,31.9482353 Z" id="Mask" fill="#000000"></path>
                <mask id="mask-2" fill="white">
                    <use xlink:href="#path-1"></use>
                </mask>
                <use id="Clip-14" fill="#000000" xlink:href="#path-1"></use>
            </g>
        </g>
    </g>
</svg>