<?xml version="1.0" encoding="UTF-8"?>
<svg viewBox="0 0 55 63" version="1.1" xmlns="http://www.w3.org/2000/svg" xmlns:xlink="http://www.w3.org/1999/xlink">
    <!-- Generator: Sketch 47.1 (45422) - http://www.bohemiancoding.com/sketch -->
    <title>thin-0300_address_book_contacts</title>
    <desc>Created with Sketch.</desc>
    <defs></defs>
    <g id="Recipients" stroke="none" stroke-width="1" fill="none" fill-rule="evenodd">
        <g id="Desktop-HD-Copy-6" transform="translate(-243.000000, -475.000000)">
            <g id="thin-0300_address_book_contacts" transform="translate(239.000000, 474.000000)">
                <g id="Group" transform="translate(4.000000, 1.333333)" stroke="#999999">
                    <path d="M45.6383414,39.9848333 C40.8538784,38.1585132 35.5423708,35.8905566 35.0958281,34.47732 L35.0958281,32.9947024 C36.0883252,31.9916139 36.8711932,30.5927872 37.3344846,28.9551299 C38.4393603,28.1887372 38.7297616,26.5977786 37.8029087,25.4719392 L37.8029087,22.153128 C37.8029087,18.7270432 35.8716724,16.3817002 31.4562216,16.3817002 C27.1547703,16.3817002 25.1071033,18.7270432 25.1071033,22.153128 L25.1071033,25.4730066 C24.1837622,26.5956438 24.4706517,28.1863355 25.5755274,28.9545962 C26.0388188,30.5927872 26.822227,31.9916139 27.8152645,32.9947024 L27.8152645,34.47732 C27.3700725,35.8889555 22.0574843,38.1574458 17.2730213,39.9848333 C16.8651087,40.1412073 16.5952381,40.5329429 16.5952381,40.9711103 L16.5952381,44.6789885 C16.5952381,45.2612548 17.0666337,45.7343795 17.6479766,45.7343795 L45.2628458,45.7343795 C45.8441887,45.7343795 46.3155843,45.2612548 46.3155843,44.6789885 L46.3155843,40.9711103 C46.3161246,40.5332097 46.0459838,40.1401399 45.6383414,39.9848333 L45.6383414,39.9848333 Z" id="Shape"></path>
                    <path d="M54.3474094,2.46308059 C54.3474094,1.27212985 53.3711207,0.306934066 52.1671033,0.306934066 L7.9026487,0.306934066 C6.69836119,0.306934066 5.72207248,1.2723967 5.72207248,2.46308059 L5.72207248,59.5262454 C5.72207248,60.7171962 6.69836119,61.6823919 7.90237856,61.6823919 L52.1668332,61.6823919 C53.3711207,61.6823919 54.3471393,60.7169293 54.3471393,59.5262454 L54.3471393,2.46308059 L54.3474094,2.46308059 Z" id="Shape"></path>
                    <path d="M0.278466008,53.6760969 L8.65039832,53.6760969" id="Shape"></path>
                    <path d="M0.278466008,45.6698018 L8.65039832,45.6698018" id="Shape"></path>
                    <path d="M0.278466008,37.6635068 L8.65039832,37.6635068" id="Shape"></path>
                    <path d="M0.278466008,29.6572117 L8.65039832,29.6572117" id="Shape"></path>
                    <path d="M0.278466008,21.6509167 L8.65039832,21.6509167" id="Shape"></path>
                    <path d="M0.278466008,13.6446216 L8.65039832,13.6446216" id="Shape"></path>
                    <path d="M0.278466008,5.63832656 L8.65039832,5.63832656" id="Shape"></path>
                </g>
                <rect id="Rectangle-path" x="0" y="-4.88845076e-15" width="64" height="64"></rect>
            </g>
        </g>
    </g>
</svg>