<?xml version="1.0" encoding="UTF-8"?>
<svg viewBox="0 0 17 17" version="1.1" xmlns="http://www.w3.org/2000/svg" xmlns:xlink="http://www.w3.org/1999/xlink">
    <!-- Generator: Sketch 46.2 (44496) - http://www.bohemiancoding.com/sketch -->
    <title>icons/recipient</title>
    <desc>Created with Sketch.</desc>
    <defs></defs>
    <g id="Symbols" stroke="none" stroke-width="1" fill="none" fill-rule="evenodd">
        <g id="atom/navigation/recip/personal/active" transform="translate(0.000000, -3.000000)" stroke="#808080">
            <g id="Group-11" transform="translate(0.833333, 0.000000)">
                <g id="icons/recipient" transform="translate(0.000000, 4.000000)">
                    <g id="Group-8">
                        <path d="M6.3,8 C4.3232,8 2.5697,8.4785 1.4175,8.89475 C0.567,9.203 0,10.06175 0,11.024 L0,14 C0,14 6.9706,14 7,14" id="Shape"></path>
                        <path d="M6.5,8 L6.5,8 C4.5673,8 3,5.84066667 3,4 L3,3.33333333 C3,1.49266667 4.5673,0 6.5,0 L6.5,0 C8.4327,0 10,1.49266667 10,3.33333333 L10,4 C10,5.84066667 8.4327,8 6.5,8 Z" id="Shape" stroke-linecap="square"></path>
                        <path d="M15,16 L13,14" id="Shape"></path>
                        <circle id="Oval" stroke-linecap="square" cx="11.5" cy="11.5" r="2.5"></circle>
                    </g>
                </g>
            </g>
        </g>
    </g>
</svg>