<?xml version="1.0" encoding="UTF-8"?>
<svg viewBox="0 0 45 35" version="1.1" xmlns="http://www.w3.org/2000/svg" xmlns:xlink="http://www.w3.org/1999/xlink">
    <!-- Generator: Sketch 48.2 (47327) - http://www.bohemiancoding.com/sketch -->
    <title>Group</title>
    <desc>Created with Sketch.</desc>
    <defs></defs>
    <g id="1440---2.-Ticket-Purchases---no-more" stroke="none" stroke-width="1" fill="none" fill-rule="evenodd" transform="translate(-1262.000000, -473.000000)">
        <g id="Group-9" transform="translate(542.000000, 444.000000)">
            <g id="Group" transform="translate(720.000000, 30.000000)">
                <g id="Group-2" transform="translate(12.000000, 0.000000)" stroke="#BBBBBB">
                    <polyline id="Shape-Copy" points="15 11.8095771 18.0768931 10 20 13"></polyline>
                    <path d="M18,9.80692346 C17.577121,14.759319 13.2291778,18.3884402 8.26171442,17.9666692 C3.29405951,17.5450892 -0.389824803,13.188444 0.0330541966,8.23633498 C0.455933197,3.28413045 4.82561901,-0.38862885 9.79327393,0.03295117 C12.2317963,0.240064888 14.3607503,1.39480264 15.8468132,3.10279852" id="Shape-Copy-2"></path>
                </g>
                <path d="M0.414000232,21.1999984 L4.25700086,21.1999984 C6.46200122,21.1999984 7.68000142,22.1939986 7.68000142,23.9649988 C7.68000142,25.6589991 6.36400121,26.7369993 4.27100086,26.7369993 L4.11000084,26.7369993 L7.63100141,31 L6.23100119,31 L2.78000062,26.7369993 L1.54100042,26.7369993 L1.54100042,31 L0.414000232,31 L0.414000232,21.1999984 Z M4.24300086,22.2569986 L1.54100042,22.2569986 L1.54100042,25.7149991 L4.24300086,25.7149991 C5.7340011,25.7149991 6.51100123,25.105999 6.51100123,23.9649988 C6.51100123,22.8309987 5.7130011,22.2569986 4.24300086,22.2569986 Z M12.4820007,24.2379989 C14.281001,24.2379989 15.5830012,25.6449991 15.5970012,27.6609995 C15.5970012,27.7939995 15.5900012,27.9339995 15.5760012,28.0529995 L10.2630003,28.0529995 C10.4100003,29.4809998 11.4110005,30.2159999 12.6080007,30.2159999 C13.4270008,30.2159999 14.1410009,29.9009998 14.708001,29.3829997 L15.2680011,30.0969999 C14.442001,30.888 13.5180008,31.133 12.5450007,31.133 C10.5850003,31.133 9.19200012,29.7399998 9.19200012,27.6889995 C9.19200012,25.6589991 10.5920003,24.2379989 12.4820007,24.2379989 Z M12.4610007,25.168999 C11.2360005,25.168999 10.4450003,26.0089992 10.2770003,27.2059994 L14.533001,27.2059994 C14.400001,25.9669992 13.5880008,25.168999 12.4610007,25.168999 Z M21.0080008,24.2379989 C22.8700011,24.2379989 24.3190013,25.6939991 24.3190013,27.6819995 C24.3190013,29.6769998 22.8700011,31.133 21.0080008,31.133 C19.9160006,31.133 19.1180005,30.6919999 18.5930004,30.0199998 L18.5930004,33.8000005 L17.5430002,33.8000005 L17.5430002,24.3709989 L18.5930004,24.3709989 L18.5930004,25.3509991 C19.1180005,24.678999 19.9160006,24.2379989 21.0080008,24.2379989 Z M20.8820007,25.2179991 C19.4960005,25.2179991 18.5230004,26.2819992 18.5230004,27.6819995 C18.5230004,29.0889997 19.4960005,30.1529999 20.8820007,30.1529999 C22.303001,30.1529999 23.2480011,29.0539997 23.2480011,27.6819995 C23.2480011,26.3169992 22.289001,25.2179991 20.8820007,25.2179991 Z M27.3150004,20.9199983 L27.3150004,31 L26.2650002,31 L26.2650002,20.9199983 L27.3150004,20.9199983 Z M36.0370012,24.3709989 L36.0370012,31 L34.9940011,31 L34.9940011,30.0129998 C34.469001,30.6919999 33.6640008,31.133 32.5720007,31.133 C30.7100004,31.133 29.2610001,29.6769998 29.2610001,27.6819995 C29.2610001,25.6939991 30.7100004,24.2379989 32.5720007,24.2379989 C33.6640008,24.2379989 34.469001,24.685999 34.9940011,25.3579991 L34.9940011,24.3709989 L36.0370012,24.3709989 Z M32.6980007,25.2179991 C31.2770004,25.2179991 30.3250003,26.3169992 30.3250003,27.6819995 C30.3250003,29.0539997 31.2910005,30.1529999 32.6980007,30.1529999 C34.0770009,30.1529999 35.0570011,29.0889997 35.0570011,27.6819995 C35.0570011,26.2819992 34.0770009,25.2179991 32.6980007,25.2179991 Z M44.5350012,24.3709989 L39.1380003,33.8280005 L37.9830001,33.8280005 L40.4540005,29.5649998 L37.409,24.3709989 L38.5780002,24.3709989 L41.0490006,28.5289996 L43.387001,24.3709989 L44.5350012,24.3709989 Z" id="Available-Copy" fill="#AAAAAA"></path>
            </g>
        </g>
    </g>
</svg>