<svg xmlns="http://www.w3.org/2000/svg" viewBox="0 0 36 36">
    <g fill="none" fill-rule="evenodd">
        <g stroke="#009639" stroke-width="1.2" transform="translate(8 4)">
            <ellipse cx="17.442" cy="18.153" rx="5.502" ry="5.416"/>
            <path d="M18.168 25.505v1.95H.026V6.021h18.142v4.537"/>
            <path d="M13.294 8.368V4.396C13.294 2.088 11.509 0 9.164 0H9.09C6.746 0 4.82 2.088 4.82 4.396v3.972M16.373 20.333c.538.25 1.284.344 1.766.211.77-.213 1.24-.923 1.051-1.585-.19-.662-.95-.806-1.737-.814-.82-.024-1.547-.151-1.736-.814-.19-.662.281-1.372 1.051-1.585.519-.143 1.04-.025 1.384.27M16.58 15.09l.188.656M18.139 20.544l.187.656"/>
        </g>
        <path d="M4 3h29v29H4z"/>
    </g>
</svg>
