<?xml version="1.0" encoding="UTF-8"?>
<svg viewBox="0 0 25 25" version="1.1" xmlns="http://www.w3.org/2000/svg" xmlns:xlink="http://www.w3.org/1999/xlink">
    <!-- Generator: Sketch 46.2 (44496) - http://www.bohemiancoding.com/sketch -->
    <title>Icons/SearchIcon</title>
    <desc>Created with Sketch.</desc>
    <defs></defs>
    <g id="Symbols" stroke="none" stroke-width="1" fill="none" fill-rule="evenodd">
        <g id="Icons/SearchIcon" fill-rule="nonzero" fill="#FFFFFF">
            <g id="Search-Icon">
                <path d="M17.72532,15.6228697 L16.6180295,15.6228697 L16.2255721,15.2444286 C17.599173,13.6465664 18.4261368,11.5721487 18.4261368,9.31551872 C18.4261368,4.28365428 14.3473832,0.204900649 9.31551872,0.204900649 C4.28365428,0.204900649 0.204900649,4.28365428 0.204900649,9.31551872 C0.204900649,14.3473832 4.28365428,18.4261368 9.31551872,18.4261368 C11.5721487,18.4261368 13.6465664,17.599173 15.2444286,16.2255721 L15.6228697,16.6180295 L15.6228697,17.72532 L22.6310374,24.7194714 L24.7194714,22.6310374 L17.72532,15.6228697 Z M9.31551872,15.6228697 C5.82545118,15.6228697 3.00816775,12.8055863 3.00816775,9.31551872 C3.00816775,5.82545118 5.82545118,3.00816775 9.31551872,3.00816775 C12.8055863,3.00816775 15.6228697,5.82545118 15.6228697,9.31551872 C15.6228697,12.8055863 12.8055863,15.6228697 9.31551872,15.6228697 Z" id="Shape"></path>
            </g>
        </g>
    </g>
</svg>