<?xml version="1.0" encoding="UTF-8"?>
<svg viewBox="0 0 13 16" version="1.1" xmlns="http://www.w3.org/2000/svg" xmlns:xlink="http://www.w3.org/1999/xlink">
    <!-- Generator: Sketch 46.2 (44496) - http://www.bohemiancoding.com/sketch -->
    <title>Icons/security</title>
    <desc>Created with Sketch.</desc>
    <defs></defs>
    <g id="Symbols" stroke="none" stroke-width="1" fill="none" fill-rule="evenodd">
        <g id="Icons/security" fill-rule="nonzero" fill="#454545">
            <path d="M11.3563546,5.87357864 L10.13796,5.87357864 L10.13796,4.65518398 C10.13796,2.63935002 8.49860994,1 6.48277597,1 C4.46694201,1 2.82759199,2.63935002 2.82759199,4.65518398 L2.82759199,5.87357864 L1.60919733,5.87357864 C1.2729204,5.87357864 1,6.14649905 1,6.48277597 L1,15.0115386 C1,15.3478155 1.2729204,15.6207359 1.60919733,15.6207359 L11.3563546,15.6207359 C11.6926315,15.6207359 11.9655519,15.3478155 11.9655519,15.0115386 L11.9655519,6.48277597 C11.9655519,6.14649905 11.6926315,5.87357864 11.3563546,5.87357864 Z M7.0919733,11.8534596 L7.0919733,13.1839466 L5.87357864,13.1839466 L5.87357864,11.8534596 C5.16630054,11.6012519 4.65518398,10.9311349 4.65518398,10.13796 C4.65518398,9.13034757 5.47516359,8.31036797 6.48277597,8.31036797 C7.49038836,8.31036797 8.31036797,9.13034757 8.31036797,10.13796 C8.31036797,10.9311349 7.7998606,11.6012519 7.0919733,11.8534596 Z M8.9195653,5.87357864 L4.04598665,5.87357864 L4.04598665,4.65518398 C4.04598665,3.31129467 5.13888666,2.21839466 6.48277597,2.21839466 C7.82666528,2.21839466 8.9195653,3.31129467 8.9195653,4.65518398 L8.9195653,5.87357864 Z" id="security"></path>
        </g>
    </g>
</svg>