<?xml version="1.0" encoding="UTF-8"?>
<svg viewBox="0 0 72 69" version="1.1" xmlns="http://www.w3.org/2000/svg" xmlns:xlink="http://www.w3.org/1999/xlink">
    <!-- Generator: Sketch 49.3 (51167) - http://www.bohemiancoding.com/sketch -->
    <title>send_icon</title>
    <desc>Created with Sketch.</desc>
    <defs></defs>
    <g id="Page-1" stroke="none" stroke-width="1" fill="none" fill-rule="evenodd">
        <g id="1440---Building_Loan---Stepper_Done_Final1" transform="translate(-545.000000, -390.000000)" stroke="#009639" stroke-width="2">
            <g id="send_icon" transform="translate(546.000000, 391.000000)">
                <g id="Group">
                    <path d="M0.932217391,36.771 C0.662565217,36.6839565 0.470521739,36.4426087 0.445869565,36.1607826 C0.423956522,35.8762174 0.57126087,35.6077826 0.826,35.4796522 L68.7582609,0.739565217 C68.998087,0.614173913 69.2936087,0.644 69.5103043,0.813217391 C69.7227391,0.983652174 69.8195217,1.26273913 69.7556087,1.52995652 L57.1406957,53.5408696 C57.0944348,53.7289565 56.9733043,53.886913 56.8068261,53.9836957 C56.7006087,54.0436522 56.5791739,54.0762174 56.4595652,54.0762174 C56.3913913,54.0762174 56.3232174,54.0652609 56.2565652,54.046087 L0.932217391,36.771 L0.932217391,36.771 Z" id="Shape"></path>
                    <path d="M30.0689565,45.6360435 L30.0786957,65.6183043 C30.0786957,65.9406087 29.9971304,66.2218261 30.3078696,66.3131304 C30.3723913,66.3301739 30.2929565,66.3414348 30.3605217,66.3414348 C30.6036957,66.3414348 30.7610435,66.2163478 30.8973913,66.0054348 L42.3384348,49.7955652" id="Shape"></path>
                    <path d="M54.9533478,17.8749565 L30.0689565,45.6360435" id="Shape"></path>
                </g>
            </g>
        </g>
    </g>
</svg>