<?xml version="1.0" encoding="UTF-8"?>
<svg viewBox="0 0 27 27" version="1.1" xmlns="http://www.w3.org/2000/svg" xmlns:xlink="http://www.w3.org/1999/xlink">
    <!-- Generator: Sketch 47 (45396) - http://www.bohemiancoding.com/sketch -->
    <title>icons/settings</title>
    <desc>Created with Sketch.</desc>
    <defs></defs>
    <g id="Symbols" stroke="none" stroke-width="1" fill="none" fill-rule="evenodd">
        <g id="36px/Settings" transform="translate(-7.000000, -7.000000)" stroke="#333333">
            <g transform="translate(8.000000, 8.000000)" id="icons/settings">
                <g>
                    <circle id="Oval" cx="12.4979348" cy="12.5156522" r="4.50847826"></circle>
                    <path d="M21.2554348,14.628913 L24.5522826,14.1975 C24.7070652,13.078587 24.7130435,11.9965217 24.5522826,10.8338043 L21.2554348,10.4023913 C21.0329348,9.4776087 20.668587,8.61043478 20.1856522,7.82119565 L22.2133696,5.18282609 C21.5343478,4.28456522 20.7336957,3.48369565 19.8357609,2.80413043 L17.1981522,4.83152174 C16.408587,4.3475 15.5407609,3.9823913 14.6152174,3.75923913 L14.1836957,0.461847826 C13.0383696,0.303152174 11.9572826,0.304130435 10.8211957,0.460652174 L10.3898913,3.75673913 C9.46282609,3.97923913 8.59358696,4.34423913 7.80271739,4.82836957 L5.16445652,2.80076087 C4.30315217,3.45195652 3.48108696,4.2601087 2.78695652,5.17717391 L4.81413043,7.81478261 C4.32891304,8.60608696 3.96315217,9.47586957 3.74,10.4036957 L0.443369565,10.8351087 C0.295543478,11.9046739 0.284456522,13.0468478 0.443369565,14.196413 L3.74,14.6278261 C3.96315217,15.5556522 4.32891304,16.4254348 4.81413043,17.2167391 L2.78695652,19.8543478 C3.43847826,20.7152174 4.24706522,21.5371739 5.16445652,22.2307609 L7.80271739,20.2030435 C8.59369565,20.6871739 9.46282609,21.0521739 10.3898913,21.2746739 L10.8211957,24.5707609 C11.9570652,24.7272826 13.0381522,24.7283696 14.1836957,24.5695652 L14.6152174,21.2721739 C15.5406522,21.0490217 16.4084783,20.683913 17.1980435,20.1998913 L19.8357609,22.2271739 C20.7336957,21.5476087 21.5343478,20.7467391 22.2133696,19.8484783 L20.1856522,17.2101087 C20.668587,16.4209783 21.0329348,15.5536957 21.2554348,14.628913 L21.2554348,14.628913 Z" id="Shape"></path>
                </g>
            </g>
        </g>
    </g>
</svg>