<?xml version="1.0" encoding="UTF-8"?>
<svg width="13px" height="17px" viewBox="0 0 13 17" version="1.1" xmlns="http://www.w3.org/2000/svg" xmlns:xlink="http://www.w3.org/1999/xlink">
    <!-- Generator: Sketch 47 (45396) - http://www.bohemiancoding.com/sketch -->
    <title>t&amp;cs</title>
    <desc>Created with Sketch.</desc>
    <defs></defs>
    <g id="Symbols" stroke="none" stroke-width="1" fill="none" fill-rule="evenodd">
        <g id="web/navigation/footer/1440" transform="translate(-322.000000, -32.000000)">
            <g id="Group-9">
                <g id="Group-4" transform="translate(36.000000, 30.000000)">
                    <g id="Group-3" transform="translate(284.000000, 0.843373)">
                        <g id="t&amp;cs" transform="translate(0.000000, 2.000000)">
                            <g id="Group" transform="translate(2.526316, 0.000000)" stroke-width="0.75" stroke="#454545">
                                <polyline id="Shape" points="8.76106105 6.59038902e-05 8.76106105 2.63622151 11.4557979 2.63622151"></polyline>
                                <path d="M11.4557979,14.6307954 C11.4557979,14.9185318 11.2173137,15.1579606 10.9225768,15.1579606 L0.533557895,15.1579606 C0.239427368,15.1579606 0.00323368421,14.9185318 0.00323368421,14.6307954 L0.00323368421,0.530987643 C0.00323368421,0.243383066 0.239427368,6.59038902e-05 0.533557895,6.59038902e-05 L8.76106105,6.59038902e-05 C8.90091789,6.59038902e-05 8.96592842,0.0589839817 9.06536421,0.154874142 L11.2968758,2.3090746 C11.3981305,2.40681007 11.4557979,2.49690069 11.4557979,2.63622151 L11.4557979,14.6307954 L11.4557979,14.6307954 Z" id="Shape"></path>
                                <path d="M9.12282947,11 L2.35789474,11" id="Shape"></path>
                                <path d="M9.12282947,9 L2.35789474,9" id="Shape"></path>
                                <path d="M9.12282947,7 L2.35789474,7" id="Shape"></path>
                                <path d="M6.11617684,5 L2.35789474,5" id="Shape"></path>
                            </g>
                            <rect id="Rectangle-path" x="0" y="-4.66125619e-16" width="16" height="16"></rect>
                        </g>
                    </g>
                </g>
            </g>
        </g>
    </g>
</svg>