<?xml version="1.0" encoding="UTF-8"?>
<svg width="36px" height="34px" viewBox="0 0 36 34" version="1.1" xmlns="http://www.w3.org/2000/svg" xmlns:xlink="http://www.w3.org/1999/xlink">
    <!-- Generator: Sketch 50.2 (55047) - http://www.bohemiancoding.com/sketch -->
    <title>thin-0663_like_thumb_up_vote</title>
    <desc>Created with Sketch.</desc>
    <defs></defs>
    <g id="Page-1" stroke="none" stroke-width="1" fill="none" fill-rule="evenodd">
        <g id="1440-TrusteerRapport-Splash" transform="translate(-1081.000000, -498.000000)">
            <g id="sidebar" transform="translate(1043.000000, 80.000000)">
                <g id="Group-3" transform="translate(33.000000, 74.000000)">
                    <g id="Group-2" transform="translate(6.000000, 149.000000)">
                        <g id="thin-0663_like_thumb_up_vote" transform="translate(0.000000, 193.000000)">
                            <g id="Group" transform="translate(0.000000, 3.000000)" stroke="#78BE20" stroke-width="2">
                                <path d="M31.3578696,17.8133 L28.5463043,17.8133" id="Shape"></path>
                                <path d="M29.8175652,22.3478 L27.7980652,22.3478" id="Shape"></path>
                                <path d="M9.89130435,28.3445 C18.0656304,31.09505 27.7980652,30.9257 27.7980652,30.9257 C31.5322609,30.9257 30.7385217,26.88215 28.0389565,26.88215 L26.9618696,26.88215" id="Shape"></path>
                                <path d="M9.89130435,14.65055 C9.89130435,14.65055 17.5983043,8.6786 17.0454565,2.43215 C16.6260652,-2.3065 25.5504565,1.3175 20.5828913,13.2791 L31.5957174,13.2791 C34.6676522,13.2791 34.6585217,17.81345 31.5957174,17.81345 L31.3578696,17.81345 C34.4543043,17.81345 34.3728913,22.3478 31.3578696,22.3478 L29.8175652,22.3478 C32.888587,22.3478 32.8803696,26.88215 29.8175652,26.88215 L28.0392609,26.882" id="Shape"></path>
                                <rect id="Rectangle-path" x="0.760869565" y="13.25" width="9.13043478" height="18"></rect>
                            </g>
                            <rect id="Rectangle-path" x="0" y="0" width="36" height="36"></rect>
                        </g>
                    </g>
                </g>
            </g>
        </g>
    </g>
</svg>