<?xml version="1.0" encoding="UTF-8"?>
<svg width="127px" height="17px" viewBox="0 0 127 17" version="1.1" xmlns="http://www.w3.org/2000/svg" xmlns:xlink="http://www.w3.org/1999/xlink">
    <!-- Generator: Sketch 50.2 (55047) - http://www.bohemiancoding.com/sketch -->
    <title>IBM Trusteer logo</title>
    <desc>Created with Sketch.</desc>
    <defs></defs>
    <g id="Page-1" stroke="none" stroke-width="1" fill="none" fill-rule="evenodd">
        <g id="1440-TrusteerRapport-Splash" transform="translate(-1083.000000, -165.000000)">
            <g id="IBM-Trusteer-logo" transform="translate(1083.000000, 165.000000)">
                <path d="M0.694,0.292 L2.19,0.292 L2.19,16 L0.694,16 L0.694,0.292 Z M6.66399999,7.178 L11.812,7.178 C12.4133363,7.178 12.9339978,7.10833403 13.374,6.969 C13.8140022,6.82966597 14.1806652,6.63900121 14.474,6.397 C14.7673348,6.15499879 14.9873326,5.87266828 15.134,5.55 C15.2806674,5.22733172 15.354,4.8826685 15.354,4.516 C15.354,2.55065684 14.1733451,1.568 11.812,1.568 L6.66399999,1.568 L6.66399999,7.178 Z M5.16799999,0.292 L11.812,0.292 C12.4720033,0.292 13.1063303,0.35433271 13.715,0.479 C14.3236697,0.60366729 14.8589977,0.81633183 15.321,1.117 C15.7830023,1.41766817 16.1533319,1.81366421 16.432,2.305 C16.710668,2.79633579 16.85,3.408663 16.85,4.142 C16.85,4.55266872 16.7840006,4.95233139 16.652,5.341 C16.5199993,5.72966861 16.3330012,6.08166509 16.091,6.397 C15.8489988,6.71233491 15.5630016,6.9799989 15.233,7.2 C14.9029983,7.4200011 14.5326687,7.57399956 14.122,7.662 L14.122,7.706 C15.134005,7.83800066 15.9406636,8.25232985 16.542,8.949 C17.1433363,9.64567015 17.444,10.5073282 17.444,11.534 C17.444,11.7833346 17.4220002,12.0656651 17.378,12.381 C17.3339998,12.6963349 17.2460006,13.0189984 17.114,13.349 C16.9819993,13.6790016 16.7913346,14.0053317 16.542,14.328 C16.2926654,14.6506683 15.9590021,14.9329988 15.541,15.175 C15.1229979,15.4170012 14.6096697,15.6149992 14.001,15.769 C13.3923303,15.9230008 12.6626709,16 11.812,16 L5.16799999,16 L5.16799999,0.292 Z M6.66399999,14.724 L11.812,14.724 C12.3693361,14.724 12.8973308,14.6763338 13.396,14.581 C13.8946691,14.4856662 14.3346647,14.3133346 14.716,14.064 C15.0973352,13.8146654 15.3979989,13.4810021 15.618,13.063 C15.8380011,12.6449979 15.948,12.1206698 15.948,11.49 C15.948,10.4779949 15.5923369,9.71900253 14.881,9.213 C14.1696631,8.70699747 13.1466733,8.454 11.812,8.454 L6.66399999,8.454 L6.66399999,14.724 Z M21.698,0.292 L26.912,14.064 L32.324,0.292 L34.524,0.292 L34.524,16 L33.028,16 L33.028,2.426 L32.984,2.426 L27.616,16 L26.208,16 L21.038,2.426 L20.994,2.426 L20.994,16 L19.498,16 L19.498,0.292 L21.698,0.292 Z" id="IBM-Copy" fill="#286AA6"></path>
                <path d="M46.994,3.196 L42.286,3.196 L42.286,0.292 L55.156,0.292 L55.156,3.196 L50.448,3.196 L50.448,16 L46.994,16 L46.994,3.196 Z M54.306,4.626 L57.276,4.626 L57.276,6.738 L57.32,6.738 C57.4666674,6.38599824 57.6646654,6.05966817 57.914,5.759 C58.1633346,5.45833183 58.4493317,5.20166773 58.772,4.989 C59.0946683,4.77633227 59.4393315,4.61133392 59.806,4.494 C60.1726685,4.37666608 60.553998,4.318 60.95,4.318 C61.1553343,4.318 61.3826654,4.3546663 61.632,4.428 L61.632,7.332 C61.4853326,7.30266652 61.3093343,7.27700011 61.104,7.255 C60.8986656,7.23299989 60.7006676,7.222 60.51,7.222 C59.9379971,7.222 59.454002,7.31733238 59.058,7.508 C58.661998,7.69866762 58.3430012,7.95899835 58.101,8.289 C57.8589988,8.61900165 57.6866672,9.0039978 57.584,9.444 C57.4813328,9.8840022 57.43,10.3606641 57.43,10.874 L57.43,16 L54.306,16 L54.306,4.626 Z M73.234,16 L70.264,16 L70.264,14.416 L70.198,14.416 C69.801998,15.0760033 69.2886698,15.5526652 68.658,15.846 C68.0273302,16.1393348 67.3820033,16.286 66.722,16.286 C65.8859958,16.286 65.200336,16.1760011 64.665,15.956 C64.129664,15.7359989 63.7080015,15.4243353 63.4,15.021 C63.0919984,14.6176646 62.8756673,14.1263362 62.751,13.547 C62.6263327,12.9676638 62.564,12.3260035 62.564,11.622 L62.564,4.626 L65.688,4.626 L65.688,11.05 C65.688,11.9886714 65.8346652,12.6889977 66.128,13.151 C66.4213348,13.6130023 66.9419962,13.844 67.69,13.844 C68.5406709,13.844 69.1566647,13.5910025 69.538,13.085 C69.9193352,12.5789975 70.11,11.7466725 70.11,10.588 L70.11,4.626 L73.234,4.626 L73.234,16 Z M77.73,12.304 C77.73,12.641335 77.7996659,12.9309988 77.939,13.173 C78.078334,13.4150012 78.2579989,13.6129992 78.478,13.767 C78.6980011,13.9210008 78.9509985,14.0346663 79.237,14.108 C79.5230014,14.1813337 79.8199984,14.218 80.128,14.218 C80.3480011,14.218 80.5789988,14.1923336 80.821,14.141 C81.0630012,14.0896664 81.282999,14.0090005 81.481,13.899 C81.679001,13.7889995 81.8439993,13.6423342 81.976,13.459 C82.1080006,13.2756658 82.174,13.0446681 82.174,12.766 C82.174,12.2966643 81.8623364,11.9446678 81.239,11.71 C80.6156635,11.4753322 79.7466722,11.2406678 78.632,11.006 C78.177331,10.9033328 77.7336688,10.782334 77.301,10.643 C76.8683311,10.503666 76.483335,10.3203345 76.146,10.093 C75.8086649,9.86566553 75.5373343,9.57966839 75.332,9.235 C75.1266656,8.89033161 75.024,8.46866916 75.024,7.97 C75.024,7.236663 75.1669985,6.63533568 75.453,6.166 C75.7390014,5.69666432 76.1166643,5.32633469 76.586,5.055 C77.0553356,4.78366531 77.5833304,4.59300055 78.17,4.483 C78.7566696,4.37299945 79.3579969,4.318 79.974,4.318 C80.590003,4.318 81.1876637,4.37666608 81.767,4.494 C82.3463362,4.61133392 82.863331,4.80933194 83.318,5.088 C83.7726689,5.36666806 84.1503318,5.73699769 84.451,6.199 C84.7516681,6.66100231 84.931333,7.24399648 84.99,7.948 L82.02,7.948 C81.9759997,7.34666366 81.7486687,6.93966773 81.338,6.727 C80.9273312,6.51433227 80.4433361,6.408 79.886,6.408 C79.7099991,6.408 79.5193343,6.41899989 79.314,6.441 C79.1086656,6.46300011 78.9216675,6.5106663 78.753,6.584 C78.5843325,6.6573337 78.4413339,6.76366597 78.324,6.903 C78.206666,7.04233403 78.148,7.22933216 78.148,7.464 C78.148,7.74266806 78.2506656,7.96999912 78.456,8.146 C78.6613343,8.32200088 78.9289983,8.46499945 79.259,8.575 C79.5890016,8.68500055 79.9666645,8.78399956 80.392,8.872 C80.8173354,8.96000044 81.2499978,9.05533282 81.69,9.158 C82.1446689,9.26066718 82.5883311,9.3853326 83.021,9.532 C83.4536688,9.6786674 83.8386649,9.87299879 84.176,10.115 C84.513335,10.3570012 84.7846656,10.6576649 84.99,11.017 C85.1953343,11.3763351 85.298,11.8199974 85.298,12.348 C85.298,13.0960037 85.1476681,13.7229975 84.847,14.229 C84.5463318,14.7350025 84.1540024,15.1419985 83.67,15.45 C83.1859975,15.7580015 82.6323364,15.9743327 82.009,16.099 C81.3856635,16.2236673 80.7513365,16.286 80.106,16.286 C79.4459967,16.286 78.8006698,16.2200007 78.17,16.088 C77.5393301,15.9559993 76.9783358,15.7360015 76.487,15.428 C75.9956642,15.1199985 75.5923349,14.7130025 75.277,14.207 C74.9616651,13.7009975 74.7893334,13.0666705 74.76,12.304 L77.73,12.304 Z M90.784,4.626 L93.072,4.626 L93.072,6.716 L90.784,6.716 L90.784,12.348 C90.784,12.8760026 90.8719991,13.2279991 91.048,13.404 C91.2240008,13.5800009 91.5759973,13.668 92.104,13.668 C92.2800008,13.668 92.4486658,13.6606667 92.61,13.646 C92.7713341,13.6313333 92.9253326,13.6093335 93.072,13.58 L93.072,16 C92.8079986,16.0440002 92.5146682,16.0733333 92.192,16.088 C91.8693317,16.1026667 91.5540015,16.11 91.246,16.11 C90.7619975,16.11 90.3036688,16.0770003 89.871,16.011 C89.4383311,15.9449997 89.0570016,15.8166676 88.727,15.626 C88.3969983,15.4353324 88.1366676,15.1640018 87.946,14.812 C87.7553323,14.4599982 87.66,13.9980029 87.66,13.426 L87.66,6.716 L85.768,6.716 L85.768,4.626 L87.66,4.626 L87.66,1.216 L90.784,1.216 L90.784,4.626 Z M101.924,9.092 C101.777333,8.29999604 101.517002,7.69866872 101.143,7.288 C100.768998,6.87733128 100.20067,6.672 99.4379999,6.672 C98.9393308,6.672 98.5250016,6.75633249 98.1949999,6.925 C97.8649983,7.09366751 97.6010009,7.30266542 97.4029999,7.552 C97.204999,7.80133458 97.065667,8.06533194 96.9849999,8.344 C96.9043329,8.62266806 96.8566667,8.8719989 96.8419999,9.092 L101.924,9.092 Z M96.8419999,11.072 C96.8860002,12.0840051 97.1426643,12.8173311 97.6119999,13.272 C98.0813356,13.7266689 98.7559955,13.954 99.6359999,13.954 C100.26667,13.954 100.809331,13.7963349 101.264,13.481 C101.718669,13.1656651 101.997333,12.8320018 102.1,12.48 L104.85,12.48 C104.409998,13.8440068 103.735338,14.8193304 102.826,15.406 C101.916662,15.9926696 100.816673,16.286 99.5259999,16.286 C98.6313288,16.286 97.8246702,16.1430014 97.1059999,15.857 C96.3873297,15.5709986 95.7786691,15.1640026 95.2799999,14.636 C94.7813308,14.1079974 94.3963346,13.477337 94.1249999,12.744 C93.8536653,12.010663 93.7179999,11.2040044 93.7179999,10.324 C93.7179999,9.47332908 93.8573319,8.681337 94.1359999,7.948 C94.414668,7.214663 94.810664,6.58033601 95.3239999,6.045 C95.8373358,5.50966399 96.4496631,5.08800154 97.1609999,4.78 C97.8723368,4.47199846 98.6606623,4.318 99.5259999,4.318 C100.494005,4.318 101.33733,4.50499813 102.056,4.879 C102.77467,5.25300187 103.364998,5.75533018 103.827,6.386 C104.289002,7.01666982 104.622666,7.7353293 104.828,8.542 C105.033334,9.3486707 105.106667,10.1919956 105.048,11.072 L96.8419999,11.072 Z M114.252,9.092 C114.105333,8.29999604 113.845002,7.69866872 113.471,7.288 C113.096998,6.87733128 112.52867,6.672 111.766,6.672 C111.267331,6.672 110.853002,6.75633249 110.523,6.925 C110.192998,7.09366751 109.929001,7.30266542 109.731,7.552 C109.532999,7.80133458 109.393667,8.06533194 109.313,8.344 C109.232333,8.62266806 109.184667,8.8719989 109.17,9.092 L114.252,9.092 Z M109.17,11.072 C109.214,12.0840051 109.470664,12.8173311 109.94,13.272 C110.409336,13.7266689 111.083996,13.954 111.964,13.954 C112.59467,13.954 113.137331,13.7963349 113.592,13.481 C114.046669,13.1656651 114.325333,12.8320018 114.428,12.48 L117.178,12.48 C116.737998,13.8440068 116.063338,14.8193304 115.154,15.406 C114.244662,15.9926696 113.144673,16.286 111.854,16.286 C110.959329,16.286 110.15267,16.1430014 109.434,15.857 C108.71533,15.5709986 108.106669,15.1640026 107.608,14.636 C107.109331,14.1079974 106.724335,13.477337 106.453,12.744 C106.181665,12.010663 106.046,11.2040044 106.046,10.324 C106.046,9.47332908 106.185332,8.681337 106.464,7.948 C106.742668,7.214663 107.138664,6.58033601 107.652,6.045 C108.165336,5.50966399 108.777663,5.08800154 109.489,4.78 C110.200337,4.47199846 110.988662,4.318 111.854,4.318 C112.822005,4.318 113.66533,4.50499813 114.384,4.879 C115.10267,5.25300187 115.692998,5.75533018 116.155,6.386 C116.617002,7.01666982 116.950666,7.7353293 117.156,8.542 C117.361334,9.3486707 117.434667,10.1919956 117.376,11.072 L109.17,11.072 Z M118.924,4.626 L121.894,4.626 L121.894,6.738 L121.938,6.738 C122.084667,6.38599824 122.282665,6.05966817 122.532,5.759 C122.781334,5.45833183 123.067332,5.20166773 123.39,4.989 C123.712668,4.77633227 124.057331,4.61133392 124.424,4.494 C124.790668,4.37666608 125.171998,4.318 125.568,4.318 C125.773334,4.318 126.000665,4.3546663 126.25,4.428 L126.25,7.332 C126.103333,7.30266652 125.927334,7.27700011 125.722,7.255 C125.516666,7.23299989 125.318668,7.222 125.128,7.222 C124.555997,7.222 124.072002,7.31733238 123.676,7.508 C123.279998,7.69866762 122.961001,7.95899835 122.719,8.289 C122.476999,8.61900165 122.304667,9.0039978 122.202,9.444 C122.099333,9.8840022 122.048,10.3606641 122.048,10.874 L122.048,16 L118.924,16 L118.924,4.626 Z" id="Trusteer-Copy" fill="#78BE20"></path>
            </g>
        </g>
    </g>
</svg>