<?xml version="1.0" encoding="UTF-8"?>
<svg width="29px" height="35px" viewBox="0 0 29 35" version="1.1" xmlns="http://www.w3.org/2000/svg" xmlns:xlink="http://www.w3.org/1999/xlink">
    <!-- Generator: Sketch 50.2 (55047) - http://www.bohemiancoding.com/sketch -->
    <title>thin-0635_anti_virus_protection_shield</title>
    <desc>Created with Sketch.</desc>
    <defs></defs>
    <g id="Page-1" stroke="none" stroke-width="1" fill="none" fill-rule="evenodd">
        <g id="1440-TrusteerRapport-Splash" transform="translate(-1085.000000, -401.000000)">
            <g id="sidebar" transform="translate(1043.000000, 80.000000)">
                <g id="Group-3" transform="translate(33.000000, 74.000000)">
                    <g id="Group-2" transform="translate(6.000000, 149.000000)">
                        <g id="thin-0635_anti_virus_protection_shield" transform="translate(0.000000, 98.000000)">
                            <path d="M29.7511023,6.74196241 C29.7422418,6.7445853 28.9495154,6.97248606 27.7336301,6.97248606 C25.1623785,6.97248606 21.4388368,6.00623932 18.3009437,1.4013035 C17.9362353,0.866232166 17.0634789,0.866232166 16.6989133,1.4013035 C12.910776,6.9605373 7.57019833,7.54427797 5.25261342,6.74327385 C4.63238042,6.55529945 4,7.0281498 4,7.69669753 L4,17.0607373 C4,30.1307873 17.1106394,33.9274331 17.2426891,33.965028 C17.3265777,33.9883427 17.4128958,34 17.4993569,34 C17.585675,34 17.6721361,33.9883427 17.7560248,33.965028 C17.8893606,33.9274331 31,30.1307873 31,17.0607373 L31,7.69655182 C31,7.04869584 30.3863409,6.55777663 29.7511023,6.74196241 L29.7511023,6.74196241 Z" id="Shape" stroke="#78BE20" stroke-width="2"></path>
                            <rect id="Rectangle-path" x="0" y="0" width="35" height="35"></rect>
                        </g>
                    </g>
                </g>
            </g>
        </g>
    </g>
</svg>