<svg id="Layer_1" data-name="Layer 1" xmlns="http://www.w3.org/2000/svg" viewBox="0 0 60 60"><defs><style>.cls-1,.cls-2{fill:none;}.cls-2{stroke:#bbb;stroke-width:1.5px;}</style></defs><title>Umbrella</title><g id="Artboard-2"><g id="Umbrella"><rect id="Rectangle-path" class="cls-1" /><path id="Shape" class="cls-2" d="M30.4,1.6V6.4"/><path id="Shape-2" data-name="Shape" class="cls-2" d="M30.4,36.8v16"/><path id="Shape-3" data-name="Shape" class="cls-2" d="M41.6,52.8a5.6,5.6,0,0,1-11.2,0"/><path id="Shape-4" data-name="Shape" class="cls-2" d="M15.24,31.2H16a7,7,0,0,1,13.25,0h.51A7,7,0,0,1,43,31.2h.78a7,7,0,0,1,13.25,0h.55c0-13.7-12.54-24.8-28-24.8s-28,11.1-28,24.8H2a7,7,0,0,1,13.25,0Z"/></g></g></svg>