<svg xmlns="http://www.w3.org/2000/svg" xmlns:xlink="http://www.w3.org/1999/xlink" width="16" height="11" viewBox="0 0 16 11">
    <defs>
        <path id="a" d="M0 0h16v11H0z"/>
        <linearGradient id="e" x1="50%" x2="50%" y1="0%" y2="100%">
            <stop offset="0%" stop-color="#FFF"/>
            <stop offset="100%" stop-color="#F0F0F0"/>
        </linearGradient>
        <path id="d" d="M1.143 1.467A.374.374 0 0 1 .762 1.1c0-.203.17-.367.38-.367.211 0 .382.164.382.367 0 .203-.17.367-.381.367zm1.524 0a.374.374 0 0 1-.381-.367c0-.203.17-.367.38-.367.211 0 .382.164.382.367 0 .203-.17.367-.381.367zm1.523 0a.374.374 0 0 1-.38-.367c0-.203.17-.367.38-.367s.381.164.381.367c0 .203-.17.367-.38.367zm1.524 0a.374.374 0 0 1-.38-.367c0-.203.17-.367.38-.367s.381.164.381.367c0 .203-.17.367-.38.367zm-3.81.733a.374.374 0 0 1-.38-.367c0-.202.17-.366.38-.366.211 0 .382.164.382.366 0 .203-.17.367-.381.367zm1.525 0a.374.374 0 0 1-.381-.367c0-.202.17-.366.38-.366.211 0 .382.164.382.366 0 .203-.171.367-.381.367zm1.523 0a.374.374 0 0 1-.38-.367c0-.202.17-.366.38-.366s.381.164.381.366c0 .203-.17.367-.38.367zm.762.733a.374.374 0 0 1-.38-.366c0-.203.17-.367.38-.367s.381.164.381.367c0 .202-.17.366-.38.366zm-1.524 0a.374.374 0 0 1-.38-.366c0-.203.17-.367.38-.367s.381.164.381.367c0 .202-.17.366-.38.366zm-1.523 0a.374.374 0 0 1-.381-.366c0-.203.17-.367.38-.367.211 0 .382.164.382.367 0 .202-.17.366-.381.366zm-1.524 0a.374.374 0 0 1-.381-.366c0-.203.17-.367.38-.367.211 0 .382.164.382.367 0 .202-.17.366-.381.366zm.762.734a.374.374 0 0 1-.381-.367c0-.203.17-.367.38-.367.211 0 .382.164.382.367 0 .203-.17.367-.381.367zm1.524 0a.374.374 0 0 1-.381-.367c0-.203.17-.367.38-.367.211 0 .382.164.382.367 0 .203-.171.367-.381.367zm1.523 0a.374.374 0 0 1-.38-.367c0-.203.17-.367.38-.367s.381.164.381.367c0 .203-.17.367-.38.367zm.762.733a.374.374 0 0 1-.38-.367c0-.202.17-.366.38-.366s.381.164.381.366c0 .203-.17.367-.38.367zm-1.524 0a.374.374 0 0 1-.38-.367c0-.202.17-.366.38-.366s.381.164.381.366c0 .203-.17.367-.38.367zm-1.523 0a.374.374 0 0 1-.381-.367c0-.202.17-.366.38-.366.211 0 .382.164.382.366 0 .203-.17.367-.381.367zm-1.524 0a.374.374 0 0 1-.381-.367c0-.202.17-.366.38-.366.211 0 .382.164.382.366 0 .203-.17.367-.381.367z"/>
        <filter id="c" width="118.7%" height="154.5%" x="-9.4%" y="-13.6%" filterUnits="objectBoundingBox">
            <feOffset dy="1" in="SourceAlpha" result="shadowOffsetOuter1"/>
            <feColorMatrix in="shadowOffsetOuter1" values="0 0 0 0 0 0 0 0 0 0 0 0 0 0 0 0 0 0 0.06 0"/>
        </filter>
    </defs>
    <g fill="none" fill-rule="evenodd">
        <mask id="b" fill="#fff">
            <use xlink:href="#a"/>
        </mask>
        <use fill="#FFF" xlink:href="#a"/>
        <path fill="#D02F44" d="M0 0h16v.733H0V0zm0 1.467h16V2.2H0v-.733zm0 1.466h16v.734H0v-.734zM0 4.4h16v.733H0V4.4zm0 1.467h16V6.6H0v-.733zm0 1.466h16v.734H0v-.734zM0 8.8h16v.733H0V8.8zm0 1.467h16V11H0v-.733z" mask="url(#b)"/>
        <path fill="#46467F" d="M0 0h6.857v5.133H0z" mask="url(#b)"/>
        <g mask="url(#b)">
            <use fill="#000" filter="url(#c)" xlink:href="#d"/>
            <use fill="url(#e)" xlink:href="#d"/>
        </g>
    </g>
</svg>
