<?xml version="1.0" encoding="UTF-8"?>
<svg width="20px" height="24px" viewBox="0 0 20 24" version="1.1" xmlns="http://www.w3.org/2000/svg" xmlns:xlink="http://www.w3.org/1999/xlink">
    <!-- Generator: Sketch 47.1 (45422) - http://www.bohemiancoding.com/sketch -->
    <title>userlock</title>
    <desc>Created with Sketch.</desc>
    <defs></defs>
    <g id="Symbols" stroke="none" stroke-width="1" fill="none" fill-rule="evenodd">
        <g id="icons/username/password" transform="translate(-11.000000, -9.000000)" stroke="#4A4A4A">
            <g id="userlock" transform="translate(11.500000, 10.000000)">
                <path d="M8.16326531,11.2999992 C5.60181406,11.2999992 3.32970522,11.878684 1.83673469,12.3820854 C0.734693878,12.7548745 0,13.7934233 0,14.9571421 L0,18.5562351 L7.25623583,18.5562351" id="Shape"></path>
                <g id="log" transform="translate(11.000000, 10.000000)">
                    <g id="Group">
                        <path d="M1.59006211,5.53043478 L1.59006211,2.86956522 C1.59006211,1.40869565 2.7378882,0.260869565 4.19875776,0.260869565 L4.19875776,0.260869565 C5.65962733,0.260869565 6.80745342,1.40869565 6.80745342,2.86956522 L6.80745342,5.53043478" id="Shape"></path>
                        <circle id="Oval" stroke-linecap="square" cx="4.19875776" cy="8.08695652" r="3.65217391"></circle>
                        <circle id="Oval" stroke-linecap="square" cx="4.19875776" cy="7.56521739" r="1.04347826"></circle>
                        <path d="M4.19875776,8.60869565 L4.19875776,9.65217391" id="Shape" stroke-linecap="square"></path>
                    </g>
                </g>
                <path d="M8.61678005,11.3378685 L8.61678005,11.3378685 C6.11247166,11.3378685 4.08163265,8.4 4.08163265,5.89569161 L4.08163265,4.98866213 C4.08163265,2.48435374 6.11247166,0.453514739 8.61678005,0.453514739 L8.61678005,0.453514739 C11.1210884,0.453514739 13.1519274,2.48435374 13.1519274,4.98866213 L13.1519274,5.89569161 C13.1519274,8.4 11.1210884,11.3378685 8.61678005,11.3378685 Z" id="Shape" stroke-linecap="square"></path>
            </g>
        </g>
    </g>
</svg>