<svg xmlns="http://www.w3.org/2000/svg" viewBox="0 0 64 54">
    <g fill="none" fill-rule="evenodd">
        <g stroke="#009639" stroke-width="2">
            <path d="M1.095 1.666h61.333v50.667H1.095zM62.359 15.003H1.223M9.064 15.003l14.809-13.19M1.223 12.204l12.195-10.39M19.518 15.003l14.808-13.19M29.972 15.003L44.78 1.813M40.426 15.003l14.808-13.19M50.88 15.003l11.479-9.428"/>
            <path d="M43.165 40.518L33.93 24.245c-.97-1.71-3.436-1.71-4.406 0l-9.236 16.273c-.957 1.684.265 3.783 2.203 3.783h18.472c1.939 0 3.16-2.097 2.203-3.783zM31.726 29.271v6.94M31.726 37.652v1.524"/>
        </g>
        <path d="M-1-5h64v64H-1z"/>
    </g>
</svg>
