<?xml version="1.0" encoding="UTF-8"?>
<svg viewBox="0 0 36 36" version="1.1" xmlns="http://www.w3.org/2000/svg" xmlns:xlink="http://www.w3.org/1999/xlink">
    <!-- Generator: Sketch 47.1 (45422) - http://www.bohemiancoding.com/sketch -->
    <title>36px/Error</title>
    <desc>Created with Sketch.</desc>
    <defs></defs>
    <g id="Symbols" stroke="none" stroke-width="1" fill="none" fill-rule="evenodd">
        <g id="36px/Error">
            <path d="M18.7280003,15 L17.264,15 L17.4560001,22.6400013 L18.5360003,22.6400013 L18.7280003,15 Z M18.0000002,24.3360015 C17.4640001,24.3360015 17,24.8000016 17,25.3360017 C17,25.8720018 17.4640001,26.3440019 18.0000002,26.3440019 C18.5360003,26.3440019 19.0000003,25.8720018 19.0000003,25.3360017 C19.0000003,24.8000016 18.5360003,24.3360015 18.0000002,24.3360015 Z" id="!" fill="#D22630"></path>
            <path d="M19.6981132,9.72911051 L30.0981132,26.4433962 L30.0981132,26.4433962 C30.6816594,27.3812383 30.3944458,28.6145671 29.4566038,29.1981132 C29.1394982,29.3954233 28.7734799,29.5 28.4,29.5 L7.6,29.5 L7.6,29.5 C6.4954305,29.5 5.6,28.6045695 5.6,27.5 C5.6,27.1265201 5.70457668,26.7605018 5.90188679,26.4433962 L16.3018868,9.72911051 L16.3018868,9.72911051 C16.8854329,8.79126848 18.1187617,8.50405493 19.0566038,9.08760108 C19.3167572,9.24947433 19.53624,9.46895706 19.6981132,9.72911051 Z" id="Triangle" stroke="#D22630"></path>
        </g>
    </g>
</svg>