<?xml version="1.0" encoding="UTF-8"?>
<svg viewBox="0 0 41 47" version="1.1" xmlns="http://www.w3.org/2000/svg" xmlns:xlink="http://www.w3.org/1999/xlink">
    <!-- Generator: Sketch 48.2 (47327) - http://www.bohemiancoding.com/sketch -->
    <title>Group 2</title>
    <desc>Created with Sketch.</desc>
    <defs></defs>
    <g id="1440---Loan-Restructure-Reduce---Done" stroke="none" stroke-width="1" fill="none" fill-rule="evenodd" transform="translate(-978.000000, -673.000000)">
        <g id="thin-0310_support_help_talk_call" transform="translate(979.000000, 674.000000)" stroke="#666666">
            <g id="Group">
                <g id="Group-2">
                    <path d="M10.5854,24.5764 C11.2752,27.0462 12.5572,28.5324 14.036,30.0444 L14.036,32.2794 C13.3732,34.4074 8.1342,37.827 1.0092,40.5822 C0.402,40.818 0,41.4086 0,42.069 L0,43.2044 C0,44.0822 0.702,44.7956 1.5676,44.7956 L37.3456,44.7956 C38.2112,44.7956 38.9132,44.0822 38.9132,43.2044 L38.9132,42.069 C38.9132,41.4088 38.5112,40.8164 37.904,40.5822 C30.779,37.8288 25.5418,34.4098 24.8772,32.2794 L24.8772,30.0444 C26.3552,28.5324 27.6766,27.0454 28.3664,24.5764 L28.3664,13.4852 C28.3664,8.3204 26.0326,5 19.4574,5 C13.052,5 10.5852,8.3202 10.5852,13.4852 L10.5852,24.5764 L10.5854,24.5764 Z" id="Shape"></path>
                    <path d="M31.8364,25 C31.8364,30.4226 28.0632,31.3072 22,31.4198" id="Shape"></path>
                    <path d="M10.987,25.0912 L9.2002,25.0912 C7.985,25.0912 7,24.1062 7,22.891 L7,16.2002 C7,14.985 7.985,14 9.2002,14 L10.9872,14" id="Shape"></path>
                    <path d="M29,14 L30.787,14 C32.0022,14 32.9872,14.985 32.9872,16.2002 L32.9872,22.8912 C32.9872,24.1064 32.0022,25.0914 30.787,25.0914 L29,25.0914" id="Shape"></path>
                    <path d="M9,13.7192 L9,10.6004 C9,4.746 13.746,0 19.6004,0 C25.4548,0 30.2008,4.746 30.2008,10.6004 L30.2008,13.7192" id="Shape"></path>
                    <circle id="Oval" cx="20.609" cy="30.609" r="1.609"></circle>
                </g>
            </g>
        </g>
    </g>
</svg>