<?xml version="1.0" encoding="UTF-8"?>
<svg  viewBox="0 0 481 289" version="1.1" xmlns="http://www.w3.org/2000/svg" xmlns:xlink="http://www.w3.org/1999/xlink">
    <!-- Generator: Sketch 47.1 (45422) - http://www.bohemiancoding.com/sketch -->
    <title>Maintenance Page</title>
    <desc>Created with Sketch.</desc>
    <defs></defs>
    <g id="Page-1" stroke="none" stroke-width="1" fill="none" fill-rule="evenodd">
        <g id="1440-Maintenance-page" transform="translate(-959.000000, -358.000000)">
            <g id="Maintenance-Page" transform="translate(960.000000, 359.000000)">
                <g id="Group-31-Copy-3" transform="translate(78.000000, 0.000000)" stroke="#009639" fill="#009639">
                    <polygon id="Path-2-Copy-8" points="401.007714 0.149533179 226.453819 0.149533179 226.108192 3.63556551 401.007714 3.63556551"></polygon>
                    <polygon id="Path-4-Copy-2" points="175.506409 32.8775762 19.2154472 32.8775762 15.7529703 30 3.37220123 30 3.37220123 31.3843657 -2.84217094e-14 31.3843657 -2.84217094e-14 37.3194238 3.37220123 37.3194238 3.37220123 38.143464 3.37220123 38.6255761 15.7529703 38.6255761 19.2154472 35.904411 175.506409 35.904411"></polygon>
                    <polygon id="Path-4-Copy-2" transform="translate(200.755524, 18.113087) rotate(-33.000000) translate(-200.755524, -18.113087) " points="231.096644 16.8853273 170.526648 16.5719943 170.414405 19.4528553 229.29853 19.6541798"></polygon>
                </g>
                <g id="Group-30-Copy-3" transform="translate(50.000000, 32.000000)" stroke="#006342" fill="#006342">
                    <polygon id="Path-2-Copy-7" points="429.007714 0.862939875 254.376523 0.862939875 254 4.909471 429.007714 4.909471"></polygon>
                    <path d="M203.543443,33.8775762 L26.3902228,33.8775762 L22.9277459,31 L10.5469768,31 L10.5469768,34.5358793 C4.66642484,34.5358793 1.39773033,34.5358793 0.740893336,34.5358793 C-0.244362163,34.5358793 -0.249563305,36.1608147 0.740893336,36.1608147 C1.40119776,36.1608147 4.66989226,36.1608147 10.5469768,36.1608147 L10.5469768,39.143464 L10.5469768,39.6255761 L22.9277459,39.6255761 L26.3902228,36.904411 L203.543443,36.904411 L203.543443,33.8775762 Z" id="Path-4-Copy"></path>
                    <polygon id="Path-4-Copy-6" transform="translate(228.877562, 18.977273) rotate(-33.000000) translate(-228.877562, -18.977273) " points="259.226082 17.553141 198.545452 17.119007 198.529042 20.4002443 257.094467 20.8355398"></polygon>
                </g>
                <g id="Group-28-Copy-3" transform="translate(85.000000, 46.000000)" stroke="#78BE20" fill="#78BE20">
                    <path d="M168.4712,33.6286749 L25.4807222,33.6286749 L19.1260825,28 L9.43848713,28 L9.43848713,31.4846562 C4.38413714,31.4846562 1.52726252,31.4846562 0.867863274,31.4846562 C-0.121235594,31.4846562 -0.120694757,32.4894751 0.867863274,32.4894751 C1.52690196,32.4894751 4.38377658,32.4894751 9.43848713,32.4894751 L9.43848713,38.4994585 C4.51834486,38.4994585 1.66147024,38.4994585 0.867863274,38.4994585 C-0.322547175,38.4994585 -0.25554347,39.496762 0.867863274,39.496762 C1.6168011,39.496762 4.47367572,39.496762 9.43848713,39.496762 L9.43848713,41.7859028 L9.43848713,42.8319812 L19.1260825,42.8319812 L25.4807222,37.1229196 L168.4712,37.1229196 L168.4712,33.6286749 Z" id="Path-2"></path>
                    <polygon id="Path-2-Copy-6" points="394.007714 1 219 1 219 4.49231962 394.007714 4.49231962"></polygon>
                    <polygon id="Path-4-Copy-7" transform="translate(193.495122, 18.931645) rotate(-33.000000) translate(-193.495122, -18.931645) " points="223.710902 17.5943098 163.37992 17.0971256 163.279342 20.7661654 222.180281 20.6353791"></polygon>
                </g>
                <g id="Group-29-Copy-3" transform="translate(159.000000, 88.000000)" stroke="#006342" fill="#006342">
                    <polygon id="Path-2-Copy-5" points="320.007714 1 145 1 145 4.4942447 320.007714 4.4942447"></polygon>
                    <path d="M94.5434435,31.8775762 L26.3902228,31.8775762 L22.9277459,29 L10.5469768,29 L10.5469768,32.5358793 C4.66642484,32.5358793 1.39773033,32.5358793 0.740893336,32.5358793 C-0.244362163,32.5358793 -0.249563305,34.1608147 0.740893336,34.1608147 C1.40119776,34.1608147 4.66989226,34.1608147 10.5469768,34.1608147 L10.5469768,37.143464 L10.5469768,37.6255761 L22.9277459,37.6255761 L26.3902228,34.904411 L94.5434435,34.904411 L94.5434435,31.8775762 Z" id="Path-4-Copy-5"></path>
                    <polygon id="Path-4-Copy-8" transform="translate(119.333169, 18.455622) rotate(-33.000000) translate(-119.333169, -18.455622) " points="149.51286 17.604681 89.1534772 16.3049614 89.8160649 19.2484226 148.154756 20.6062827"></polygon>
                </g>
                <g id="Group-27-Copy-3" transform="translate(20.000000, 112.000000)" stroke="#78BE20" fill="#78BE20">
                    <polygon id="Path-2-Copy-4" points="459.007714 2.32763455e-15 284 0 284 3.41126437 459.007714 3.4942447"></polygon>
                    <path d="M233.494194,33.0825527 L15.843246,33.0825527 C15.843246,33.0825527 13.2799127,32.4690586 8.15324603,31.2420705 C8.05980592,31.2197071 7.40840815,28.8757101 6.19905269,24.2100797 L4.40839733,24.2100797 C4.31810939,11.9317324 4.26916091,5.26506577 4.26155188,4.21007965 C4.25013835,2.62760047 2.21453456,2.56597397 2.20394727,4.21007965 C2.19688907,5.30615011 2.15858031,11.9728168 2.089021,24.2100797 L0,24.2100797 L1.3763841e-16,34.1009763 L1.3763841e-16,37.0008065 L14.1966564,37.0008065 L15.843246,36.1093875 L233.494194,36.1093875 L233.494194,33.0825527 Z" id="Path-4"></path>
                    <polygon id="Path-4-Copy-9" transform="translate(258.611484, 18.135182) rotate(-33.000000) translate(-258.611484, -18.135182) " points="288.853822 16.5640357 228.369145 16.6376834 228.37893 19.7063273 287.634982 19.2632553"></polygon>
                </g>
                <g id="Group-26-Copy-3" transform="translate(50.000000, 145.000000)" stroke="#78BE20" fill="#78BE20">
                    <polygon id="Path-2-Copy-3" points="429.007714 2.32763455e-15 254 0 254 3.4942447 429.007714 3.4942447"></polygon>
                    <path d="M203.502684,32.8775762 L26.3902228,32.8775762 L22.9277459,30 L10.5469768,30 L10.5469768,33.5358793 C4.66642484,33.5358793 1.39773033,33.5358793 0.740893336,33.5358793 C-0.244362163,33.5358793 -0.249563305,35.1608147 0.740893336,35.1608147 C1.40119776,35.1608147 4.66989226,35.1608147 10.5469768,35.1608147 L10.5469768,38.143464 L10.5469768,38.6255761 L22.9277459,38.6255761 L26.3902228,35.904411 L203.502684,35.904411 L203.502684,32.8775762 Z" id="Path-4-Copy-3"></path>
                    <polygon id="Path-4-Copy-10" transform="translate(228.549162, 17.983693) rotate(-33.000000) translate(-228.549162, -17.983693) " points="258.773075 16.5825472 198.40812 16.4432359 198.32525 19.5241507 257.397735 19.3961437"></polygon>
                </g>
                <g id="Group-25-Copy-3" transform="translate(160.000000, 191.000000)" stroke="#4CB574" fill="#4CB574">
                    <polygon id="Path-2-Copy-9" points="319.007714 2.32763455e-15 144 0 144 3.4942447 319.007714 3.4942447"></polygon>
                    <path d="M94.5434435,32.8775762 L26.3902228,32.8775762 L22.9277459,30 L10.5469768,30 L10.5469768,33.5358793 C4.66642484,33.5358793 1.39773033,33.5358793 0.740893336,33.5358793 C-0.244362163,33.5358793 -0.249563305,35.1608147 0.740893336,35.1608147 C1.40119776,35.1608147 4.66989226,35.1608147 10.5469768,35.1608147 L10.5469768,38.143464 L10.5469768,38.6255761 L22.9277459,38.6255761 L26.3902228,35.904411 L94.5434435,35.904411 L94.5434435,32.8775762 Z" id="Path-4-Copy-14"></path>
                    <polygon id="Path-4-Copy-13" transform="translate(119.181551, 17.952309) rotate(-33.000000) translate(-119.181551, -17.952309) " points="148.962763 16.2702354 89.4612118 16.1565117 89.4003387 19.7481057 147.951396 19.3258483"></polygon>
                </g>
                <g id="Group-23-Copy-3" transform="translate(53.000000, 245.000000)" stroke="#007F33" fill="#007F33">
                    <path d="M200.488436,32.6286749 L25.4807222,32.6286749 L19.1260825,27 L9.43848713,27 L9.43848713,30.4846562 C4.38413714,30.4846562 1.52726252,30.4846562 0.867863274,30.4846562 C-0.121235594,30.4846562 -0.120694757,31.4894751 0.867863274,31.4894751 C1.52690196,31.4894751 4.38377658,31.4894751 9.43848713,31.4894751 L9.43848713,37.4994585 C4.51834486,37.4994585 1.66147024,37.4994585 0.867863274,37.4994585 C-0.322547175,37.4994585 -0.25554347,38.496762 0.867863274,38.496762 C1.6168011,38.496762 4.47367572,38.496762 9.43848713,38.496762 L9.43848713,40.7859028 L9.43848713,41.8319812 L19.1260825,41.8319812 L25.4807222,36.1229196 L200.488436,36.1229196 L200.488436,32.6286749 Z" id="Path-2-Copy"></path>
                    <polygon id="Path-2-Copy-2" points="426.007714 2.32763455e-15 251 0 251 3.4942447 426.007714 3.4942447"></polygon>
                    <polygon id="Path-4-Copy-12" transform="translate(225.607840, 18.139971) rotate(-33.000000) translate(-225.607840, -18.139971) " points="255.848676 16.5762122 196.048504 16.619968 195.367005 19.7037299 254.462238 19.3251474"></polygon>
                </g>
                <g id="Group-24-Copy-3" transform="translate(0.000000, 209.000000)" stroke="#009639" fill="#009639">
                    <polygon id="Path-2-Copy" points="479.007714 1 304 1 304 4.4942447 479.007714 4.4942447"></polygon>
                    <polygon id="Path-4-Copy-11" transform="translate(278.295665, 18.802346) rotate(-33.000000) translate(-278.295665, -18.802346) " points="308.524761 17.7193138 248.397946 17.0701672 248.06657 20.3112455 306.696541 20.5345257"></polygon>
                    <polygon id="Path-4-Copy-4" points="253.508995 33.8775762 19.2154472 33.8775762 15.7529703 31 3.37220123 31 3.37220123 32.3843657 -2.84217094e-14 32.3843657 -2.84217094e-14 38.3194238 3.37220123 38.3194238 3.37220123 39.143464 3.37220123 39.6255761 15.7529703 39.6255761 19.2154472 36.904411 253.508995 36.904411"></polygon>
                </g>
            </g>
        </g>
    </g>
</svg>