<?xml version="1.0" encoding="UTF-8"?>
<svg viewBox="0 0 40 40" version="1.1" xmlns="http://www.w3.org/2000/svg" xmlns:xlink="http://www.w3.org/1999/xlink">
    <!-- Generator: Sketch 46.2 (44496) - http://www.bohemiancoding.com/sketch -->
    <title>Icons/NedbanklogoBig</title>
    <desc>Created with Sketch.</desc>
    <defs></defs>
    <g id="Symbols" stroke="none" stroke-width="1" fill="none" fill-rule="evenodd">
        <g id="Icons/NedbanklogoBig" fill="#FFFFFF">
            <g id="Nedbank-logo-Big">
                <path d="M29.1379208,0.129398058 L39.9852475,7.25502913 L39.9852475,32.8546408 L29.1379208,39.9826019 L19.990396,33.977165 L10.8905941,39.9841553 L0.0371287129,32.854835 L0.0371287129,7.27483495 L10.8888119,0.127067961 L19.990396,6.13269903 L29.1379208,0.129398058 Z M38.2840198,8.08407767 L29.2071881,2.0761165 L20.1303564,8.08407767 L11.0537228,2.0761165 L1.75015842,8.08407767 L1.75015842,31.8928155 L11.0537228,37.9005825 L20.1303564,31.8928155 L29.2071881,37.9005825 L38.2840198,31.8928155 L38.2840198,8.08407767 Z" id="Combined-Shape"></path>
                <path d="M11.0537228,25.8850485 L18.3151089,30.7801942 L11.0537228,35.675534 L11.0537228,25.8850485 Z M29.2071881,16.3168932 L29.2071881,4.30135922 L36.2416436,8.97398058 L36.2416436,30.5576699 L3.56540594,9.19650485 L11.0537228,4.30135922 L29.2071881,16.3168932 Z" id="Fill-14"></path>
            </g>
        </g>
    </g>
</svg>