<?xml version="1.0" encoding="UTF-8"?>
<svg viewBox="0 0 80 80" version="1.1" xmlns="http://www.w3.org/2000/svg" xmlns:xlink="http://www.w3.org/1999/xlink">
    <!-- Generator: Sketch 49.2 (51160) - http://www.bohemiancoding.com/sketch -->
    <title>Nedbank logo/Wordmark - 80px by 145px</title>
    <desc>Created with Sketch.</desc>
    <defs></defs>
    <g id="Nedbank-logo/Wordmark---80px-by-145px" stroke="none" stroke-width="1" fill="none" fill-rule="evenodd">
        <g id="Group-2" transform="translate(14.000000, 13.000000)" fill-rule="nonzero">
            <polygon id="Shape" fill="#FFFFFF" points="37.8533475 0 25.9723698 8.11691023 14.0913921 0 0 9.69519833 0 44.3611691 14.0913921 54 25.9723698 45.8830898 37.8533475 54 52 44.3611691 52 9.6388309"></polygon>
            <path d="M13.4634146,35.255814 L23.195122,42.1162791 L13.4634146,48.9767442 L13.4634146,35.255814 Z M50,10.372093 L37.8211382,2 L25.6422764,10.372093 L13.4634146,2 L1,10.372093 L1,43.627907 L13.4634146,52 L25.6422764,43.627907 L37.8211382,52 L50,43.627907 L50,10.372093 Z M37.8211382,21.8837209 L37.8211382,5.08139535 L47.2682927,11.5930233 L47.2682927,41.7674419 L3.44715447,11.9418605 L13.4634146,5.08139535 L37.8211382,21.8837209 Z" id="Shape" fill="#00643C"></path>
        </g>
    </g>
</svg>