<?xml version="1.0" encoding="UTF-8"?>
<svg width="60px" height="60px" viewBox="0 0 60 60" version="1.1" xmlns="http://www.w3.org/2000/svg" xmlns:xlink="http://www.w3.org/1999/xlink">
    <!-- Generator: Sketch 49.2 (51160) - http://www.bohemiancoding.com/sketch -->
    <title>Nedbank logo/60px</title>
    <desc>Created with Sketch.</desc>
    <defs></defs>
    <g id="Nedbank-logo/60px" stroke="none" stroke-width="1" fill="none" fill-rule="evenodd">
        <g id="Group" transform="translate(14.000000, 14.000000)">
            <polygon id="Path-2" fill="#006341" points="1.42857242 6.53638065 1.42857242 25.3014904 9.08274148 30.2845627 16.0468383 25.7164901 23.0155391 30.2845627 30.4327328 25.3014904 30.4327328 6.53109873 23.0155391 1.60864709 16.0468383 6.08842949 9.08274148 1.60864709"></polygon>
            <g id="Nedbank-logo-new-Copy-10" transform="translate(0.761905, 0.761905)" fill="#FFFFFF">
                <path d="M22.0919206,0.0981076052 L30.3161959,5.5006508 L30.3161959,24.9098802 L22.0919206,30.31419 L15.1564089,25.7609607 L8.25707987,30.3153678 L0.0281504155,24.9100274 L0.0281504155,5.51566727 L8.25572865,0.0963409616 L15.1564089,4.64971749 L22.0919206,0.0981076052 Z M29.0263513,6.12922258 L22.144438,1.5740794 L15.2625247,6.12922258 L8.38076154,1.5740794 L1.32694303,6.12922258 L1.32694303,24.1806392 L8.38076154,28.7356351 L15.2625247,24.1806392 L22.144438,28.7356351 L29.0263513,24.1806392 L29.0263513,6.12922258 Z" id="Combined-Shape"></path>
                <path d="M8.38076154,19.6256432 L13.8862321,23.3370669 L8.38076154,27.0486377 L8.38076154,19.6256432 Z M22.144438,12.3712159 L22.144438,3.26122399 L27.4778533,6.80393319 L27.4778533,23.1683524 L2.70323561,6.97264765 L8.38076154,3.26122399 L22.144438,12.3712159 Z" id="Fill-14"></path>
            </g>
        </g>
    </g>
</svg>