<?xml version="1.0" encoding="UTF-8"?>
<svg  viewBox="0 0 132 18" version="1.1" xmlns="http://www.w3.org/2000/svg" xmlns:xlink="http://www.w3.org/1999/xlink">
    <!-- Generator: Sketch 49.2 (51160) - http://www.bohemiancoding.com/sketch -->
    <title>Page 1</title>
    <desc>Created with Sketch.</desc>
    <defs></defs>
    <g id="Symbols" stroke="none" stroke-width="1" fill="none" fill-rule="evenodd">
        <g id="Page-1" fill="#00643C">
            <path d="M35.3873,9.5058 C35.4233,9.2348 35.5833,8.9828 35.8723,8.9828 C36.1483,8.9828 36.3133,9.2408 36.3503,9.5058 L35.3873,9.5058 Z M37.0273,9.9618 L37.0273,9.8738 C37.0273,9.0938 36.6573,8.4668 35.8313,8.4668 C35.0123,8.4668 34.6063,9.0828 34.6063,9.8668 C34.6063,10.6538 35.0843,11.2218 35.8663,11.2218 C36.3943,11.2218 36.8373,10.9338 37.0113,10.4178 L36.3503,10.3048 C36.2523,10.5128 36.1023,10.6578 35.8663,10.6578 C35.4903,10.6578 35.3673,10.2898 35.3673,9.9618 L37.0273,9.9618 Z M32.0373,6.6678 L32.0373,11.1378 L32.7573,11.1378 L32.7573,9.8588 C32.7573,9.5458 32.7623,9.0578 33.1883,9.0578 C33.5943,9.0578 33.5793,9.4568 33.5793,9.7688 L33.5793,11.1378 L34.2983,11.1378 L34.2983,9.5578 C34.2983,8.9568 34.1033,8.4668 33.4253,8.4668 C33.1683,8.4668 32.9163,8.5568 32.7673,8.7688 L32.7573,8.7688 L32.7573,6.6678 L32.0373,6.6678 Z M31.4603,9.1708 L31.9033,9.1708 L31.9033,8.5488 L31.4603,8.5488 L31.4603,7.6768 L30.7433,7.6768 L30.7433,8.5488 L30.4963,8.5488 L30.4963,9.1708 L30.7433,9.1708 L30.7433,11.1378 L31.4603,11.1378 L31.4603,9.1708 Z M28.4083,9.1708 L28.9863,9.1708 L28.9863,8.5488 L28.4083,8.5488 L28.4083,7.8978 C28.4083,7.6868 28.3723,7.2588 28.6913,7.2588 C28.8003,7.2588 28.8913,7.3028 28.9863,7.3498 L28.9863,6.6908 C28.8763,6.6328 28.7583,6.6068 28.6403,6.6068 C27.9473,6.6068 27.6883,7.1598 27.6883,7.7918 L27.6883,8.5488 L27.4493,8.5488 L27.4493,9.1708 L27.6883,9.1708 L27.6883,11.1378 L28.4083,11.1378 L28.4083,9.1708 Z M26.0243,9.1178 C26.3953,9.1178 26.6213,9.4878 26.6213,9.8488 C26.6213,10.1948 26.3953,10.5698 26.0243,10.5698 C25.6553,10.5698 25.4283,10.1948 25.4283,9.8488 C25.4283,9.4878 25.6553,9.1178 26.0243,9.1178 Z M26.0243,8.4668 C25.2373,8.4668 24.6993,9.0408 24.6993,9.8488 C24.6993,10.6508 25.2323,11.2218 26.0243,11.2218 C26.8163,11.2218 27.3513,10.6508 27.3513,9.8488 C27.3513,9.0408 26.8123,8.4668 26.0243,8.4668 Z M22.2743,8.5488 L21.5553,8.5488 L21.5553,11.1378 L22.2743,11.1378 L22.2743,9.9758 C22.2743,9.5718 22.3243,9.1178 22.8223,9.1178 C22.9303,9.1178 23.0333,9.1518 23.1203,9.2148 L23.2093,8.5298 C23.1173,8.4918 23.0123,8.4668 22.9113,8.4668 C22.6433,8.4668 22.4273,8.5938 22.2833,8.8188 L22.2743,8.8188 L22.2743,8.5488 Z M19.6063,9.5058 C19.6413,9.2348 19.8013,8.9828 20.0903,8.9828 C20.3673,8.9828 20.5313,9.2408 20.5683,9.5058 L19.6063,9.5058 Z M21.2453,9.9618 L21.2453,9.8738 C21.2453,9.0938 20.8763,8.4668 20.0473,8.4668 C19.2303,8.4668 18.8243,9.0828 18.8243,9.8668 C18.8243,10.6538 19.3023,11.2218 20.0833,11.2218 C20.6143,11.2218 21.0563,10.9338 21.2283,10.4178 L20.5683,10.3048 C20.4703,10.5128 20.3203,10.6578 20.0833,10.6578 C19.7083,10.6578 19.5853,10.2898 19.5853,9.9618 L21.2453,9.9618 Z M17.3703,10.5698 C16.9993,10.5698 16.7743,10.1898 16.7743,9.8428 C16.7743,9.4928 16.9993,9.1178 17.3703,9.1178 C17.7413,9.1178 17.9663,9.4928 17.9663,9.8428 C17.9663,10.1898 17.7413,10.5698 17.3703,10.5698 Z M16.1273,11.1378 L16.8463,11.1378 L16.8463,10.8968 L16.8573,10.8968 C16.9993,11.1078 17.2723,11.2218 17.5293,11.2218 C18.2743,11.2218 18.6963,10.5388 18.6963,9.8318 C18.6963,9.1518 18.2593,8.4668 17.5453,8.4668 C17.2783,8.4668 17.0103,8.5868 16.8463,8.7878 L16.8463,6.6678 L16.1273,6.6678 L16.1273,11.1378 Z M12.7503,8.5488 L12.0323,8.5488 L12.0323,11.1378 L12.7503,11.1378 L12.7503,9.8668 C12.7503,9.5938 12.7303,9.0578 13.1303,9.0578 C13.5073,9.0578 13.4753,9.5718 13.4753,9.8248 L13.4753,11.1378 L14.1943,11.1378 L14.1943,9.8668 C14.1943,9.5988 14.1883,9.0578 14.5803,9.0578 C14.9353,9.0578 14.9193,9.5268 14.9193,9.7788 L14.9193,11.1378 L15.6393,11.1378 L15.6393,9.5268 C15.6393,8.9618 15.4793,8.4668 14.8383,8.4668 C14.5433,8.4668 14.2553,8.6198 14.1003,8.8708 C13.9363,8.5988 13.6913,8.4668 13.3783,8.4668 C13.1453,8.4668 12.8993,8.5778 12.7613,8.7808 L12.7503,8.7808 L12.7503,8.5488 Z M10.0823,9.5058 C10.1183,9.2348 10.2793,8.9828 10.5673,8.9828 C10.8443,8.9828 11.0093,9.2408 11.0443,9.5058 L10.0823,9.5058 Z M11.7223,9.9618 L11.7223,9.8738 C11.7223,9.0938 11.3533,8.4668 10.5243,8.4668 C9.7093,8.4668 9.3033,9.0828 9.3033,9.8668 C9.3033,10.6538 9.7803,11.2218 10.5603,11.2218 C11.0913,11.2218 11.5313,10.9338 11.7083,10.4178 L11.0443,10.3048 C10.9473,10.5128 10.7973,10.6578 10.5603,10.6578 C10.1873,10.6578 10.0613,10.2898 10.0613,9.9618 L11.7223,9.9618 Z M8.4333,11.1378 L9.1943,11.1378 L8.6123,7.0608 L8.0693,7.0608 L7.1543,9.6768 L6.1993,7.0608 L5.6623,7.0608 L5.0113,11.1378 L5.7713,11.1378 L6.1153,8.6708 L6.1263,8.6708 L6.9743,11.1918 L7.2373,11.1918 L8.1153,8.6708 L8.1243,8.6708 L8.4333,11.1378 Z M2.2513,9.6688 L1.3303,9.6688 L1.7573,8.2248 L1.7683,8.2248 L2.2513,9.6688 Z M2.4623,10.2988 L2.7603,11.1378 L3.5673,11.1378 L2.0973,7.0608 L1.5113,7.0608 L0.0003,11.1378 L0.7973,11.1378 L1.1153,10.2988 L2.4623,10.2988 Z" id="Fill-1"></path>
            <path d="M59.0963,8.6728 L59.0963,8.6548 C59.0963,6.8708 60.4033,5.3098 62.3243,5.3098 C64.2443,5.3098 65.5333,6.8548 65.5333,8.6378 C65.5433,8.6468 65.5433,8.6468 65.5333,8.6548 C65.5333,10.4408 64.2263,12.0038 62.3063,12.0038 C60.3853,12.0038 59.0963,10.4588 59.0963,8.6728 M64.7943,8.6728 L64.7943,8.6548 C64.7943,7.1868 63.7473,5.9838 62.3063,5.9838 C60.8633,5.9838 59.8363,7.1658 59.8363,8.6378 L59.8363,8.6548 C59.8363,10.1248 60.8803,11.3278 62.3243,11.3278 C63.7663,11.3278 64.7943,10.1458 64.7943,8.6728" id="Fill-3"></path>
            <polyline id="Fill-5" points="66.337 5.4199 67.052 5.4199 67.052 11.2179 70.603 11.2179 70.603 11.8919 66.337 11.8919"></polyline>
            <path d="M71.4425,5.4199 L73.6335,5.4199 C75.6195,5.4199 76.9865,6.8159 76.9865,8.6379 L76.9865,8.6549 C76.9865,10.4779 75.6195,11.8919 73.6335,11.8919 L71.4425,11.8919 L71.4425,5.4199 Z M73.6335,11.2179 C75.2305,11.2179 76.2485,10.1069 76.2485,8.6759 L76.2485,8.6549 C76.2485,7.2239 75.2305,6.0959 73.6335,6.0959 L72.1565,6.0959 L72.1565,11.2179 L73.6335,11.2179 Z" id="Fill-7"></path>
            <polyline id="Fill-9" points="77.8428 5.4199 79.3398 5.4199 80.9988 8.1579 82.6588 5.4199 84.1538 5.4199 84.1538 11.8919 82.7768 11.8919 82.7768 7.6669 80.9988 10.4319 80.9638 10.4319 79.2038 7.6939 79.2038 11.8919 77.8428 11.8919"></polyline>
            <path d="M85.0001,9.1181 L85.0001,5.4201 L86.3881,5.4201 L86.3881,9.0801 C86.3881,10.1361 86.9011,10.6801 87.7501,10.6801 C88.5981,10.6801 89.1121,10.1531 89.1121,9.1281 L89.1121,5.4201 L90.5001,5.4201 L90.5001,9.0711 C90.5001,11.0321 89.4271,11.9941 87.7321,11.9941 C86.0381,11.9941 85.0001,11.0241 85.0001,9.1181" id="Fill-11"></path>
            <polyline id="Fill-13" points="93.1314 6.7324 91.2104 6.7324 91.2104 5.4204 96.4394 5.4204 96.4394 6.7324 94.5184 6.7324 94.5184 11.8914 93.1314 11.8914"></polyline>
            <path d="M97.149,9.1181 L97.149,5.4201 L98.538,5.4201 L98.538,9.0801 C98.538,10.1361 99.051,10.6801 99.901,10.6801 C100.749,10.6801 101.262,10.1531 101.262,9.1281 L101.262,5.4201 L102.649,5.4201 L102.649,9.0711 C102.649,11.0321 101.578,11.9941 99.881,11.9941 C98.188,11.9941 97.149,11.0241 97.149,9.1181" id="Fill-15"></path>
            <path d="M105.2989,5.373 L106.5799,5.373 L109.2839,11.892 L107.8339,11.892 L107.2559,10.439 L104.5869,10.439 L104.0099,11.892 L102.5939,11.892 L105.2989,5.373 Z M106.7599,9.182 L105.9219,7.083 L105.0829,9.182 L106.7599,9.182 Z" id="Fill-17"></path>
            <polyline id="Fill-19" points="109.9132 5.4199 111.3002 5.4199 111.3002 10.5989 114.4482 10.5989 114.4482 11.8919 109.9132 11.8919"></polyline>
            <path d="M130.3189,10.5702 C129.9489,10.5702 129.7219,10.1892 129.7219,9.8412 C129.7219,9.4952 129.9489,9.1202 130.3189,9.1202 C130.6899,9.1202 130.9159,9.4952 130.9159,9.8412 C130.9159,10.1892 130.6899,10.5702 130.3189,10.5702 Z M129.7949,8.5492 L129.0759,8.5492 L129.0759,12.5192 L129.7949,12.5192 L129.7949,10.8962 L129.8059,10.8962 C129.9489,11.1072 130.2229,11.2212 130.4799,11.2212 C131.2229,11.2212 131.6439,10.5372 131.6439,9.8322 C131.6439,9.1512 131.2079,8.4662 130.4949,8.4662 C130.2269,8.4662 129.9579,8.5872 129.7949,8.7882 L129.7949,8.5492 Z M126.3359,8.5492 L126.3359,10.0752 C126.3359,10.8282 126.7159,11.2212 127.4659,11.2212 C128.2179,11.2212 128.5979,10.8282 128.5979,10.0752 L128.5979,8.5492 L127.8789,8.5492 L127.8789,9.9532 C127.8789,10.2492 127.8339,10.6002 127.4659,10.6002 C127.1009,10.6002 127.0559,10.2492 127.0559,9.9532 L127.0559,8.5492 L126.3359,8.5492 Z M124.7119,9.1202 C125.0829,9.1202 125.3089,9.4882 125.3089,9.8472 C125.3089,10.1962 125.0829,10.5702 124.7119,10.5702 C124.3409,10.5702 124.1159,10.1962 124.1159,9.8472 C124.1159,9.4882 124.3409,9.1202 124.7119,9.1202 Z M124.7119,8.4662 C123.9249,8.4662 123.3869,9.0412 123.3869,9.8472 C123.3869,10.6502 123.9219,11.2212 124.7119,11.2212 C125.5049,11.2212 126.0369,10.6502 126.0369,9.8472 C126.0369,9.0412 125.4979,8.4662 124.7119,8.4662 Z M122.4199,8.5492 L121.7029,8.5492 L121.7029,11.1372 L122.4199,11.1372 L122.4199,9.9722 C122.4199,9.5722 122.4719,9.1202 122.9689,9.1202 C123.0779,9.1202 123.1809,9.1512 123.2689,9.2152 L123.3549,8.5302 C123.2619,8.4922 123.1609,8.4662 123.0559,8.4662 C122.7889,8.4662 122.5739,8.5912 122.4299,8.8182 L122.4199,8.8182 L122.4199,8.5492 Z M119.7029,9.0252 L119.7029,9.6582 L120.5239,9.6582 C120.5109,10.1352 120.1129,10.5582 119.6399,10.5582 C118.9099,10.5582 118.5449,9.8252 118.5449,9.1672 C118.5449,8.5092 118.9049,7.7432 119.6359,7.7432 C120.0369,7.7432 120.3669,8.0192 120.5179,8.3782 L121.1869,8.0072 C120.8889,7.4022 120.3129,7.0592 119.6549,7.0592 C118.4989,7.0592 117.7639,8.0342 117.7639,9.1672 C117.7639,10.2632 118.4779,11.2442 119.6109,11.2442 C120.8119,11.2442 121.3719,10.2492 121.3719,9.1252 L121.3719,9.0252 L119.7029,9.0252 Z" id="Fill-21"></path>
            <path d="M43.3619,11.372 C43.1949,11.079 43.2939,10.706 43.5779,10.539 C43.8619,10.372 44.2249,10.471 44.3889,10.762 C44.5519,11.053 44.4549,11.425 44.1709,11.595 C44.0789,11.649 43.9749,11.676 43.8739,11.676 C43.6689,11.676 43.4709,11.567 43.3619,11.372 M45.4089,9.56 C45.1569,9.094 44.1899,9.248 44.5029,9.919 C44.1199,9.698 43.6399,9.685 43.2329,9.924 C42.6189,10.291 42.4079,11.095 42.7619,11.724 C43.1159,12.353 43.9029,12.569 44.5169,12.21 C44.9239,11.967 45.1539,11.533 45.1599,11.084 C45.5679,11.695 46.1819,10.914 45.9139,10.456 C46.1659,10.262 46.6529,9.946 47.1059,9.66 C47.1289,9.32 47.1429,8.991 47.1489,8.644 C46.6069,8.96 45.8029,9.387 45.4089,9.56 M51.8259,11.595 C51.5409,11.425 51.4429,11.053 51.6069,10.762 C51.7709,10.471 52.1339,10.372 52.4179,10.539 C52.7019,10.706 52.8009,11.079 52.6349,11.372 C52.5239,11.567 52.3259,11.676 52.1219,11.676 C52.0209,11.676 51.9179,11.648 51.8259,11.595 M48.8889,9.66 C49.3419,9.946 49.8299,10.262 50.0809,10.456 C49.8129,10.914 50.4279,11.695 50.8359,11.084 C50.8419,11.533 51.0719,11.967 51.4789,12.21 C52.0929,12.569 52.8779,12.353 53.2339,11.724 C53.5879,11.095 53.3789,10.291 52.7639,9.924 C52.3569,9.685 51.8759,9.698 51.4929,9.919 C51.8049,9.248 50.8379,9.094 50.5859,9.56 C50.1939,9.387 49.3889,8.96 48.8459,8.644 C48.8549,8.991 48.8689,9.32 48.8889,9.66 M47.4039,3.733 C47.4039,3.398 47.6669,3.126 47.9989,3.126 C48.3299,3.126 48.5919,3.398 48.5919,3.733 C48.5919,4.07 48.3259,4.345 47.9989,4.345 C47.6689,4.345 47.4039,4.07 47.4039,3.733 M46.7129,3.733 C46.7129,4.217 46.9639,4.64 47.3429,4.867 C46.6199,4.924 46.9729,5.861 47.4949,5.851 C47.5499,6.343 47.5789,7.468 47.5789,8.089 C47.5789,10.389 47.2679,13.203 46.4979,13.963 C45.9459,14.007 45.2909,13.93 44.6089,13.743 C43.8729,13.54 43.2539,13.237 42.7869,12.885 C42.2289,12.963 41.7439,13.115 41.3749,13.314 C42.2149,14.06 43.1559,14.765 44.1929,15.38 C45.4129,16.101 46.7579,16.693 47.9989,17.082 C49.2239,16.693 50.5799,16.101 51.8029,15.38 C52.8399,14.765 53.7819,14.06 54.6229,13.314 C54.2509,13.115 53.7669,12.963 53.2089,12.885 C52.7429,13.237 52.1229,13.54 51.3869,13.743 C50.7059,13.93 50.0489,14.007 49.4969,13.965 C48.7279,13.203 48.4179,10.389 48.4179,8.089 C48.4179,7.47 48.4459,6.343 48.5009,5.851 C49.0209,5.861 49.3759,4.924 48.6549,4.867 C49.0299,4.64 49.2839,4.217 49.2839,3.733 C49.2839,3.008 48.7059,2.417 47.9989,2.417 C47.2889,2.417 46.7129,3.008 46.7129,3.733 M44.1909,1.863 C42.9339,2.606 41.8149,3.464 40.8509,4.393 C40.5469,5.715 40.3889,7.134 40.3869,8.621 C40.3859,9.85 40.5109,11.039 40.7189,12.158 C41.0739,11.932 41.4439,11.575 41.7879,11.118 C41.7259,10.525 41.7799,9.826 41.9759,9.071 C42.1589,8.371 42.4209,7.751 42.7329,7.284 C43.5759,7.035 45.4369,7.741 47.1489,8.643 C47.1529,8.453 47.1549,8.274 47.1549,8.088 C47.1549,7.935 47.1529,7.751 47.1489,7.55 C45.7069,6.548 44.4249,5.411 44.2319,4.618 C44.4739,4.106 44.8649,3.562 45.3659,3.051 C45.9029,2.499 46.4679,2.101 46.9999,1.861 C47.2129,1.327 47.3289,0.819 47.3429,0.393 C46.2939,0.765 45.2259,1.249 44.1909,1.863 M48.9959,1.861 C49.5269,2.101 50.0919,2.499 50.6309,3.051 C51.1299,3.562 51.5249,4.106 51.7629,4.618 C51.5709,5.411 50.2899,6.548 48.8459,7.55 C48.8439,7.751 48.8419,7.935 48.8419,8.088 C48.8419,8.274 48.8439,8.453 48.8459,8.643 C50.5589,7.741 52.4179,7.035 53.2619,7.284 C53.5739,7.751 53.8389,8.371 54.0209,9.071 C54.2159,9.826 54.2709,10.525 54.2079,11.118 C54.5509,11.575 54.9209,11.932 55.2779,12.158 C55.4859,11.039 55.6109,9.85 55.6099,8.621 C55.6089,7.134 55.4479,5.715 55.1459,4.393 C54.1809,3.464 53.0609,2.606 51.8049,1.863 C50.7679,1.249 49.7019,0.765 48.6529,0.393 C48.6679,0.819 48.7829,1.327 48.9959,1.861" id="Fill-23"></path>
        </g>
    </g>
</svg>