<?xml version="1.0" encoding="UTF-8"?>
<svg width="16px" height="18px" viewBox="0 0 16 18" version="1.1" xmlns="http://www.w3.org/2000/svg" xmlns:xlink="http://www.w3.org/1999/xlink">
    <!-- Generator: Sketch 49.2 (51160) - http://www.bohemiancoding.com/sketch -->
    <title>Fill 23</title>
    <desc>Created with Sketch.</desc>
    <defs></defs>
    <g id="Symbols" stroke="none" stroke-width="1" fill="none" fill-rule="evenodd">
        <g id="Page-1" transform="translate(-40.000000, 0.000000)" fill="#00643C">
            <path d="M43.3619,11.372 C43.1949,11.079 43.2939,10.706 43.5779,10.539 C43.8619,10.372 44.2249,10.471 44.3889,10.762 C44.5519,11.053 44.4549,11.425 44.1709,11.595 C44.0789,11.649 43.9749,11.676 43.8739,11.676 C43.6689,11.676 43.4709,11.567 43.3619,11.372 M45.4089,9.56 C45.1569,9.094 44.1899,9.248 44.5029,9.919 C44.1199,9.698 43.6399,9.685 43.2329,9.924 C42.6189,10.291 42.4079,11.095 42.7619,11.724 C43.1159,12.353 43.9029,12.569 44.5169,12.21 C44.9239,11.967 45.1539,11.533 45.1599,11.084 C45.5679,11.695 46.1819,10.914 45.9139,10.456 C46.1659,10.262 46.6529,9.946 47.1059,9.66 C47.1289,9.32 47.1429,8.991 47.1489,8.644 C46.6069,8.96 45.8029,9.387 45.4089,9.56 M51.8259,11.595 C51.5409,11.425 51.4429,11.053 51.6069,10.762 C51.7709,10.471 52.1339,10.372 52.4179,10.539 C52.7019,10.706 52.8009,11.079 52.6349,11.372 C52.5239,11.567 52.3259,11.676 52.1219,11.676 C52.0209,11.676 51.9179,11.648 51.8259,11.595 M48.8889,9.66 C49.3419,9.946 49.8299,10.262 50.0809,10.456 C49.8129,10.914 50.4279,11.695 50.8359,11.084 C50.8419,11.533 51.0719,11.967 51.4789,12.21 C52.0929,12.569 52.8779,12.353 53.2339,11.724 C53.5879,11.095 53.3789,10.291 52.7639,9.924 C52.3569,9.685 51.8759,9.698 51.4929,9.919 C51.8049,9.248 50.8379,9.094 50.5859,9.56 C50.1939,9.387 49.3889,8.96 48.8459,8.644 C48.8549,8.991 48.8689,9.32 48.8889,9.66 M47.4039,3.733 C47.4039,3.398 47.6669,3.126 47.9989,3.126 C48.3299,3.126 48.5919,3.398 48.5919,3.733 C48.5919,4.07 48.3259,4.345 47.9989,4.345 C47.6689,4.345 47.4039,4.07 47.4039,3.733 M46.7129,3.733 C46.7129,4.217 46.9639,4.64 47.3429,4.867 C46.6199,4.924 46.9729,5.861 47.4949,5.851 C47.5499,6.343 47.5789,7.468 47.5789,8.089 C47.5789,10.389 47.2679,13.203 46.4979,13.963 C45.9459,14.007 45.2909,13.93 44.6089,13.743 C43.8729,13.54 43.2539,13.237 42.7869,12.885 C42.2289,12.963 41.7439,13.115 41.3749,13.314 C42.2149,14.06 43.1559,14.765 44.1929,15.38 C45.4129,16.101 46.7579,16.693 47.9989,17.082 C49.2239,16.693 50.5799,16.101 51.8029,15.38 C52.8399,14.765 53.7819,14.06 54.6229,13.314 C54.2509,13.115 53.7669,12.963 53.2089,12.885 C52.7429,13.237 52.1229,13.54 51.3869,13.743 C50.7059,13.93 50.0489,14.007 49.4969,13.965 C48.7279,13.203 48.4179,10.389 48.4179,8.089 C48.4179,7.47 48.4459,6.343 48.5009,5.851 C49.0209,5.861 49.3759,4.924 48.6549,4.867 C49.0299,4.64 49.2839,4.217 49.2839,3.733 C49.2839,3.008 48.7059,2.417 47.9989,2.417 C47.2889,2.417 46.7129,3.008 46.7129,3.733 M44.1909,1.863 C42.9339,2.606 41.8149,3.464 40.8509,4.393 C40.5469,5.715 40.3889,7.134 40.3869,8.621 C40.3859,9.85 40.5109,11.039 40.7189,12.158 C41.0739,11.932 41.4439,11.575 41.7879,11.118 C41.7259,10.525 41.7799,9.826 41.9759,9.071 C42.1589,8.371 42.4209,7.751 42.7329,7.284 C43.5759,7.035 45.4369,7.741 47.1489,8.643 C47.1529,8.453 47.1549,8.274 47.1549,8.088 C47.1549,7.935 47.1529,7.751 47.1489,7.55 C45.7069,6.548 44.4249,5.411 44.2319,4.618 C44.4739,4.106 44.8649,3.562 45.3659,3.051 C45.9029,2.499 46.4679,2.101 46.9999,1.861 C47.2129,1.327 47.3289,0.819 47.3429,0.393 C46.2939,0.765 45.2259,1.249 44.1909,1.863 M48.9959,1.861 C49.5269,2.101 50.0919,2.499 50.6309,3.051 C51.1299,3.562 51.5249,4.106 51.7629,4.618 C51.5709,5.411 50.2899,6.548 48.8459,7.55 C48.8439,7.751 48.8419,7.935 48.8419,8.088 C48.8419,8.274 48.8439,8.453 48.8459,8.643 C50.5589,7.741 52.4179,7.035 53.2619,7.284 C53.5739,7.751 53.8389,8.371 54.0209,9.071 C54.2159,9.826 54.2709,10.525 54.2079,11.118 C54.5509,11.575 54.9209,11.932 55.2779,12.158 C55.4859,11.039 55.6109,9.85 55.6099,8.621 C55.6089,7.134 55.4479,5.715 55.1459,4.393 C54.1809,3.464 53.0609,2.606 51.8049,1.863 C50.7679,1.249 49.7019,0.765 48.6529,0.393 C48.6679,0.819 48.7829,1.327 48.9959,1.861" id="Fill-23"></path>
        </g>
    </g>
</svg>